<?xml version="1.0" encoding="utf-8"?><!DOCTYPE svg  PUBLIC '-//W3C//DTD SVG 1.1//EN'  'http://www.w3.org/Graphics/SVG/1.1/DTD/svg11.dtd'><svg enable_background="new 0 0 1000 880" height="880px" pretty_print="False" style="stroke-linejoin: round; stroke:#000; fill: none;" version="1.1" viewBox="0 0 1000 880" width="1000px" xmlns="http://www.w3.org/2000/svg" xmlns:xlink="http://www.w3.org/1999/xlink"><defs><style type="text/css"><![CDATA[path { fill-rule: evenodd; }]]></style></defs><metadata><views><view h="880.412682668" padding="0" w="1000"><proj flip="auto" id="robinson" lon0="14.449724128"/><bbox h="71.67" w="81.5" x="156.79" y="-869.09"/></view></views></metadata><g class="" id="vrstva1"><path d="M152.283916,56.070486L239.871178,178.932893L285.296906,218.313030L302.051205,230.433595L307.714340,242.460072L307.691626,258.798977L304.101978,265.027097L306.837284,278.525546L299.794579,282.680071L288.315257,282.680071L278.891153,287.873993L283.988766,300.342890L282.845168,306.579186L290.729608,312.816718L297.379662,313.856427L307.313830,314.896170L312.741835,321.135352L318.171501,327.375774L328.026843,327.375774L334.174782,322.175336L340.346020,327.375774L344.791436,331.536746L349.407430,337.779241L354.109530,345.063726L356.999323,350.267971L359.067530,355.473085L364.424987,360.679069L369.783875,365.885923L380.420697,375.260462L383.882147,377.344078L391.629183,381.511729L395.829218,382.553730L403.407189,384.637836L408.344951,384.637836L413.368992,385.679942L422.508487,386.722082L428.269635,386.722082L432.384741,386.722082L441.001326,381.511729L444.205301,380.469764L457.841313,376.302252L463.688630,377.344078L468.215742,391.933314L477.949160,409.658084L484.803885,412.787043L499.542984,411.744021L513.743640,404.443858L523.875217,406.138384L547.244484,406.138384L562.606449,407.572287L570.339106,405.356284L574.317851,400.273113L568.047508,389.848716L567.624257,371.093651L572.351088,350.267971L580.739777,342.982271L561.998264,326.335618L551.865471,323.215355L543.550667,312.816718L547.919185,306.579186L539.342410,302.421518L534.141942,299.303627L528.480721,290.990756L524.368903,281.641389L521.920248,278.011474L526.431599,268.473310L534.011327,268.912108 " data-code="Labe" data-name="Labe"/><path d="M354.310404,349.257306L344.698848,351.876605L335.549670,353.841224L328.625678,357.770834L330.756116,364.976406L335.736927,375.460223L341.851261,380.703461L344.132562,383.325412L346.730292,389.881263L351.759739,394.471186L353.059211,397.750120L350.627496,399.717648L347.684472,408.245053L348.727207,414.806203L349.355908,422.683416L348.069235,439.096483L349.213202,446.977735L352.638933,450.919072L355.027341,454.860876L357.886007,471.290011L359.963623,484.438924L362.456981,489.699847L365.314673,492.988311L369.679986,495.619295L373.110496,499.566123L374.982078,503.513369L373.109693,512.725213L369.156640,515.357576L363.955998,515.357576L358.235292,515.357576L353.863046,519.306455L353.856204,525.888802L357.857496,530.497093L360.664715,533.130638L363.157427,538.398240L364.455295,541.690834L366.479292,547.618158L369.342939,559.181230L364.040926,563.093006L358.887368,569.055454L366.271255,572.568916L370.830286,589.775059L373.312281,597.791865L373.316913,608.913308L374.868965,615.508835L375.644957,618.806911L375.252883,622.187653L373.748611,623.836874L373.831747,627.465335L370.950207,629.032246L368.192508,633.073432L362.789584,634.970417L359.215144,642.888955L358.350200,652.128621L354.097730,658.069163L358.232600,671.272413L361.695451,682.497301L361.471603,686.459474L359.055355,689.101049L351.632509,687.780249L344.111339,685.138724L334.548649,683.157647L319.332309,682.497301L315.573526,681.176628L308.531028,677.875058L303.532656,673.913391L293.527298,658.729260L291.048198,653.448691L288.666710,649.488569L285.240866,645.528711L281.293373,641.569122L276.302216,637.609807L270.219463,632.990956L255.922469,623.094718L249.418841,619.796375L245.951631,615.179039L246.329455,613.200305L245.471545,608.583554 " data-code="Vltava" data-name="Vltava"/><path d="M348.190783,416.202617L337.153532,420.796462L328.600509,430.642694L310.503044,431.299219L299.671727,425.390986L295.524189,425.390986L292.048051,427.360274L281.565621,432.612309L273.772993,439.178570L270.494380,443.775747L267.682974,447.716700L263.982804,453.629012L262.156876,456.914083L257.365299,462.170863L250.765781,464.142366L248.070915,462.828018L240.556093,459.542371L235.365476,459.542371L230.420802,462.828018L227.404269,464.142366L224.289401,464.142366L218.578809,464.142366L217.491652,463.485186L215.885415,462.828018L212.202807,462.170863L207.190080,457.571136L204.173166,458.885280L201.252997,461.513721L198.944179,463.501237L195.203344,465.984741 " data-code="Berounka" data-name="Berounka"/><path d="M351.240109,439.835270L366.650188,444.432540L372.619922,447.716700L383.515723,447.716700L396.686712,443.775747L407.778935,439.835270L416.543216,439.178570L425.468796,440.491983L433.984550,443.118968L435.919341,447.716700L438.016398,454.286001L450.440995,460.199475L465.930538,465.456764L474.893344,473.344205L484.734320,479.260956L502.040602,481.233426L520.721361,487.151492L527.289901,491.097408L541.767199,496.359293L556.768990,501.621928L566.351169,504.253524L579.980973,505.569391L586.739533,505.569391L590.321877,504.911451L595.406636,503.595608L596.852085,502.279810L597.257753,500.964058L596.623780,499.648353L596.046915,498.990518 " data-code="Sázava" data-name="Sázava"/><path d="M358.547379,568.798182L348.607639,558.898819L341.761554,544.407420L339.996583,541.773152L336.048317,537.822064L332.151546,534.529779L326.593135,529.921027L323.001424,530.579388L319.141397,534.529779L318.402893,538.480552L317.865092,545.066013L317.125381,549.017786L314.923243,554.287389L311.578101,558.240013L296.399998,564.169621L285.361693,562.851862L269.017434,560.216460L263.710967,558.898819L253.522686,554.946134L247.224860,554.287389L241.641946,556.263656L237.196536,559.557635L233.743534,562.192997L225.272338,567.464191L214.430574,576.031200L215.854142,581.304002L217.799069,586.577398L215.098950,592.510668L209.410586,593.169966L202.348343,589.214316L201.067494,593.169966L198.503978,601.082228L198.551040,601.741640 " data-code="Otava" data-name="Otava"/><path d="M369.389877,558.240013L371.946112,554.287389L373.797557,551.323157L375.132678,541.773152L377.294236,539.468305L381.251039,536.834350L391.581824,532.554536L399.855489,531.896142L402.900602,534.200565L407.146831,545.066013L410.612763,555.934272L410.093182,562.522428L409.494324,564.828516L408.660648,570.759003L409.155362,573.724539L409.102858,576.360732L409.154145,580.315306L410.482394,583.940626L411.732805,586.577398L413.765369,589.214316L415.537456,591.851380L419.290156,599.763429L422.234057,610.644552L424.448454,618.889366L425.751770,622.187653L427.890091,626.145867L433.813274,631.753829L443.026988,642.641484L452.209920,652.881277 " data-code="Luznice" data-name="Luznice"/><path d="M742.522168,375.542142L744.177692,382.096345L743.367879,389.963220L738.054283,405.047000L737.456016,420.796462L738.101268,433.268875L753.543409,443.118968L755.713625,449.687354L755.350057,456.914083L758.251583,460.199475L763.414046,465.456764L780.740564,478.603490L793.700661,483.863557L806.021259,487.809115L809.301262,495.043752L815.342554,509.517265L818.845722,524.654528L822.532292,541.773152L827.834441,548.359132L842.697621,556.922432L845.549505,559.557635L849.939363,567.464191L852.766783,575.372142L853.571072,583.940626L854.839453,603.060491L850.299349,610.314787L847.475570,613.612535L842.624658,617.570108L837.894127,622.847335L833.622538,627.465335L824.892365,634.722981L815.051976,641.321657L810.933861,641.981567L806.413358,643.961341L802.474480,646.601146L800.102036,649.241070L787.411549,659.141823L785.499364,661.122167L782.492987,668.383966L780.697861,671.685059L778.961207,675.646591L778.269685,679.608362L772.470349,691.579958L773.545993,699.274629L775.065776,725.704750L808.594682,878.412683 " data-code="Morava" data-name="Morava"/><path d="M569.149580,375.542142L574.037048,375.214468L578.953527,375.214468L587.609564,376.525184L594.572011,379.146782L599.811814,382.751841L605.599754,386.685112L613.401323,389.963220L625.753967,394.881034L633.670392,396.520479L643.400482,398.160012L653.509937,401.111390L656.876933,401.111390L661.160253,399.799631L670.513837,400.127565L680.885705,403.079132L686.445828,404.391030L687.589956,402.751166L687.956889,401.111390 " data-code="Orlice" data-name="Orlice"/><path d="M843.698443,485.178695L846.957158,481.233426L850.151464,476.631166L857.700773,468.742979L869.588505,462.828018L877.239752,466.771212L878.405974,468.085711L881.193930,470.057553L896.369292,481.890941L908.633938,490.439726L915.392696,485.178695L930.329299,478.603490L939.934622,470.714858L946.680501,465.456764L948.363705,461.513721L950.433651,456.257043L953.276408,448.373571L958.002657,443.775747L966.225009,437.865210L971.331691,431.955757L972.191999,422.508138L942.245579,388.165348L929.459360,344.317624L879.285751,260.960880L705.744336,0.000000 " data-code="Odra" data-name="Odra"/><path d="M992.153085,530.579388L996.118568,528.604338L999.431439,525.312803L998.061649,522.021540L992.656019,514.781731L985.033612,500.964058L975.649504,479.918434L970.231886,462.170863L967.560725,456.257043L964.360397,445.089345L963.642984,443.118968L962.859337,440.491983 " data-code="Ostravice" data-name="Ostravice"/><path d="M771.411674,692.155495L769.484018,682.249673L763.889254,666.403393L755.748777,657.161543L743.725377,651.221090L732.750731,645.281229L727.002238,639.341974L717.485396,638.022223L713.365629,638.682094L708.374960,641.321657L704.370129,643.301409L700.364690,645.281229L697.345808,646.601146L694.499211,649.901069L696.588955,649.901069L693.449020,655.841392L691.237782,660.462046L687.865618,663.762724L683.912665,666.403393L678.162714,666.403393L669.333206,667.063577L666.083372,665.743215L658.142897,658.481723L645.856213,649.241070L629.919583,640.001861L626.375981,641.321657L622.533721,645.281229L613.521638,649.901069L608.986593,651.881111L597.816645,643.301409L588.439525,637.362359L576.866711,630.104369L571.233740,631.423933L568.787994,633.403338L564.775300,635.382814L560.707285,636.702503L554.495392,637.362359L544.301409,634.063155L535.045226,629.444598L532.272286,627.465335 " data-code="Dyje" data-name="Dyje"/><path d="M713.771710,637.362359L708.432849,624.166724L704.256341,618.229733L703.038330,616.250884L694.573127,608.995747L687.212063,602.401061L682.286377,599.763429L679.620814,599.104043L675.854590,597.785297L670.060243,597.125937L655.922126,596.466587L639.878448,591.851380L621.935411,583.281456L612.339162,574.713094L594.819942,564.828516L584.809894,563.510736L580.586555,562.851862L573.832825,556.922432L567.731472,546.383230L561.037925,541.114611L545.332371,533.871354L539.497230,532.554536L535.389575,533.212939L532.488182,535.846661L530.216846,539.797561L529.506290,543.748838L529.590817,550.993811L528.522922,556.922432L525.836407,562.192997L523.505372,565.487420L517.059983,569.441049L515.030320,570.100021L515.084750,570.759003 " data-code="Jihlava" data-name="Jihlava"/><path d="M715.628004,634.722981L715.626407,628.784836L717.539836,626.805597L721.190406,620.868314L723.970816,616.910492L721.532259,612.952969L717.528862,608.995747L714.974171,603.719929L713.925873,597.785297L714.271690,595.807245L714.500146,592.510668L713.796202,584.599805L708.980777,577.349344L704.577059,574.713094L700.636490,571.417994L695.133566,568.123134L691.194473,564.828516L684.534940,560.216460L681.755759,558.240013L679.035128,556.922432L677.123276,552.969927L674.516153,547.041853L671.851044,540.456081L668.549194,532.554536L667.041908,527.287691L663.682230,518.730552L658.698849,503.595608L651.474168,498.332694L648.180742,496.359293L643.440550,489.782055L637.317704,485.178695L630.676899,480.575924L625.943936,479.918434L619.191360,479.918434L612.207962,477.288595L607.418288,475.973749L605.860214,475.973749 " data-code="Svratka" data-name="Svratka"/><path d="M713.385134,579.985745L716.444999,573.395025L719.335658,570.759003L718.734463,558.240013L711.539862,547.700487L711.303423,545.066013L712.391720,539.797561L709.243639,527.946009L703.539956,510.833314L699.425524,505.569391L689.804143,491.097408L684.001321,478.603490L680.395535,467.428455L679.163173,459.542371L676.908619,457.571136L676.330155,456.914083 " data-code="Svitava" data-name="Svitava"/><path d="M952.038895,445.089345L945.871364,440.491983L936.462060,434.582046L922.716528,431.955757L906.641114,431.955757L902.167660,428.673201L890.177032,417.515074L876.832549,403.079132L871.781965,399.143773L863.300889,397.176282L854.167516,404.391030L841.791285,410.295262L832.145849,407.014993L825.419825,401.767290L811.592316,387.340706L805.590207,378.819070L804.364614,376.852872 " data-code="Opava" data-name="Opava"/><path d="M396.553711,383.407352L399.529086,375.542142L400.594477,369.644544L400.840945,366.368584L403.673634,363.092971L408.111607,360.472728L410.942446,357.197735L413.851977,348.684364L415.207581,340.173316L416.912537,329.701360L418.909580,316.616335L422.248064,313.345931L426.046387,309.421894L429.438250,306.806142L436.791590,302.229098L451.198589,295.691616L462.671987,291.116183L467.145632,289.155487L473.279911,288.501948L478.819812,289.022300L482.917108,286.131868L481.333169,280.515001L481.031559,274.255902L478.648313,268.982722L472.097828,268.334333L471.291538,264.825143L468.493612,261.437031L467.829924,258.787561L467.213080,256.924236L466.053207,252.022992 " data-code="Jizera" data-name="Jizera"/><path d="M196.328149,465.128160L198.369406,471.700840L202.862612,476.302456L208.298783,479.589693L214.920747,484.849906L221.608649,498.003787L228.965310,513.136508L224.382093,514.452681L219.278359,515.768899L216.351074,518.401468L212.671654,524.983664L211.447439,529.591851L212.872493,534.858996L213.825058,540.785345L211.509976,544.736715L203.796606,546.053922L201.761828,546.712540L201.241205,546.712540 " data-code="Úslava" data-name="Úslava"/><path d="M195.012263,468.414344L195.784418,478.932221L196.737629,484.849906L195.044392,490.110889L192.638375,492.741666L188.720557,496.030404L183.485152,509.846273L176.964184,520.376011L173.795666,526.958536L170.716162,542.102427L168.395074,546.053922L164.037147,550.664467L158.720517,563.840178L158.432123,567.134723 " data-code="Úhlava" data-name="Úhlava"/><path d="M195.060565,469.071618L192.560867,470.386204L186.570143,473.672887L182.751216,478.274762L177.987241,484.192337L166.890436,488.795571L160.088481,488.137931L150.924433,490.768565L137.641940,501.292992L134.181397,511.162333L129.074239,512.478439L123.446551,513.794589L110.017428,515.110784L109.481682,522.350654L112.158299,530.908573L114.314749,539.468305L107.502711,538.809800L106.461747,538.809800 " data-code="Radbuza" data-name="Radbuza"/><path d="M194.348133,466.442596L185.425736,465.128160L179.195787,465.128160L170.650169,461.842291L164.701527,458.556739L161.587264,458.556739L152.526234,455.271507L146.251089,454.614500L141.391733,459.213824L137.521671,463.156600L133.084160,466.442596L129.024293,467.757082L114.959137,467.099832L111.185500,465.128160L105.669592,460.528032L95.391779,454.614500L91.666787,453.300523L80.524832,457.242608L73.823217,457.899667L61.230351,455.928528L50.850425,455.928528L49.902648,457.242608 " data-code="Mze" data-name="Mze"/><path d="M919.287781,521.034215L916.982833,518.730552L909.709441,513.465547L896.358176,509.846273L889.142236,510.504297L884.494173,510.833314L882.547365,509.517265L876.827807,509.517265L868.146244,511.162333L857.840736,512.149408L850.936598,516.097960L844.487926,519.388727L842.074383,521.363320L837.610716,523.667137L829.671519,524.983664L827.361450,525.312803L825.633511,526.300235L822.009796,529.262677L820.603282,530.908573L820.343111,530.908573 " data-code="Becva" data-name="Becva"/><path d="M0.568561,395.263478L4.601882,395.895063L11.585061,395.895063L18.519357,397.000366L27.745087,399.440056L33.904458,392.263629L40.838807,393.368803L48.032225,392.816211L51.977548,389.500868L58.306844,386.422654L64.566707,383.265829L72.486842,378.057772L82.457027,377.189847L94.522395,376.006353L98.022805,372.692810L102.949203,369.300739L108.679547,368.433060L121.117618,365.593551L125.057698,364.962584L130.492312,364.331630L134.385743,363.069761L138.730625,361.177053L142.623173,359.915311L150.323209,360.467317L160.704955,360.230742L165.969767,358.180500L172.941665,355.657312L177.579170,352.740129L183.401402,352.345936L190.641548,355.893852L194.465319,353.765054L205.524695,348.561938L208.914240,347.300708L215.507990,348.877254L219.184996,352.188261L229.378192,347.931317L234.959914,345.251317L239.591122,344.778399L247.361389,342.256295L253.685898,340.364850L259.758261,341.625801L263.243109,341.625801L268.023461,339.103950L273.897641,337.843102L284.593078,336.188315L289.726166,336.582304L292.612432,335.321557L299.228549,330.909342L303.992341,329.806385L304.143972,326.261430L302.118763,322.716876L301.332913,320.669094L302.258884,315.156499L301.754202,314.290322 " data-code="Ohre" data-name="Ohre"/></g></svg>