<?xml version="1.0" encoding="utf-8"?><!DOCTYPE svg  PUBLIC '-//W3C//DTD SVG 1.1//EN'  'http://www.w3.org/Graphics/SVG/1.1/DTD/svg11.dtd'><svg enable_background="new 0 0 1000 465" height="465px" pretty_print="False" style="stroke-linejoin: round; stroke:#000; fill: none;" version="1.1" viewBox="0 0 1000 465" width="1000px" xmlns="http://www.w3.org/2000/svg" xmlns:xlink="http://www.w3.org/1999/xlink"><defs><style type="text/css"><![CDATA[path { fill-rule: evenodd; }]]></style></defs><metadata><views><view h="465.966758731" padding="0" w="1000"><proj flip="auto" id="robinson" lon0="15.5282862939"/><bbox h="40.96" w="88.1" x="155.16" y="-852.3"/></view></views></metadata><g class="" id="hranicetest"><path d="M349.099218,463.966759L353.602080,461.115091L355.026096,457.175480L358.246443,459.099596L359.083194,454.084832L365.454640,453.700457L367.689736,449.998401L366.408230,444.630437L369.676230,443.858856L369.802292,443.977699L371.639692,445.673319L374.270561,448.135682L374.239623,448.294458L374.163366,448.502844L374.247204,448.845457L375.153220,449.380982L375.244495,449.497106L375.316238,449.606188L375.966768,449.724154L376.166011,449.654221L376.497622,449.449872L377.035819,449.300908L377.643378,449.385322L380.479450,450.404629L381.447606,450.762446L382.803899,451.269832L383.383965,451.477884L383.576536,451.541166L383.768362,451.598695L383.959108,451.647881L384.148317,451.685212L384.335382,451.705994L384.519498,451.704035L384.700513,451.674206L384.878571,451.621561L385.054482,451.552353L385.228861,451.471308L385.402164,451.381947L385.574730,451.286861L385.918562,451.086485L386.261585,450.879526L389.180412,449.093101L389.523734,448.888340L389.694908,448.791043L389.865498,448.699784L390.035204,448.617608L390.203614,448.548766L390.370153,448.499125L390.534043,448.476682L390.694233,448.492214L390.847792,448.553653L390.997655,448.653031L391.144796,448.780352L391.289960,448.927985L391.433707,449.090173L391.576455,449.262630L391.718512,449.442202L392.001378,449.814182L393.298653,451.574926L396.245727,450.898059L397.958946,452.164397L399.492125,455.804279L405.323023,455.479358L407.463713,452.162274L407.039464,445.130833L405.650155,442.667816L406.974784,437.964994L408.513066,434.166902L414.541404,431.667523L418.401791,427.716282L417.459927,425.106089L419.102772,422.938917L418.250432,419.620749L428.447370,418.993926L429.703853,420.573730L440.666235,423.255179L443.298659,420.781732L443.411299,418.867997L439.427563,416.851039L440.928453,408.169969L442.507795,407.124541L441.094213,402.155856L442.989816,401.132471L443.602829,396.781008L441.422826,391.632284L440.344275,384.497348L443.125025,380.126107L442.581750,376.790852L447.406922,375.651348L452.519436,375.764449L453.044159,379.516724L466.076076,379.570451L468.326178,384.527749L468.409114,387.851510L470.753974,388.535946L476.117326,385.788362L482.014599,386.756292L483.876476,384.410386L484.268527,379.359077L488.031753,382.216590L496.509048,381.994600L505.501322,388.216353L512.445337,387.824642L512.707440,389.493322L516.806187,390.106364L518.582513,395.057637L535.199574,397.720152L541.123335,400.582242L545.748935,404.756490L556.211486,405.648387L558.673008,402.152320L562.638375,401.945803L569.200283,404.033811L569.270988,404.229903L569.355660,404.406045L569.459268,404.555140L569.589746,404.674405L569.740115,404.765244L569.905049,404.835262L570.080489,404.890246L570.263384,404.934545L570.451470,404.971386L570.837040,405.031510L572.015979,405.182509L572.408097,405.239664L572.797524,405.310283L572.990636,405.354313L573.182200,405.407153L573.371703,405.471965L573.560290,405.552017L573.746840,405.644159L573.931923,405.745113L574.299307,405.964154L574.846785,406.314654L575.390725,406.676392L575.748559,406.922824L575.924387,407.048647L576.096850,407.177159L576.264504,407.309423L576.425404,407.446859L576.576963,407.591329L576.715791,407.745232L576.837504,407.911610L576.932041,408.077901L577.169811,408.590225L577.255397,408.741808L577.355340,408.870305L577.481481,408.973160L577.626105,409.048501L577.784585,409.103342L577.953322,409.143101L578.129550,409.171920L578.311169,409.192932L578.496587,409.208506L579.637276,409.267624L579.826272,409.282128L580.013276,409.301585L580.197366,409.328214L580.377340,409.364956L580.551619,409.415701L580.718143,409.485553L580.874239,409.581148L581.021366,409.711366L581.157850,409.867950L581.286834,410.043205L581.410862,410.230957L581.773423,410.821258L581.897269,411.012925L582.025973,411.194613L582.162075,411.360856L582.308709,411.504967L582.467511,411.621069L582.636990,411.714663L582.814329,411.791688L582.997374,411.856690L583.184500,411.913112L583.566472,412.009824L583.953989,412.095236L585.118822,412.338596L587.967583,414.823714L587.843951,416.650833L594.290207,419.697156L595.656937,422.154284L597.637521,422.056648L602.099115,425.204438L603.669092,423.212728L607.614052,424.506801L607.203353,426.640067L609.403679,427.374523L618.350178,426.946443L618.244138,425.486749L621.166116,425.307740L625.764035,425.787459L627.310673,428.206635L634.742237,427.860628L634.567278,426.048547L644.250908,425.940291L649.291497,427.796238L655.826756,424.382274L658.241603,418.683441L661.631979,416.556036L663.247395,415.688109L669.287173,415.182912L673.121579,413.013289L675.853339,414.750678L675.791345,417.627110L680.117737,419.966706L689.039727,419.593157L692.374849,421.977407L694.130182,428.773412L699.185192,427.141025L703.124335,428.066534L707.618847,432.098467L711.272316,432.641929L720.785898,432.612208L723.074580,429.694700L723.983995,430.014876L724.114094,430.181347L724.258831,430.341700L724.413897,430.497745L724.576110,430.650819L724.743155,430.801892L725.085582,431.100610L726.650133,432.435692L728.372868,433.926140L728.891273,434.642773L729.028699,436.426061L728.601797,437.424367L729.745937,439.510554L730.356823,440.101785L730.243845,440.616826L730.387788,443.118146L730.414087,443.461875L730.435594,443.632072L730.450789,443.716285L730.470582,443.801715L730.493924,443.886438L730.547765,444.054455L730.648719,444.331695L730.894102,444.968537L731.202506,446.004510L731.028891,447.318399L730.981250,447.732449L730.970009,447.867425L730.963055,447.999593L730.962245,448.127734L730.970093,448.250201L730.989960,448.364793L731.026289,448.468597L731.084277,448.561291L731.159419,448.642745L731.246994,448.716051L731.343454,448.783535L731.446164,448.846925L731.553190,448.907486L731.888037,449.080150L732.839284,449.546813L733.706355,449.979793L734.041307,449.609767L735.476148,448.044069L735.876115,447.591228L736.004812,447.436901L736.129378,447.279553L736.248127,447.117950L736.358809,446.950445L736.458461,446.774871L736.543227,446.588405L736.612527,446.380117L736.666116,446.160335L736.708417,445.932298L736.742720,445.698412L736.771435,445.460445L736.818589,444.977015L736.858621,444.488413L737.007003,442.525687L737.049767,442.038871L737.074418,441.797651L737.102663,441.558829L737.136086,441.323456L737.176847,441.092965L737.227848,440.869285L737.292927,440.654966L737.375466,440.451505L737.472143,440.257444L737.579080,440.070207L737.693348,439.887849L737.812768,439.708922L737.935740,439.532365L738.188053,439.183516L739.346898,437.629835L739.601993,437.282804L739.852240,436.932015L739.973961,436.753956L740.092038,436.573035L740.204960,436.388055L740.310691,436.197409L740.406538,435.998970L740.487290,435.799171L740.558797,435.592083L740.623491,435.379625L740.683233,435.163268L740.739435,434.944125L740.845183,434.500606L741.097226,433.381976L741.201332,432.936781L741.313286,432.497161L741.374426,432.281010L741.440783,432.068552L741.514206,431.861092L741.599451,431.652131L741.692210,431.448482L741.790426,431.248694L741.892543,431.051666L742.104140,430.662825L742.430286,430.085776L744.181570,427.016703L744.943411,425.670161L745.919247,423.934455L746.138297,423.551742L746.362200,423.175561L746.477594,422.992099L746.596650,422.813557L746.720841,422.641913L746.852113,422.479780L746.991288,422.330049L747.137483,422.189744L747.288777,422.056290L747.443719,421.927735L747.760491,421.679877L748.405851,421.200032L751.327039,419.062215L751.649920,418.822652L751.967766,418.577315L752.122974,418.450387L752.274139,418.318820L752.419547,418.180648L752.556902,418.033240L752.683176,417.873119L752.793916,417.700877L752.893923,417.516324L752.986081,417.322767L753.072584,417.122724L753.234799,416.710261L753.389206,416.288844L753.540309,415.863636L754.813503,412.235515L754.965817,411.811862L755.124121,411.395959L755.207605,411.193612L755.295751,410.997293L755.390481,410.809490L755.494356,410.633512L755.610736,410.473705L755.743543,410.332438L755.889042,410.207581L756.043793,410.094689L756.205183,409.990384L756.371256,409.892134L756.540563,409.798071L756.884955,409.617429L759.498983,408.304429L760.193794,407.951723L760.712136,407.681992L761.053633,407.494253L761.221977,407.395680L761.387854,407.292270L761.550350,407.182230L761.709805,407.063267L761.865842,406.937599L762.171158,406.673017L762.620397,406.259037L768.311625,400.870028L778.602307,403.771247L792.234431,410.567171L799.116627,410.392453L804.229162,407.469007L807.005843,407.669179L812.802046,413.567889L814.916431,414.086417L824.209367,409.845665L828.007850,405.840773L840.717678,404.697078L851.229359,393.716885L864.694991,392.284243L866.479030,390.639512L866.900506,380.811142L871.206910,375.232170L888.623301,372.968107L894.850733,368.181630L897.382367,361.383024L897.729326,355.133727L896.019409,353.011963L897.027031,344.475784L900.978299,328.387245L903.636078,325.930022L922.692309,321.000496L929.721916,317.141743L934.239420,312.681282L935.124596,310.143870L934.048912,306.243146L941.079936,304.241066L949.375960,297.548246L952.372747,292.244947L953.007049,285.378686L955.060092,283.882729L975.010062,285.676333L981.266901,287.567368L990.066602,283.080115L996.386591,281.419933L997.116723,279.481976L998.924654,277.786704L997.614145,275.299655L995.501559,274.494417L993.783026,268.674976L992.776823,268.689076L991.858548,261.190270L990.851793,261.204367L988.924417,253.722034L986.704920,252.085126L977.743017,253.054718L974.411759,250.602607L972.990423,247.287619L964.930551,247.417253L964.131294,249.099019L962.733069,249.121750L962.693249,249.041786L962.603043,248.823739L962.524501,248.598693L962.454477,248.368556L962.390579,248.134778L962.274438,247.660348L962.166683,247.181049L961.287663,243.088848L961.181887,242.608850L961.071598,242.131123L960.951367,241.658370L960.884618,241.425308L960.811072,241.195638L960.728235,240.970607L960.632711,240.748207L960.527677,240.530554L960.415723,240.316356L960.298813,240.104631L960.178417,239.894648L959.931209,239.477888L958.414692,236.994077L957.155780,234.921996L955.019627,231.397221L953.516029,228.904298L953.136659,228.285360L952.877861,227.880005L952.744916,227.681708L952.608308,227.487941L952.466662,227.300401L952.317289,227.118612L952.162795,226.943146L952.004595,226.772244L951.681091,226.439126L951.187210,225.949742L950.616916,225.392751L952.823151,223.432027L952.612833,221.768532L955.430963,220.053038L955.221110,218.389025L950.172883,218.475602L949.751236,215.148547L950.760966,215.131656L950.339818,211.804974L951.350180,211.787381L949.917907,208.478665L944.760178,207.735627L944.278805,211.911236L935.469902,212.073995L935.241448,211.998584L934.847450,211.878948L933.068215,211.353681L931.491318,210.877222L914.882267,204.446423L915.959123,207.109649L915.925927,207.121819L915.460650,207.211947L915.231600,207.262718L914.988756,207.324331L914.746158,207.397225L914.518127,207.482174L914.319240,207.580255L914.164140,207.692631L914.048564,207.826993L913.960623,207.991127L913.893347,208.179853L913.847033,208.360440L911.530421,209.203426L907.165758,206.792785L906.623737,202.636197L904.277468,200.184596L897.203182,200.335836L895.319697,193.707598L889.253431,193.840519L888.681101,197.188790L885.319391,194.763677L881.275860,194.855107L878.923418,192.407257L879.493341,189.060682L870.515751,182.604924L866.469222,182.700533L864.668520,184.410307L865.114214,187.733131L871.070775,186.757196L871.957612,193.403078L862.526449,191.128775L854.323745,198.002600L848.374540,198.987362L845.083023,197.908461L844.913106,197.770601L844.737100,197.638599L844.558264,197.513200L844.377373,197.392600L844.011620,197.160673L843.642944,196.935576L841.051171,195.386024L836.056798,192.387017L833.273759,190.734371L832.908464,190.505829L832.729266,190.386650L832.553826,190.262123L832.383737,190.129978L832.221132,189.987179L832.068826,189.829717L831.931334,189.657394L831.803852,189.470822L831.683684,189.273837L831.568779,189.069361L831.457597,188.859586L831.242142,188.430211L831.031440,187.994081L828.836712,183.392252L828.414839,182.520590L828.197237,182.092172L828.084608,181.882219L827.967961,181.676736L827.845730,181.477464L827.715857,181.286695L827.575682,181.105049L827.427776,180.931989L827.274237,180.765167L826.956234,180.443522L826.630149,180.130542L825.473212,179.047392L825.330234,178.912478L824.986627,176.265896L818.458384,173.113074L813.519943,173.948274L813.396140,173.909910L813.203040,173.843420L813.011704,173.770406L812.822841,173.688252L812.637385,173.593496L812.458054,173.484609L812.282067,173.363357L812.108515,173.233102L811.936708,173.096398L811.596399,172.810784L811.258447,172.516472L809.405764,170.875767L805.696360,167.611638L803.506613,165.677335L803.168009,165.385252L802.826293,165.103003L802.653330,164.968524L802.478195,164.840904L802.300075,164.722705L802.119841,164.616848L802.029422,164.569180L801.892898,163.587848L818.764070,160.609934L819.203661,156.434069L825.283907,156.267609L825.497053,150.434393L821.097679,148.056781L820.523796,143.910825L823.108135,140.511659L822.764359,138.025368L819.719731,138.108194L816.214648,134.876048L812.039395,134.160182L813.746526,139.104934L809.251373,143.392711L804.411845,145.194919L801.369834,145.282681L801.137652,143.624387L782.884866,144.167078L780.312698,147.576507L776.258236,147.702192L775.787580,144.386123L773.288266,141.133616L767.322303,142.154329L765.886630,146.363221L763.622341,144.770158L764.162447,141.422135L764.464890,136.417326L761.421981,136.514887L761.184357,134.857800L753.069142,135.121692L739.575260,126.415226L740.108303,123.067932L732.107893,124.173598L727.684449,121.829721L726.305592,119.381517L717.045696,118.875767L714.649081,116.464986L708.556181,116.684523L699.694950,112.016406L695.632216,112.167884L693.724474,113.071155L691.544147,118.980283L699.264917,122.853960L700.125751,128.650012L702.400182,130.231657L704.272370,135.991992L715.020613,139.764766L716.763818,144.699950L714.980678,146.430624L715.345818,148.917642L717.614499,150.501806L717.978853,152.989176L714.050366,153.964660L711.294495,149.064398L709.268778,149.138830L708.744431,152.491966L699.632111,152.830461L697.331645,157.918908L691.903315,155.623552L690.002228,156.530294L689.360120,159.056118L686.448259,160.002306L685.288874,165.885951L681.738459,169.361206L678.706089,169.480663L677.303345,173.707628L674.643896,176.316501L669.468969,175.689563L668.210050,174.071675L664.168777,174.235428L660.763717,171.871298L660.514030,170.212168L656.221409,168.720367L655.904288,166.621380L655.234451,166.054139L655.155878,165.888532L655.049640,165.723428L654.923569,165.558717L654.783517,165.394318L654.633795,165.230171L654.477544,165.066229L654.153868,164.738773L653.331123,163.918293L653.011946,163.584153L652.858243,163.413498L652.710690,163.238940L652.571708,163.058827L652.444543,162.870946L652.333491,162.672378L652.241780,162.460097L652.166194,162.237073L652.102338,162.006250L652.046880,161.769854L651.997333,161.529547L651.909139,161.041752L651.789270,160.301958L651.132571,156.095193L651.009589,155.358183L650.964029,155.116032L650.914121,154.877231L650.857885,154.643306L650.792635,154.416328L650.714767,154.199073L650.619520,153.995211L650.502765,153.807343L650.368572,153.632912L650.221731,153.468230L650.065864,153.310503L649.903674,153.157651L649.737148,153.008141L649.224015,152.570066L648.011256,151.559858L646.976772,150.690165L641.137295,145.748256L640.795271,145.455308L640.456038,145.157724L640.122571,144.850540L639.959537,144.690787L639.800573,144.526299L639.489987,144.185093L639.033884,143.657018L636.478696,140.616146L631.665984,134.899594L622.191340,132.637973L620.537754,128.543355L619.524297,128.587562L620.153147,126.059501L617.740684,123.665660L610.644046,123.979963L607.861014,125.771135L605.575367,124.207273L605.187631,121.724493L603.030560,120.988610L602.642364,118.506106L597.571934,118.736179L597.052529,115.426947L594.893740,114.692626L595.388150,111.337572L600.591333,111.933655L598.172635,109.544489L610.462217,103.161956L609.059150,100.726544L617.442379,102.022040L619.216256,100.279303L618.958966,98.624992L621.877926,97.666095L621.363976,94.358564L623.268293,93.443961L622.496959,88.483875L628.597995,88.221809L626.939426,84.132758L620.192434,80.263542L617.512040,76.220432L614.329798,75.527724L612.794108,72.267524L604.650386,72.626794L600.187996,70.331186L596.115856,70.513960L594.472135,73.084116L594.994909,76.388534L589.151942,78.318969L588.890180,76.666604L585.575505,75.155112L585.313051,73.502926L575.891319,72.276628L576.155133,73.928745L572.349486,75.771466L572.124889,80.775625L563.106157,82.038007L561.691353,79.609265L562.708283,79.560230L562.177102,76.256154L563.194445,76.207124L562.530651,72.078437L561.512998,72.126759L560.848484,67.998647L558.546552,66.445591L552.439595,66.741771L544.833522,70.443231L541.647241,69.768867L541.378626,68.118385L540.707005,63.990838L535.961901,60.066881L536.576125,57.540565L534.134658,55.167047L531.078992,55.320330L530.330673,57.021888L525.103516,56.454924L523.338356,58.209048L516.075220,57.749858L514.512081,54.502832L507.110076,53.224139L504.662456,50.855869L494.201869,49.745983L491.284134,50.734101L489.851899,48.314949L484.758714,48.589255L480.130259,45.512565L479.852813,43.863446L475.916041,44.910839L476.333052,47.384290L475.507674,48.586027L473.555389,49.201552L473.359622,50.898196L470.081890,51.091820L469.965923,50.948578L469.839349,50.769005L469.729153,50.577780L469.638202,50.370439L469.563879,50.151269L469.501635,49.923504L469.448025,49.689598L469.400475,49.451381L469.357092,49.210201L469.240031,48.477356L468.982353,46.756446L468.571110,44.056939L468.313103,42.336541L468.236694,41.846692L468.153111,41.361557L468.105998,41.122510L468.053080,40.887319L467.991886,40.657637L467.919108,40.435677L467.830378,40.224370L467.725150,40.031029L467.604669,39.847860L467.473023,39.672108L467.333331,39.501681L467.187937,39.335014L467.038576,39.170968L466.577516,38.687922L466.107774,38.214762L465.790880,37.909239L465.630498,37.762347L465.468061,37.621612L465.302723,37.489444L465.133363,37.369009L464.955676,37.260952L464.773809,37.165034L464.588919,37.077942L464.401878,36.997163L464.023779,36.847528L463.451963,36.637235L458.815292,35.044288L457.234575,31.805359L455.054627,31.096213L453.049805,25.387299L452.029984,25.444635L452.345913,21.269229L455.865315,17.745203L452.521240,16.270283L452.098060,13.800132L447.872674,13.208137L446.427091,10.796247L442.342067,11.028970L440.441733,11.969669L440.725194,13.615613L438.683553,13.733034L437.520589,12.968407L436.667974,8.029558L437.547312,7.147682L436.383946,6.383923L431.561497,8.325153L433.152093,11.558022L430.089120,11.736239L425.719257,10.328708L426.169334,6.976481L419.898171,6.513194L417.120984,8.340527L416.690572,5.871733L414.360803,4.347095L413.770427,6.876556L409.829551,7.942906L408.219633,10.534172L409.672200,12.941848L413.611509,11.875318L414.042075,14.344610L415.062592,14.283801L415.189607,20.930161L410.520457,23.705044L414.010220,25.992123L414.296684,27.638846L413.277120,27.699682L414.280165,33.464995L406.272287,34.779202L401.764898,32.555786L397.833766,33.627956L396.525971,32.043144L394.488063,32.168331L394.777366,33.815398L388.519857,33.368478L386.069870,42.640484L381.257339,43.265951L377.990303,41.412677L374.829064,42.764317L372.566722,39.315378L369.932698,39.845635L359.304836,36.230562L361.204434,28.945102L363.490812,27.471722L362.700020,22.697554L353.274489,25.864165L350.549874,25.113210L349.841839,23.826700L354.386555,16.966492L354.459916,12.513414L349.095599,8.294405L344.881944,9.471223L345.529784,8.251079L344.315636,7.123923L338.502238,5.864746L332.696952,3.577120L326.400096,6.713043L322.852593,5.213516L322.357831,3.086638L319.279309,1.831124L315.712055,3.004193L312.614994,0.000000L310.397775,0.104094L308.738642,2.986027L306.618990,2.866552L308.622833,5.212817L307.936846,7.569749L305.186041,8.534098L306.498536,10.144210L305.219111,12.435137L309.300679,14.366278L314.636401,12.833516L315.520203,15.005825L311.903972,16.503749L313.402002,18.623898L325.960298,21.789375L326.932413,24.065120L324.660866,25.455123L325.213313,28.644406L319.638596,28.344413L319.608660,29.839514L313.463716,31.414418L307.890473,29.338108L303.037023,30.764725L302.031260,35.952006L283.172094,42.073098L281.757639,44.536516L274.972171,46.051330L268.896750,43.145614L263.795236,45.477580L264.192075,46.706257L261.935544,48.652933L256.364980,48.019654L254.742194,52.233138L257.202679,55.454015L256.664972,56.999489L254.161053,58.223048L251.414054,57.288575L250.689896,60.187987L236.534909,58.590545L234.061154,60.176087L232.196688,58.987447L229.425570,60.516307L229.292794,62.057147L222.970235,59.303153L214.293523,63.316622L207.576282,62.493302L203.436857,64.242185L206.371129,69.302493L204.121595,74.447721L203.987510,76.312888L200.160759,77.752293L195.899969,83.175039L188.526740,80.523435L184.743327,75.017834L181.622301,74.241110L182.915881,78.440851L175.511274,82.046414L175.725606,86.893295L171.066412,88.111798L169.056360,84.809556L164.671303,84.982611L161.365101,90.336625L162.448307,92.755749L157.934820,99.090433L158.183934,101.295069L149.648066,100.713926L148.896109,98.535970L142.275690,101.844677L134.370460,100.106157L133.499999,111.685402L128.578842,116.652258L122.656689,118.163805L104.226001,109.283635L102.590346,112.207857L100.814910,111.186099L92.288521,114.357384L88.689679,118.837889L88.748383,120.771145L83.563775,117.174803L80.167356,118.301286L75.425669,117.406970L73.119824,119.209659L60.433891,120.781668L57.070472,125.639933L57.745954,129.507485L54.791659,128.555284L50.957495,131.099704L49.654645,134.491443L44.853793,134.780598L45.557052,139.554180L41.368008,141.382122L38.943997,145.712364L40.235754,149.288396L38.818005,150.359958L36.129322,149.215368L36.956485,153.970981L35.771779,153.644411L35.410003,155.706428L37.805288,158.463976L35.820873,160.386550L35.430704,161.975718L30.961739,161.327162L28.511229,157.689223L30.425116,156.346976L29.489242,154.563030L30.992799,153.162640L22.791499,148.579192L23.794801,146.440454L26.579050,147.834899L24.522424,143.992966L16.908155,143.681253L15.802797,139.929025L16.435764,137.025157L14.287102,136.523309L13.813095,134.565135L5.217549,135.838284L2.226875,134.692167L2.148663,135.792663L5.506349,137.355749L5.175131,140.209811L7.905137,142.798786L1.925859,145.593709L2.740923,146.809772L1.075346,147.435376L6.589940,151.097294L10.088218,150.501806L9.313695,151.484228L11.810271,152.744081L11.582957,155.020244L13.920863,154.711220L15.122113,157.196146L16.060495,157.906264L20.338082,162.938708L17.629079,167.568017L18.668942,173.434947L20.369979,175.187741L23.023848,175.071775L23.566272,176.573044L25.729847,175.968591L30.126971,179.833095L28.251988,183.157494L36.527773,184.088311L37.960316,187.840711L39.838039,186.625715L44.289460,190.711769L53.750818,193.445274L54.446916,195.075948L53.073940,195.552097L54.025570,196.808974L59.147281,195.247558L64.089122,199.089357L60.149577,203.327748L61.024049,205.377171L71.768803,208.619394L72.297970,212.170208L68.493956,215.743265L67.354713,219.858054L65.308247,220.322639L65.577454,223.889627L63.284206,223.125790L61.974829,224.626026L62.446888,227.263408L60.997970,228.938468L62.545489,233.421231L52.922967,237.693341L52.448581,239.345717L59.230841,248.606528L66.588189,251.873736L70.935925,251.735629L72.393378,255.524631L70.871241,259.541716L72.590976,260.515755L72.759830,261.893234L73.563481,262.903753L74.279944,264.318797L77.482845,264.137290L78.293118,268.460662L80.300736,270.297186L80.215170,275.260874L82.999870,278.866111L87.429797,281.340240L89.579071,280.331758L90.914312,281.990479L91.375607,289.041611L89.976433,290.652062L92.368574,292.364875L93.738825,298.354708L101.586556,300.180071L102.598286,302.155121L109.119060,305.715270L109.435629,309.335744L113.031662,312.086263L112.812006,314.351336L113.939717,314.847566L122.286351,314.880037L127.349090,317.256808L129.108096,317.133977L127.616013,313.898876L136.871668,315.069213L141.340146,316.977263L146.818719,322.139274L149.991025,322.444271L149.817005,327.150848L151.216707,329.930146L154.331020,329.911080L155.222600,332.393259L158.290196,332.982225L159.298604,336.315619L163.551198,338.348979L163.142035,341.172821L172.451200,346.653646L173.447357,348.385842L172.751312,352.124569L174.702779,353.895136L182.824037,357.763639L190.496436,356.830222L207.208493,369.357707L206.575819,371.076641L209.620845,378.241426L208.893689,381.155431L212.505447,383.905585L223.609456,389.714639L224.943954,389.528677L224.411921,384.539061L235.102463,384.235048L239.210724,389.618476L241.718219,390.116263L249.736975,401.039823L256.397549,401.394150L259.391159,399.968368L264.023662,409.535845L268.238660,410.282104L267.558419,411.217242L271.952425,416.461239L270.489889,419.386574L271.947073,420.711690L279.834664,420.925353L287.758291,426.234635L290.455147,430.253707L300.069858,432.748074L303.300116,435.202207L303.587764,436.870196L309.151547,438.886422L308.535645,442.414442L304.592788,442.707450L302.974731,444.906468L304.324459,446.951262L308.409253,447.492022L307.710321,449.233241L309.124835,451.662531L317.477235,454.397713L330.379363,453.483849L336.891275,456.392540L341.783811,456.042131L344.316994,459.239766L348.537860,460.628733L349.099218,463.966759Z "/></g></svg>