<?xml version="1.0" encoding="utf-8"?><!DOCTYPE svg  PUBLIC '-//W3C//DTD SVG 1.1//EN'  'http://www.w3.org/Graphics/SVG/1.1/DTD/svg11.dtd'><svg enable_background="new 0 0 1000 406" height="406px" pretty_print="False" style="stroke-linejoin: round; stroke:#000; fill: none;" version="1.1" viewBox="0 0 1000 406" width="1000px" xmlns="http://www.w3.org/2000/svg" xmlns:xlink="http://www.w3.org/1999/xlink"><defs><style type="text/css"><![CDATA[path { fill-rule: evenodd; }]]></style></defs><metadata><views><view h="406.801758593" padding="0" w="1000"><proj flip="auto" id="robinson" lon0="16.0674821508"/><bbox h="32.11" w="79.12" x="159.32" y="-844.84"/></view></views></metadata><g class="" id="reservoir"><path d="M588.455720,40.824204L588.206959,40.800777L587.827834,40.999128L587.166806,42.143184L586.723004,43.528599L586.439096,44.780523L587.242191,46.037182L587.959669,46.558136L588.901961,46.939289L591.315655,47.291547L591.896245,47.110341L592.331526,46.727623L594.982005,45.664631L593.578510,44.441570L592.239209,42.789808L591.826436,42.379028L592.070979,41.709765L591.043507,40.755484L589.378649,40.428287L589.185749,40.626635L588.455720,40.824204Z "/><path d="M608.945237,290.696427L602.969064,289.063168L601.909603,287.565211L601.682429,287.714612L601.578279,288.594511L602.621041,289.731563L602.978497,289.983983L607.855240,291.731299L608.234666,291.978225L609.419920,292.476798L613.066064,293.654836L614.284273,295.278027L614.581924,295.585527L615.500634,295.478571L617.267424,296.602415L617.387153,299.781408L617.808867,300.033881L620.215255,302.433610L621.522795,301.790996L621.400779,299.648487L621.226424,296.799818L620.317188,296.310638L617.854589,294.915478L617.594493,294.654382L616.943492,294.309925L615.341573,294.239147L614.221641,292.450847L612.591913,292.337606L608.945237,290.696427Z "/><path d="M701.104229,347.822043L700.288704,347.368602L699.760077,347.803937L696.438109,349.341412L695.851257,348.440807L693.562142,347.892107L692.875612,348.162127L691.737681,351.385142L692.645375,351.810273L694.107675,351.489850L696.066024,350.368779L699.014013,351.556769L699.785388,351.301691L700.886965,350.132601L702.001934,352.034648L702.977625,351.056850L702.210801,350.237306L701.104229,347.822043Z M718.828033,348.839551L716.960259,347.147150L715.897251,346.601750L711.009455,347.835723L710.702128,348.297205L710.969023,349.476112L712.869071,350.778366L716.131311,352.145123L717.613195,353.636532L719.828765,354.570610L721.594203,354.910451L721.933695,356.379771L722.608535,357.210601L723.334698,357.327709L724.156722,357.022189L724.883917,354.692737L724.703810,352.124702L724.600035,350.947766L722.709158,351.279634L718.828033,348.839551Z M706.390700,351.091490L709.645921,350.579766L710.802543,349.841316L710.645158,348.192829L711.152629,347.491409L708.892772,346.295631L706.510993,345.191978L705.798927,345.043199L704.392434,345.835904L701.160898,347.503217L701.879087,349.413051L702.664197,350.610469L704.012692,351.270988L704.917048,351.337906L706.390700,351.091490Z "/><path d="M994.820809,175.153818L995.333093,175.709779L996.137217,174.037216L995.994733,170.845217L997.408452,170.232881L998.598789,169.099188L998.767871,168.599778L998.393810,167.887133L998.075211,167.738177L997.378581,168.055689L995.581370,169.147012L994.458291,169.419064L994.487943,170.571585L994.614266,171.639465L994.820809,175.153818Z "/><path d="M327.394889,326.548110L326.993032,324.716273L323.539637,325.405340L322.553692,325.990493L323.244494,326.999221L324.956786,327.623985L326.198293,327.991011L327.061143,327.290580L327.394889,326.548110Z "/><path d="M338.225408,314.963270L336.005519,314.661545L335.797362,314.831822L338.082140,317.688427L339.076133,318.374453L339.226818,319.133862L338.329637,319.725175L338.507773,320.058086L339.885943,320.294360L342.827697,320.814183L343.358855,320.426719L343.264692,319.978432L341.672144,318.927063L341.358832,317.275110L339.033100,315.119487L338.225408,314.963270Z "/><path d="M332.353884,173.663194L332.982632,173.381700L333.780464,172.544287L334.982828,172.170281L334.992230,170.395961L333.406921,167.257270L333.541891,166.218144L334.941687,164.327259L335.763813,163.762855L335.104866,162.192764L334.875793,159.350876L335.867078,158.412208L334.923970,158.042519L333.946951,158.157990L332.878916,159.015175L332.612655,159.623394L332.963381,160.930786L333.249912,161.881576L333.299614,162.856477L332.662442,163.476737L331.931237,163.790291L331.586049,164.498149L331.794539,166.122437L331.571484,168.781666L331.678629,169.368887L332.223292,170.139581L330.946869,172.349835L329.859752,173.603602L327.386116,174.620605L325.128951,174.070933L323.810510,174.310874L323.391024,174.797035L323.322729,175.558438L323.351598,177.712567L322.432066,177.568275L321.673303,178.050558L320.436577,178.799604L318.673035,178.539907L316.928516,178.579902L316.183592,179.327269L316.165530,179.887217L316.810422,180.589909L317.151742,181.190644L316.584526,182.121475L315.061666,182.199251L312.283424,182.801596L312.296559,183.413363L312.932865,184.007101L313.825000,185.352263L313.421011,185.991244L313.022430,186.808023L313.909053,186.993869L314.649947,186.878049L316.122072,185.526392L316.684284,185.275395L316.792975,184.914590L316.021412,184.185146L315.382228,183.269806L317.344301,182.800812L318.736781,181.658090L318.512212,181.062038L317.753637,179.739477L319.515699,180.167194L320.317190,180.464427L321.050293,180.237777L321.784187,178.838695L322.575607,178.602452L323.689785,178.995540L325.308953,179.078668L325.713755,178.625386L325.697486,178.072516L324.494343,175.800422L328.621623,175.897193L330.149876,176.172433L330.854031,176.028932L331.400043,175.404744L331.427863,173.929792L332.353884,173.663194Z "/><path d="M308.176432,199.752727L309.064693,196.642581L308.901624,196.351714L308.280260,196.359411L306.209049,198.005961L305.504712,199.698985L303.059416,198.849310L302.488213,198.263679L301.807405,198.178520L301.253208,198.607705L300.902890,199.860855L301.432078,200.596536L303.286259,201.207237L304.699018,201.031729L307.366665,200.384759L308.176432,199.752727Z "/><path d="M385.267454,317.662095L385.646599,317.894200L385.984401,316.132258L387.150725,315.452039L387.111792,314.764416L386.703120,313.353006L385.887841,312.875465L382.774973,312.873104L381.778140,313.892704L382.431922,314.876134L383.196192,315.378084L384.602450,316.083183L385.267454,317.662095Z "/><path d="M559.880559,340.037685L556.143942,339.759046L556.298773,341.062524L557.279190,343.578928L558.924777,344.891272L561.669701,344.973401L561.597077,344.144237L561.147112,343.768755L559.725958,342.555327L560.576346,341.969310L562.839870,342.982376L563.867474,343.747501L564.971919,341.923655L565.951991,341.796606L569.323824,341.840218L571.588838,344.108026L570.585278,345.058943L570.807437,346.223208L574.672921,347.002546L575.682378,347.114277L576.740722,345.424200L576.642731,344.146598L575.167082,344.486201L572.211257,341.497103L571.478883,341.037336L566.021312,339.214365L565.376833,339.759046L563.546646,341.025757L559.880559,340.037685Z "/><path d="M407.057559,319.338270L406.654368,317.087358L405.749811,316.837542L400.909893,317.673248L399.547277,319.939810L402.128928,321.703220L402.808982,321.669912L402.862179,321.101187L403.369107,320.053554L405.968735,319.988862L407.057559,319.338270Z "/><path d="M578.378880,196.728458L577.078720,195.558098L574.859366,194.318538L574.287245,194.324769L573.836510,195.954006L574.763487,197.075508L575.777013,197.354931L577.463621,197.315177L578.378880,196.728458Z "/><path d="M823.783757,137.178328L823.931440,137.221407L824.751541,137.363780L825.489727,137.156396L826.651363,137.314617L828.700429,136.459314L830.103659,137.624010L830.552931,139.308101L831.150935,140.982094L831.809775,141.108999L834.109746,141.385526L835.653263,141.664406L836.057608,142.703177L837.259969,143.215524L837.828488,142.511245L839.439180,141.886102L840.704628,142.519079L842.652855,143.996594L844.058715,144.557535L846.054385,142.837139L842.462006,141.289172L841.504802,141.301706L840.443175,140.218329L840.835723,139.060573L840.687906,138.895295L839.762267,138.856129L839.754418,139.853295L838.350624,139.655896L837.764065,140.811323L836.433514,141.006378L835.467618,139.989595L834.403494,139.683312L832.642738,138.948560L831.791107,138.376320L831.793188,134.319528L831.741336,133.317832L831.293973,132.403098L830.293101,132.191648L830.773120,133.360907L830.614094,135.424640L827.876269,135.502962L826.006387,136.792179L824.631445,136.269751L823.783757,137.178328Z "/><path d="M1.232129,112.272274L2.743619,112.522766L4.071337,112.655944L5.553819,111.859793L9.795525,109.665447L11.906390,109.305745L14.630687,108.507591L14.420747,105.127679L14.098429,104.533423L11.268893,104.686745L5.497831,108.537049L4.977546,110.368745L2.118820,110.705586L1.286305,111.047057L1.232129,112.272274Z "/><path d="M388.113920,294.025240L387.411485,293.333979L382.651747,294.254876L380.558749,294.814028L381.542051,295.789218L385.889112,296.956326L387.410948,296.022008L388.202482,295.063329L388.113920,294.025240Z "/><path d="M993.311148,179.270130L988.400927,176.573828L987.873369,176.969453L987.999459,178.342270L989.352806,180.801333L990.437957,179.953390L991.496038,182.276884L992.686224,181.249043L993.142292,180.207216L993.311148,179.270130Z "/><path d="M161.905202,44.815711L160.469032,44.359747L157.337911,44.750621L152.605706,46.206429L151.899450,46.617869L150.026004,47.946900L150.364159,49.364425L151.028217,50.977173L152.351916,51.528845L155.380016,51.142502L159.845198,49.954563L161.477938,50.283498L161.905202,44.815711Z "/><path d="M298.478711,203.226017L297.883544,202.705735L296.993909,202.722999L294.839022,206.372970L293.948483,206.548767L293.742776,208.295800L291.997242,210.157505L291.824571,210.411809L292.805456,211.374883L293.219847,213.341135L293.670971,214.254044L293.457445,217.524363L294.196447,218.687802L295.378729,220.306626L295.918530,220.936273L296.094341,221.600476L297.929507,225.630682L298.156811,227.133575L297.097887,228.655370L296.795283,229.570988L297.931366,232.104357L298.689165,232.185245L299.205903,232.585762L300.809747,235.598402L300.710786,236.968143L301.563954,237.464529L301.536220,238.420401L301.912725,240.299223L300.722068,240.857701L300.719092,241.401263L301.297988,242.229973L301.659083,242.906307L301.780402,242.028096L302.680458,242.042235L302.447969,241.674618L303.501831,241.218242L302.916786,239.340950L304.179364,238.476168L304.245137,236.862113L302.388393,233.793619L302.518249,233.400158L302.229131,232.482098L301.387726,231.266427L300.177746,226.737038L300.531528,226.109654L300.233641,225.391983L300.349009,224.448980L300.573891,222.793871L300.342372,222.398162L299.508257,220.470710L298.530470,218.723130L299.659089,217.141268L298.118697,216.890060L297.601791,215.568104L298.492021,214.146503L297.383795,213.955756L296.458123,209.473875L296.752036,209.192107L297.669945,207.402653L299.418257,205.031755L299.732206,204.232856L298.478711,203.226017Z "/><path d="M989.261108,222.035433L987.563186,222.483742L988.729287,224.452906L988.470850,225.529392L988.919457,226.615330L989.503497,228.224268L990.862541,228.640450L991.095261,229.161863L991.265379,230.267531L992.557925,231.664340L993.786997,231.643332L992.673783,230.369618L991.403611,228.342055L990.848235,227.095099L990.480622,226.075106L989.584540,223.298602L993.109269,222.632553L992.441261,222.108450L989.261108,222.035433Z "/><path d="M725.656252,372.714646L723.976869,372.728737L723.073029,372.975326L722.473356,373.238369L722.526651,373.573870L723.620134,373.953476L727.349925,376.104357L728.307628,375.686934L729.076650,373.319488L728.639189,373.122493L725.656252,372.714646Z "/><path d="M356.191978,0.000000L354.877923,0.575587L354.701278,0.894582L355.358846,2.573843L355.659888,3.165076L356.915528,3.853821L358.265877,4.444297L358.917037,3.465014L360.706764,3.969263L359.113567,1.957662L356.832816,0.042896L356.191978,0.000000Z "/><path d="M636.973667,208.699949L636.075608,206.853371L635.563960,207.520537L636.829723,209.488344L638.764835,210.073454L640.778162,211.040843L641.495528,210.818377L643.867129,211.155999L644.630799,211.587202L644.655905,209.632832L644.472478,208.504913L642.119960,208.995728L641.166221,209.646944L640.065323,209.526787L638.164733,208.973187L636.973667,208.699949Z "/><path d="M315.032735,404.801759L317.668362,404.515742L321.774544,403.372476L321.290868,402.730333L319.008289,401.591823L313.182901,401.743358L311.035250,399.400734L311.046630,397.301891L309.821386,397.975500L309.533382,394.312882L308.649291,393.476234L308.612021,393.762994L308.022586,395.138510L307.255152,397.661148L302.562348,393.644035L300.410730,393.471507L301.332277,391.608388L303.609339,388.967021L301.622745,388.241510L297.197918,389.617703L294.887907,390.199069L295.976296,387.388395L293.513600,385.925599L299.537146,381.312921L300.223973,379.288675L299.803347,377.568510L297.543633,376.431997L295.656387,380.956901L293.654897,379.602941L291.705818,379.028757L285.998694,377.727607L285.428283,376.092430L282.674360,373.640813L280.950100,372.727246L278.964506,373.388793L276.374802,372.118472L275.236342,370.927717L273.128592,368.158038L272.328219,367.542220L270.663070,368.615574L270.782339,368.990425L271.817213,370.114992L276.550049,373.858968L277.430584,374.502412L281.319003,374.756012L284.357284,380.626088L287.755102,381.857194L290.266170,382.069076L290.154237,384.657396L288.247438,385.314337L287.676714,386.140644L289.251893,388.907152L287.233210,389.945410L289.619971,391.276735L292.697645,394.370392L295.448448,395.656896L297.716667,395.868821L300.823124,396.428180L304.413863,398.128343L307.482084,399.679271L311.130353,403.533210L315.032735,404.801759Z "/><path d="M446.660594,179.674687L445.357834,178.455995L444.267901,177.704725L443.067204,177.943122L442.993263,178.554807L443.110845,179.632338L443.121771,180.349141L445.913014,182.200819L444.574012,183.167087L444.509989,184.836938L444.232054,186.716300L444.830411,186.885730L446.031182,186.508436L446.045734,186.249588L446.231125,185.006359L445.380562,184.521629L446.902129,183.162380L447.696547,182.654146L448.248614,183.574934L448.306154,184.195342L449.457985,185.489527L450.060717,186.011136L451.131359,186.982211L452.000467,187.629347L453.396398,189.174677L454.610913,190.272136L455.729510,189.822636L456.869766,190.860494L457.082117,191.642632L457.376888,191.721867L458.681625,190.691830L460.137944,191.212728L460.637261,190.127793L463.446663,191.157030L465.370033,191.055046L467.400320,191.686564L468.508114,193.587460L469.506698,196.134170L469.316904,198.710871L469.329990,199.173817L469.909770,199.160478L469.700441,201.996343L469.972607,202.398906L470.938746,202.810889L471.337127,202.337697L471.599246,200.614480L471.188463,199.820382L471.237071,198.192221L470.720345,195.128332L471.098021,195.011431L471.294168,194.441836L468.760703,191.023667L468.323447,189.740268L466.211238,190.126224L464.392409,189.998464L462.997386,189.308817L460.801435,188.209819L459.144616,188.609094L458.244590,188.532220L457.164942,188.964445L456.660285,188.192561L454.258309,187.662293L451.777490,185.131857L451.936074,184.637713L451.484093,182.840027L451.756463,182.059646L449.058328,181.119290L448.178587,180.109944L446.660594,179.674687Z "/><path d="M116.631574,159.848845L115.704743,159.902425L116.852049,161.554715L117.474653,162.440130L115.718773,163.885142L114.159682,165.817485L113.033462,168.694642L108.272424,169.355559L107.428283,170.290900L107.456068,170.384984L111.115078,169.934166L113.174651,169.955335L113.791180,169.190917L115.999738,165.705863L119.197024,163.792643L120.712079,164.340585L121.483497,164.317381L126.334908,165.905286L128.449571,166.429782L129.608279,166.214624L131.398144,164.473851L131.438653,163.799698L130.429271,163.867112L129.292818,163.907091L127.317722,163.735605L125.871233,163.386591L124.299950,162.283691L123.030720,162.635377L118.539852,161.941148L116.631574,159.848845Z "/><path d="M773.096959,106.777203L772.850085,105.848814L772.356456,105.871953L771.794113,107.457591L772.427538,107.952428L773.096959,106.777203Z M779.678731,107.780484L778.146217,105.945199L777.085660,104.851888L776.030340,104.518161L775.353055,104.778923L776.081841,106.609013L778.036488,108.198161L778.885462,108.816387L779.678731,107.780484Z "/></g><g class="" id="region_it"><path d="M1000.000000,137.212932L999.322120,137.115275L998.786262,141.763503L988.980315,141.944684L988.726003,141.860738L988.287410,141.727562L986.306792,141.142842L984.551411,140.612454L966.062450,133.453778L967.261191,136.418444L967.224238,136.431992L966.706297,136.532321L966.451323,136.588839L966.180992,136.657425L965.910936,136.738570L965.657095,136.833134L965.435696,136.942317L965.263042,137.067411L965.134384,137.216981L965.036488,137.399694L964.961598,137.609780L964.910042,137.810807L962.331222,138.749208L957.472541,136.065716L956.869170,131.438661L954.257338,128.709573L946.382342,128.877932L944.285673,121.499470L937.532791,121.647435L936.895681,125.374685L933.153473,122.675082L928.652271,122.776861L926.033566,120.051949L926.667996,116.326589L916.674269,109.140129L912.169730,109.246561L910.165214,111.149857L910.661354,114.848778L917.292115,113.762381L918.279329,121.160482L907.780691,118.628761L898.649556,126.280606L892.026985,127.376829L888.362914,126.175812L888.173765,126.022348L887.977838,125.875405L887.778760,125.735813L887.577395,125.601563L887.170244,125.343384L886.759839,125.092810L883.874714,123.367871L878.315048,120.029418L875.217008,118.189716L874.810368,117.935306L874.610887,117.802638L874.415589,117.664016L874.226248,117.516914L874.045238,117.357952L873.875694,117.182668L873.722640,116.990840L873.580728,116.783151L873.446959,116.563870L873.319049,116.336250L873.195283,116.102732L872.955441,115.624757L872.720890,115.139263L870.277750,110.016573L869.808127,109.046250L869.565896,108.569341L869.440519,108.335625L869.310669,108.106884L869.174603,107.885058L869.030031,107.672695L868.873989,107.470490L868.709342,107.277842L868.538425,107.092138L868.184429,106.734088L867.821435,106.385683L866.533549,105.179935L866.374388,105.029751L865.991889,102.083613L858.724741,98.573936L853.227338,99.503669L853.089522,99.460963L852.874566,99.386947L852.661575,99.305669L852.451334,99.214216L852.244887,99.108735L852.045258,98.987524L851.849353,98.852547L851.656157,98.707550L851.464904,98.555373L851.086077,98.237431L850.709873,97.909807L848.647492,96.083398L844.518236,92.449815L842.080641,90.296577L841.703711,89.971434L841.323318,89.657238L841.130778,89.507537L840.935820,89.365473L840.737539,89.233895L840.536906,89.116057L840.436253,89.062993L840.284276,87.970589L859.065027,84.655616L859.554373,80.007103L866.322817,79.821802L866.560089,73.328348L861.662768,70.681623L861.023929,66.066404L863.900779,62.282500L863.518092,59.514796L860.128856,59.606997L856.227046,56.009017L851.579213,55.212125L853.479568,60.716553L848.475626,65.489647L843.088332,67.495840L839.702008,67.593534L839.443546,65.747545L819.124803,66.351661L816.261501,70.146990L811.748131,70.286900L811.224204,66.595499L808.442002,62.974853L801.800776,64.111097L800.202606,68.796376L797.682031,67.023001L798.283270,63.296030L798.619944,57.724746L795.232621,57.833350L794.968101,55.988704L785.934359,56.282465L770.913158,46.590549L771.506535,42.864389L762.600591,44.095200L757.676476,41.486030L756.141551,38.760723L745.833566,38.197730L743.165687,35.514083L736.383158,35.758467L726.518959,30.561986L721.996381,30.730609L719.872709,31.736118L717.445600,38.314076L726.040253,42.626198L726.998521,49.078281L729.530386,50.838946L731.614479,57.251271L743.579272,61.451069L745.519783,66.944847L743.534817,68.871409L743.941286,71.639922L746.466749,73.403391L746.872342,76.172296L742.499206,77.258192L739.431410,71.803289L737.176410,71.886145L736.592714,75.618809L726.449008,75.995617L723.888162,81.660004L717.845421,79.104846L715.729158,80.114218L715.014373,82.925931L711.772929,83.979214L710.482319,90.528804L706.530047,94.397410L703.154455,94.530387L701.592940,99.235785L698.632479,102.139946L692.871823,101.442047L691.470412,99.641037L686.971724,99.823324L683.181259,97.191609L682.903311,95.344688L678.124826,93.684037L677.771811,91.347474L677.026158,90.716029L676.938692,90.531678L676.820429,90.347886L676.680089,90.164532L676.524184,89.981526L676.357516,89.798800L676.183580,89.616301L675.823268,89.251782L674.907400,88.338435L674.552097,87.966475L674.380997,87.776504L674.216743,87.582189L674.062030,87.381690L673.920472,87.172544L673.796850,86.951500L673.694758,86.715192L673.610618,86.466925L673.539534,86.209976L673.477800,85.946823L673.422644,85.679317L673.324468,85.136310L673.191031,84.312783L672.460003,79.629871L672.323101,78.809442L672.272385,78.539882L672.216827,78.274052L672.154227,78.013650L672.081592,77.760981L671.994910,77.519137L671.888882,77.292201L671.758912,77.083068L671.609531,76.888895L671.446069,76.705572L671.272560,76.529993L671.092013,76.359840L670.906638,76.193408L670.335425,75.705749L668.985399,74.581200L667.833827,73.613070L661.333403,68.111806L660.952667,67.785701L660.575037,67.454434L660.203826,67.112481L660.022339,66.934646L659.845382,66.751540L659.499643,66.371715L658.991915,65.783869L656.147516,62.398813L650.790073,56.035228L640.243032,53.517623L638.402284,48.959553L637.274117,49.008763L637.974145,46.194561L635.288624,43.529771L627.388748,43.879649L624.290715,45.873556L621.746366,44.132688L621.314743,41.368892L618.913522,40.549717L618.481388,37.786228L612.837056,38.042343L612.258862,34.358552L609.855728,33.541116L610.406098,29.806318L616.198209,30.469868L613.505749,27.810282L627.186338,20.705337L625.624463,17.994271L634.956556,19.436398L636.931211,17.496408L636.644799,15.654852L639.894144,14.587421L639.322022,10.905525L641.441882,9.887401L640.583244,4.365904L647.374831,4.074176L645.722295,0.000000L143.128900,0.000000L143.243666,2.595292L138.057117,3.951713L135.819555,0.275703L130.938171,0.468346L127.257754,6.428359L128.463564,9.121294L123.439213,16.172974L123.716523,18.627145L114.214516,17.980224L113.377447,15.555754L106.007690,19.238960L97.207699,17.303664L96.238714,30.193517L90.760552,35.722551L84.168095,37.405184L63.651313,27.519903L61.830524,30.775107L59.854134,29.637700L50.362677,33.167929L46.356498,38.155565L46.421846,40.307638L40.650414,36.304240L36.869567,37.558226L31.591188,36.562685L29.024354,38.569414L14.902552,40.319352L11.158442,45.727504L11.910378,50.032809L8.621699,48.972832L4.353562,51.805244L2.903248,55.580880L0.000000,55.755743L0.000000,119.051286L7.463050,121.207455L8.237936,123.022698L6.709558,123.552741L7.768899,124.951878L13.470317,123.213732L18.971504,127.490368L14.586058,132.208485L15.559508,134.489874L27.520417,138.099071L28.109478,142.051787L23.874903,146.029265L22.606714,150.609789L20.328617,151.126959L20.628294,155.097680L18.075482,154.247387L16.617903,155.917428L17.143392,158.853325L15.530477,160.717978L17.253154,165.708127L6.541498,170.463780L6.013418,172.303182L13.563334,182.612186L21.753430,186.249196L26.593268,186.095457L28.215685,190.313320L26.521263,194.785083L28.435648,195.869370L28.623614,197.402760L29.518227,198.527656L30.315783,200.102862L33.881208,199.900811L34.783193,204.713528L37.018044,206.757921L36.922793,212.283428L40.022682,216.296727L44.954014,219.050893L47.346556,217.928265L48.832928,219.774730L49.346434,227.623951L47.788894,229.416682L50.451792,231.323362L51.977136,237.991159L60.713120,240.023128L61.839363,242.221725L69.098196,246.184833L69.450597,250.215094L73.453650,253.276933L73.209132,255.798380L74.464484,256.350777L83.755840,256.386922L89.391610,259.032710L91.349710,258.895977L89.688744,255.294708L99.992009,256.597511L104.966255,258.721525L111.064926,264.467803L114.596292,264.807322L114.402576,270.046616L115.960705,273.140492L119.427514,273.119268L120.420008,275.882395L123.834813,276.538023L124.957358,280.248710L129.691287,282.512218L129.235812,285.655680L139.598643,291.756857L140.707551,293.685113L139.932723,297.847011L142.105069,299.817981L151.145539,304.124345L159.686346,303.085277L178.289971,317.030697L177.585688,318.944191L180.975368,326.919929L180.165908,330.163757L184.186467,333.225190L196.547293,339.691748L198.032837,339.484737L197.440586,333.930367L209.341147,333.591944L213.914405,339.584700L216.705713,340.138830L225.632079,352.298783L233.046536,352.693215L236.378980,351.106054L241.535818,361.756435L246.227895,362.587160L245.470660,363.628143L250.362006,369.465686L248.733931,372.722127L250.356048,374.197228L259.136402,374.435075L267.956873,380.345292L270.958975,384.819267L281.661935,387.595962L285.257814,390.327868L285.578019,392.184650L291.771544,394.429084L291.085931,398.356426L286.696797,398.682598L284.895599,401.130515L286.398097,403.406750L290.945233,404.008716L290.626903,404.801759L356.458677,404.801759L355.508877,400.823240L359.146769,399.964327L359.287099,400.096621L361.332467,401.984162L364.261113,404.725230L364.246201,404.801759L400.945433,404.801759L400.738994,401.380275L399.192435,398.638478L400.666993,393.403363L402.379388,389.175381L409.090048,386.393107L413.387376,381.994641L412.338907,379.089011L414.167699,376.676546L413.218886,372.982807L424.569973,372.285038L425.968672,374.043653L438.171842,377.028605L441.102220,374.275198L441.227609,372.144855L436.792970,369.899606L438.463739,360.235961L440.221841,359.072206L438.648262,353.541136L440.758420,352.401917L441.440817,347.557930L439.014068,341.826442L437.813441,333.883932L440.908933,329.017929L440.304166,325.305170L445.675480,324.036690L451.366659,324.162593L451.950773,328.339572L466.457720,328.399380L468.962502,333.917775L469.054824,337.617739L471.665090,338.379643L477.635498,335.321072L484.200258,336.398557L486.272874,333.787127L486.709299,328.164082L490.898469,331.345025L500.335275,331.097909L510.345348,338.023877L518.075328,337.587830L518.367097,339.445381L522.929764,340.127811L524.907145,345.639498L543.405024,348.603372L549.999271,351.789410L555.148424,356.436124L566.795188,357.428971L569.535320,353.537199L573.949511,353.307307L581.254134,355.631648L581.332842,355.849935L581.427098,356.046014L581.542433,356.211984L581.687679,356.344748L581.855068,356.445869L582.038670,356.523812L582.233967,356.585019L582.437563,356.634332L582.646937,356.675343L583.076149,356.742273L584.388527,356.910363L584.825027,356.973987L585.258532,357.052599L585.473502,357.101612L585.686748,357.160434L585.897700,357.232581L586.107633,357.321694L586.315297,357.424265L586.521329,357.536645L586.930296,357.780478L587.539741,358.170650L588.145247,358.573332L588.543582,358.847656L588.739312,358.987721L588.931295,359.130779L589.117925,359.278013L589.297037,359.431005L589.465751,359.591827L589.620292,359.763150L589.755781,359.948359L589.861018,360.133472L590.125701,360.703784L590.220974,360.872524L590.332229,361.015565L590.472647,361.130062L590.633640,361.213930L590.810058,361.274978L590.997893,361.319238L591.194069,361.351318L591.396244,361.374709L591.602648,361.392046L592.872448,361.457855L593.082835,361.474000L593.291005,361.495660L593.495932,361.525303L593.696276,361.566204L593.890282,361.622692L594.075653,361.700451L594.249418,361.806866L594.413197,361.951823L594.565130,362.126129L594.708713,362.321221L594.846779,362.530223L595.250377,363.187338L595.388240,363.400700L595.531512,363.602952L595.683018,363.788012L595.846249,363.948434L596.023025,364.077677L596.211687,364.181865L596.409099,364.267607L596.612862,364.339967L596.821167,364.402775L597.246373,364.510433L597.677752,364.605513L598.974428,364.876418L602.145629,367.642816L602.008003,369.676739L609.183884,373.067863L610.705309,375.803103L612.910067,375.694416L617.876651,379.198492L619.624327,376.981348L624.015801,378.421892L623.558616,380.796614L626.007988,381.614200L635.967105,381.137668L635.849063,379.512757L639.101768,379.313486L644.220106,379.847503L645.941802,382.540495L654.214514,382.155325L654.019753,380.138142L664.799433,380.017633L670.410546,382.083648L677.685504,378.283271L680.373677,371.939410L684.147796,369.571212L685.946054,368.605049L692.669451,368.042670L696.937857,365.627476L699.978814,367.561514L699.909803,370.763517L704.725882,373.367923L714.657715,372.952093L718.370326,375.606206L720.324339,383.171423L725.951504,381.354273L730.336503,382.384537L735.339730,386.872828L739.406721,387.477802L749.997106,387.444717L752.544835,384.196989L753.557182,384.553404L753.702007,384.738717L753.863126,384.917219L754.035743,385.090927L754.216316,385.261327L754.402269,385.429499L754.783454,385.762028L756.525090,387.248222L758.442814,388.907367L759.019895,389.705114L759.172876,391.690245L758.697654,392.801545L759.971295,395.123859L760.651325,395.782009L760.525559,396.355345L760.685794,399.139779L760.715070,399.522414L760.739012,399.711875L760.755926,399.805619L760.777959,399.900719L760.803944,399.995031L760.863879,400.182065L760.976260,400.490685L761.249416,401.199609L761.592727,402.352839L761.399462,403.815441L761.346428,404.276356L761.333915,404.426610L761.326173,404.573737L761.325272,404.716382L761.330743,404.801759L766.186494,404.801759L766.350086,404.623248L766.795322,404.119152L766.938587,403.947357L767.077252,403.772199L767.209441,403.592304L767.332651,403.405841L767.443583,403.210394L767.537943,403.002822L767.615087,402.770960L767.674741,402.526302L767.721830,402.272454L767.760015,402.012095L767.791980,401.747193L767.844472,401.209046L767.889035,400.665142L768.054212,398.480262L768.101816,397.938346L768.129256,397.669823L768.160698,397.403969L768.197905,397.141955L768.243280,396.885377L768.300052,396.636379L768.372498,396.397802L768.464379,396.171312L768.571998,395.955287L768.691039,395.746857L768.818241,395.543859L768.951177,395.344680L769.088068,395.148139L769.368940,394.759805L770.658949,393.030269L770.942918,392.643959L771.221489,392.253465L771.356987,392.055253L771.488429,391.853854L771.614132,391.647937L771.731831,391.435713L771.838526,391.214813L771.928418,390.992400L772.008018,390.761872L772.080034,390.525367L772.146539,390.284522L772.209102,390.040574L772.326820,389.546855L772.607390,388.301612L772.723279,387.806027L772.847905,387.316648L772.915965,387.076032L772.989833,386.839527L773.071566,386.608585L773.166460,386.375973L773.269718,386.149274L773.379050,385.926872L773.492726,385.707544L773.728273,385.274692L774.091334,384.632329L776.040838,381.215880L776.888909,379.716928L777.975196,377.784765L778.219039,377.358734L778.468285,376.939975L778.596740,376.735747L778.729272,376.536997L778.867519,376.345925L779.013649,376.165441L779.168577,375.998762L779.331319,375.842577L779.499738,375.694018L779.672217,375.550912L780.024843,375.275001L780.743248,374.740843L783.995074,372.361056L784.354500,372.094378L784.708322,371.821272L784.881098,371.679977L785.049372,371.533519L785.211238,371.379708L785.364140,371.215615L785.504707,371.037371L785.627980,370.845634L785.739307,370.640192L785.841895,370.424726L785.938190,370.202042L786.118765,369.742893L786.290650,369.273779L786.458855,368.800443L787.876156,364.761670L788.045710,364.290065L788.221932,363.827087L788.314865,363.601837L788.412988,363.383298L788.518440,363.174239L788.634072,362.978343L788.763625,362.800447L788.911464,362.643191L789.073431,362.504202L789.245698,362.378532L789.425355,362.262421L789.610225,362.153051L789.798695,362.048341L790.182068,361.847253L793.091966,360.385640L793.865420,359.993013L794.442432,359.692751L794.822581,359.483763L795.009980,359.374033L795.194632,359.258919L795.375519,359.136423L795.553023,359.003996L795.726720,358.864104L796.066594,358.569575L796.566680,358.108738L802.902075,352.109770L814.357518,355.339366L829.532607,362.904493L837.193770,362.709998L842.884972,359.455660L845.975935,359.678489L852.428185,366.244850L854.781890,366.822068L865.126655,362.101322L869.355072,357.643133L883.503475,356.369987L895.204929,344.146992L910.194682,342.552194L912.180648,340.721303L912.649830,329.780500L917.443657,323.570067L936.831339,321.049744L943.763629,315.721505L946.581808,308.153393L946.968038,301.196763L945.064583,298.834846L946.186253,289.332491L950.584748,271.422956L953.543351,268.687611L974.756479,263.200131L982.581738,258.904621L987.610560,253.939300L988.595925,251.114688L987.398489,246.772457L995.225326,244.543770L1000.000000,240.691801L1000.000000,137.212932Z "/></g></svg>