<?xml version="1.0" encoding="utf-8"?><!DOCTYPE svg  PUBLIC '-//W3C//DTD SVG 1.1//EN'  'http://www.w3.org/Graphics/SVG/1.1/DTD/svg11.dtd'><svg enable_background="new 0 0 1000 474" height="474px" pretty_print="False" style="stroke-linejoin: round; stroke:#000; fill: none;" version="1.1" viewBox="0 0 1000 474" width="1000px" xmlns="http://www.w3.org/2000/svg" xmlns:xlink="http://www.w3.org/1999/xlink"><defs><style type="text/css"><![CDATA[path { fill-rule: evenodd; }]]></style></defs><metadata><views><view h="474.646593407" padding="0" w="1000"><proj flip="auto" id="robinson" lon0="13.8501256986"/><bbox h="38.38" w="81.03" x="161.18" y="-850.29"/></view></views></metadata><g class="" id="hory"><path d="M301.787980,449.300676L282.434877,423.217878L241.255682,380.686597L202.658815,357.377598L174.560800,343.671691L143.137508,343.671691L131.413801,346.412550L120.965852,351.894753L123.813586,361.490147L128.636484,368.345170L137.994503,377.943797L143.711395,382.058051L164.420779,398.518302L203.422621,427.335490L228.632616,445.181632L248.024400,457.539522L279.602873,472.646593L285.043971,472.646593L291.470728,471.273093L296.294279,463.032633L297.748152,453.419974L301.787980,449.300676Z " data-code="Sumava" data-name="Sumava"/><path d="M201.448370,58.383405L210.240364,47.513296L211.420835,48.871856L213.663245,36.646893L213.446312,33.930871L213.120723,29.857269L208.508686,25.784187L186.432903,17.639575L98.661775,61.101513L44.176618,93.737010L49.660831,110.067422L61.103751,119.597416L112.054934,96.458157L128.831551,91.016098L201.448370,58.383405Z " data-code="Krusné hory" data-name="Krusné hory"/><path d="M277.801709,47.513296L262.898680,48.871856L208.208208,62.460655L201.554318,73.335882L199.827717,92.376525L228.505557,88.295421L255.662873,78.774895L284.278610,61.101513L282.871646,57.024438L277.801709,47.513296Z " data-code="Ceské Stredohorí" data-name="Ceské Stredohorí"/><path d="M551.064546,57.024438L519.177409,36.646893L468.411329,20.354215L450.680332,25.784187L454.988168,50.230475L477.995085,55.665530L525.599191,71.976274L545.043360,73.335882L544.671701,69.257234L551.064546,57.024438Z " data-code="Krkonose" data-name="Krkonose"/><path d="M419.003715,43.437961L433.535436,25.784187L425.314412,5.426531L414.130125,0.000000L387.355409,12.210982L400.658047,42.079632L400.540496,40.721360L419.003715,43.437961Z " data-code="Jizerské hory" data-name="Jizerské hory"/><path d="M648.572776,164.718902L644.875835,153.656827L622.475730,120.959080L575.325437,99.179539L567.267525,116.874265L597.716182,144.116444L626.753598,167.291026L641.384000,174.110373L647.469075,170.018585L648.572776,164.718902Z " data-code="Orlické hory" data-name="Orlické hory"/><path d="M748.547042,197.450639L766.546063,182.826960L761.718103,175.822467L755.862099,165.927337L722.937535,148.204822L707.441348,155.019978L687.321901,170.018585L701.619888,206.064032L721.565125,220.087980L730.541430,213.837992L748.547042,197.450639Z " data-code="Hrubý Jeseník" data-name="Hrubý Jeseník"/><path d="M997.163064,260.160761L969.734011,256.058277L918.304642,282.048357L900.988216,314.902858L913.414229,321.742934L951.046548,306.686736L987.507599,282.048357L997.342513,272.470963L998.944361,266.999258L998.804267,265.631457L997.163064,260.160761Z " data-code="Beskydy" data-name="Beskydy"/><path d="M499.179521,364.232040L541.387794,350.524142L560.450360,332.709916L578.897581,283.416752L580.095942,260.160761L567.968489,245.120609L503.348013,209.597093L457.664175,217.791489L427.404358,230.086880L414.505951,243.753637L386.306906,282.048357L383.549619,314.902858L390.706415,323.120586L399.059404,332.709916L407.194884,339.560713L446.908721,361.490147L474.918735,372.458642L483.595623,372.458642L490.846580,368.345170L499.179521,364.232040Z " data-code="Ceskomoravská vrchovina" data-name="Ceskomoravská vrchovina"/><path d="M884.547437,365.607009L870.145464,365.603045L800.258742,410.690378L793.206056,424.772097L801.428984,435.181595L826.832162,429.711972L899.239730,386.172634L903.746199,378.349212L905.376489,371.087447L884.547437,365.607009Z " data-code="Bílé Karpaty" data-name="Bílé Karpaty"/><path d="M71.213601,306.686736L62.232040,271.102962L42.454867,235.552933L18.963138,208.231560L8.177690,208.231560L1.055639,230.086880L9.412429,257.425720L31.125850,290.259449L54.656823,317.641924L63.317689,317.641924L71.213601,306.686736Z " data-code="Ceský les" data-name="Ceský les"/><path d="M702.371540,257.294273L661.681367,244.781877L652.367112,251.037526L649.265119,271.375878L663.113896,315.218314L677.332856,335.589598L700.877879,335.589598L709.598055,308.952183L708.679292,285.462771L708.183693,266.681413L706.786357,261.596414L702.371540,257.294273Z " data-code="Drahanská vrchovina" data-name="Drahanská vrchovina"/><path d="M698.155325,146.409702L710.020708,141.733080L713.900444,130.823689L711.806296,109.016311L698.465941,98.118301L681.111090,96.561750L679.839268,109.016311L688.651967,137.057160L691.261232,138.615722L698.155325,146.409702Z " data-code="Rychlebské hory" data-name="Rychlebské hory"/><path d="M764.736092,192.045697L748.801904,209.224498L730.923616,232.273930L750.424729,255.729984L783.941469,257.294273L799.497553,213.520633L778.639573,195.558786L770.480573,190.874755L764.736092,192.045697Z " data-code="Nízký Jeseník" data-name="Nízký Jeseník"/><path d="M197.095492,194.778066L162.507008,177.605167L100.539765,172.923847L79.931043,246.345685L87.335007,263.552099L115.544888,277.636077L184.338849,271.375878L199.179343,238.527339L200.989239,213.520633L197.095492,194.778066Z " data-code="Plzenská pahorkatina" data-name="Plzenská pahorkatina"/><path d="M394.214685,421.872210L372.484990,398.326445L336.199589,410.882978L339.978355,443.856663L353.383266,456.422580L371.924637,454.851713L382.141465,442.286091L386.500896,434.433807L386.377782,432.863467L394.214685,421.872210Z " data-code="Novohradské hory" data-name="Novohradské hory"/><path d="M793.689441,345.778764L788.562355,337.352943L781.609674,337.548875L765.356273,354.402131L760.457194,368.516473L765.016108,370.869260L775.014109,371.653548L793.689441,345.778764Z " data-code="Chriby" data-name="Chriby"/><path d="M106.503674,120.307523L90.398654,118.749872L81.474523,131.213244L65.718486,151.476834L70.090679,160.833709L80.949418,157.714438L92.808334,151.476834L102.969364,139.005375L108.544934,131.213244L108.197444,126.538898L106.967175,126.538898L106.503674,120.307523Z " data-code="Doupovské hory" data-name="Doupovské hory"/><path d="M249.728224,237.354738L220.040972,252.992643L210.863899,262.378675L206.742892,273.332079L205.090679,284.288666L213.452480,296.814268L223.353136,296.814268L239.085474,292.116701L247.269880,285.854147L260.036581,274.897113L266.368455,260.814168L268.984033,246.736648L267.262355,240.481762L260.722373,235.791333L259.487381,235.791333L249.728224,237.354738Z " data-code="Brdy" data-name="Brdy"/><path d="M384.337862,32.893072L376.475821,23.195964L369.650076,20.999909L367.555363,28.309994L371.426617,38.956490L375.701586,46.611370L391.954463,68.638313L400.546435,73.492717L405.537170,71.975108L404.121305,62.493807L395.016950,49.225302L384.337862,32.893072Z " data-code="Jestedsko-kozákovský hrbet" data-name="Jestedsko-kozákovský hrbet"/><path d="M334.677802,36.265214L335.689447,27.324798L329.269953,21.036170L319.693619,17.701889L307.452576,10.734527L302.681748,12.286883L295.976598,20.049791L295.236790,27.701551L297.761707,35.430510L302.954913,39.258002L315.572137,43.501994L326.462324,41.379927L334.677802,36.265214Z " data-code="Luzické hory" data-name="Luzické hory"/><path d="M919.701587,325.598637L907.775302,328.732812L897.064013,333.238580L888.761838,341.859583L884.373467,355.774176L885.806232,364.203321L891.149918,366.555902L900.086654,365.967746L907.888717,360.086577L917.223296,349.306312L923.353897,337.548875L922.043600,325.794517L921.908025,325.990397L919.701587,325.598637Z " data-code="Javorníky" data-name="Javorníky"/><path d="M355.301831,308.364781L380.233146,264.529981L384.328998,246.541166L378.151675,223.872716L365.296951,217.622014L349.932631,218.403288L326.679073,228.561509L309.517722,230.124584L297.724353,244.977349L289.500257,258.271987L269.428595,286.441219L268.637015,308.364781L273.071606,317.764197L291.858423,336.569226L303.495800,342.839347L317.130465,342.839347L330.397776,338.136674L332.631083,335.001832L333.870270,335.001832L355.301831,308.364781Z " data-code="Stredoceská pahorkatina" data-name="Stredoceská pahorkatina"/></g><g class="" id="hranice"><path d="M319.926753,0.000000L309.930999,3.358184L306.968370,2.541627L306.198483,1.142732L306.955515,0.000000L280.688891,0.000000L281.287766,1.401980L278.817785,2.913409L279.418491,6.381297L273.356785,6.055098L273.324235,7.680806L266.642488,9.393288L260.582386,7.135599L255.304954,8.686840L254.211331,14.327265L233.704691,20.983075L232.166674,23.661689L224.788449,25.308832L218.182300,22.149283L212.635135,24.684962L213.066641,26.020972L210.612987,28.137703L204.555796,27.449103L202.791249,32.030662L205.466674,35.532905L204.881995,37.213387L202.159341,38.543831L199.172374,37.527726L198.384955,40.680421L182.993436,38.943432L180.303582,40.667481L178.276242,39.375006L175.263049,41.037421L175.118674,42.712865L168.243798,39.718291L158.809116,44.082363L151.505079,43.187120L147.004048,45.088780L150.194648,50.591140L147.748602,56.185838L147.602805,58.213940L143.441761,59.779086L138.808762,65.675545L130.791432,62.792306L126.677514,56.805754L123.283844,55.961178L124.690427,60.527794L116.638978,64.448327L116.872034,69.718616L111.805829,71.043563L109.620185,67.452848L104.852064,67.641021L101.257044,73.462744L102.434875,76.093194L97.527104,82.981255L97.797980,85.378481L88.516447,84.746571L87.698801,82.378356L80.500044,85.976101L71.904240,84.085709L70.957738,96.676479L65.606685,102.077224L59.167193,103.720814L39.126461,94.064901L37.347921,97.244574L35.417388,96.133559L26.146162,99.581876L22.232938,104.453784L22.296769,106.555923L16.659252,102.645416L12.966133,103.870305L7.810227,102.897864L5.302952,104.858030L0.000000,105.515158L0.000000,200.921423L3.833910,202.078303L4.409304,205.939304L0.272984,209.824492L0.000000,210.810471L0.000000,249.054046L2.928274,248.961029L4.513046,253.081025L2.857940,257.449029L4.727905,258.508158L4.911510,260.005969L5.785365,261.104764L6.564416,262.643421L10.047112,262.446058L10.928168,267.147105L13.111164,269.144062L13.018123,274.541361L16.046086,278.461539L20.862996,281.151801L23.200024,280.055221L24.651908,281.858843L25.153499,289.525938L23.632098,291.277072L26.233209,293.139511L27.723160,299.652596L36.256443,301.637417L37.356555,303.785000L44.446961,307.656152L44.791185,311.592899L48.701355,314.583694L48.462511,317.046636L49.688735,317.586216L58.764504,317.621523L64.269507,320.205920L66.182174,320.072360L64.559747,316.554651L74.623945,317.827225L79.482774,319.901956L85.439937,325.514902L88.889366,325.846544L88.700144,330.964271L90.222119,333.986359L93.608488,333.965628L94.577954,336.664642L97.913525,337.305058L99.010024,340.929646L103.634111,343.140633L103.189205,346.211158L113.311587,352.170769L114.394765,354.054284L113.637916,358.119614L115.759857,360.044851L124.590561,364.251294L132.933195,363.236336L151.105161,376.858181L150.417219,378.727276L153.728249,386.517953L152.937570,389.686515L156.864840,392.676913L168.938858,398.993427L170.389934,398.791220L169.811424,393.365728L181.435857,393.035157L185.903002,398.888863L188.629543,399.430136L197.348791,411.307941L204.591210,411.693222L207.846332,410.142888L212.883515,420.546148L217.466722,421.357598L216.727057,422.374426L221.504909,428.076521L219.914610,431.257404L221.499090,432.698278L230.075714,432.930606L238.691523,438.703688L241.623967,443.073854L252.078587,445.786120L255.591030,448.454638L255.903805,450.268337L261.953622,452.460694L261.283918,456.296910L256.996625,456.615514L255.237220,459.006632L256.704856,461.230052L261.146485,461.818050L260.386496,463.711376L261.924577,466.352881L271.006615,469.326999L285.035831,468.333304L292.116601,471.496088L297.436533,471.115069L298.649815,472.646593L311.727482,472.646593L311.835620,472.347423L312.336334,472.646593L315.636466,472.646593L316.247132,468.986786L323.175167,468.568834L325.605513,464.543378L324.212060,458.706487L327.765541,457.867503L327.902615,457.996728L329.900525,459.840472L332.761218,462.517939L332.727577,462.690585L332.644658,462.917175L332.735820,463.289718L333.720983,463.872024L333.820232,463.998292L333.898241,464.116903L334.605599,464.245174L334.822247,464.169133L335.182827,463.946932L335.768039,463.784955L336.428673,463.876743L339.512494,464.985093L340.565225,465.374168L342.040000,465.925877L342.670738,466.152104L342.880132,466.220914L343.088715,466.283469L343.296123,466.336951L343.501862,466.377544L343.705267,466.400142L343.905467,466.398011L344.102296,466.365576L344.295908,466.308333L344.487186,466.233079L344.676798,466.144953L344.865241,466.047786L345.052882,465.944394L345.426749,465.726513L345.799737,465.501476L348.973543,463.558994L349.346857,463.336347L349.532985,463.230550L349.718476,463.131319L349.903008,463.041964L350.086129,462.967108L350.267216,462.913131L350.445423,462.888727L350.619607,462.905616L350.786580,462.972422L350.949534,463.080481L351.109530,463.218925L351.267375,463.379454L351.423679,463.555811L351.578897,463.743333L351.733363,463.938591L352.040940,464.343066L353.451541,466.257624L356.656061,465.521628L358.518942,466.898589L360.186054,470.856439L366.526319,470.503133L368.854013,466.896280L368.392703,459.250596L366.882028,456.572418L368.322372,451.458773L369.995034,447.328892L376.549988,444.611176L380.747605,440.314768L379.723463,437.476556L381.509821,435.120068L380.583024,431.512035L391.670732,430.830456L393.036977,432.548265L404.956997,435.463958L407.819381,432.774438L407.941861,430.693525L403.610119,428.500373L405.242121,419.060953L406.959430,417.924201L405.422362,412.521468L407.483559,411.408683L408.150122,406.677090L405.779681,401.078591L404.606912,393.320370L407.630579,388.567273L407.039845,384.940661L412.286528,383.701614L417.845655,383.824595L418.416215,387.904656L432.586558,387.963076L435.033221,393.353428L435.123402,396.967542L437.673101,397.711767L443.504978,394.724164L449.917416,395.776649L451.941942,393.225812L452.368240,387.733238L456.460209,390.840374L465.678053,390.598991L475.455863,397.364256L483.006483,396.938327L483.291482,398.752777L487.748282,399.419372L489.679782,404.803172L507.748455,407.698275L514.189696,410.810388L519.219373,415.349284L530.595897,416.319095L533.272451,412.517623L537.584218,412.293065L544.719353,414.563474L544.796235,414.776696L544.888303,414.968226L545.000962,415.130345L545.142838,415.260029L545.306343,415.358803L545.485685,415.434937L545.676451,415.494724L545.875323,415.542893L546.079839,415.582953L546.499091,415.648329L547.781019,415.812519L548.207391,415.874667L548.630837,415.951455L548.840819,415.999331L549.049117,416.056788L549.255174,416.127260L549.460236,416.214306L549.663082,416.314497L549.864333,416.424270L550.263811,416.662445L550.859115,417.043564L551.450572,417.436902L551.839664,417.704862L552.030852,417.841676L552.218381,417.981415L552.400681,418.125233L552.575636,418.274675L552.740435,418.431765L552.891391,418.599113L553.023736,418.780025L553.126531,418.960843L553.385073,419.517922L553.478135,419.682746L553.586809,419.822469L553.723969,419.934309L553.881226,420.016231L554.053551,420.075862L554.237028,420.119095L554.428651,420.150431L554.626135,420.173280L554.827751,420.190214L556.068087,420.254496L556.273592,420.270267L556.476933,420.291424L556.677105,420.320379L556.872800,420.360331L557.062304,420.415508L557.243375,420.491463L557.413107,420.595409L557.573086,420.737002L557.721493,420.907264L557.861745,421.097829L557.996608,421.301982L558.390841,421.943850L558.525505,422.152261L558.665453,422.349820L558.813444,422.530586L558.972888,422.687286L559.145562,422.813530L559.329846,422.915301L559.522677,422.999054L559.721712,423.069735L559.925184,423.131085L560.340524,423.236245L560.761893,423.329119L562.028483,423.593738L565.126102,426.295948L564.991670,428.282677L572.001049,431.595117L573.487172,434.266892L575.640773,434.160726L580.492118,437.583497L582.199242,435.417798L586.488821,436.824917L586.042245,439.144538L588.434784,439.943154L598.162819,439.477678L598.047516,437.890470L601.224749,437.695823L606.224326,438.217449L607.906074,440.847956L615.986834,440.471723L615.796592,438.501345L626.326152,438.383632L631.807070,440.401709L638.913227,436.689512L641.539027,430.492847L645.225575,428.179599L646.982108,427.235853L653.549502,426.686524L657.718868,424.327370L660.689266,426.216532L660.621856,429.344239L665.326188,431.888215L675.027573,431.482033L678.654040,434.074563L680.562714,441.464244L686.059312,439.689258L690.342566,440.695616L695.229704,445.079766L699.202327,445.670702L709.546984,445.638386L712.035598,442.466014L713.024456,442.814159L713.165920,442.995173L713.323301,443.169533L713.491913,443.339210L713.668296,443.505656L713.849934,443.669926L714.222275,443.994739L715.923499,445.446450L717.796727,447.067098L718.360417,447.846334L718.509848,449.785404L718.045654,450.870919L719.289742,453.139348L719.953993,453.782227L719.831146,454.342260L719.987663,457.062087L720.016259,457.435843L720.039646,457.620908L720.056168,457.712477L720.077690,457.805371L720.103071,457.897495L720.161616,458.080189L720.271389,458.381648L720.538207,459.074122L720.873552,460.200594L720.684771,461.629260L720.632968,462.079480L720.620746,462.226248L720.613183,462.369961L720.612303,462.509296L720.620836,462.642462L720.642439,462.767063L720.681942,462.879936L720.744995,462.980728L720.826701,463.069296L720.921927,463.149006L721.026813,463.222386L721.138495,463.291313L721.254871,463.357165L721.618969,463.544912L722.653314,464.052341L723.596129,464.523145L723.960341,464.120794L725.520526,462.418323L725.955432,461.925923L726.095372,461.758115L726.230820,461.587021L726.359942,461.411300L726.480293,461.229163L726.588651,461.038252L726.680821,460.835496L726.756175,460.609013L726.814445,460.370032L726.860442,460.122074L726.897741,459.867757L726.928964,459.609001L726.980238,459.083341L727.023767,458.552056L727.185111,456.417873L727.231611,455.888530L727.258415,455.626238L727.289127,455.366553L727.325470,455.110619L727.369792,454.859994L727.425248,454.616774L727.496013,454.383732L727.585761,454.162497L727.690883,453.951484L727.807162,453.747891L727.931412,453.549603L728.061264,453.355045L728.194979,453.163065L728.469334,452.783741L729.729411,451.094336L730.006790,450.716990L730.278898,450.335556L730.411252,450.141943L730.539645,449.945217L730.662431,449.744078L730.777399,449.536778L730.881618,449.321004L730.969424,449.103751L731.047177,448.878572L731.117523,448.647555L731.182484,448.412298L731.243596,448.174011L731.358582,447.691748L731.632642,446.475397L731.745842,445.991312L731.867577,445.513288L731.934058,445.278255L732.006211,445.047237L732.086048,444.821654L732.178740,444.594439L732.279602,444.373000L732.386398,444.155759L732.497436,443.941520L732.727517,443.518711L733.082154,442.891253L734.986424,439.554076L735.814817,438.089904L736.875899,436.202573L737.114084,435.786427L737.357546,435.377384L737.483021,435.177895L737.612478,434.983757L737.747517,434.797118L737.890257,434.620822L738.041590,434.458011L738.200556,434.305450L738.365067,434.160338L738.533544,434.020552L738.877988,433.751043L739.579724,433.229279L742.756098,430.904710L743.107184,430.644220L743.452796,430.377451L743.621563,430.239434L743.785933,430.096374L743.944043,429.946133L744.093398,429.785847L744.230702,429.611738L744.351116,429.424450L744.459859,429.223775L744.560068,429.013309L744.654128,428.795791L744.830513,428.347297L744.998409,427.889067L745.162711,427.426714L746.547127,423.481652L746.712747,423.020990L746.884880,422.568755L746.975657,422.348731L747.071503,422.135263L747.174508,421.931055L747.287457,421.739704L747.414004,421.565936L747.558413,421.412329L747.716622,421.276565L747.884891,421.153811L748.060381,421.040394L748.240961,420.933562L748.425058,420.831281L748.799535,420.634859L751.641915,419.207160L752.397423,418.823642L752.961046,418.530348L753.332374,418.326209L753.515425,418.219025L753.695792,418.106582L753.872483,417.986929L754.045868,417.857574L754.215535,417.720928L754.547523,417.433233L755.036006,416.983089L761.224400,411.123314L772.414043,414.277974L787.237024,421.667567L794.720426,421.477586L800.279574,418.298757L803.298818,418.516417L809.601357,424.930418L811.900448,425.494243L822.005184,420.883033L826.135490,416.528286L839.955607,415.284682L851.385552,403.345296L866.027498,401.787503L867.967384,399.999094L868.425679,389.312150L873.108276,383.245818L892.046105,380.783974L898.817546,375.579366L901.570334,368.186856L901.947603,361.391642L900.088313,359.084528L901.183957,349.802655L905.480395,332.308675L908.370348,329.636798L929.091269,324.276644L936.734959,320.080803L941.647097,315.230692L942.609599,312.471620L941.439947,308.230142L949.085178,306.053167L958.105915,298.775684L961.364491,293.009107L962.054204,285.543032L964.286594,283.916393L985.979327,285.866681L992.782743,287.922910L1000.000000,284.242596L1000.000000,250.302915L998.695809,249.341057L988.951024,250.395350L985.328759,247.729030L983.783259,244.124455L975.019304,244.265413L974.150226,246.094093L972.629856,246.118810L972.586558,246.031861L972.488472,245.794766L972.403069,245.550060L972.326928,245.299820L972.257447,245.045620L972.131161,244.529745L972.013993,244.008576L971.058185,239.558893L970.943169,239.036965L970.823245,238.517505L970.692511,238.003454L970.619931,237.750032L970.539961,237.500299L970.449887,237.255610L970.346018,237.013782L970.231809,236.777116L970.110075,236.544206L969.982953,236.313986L969.852039,236.085659L969.583235,235.632493L967.934241,232.931704L966.565354,230.678613L964.242594,226.845926L962.607646,224.135229L962.195137,223.462223L961.913730,223.021457L961.769172,222.805837L961.620630,222.595143L961.466611,222.391221L961.304189,222.193551L961.136198,222.002757L960.964178,221.816926L960.612415,221.454707L960.075390,220.922573L959.455277,220.316924L961.854241,218.184918L961.625550,216.376105L964.689862,214.510752L964.461678,212.701377L958.972454,212.795517L958.513974,209.177821L959.611911,209.159454L959.153973,205.542164L960.252596,205.523034L958.695205,201.925280L953.086914,201.117333L952.563489,205.657709L942.985069,205.834686L942.736658,205.752687L942.308242,205.622601L940.373580,205.051448L938.658930,204.533367L920.598967,197.540794L921.769894,200.436671L921.733798,200.449904L921.227876,200.547906L920.978817,200.603112L920.714759,200.670107L920.450969,200.749369L920.203017,200.841739L919.986756,200.948389L919.818108,201.070580L919.692435,201.216680L919.596811,201.395152L919.523659,201.600364L919.473299,201.796727L916.954315,202.713354L912.208370,200.092127L911.618999,195.572433L909.067769,192.906669L901.375496,193.071121L899.327476,185.863862L892.731282,186.008394L892.108955,189.649160L888.453577,187.012196L884.056816,187.111614L881.498873,184.449927L882.118582,180.811007L872.356740,173.791295L867.956719,173.895256L865.998714,175.754391L866.483342,179.367486L872.960249,178.306296L873.924558,185.532740L863.669519,183.059762L854.750254,190.534061L848.281346,191.604848L844.702293,190.431699L844.517532,190.281796L844.326151,190.138262L844.131693,190.001909L843.935000,189.870774L843.537296,189.618585L843.136414,189.373826L840.318232,187.688910L834.887567,184.427920L831.861411,182.630904L831.464206,182.382397L831.269353,182.252807L831.078587,182.117401L830.893639,181.973713L830.716830,181.818439L830.551219,181.647222L830.401717,181.459846L830.263098,181.256975L830.132432,181.042782L830.007490,180.820443L829.886596,180.592344L829.652318,180.125459L829.423210,179.651231L827.036758,174.647402L826.578032,173.699594L826.341421,173.233750L826.218954,173.005457L826.092117,172.782023L825.959207,172.565344L825.817990,172.357910L825.665569,172.160396L825.504742,171.972218L825.337791,171.790823L824.992008,171.441080L824.637437,171.100760L823.379434,169.922989L823.223966,169.776289L822.850342,166.898511L815.751814,163.470269L810.381967,164.378429L810.247349,164.336714L810.037381,164.264415L809.829331,164.185023L809.623968,164.095692L809.422311,163.992659L809.227315,163.874260L809.035955,163.742415L808.847242,163.600782L808.660427,163.452136L808.290389,163.141571L807.922914,162.821549L805.908387,161.037518L801.874942,157.488246L799.493906,155.384968L799.125722,155.067370L798.754155,154.760464L798.566084,154.614237L798.375649,154.475469L798.181969,154.346945L797.985990,154.231840L797.887673,154.180008L797.739223,153.112951L816.084204,149.874895L816.562196,145.334241L823.173592,145.153240L823.405358,138.810453L818.621670,136.225141L817.997654,131.717008L820.807752,128.020902L820.433945,125.317417L817.123349,125.407479L813.312073,121.892983L808.772083,121.114581L810.628344,126.491290L805.740509,131.153633L800.478216,133.113277L797.170465,133.208704L796.918000,131.405548L777.070712,131.995646L774.273847,135.702912L769.865201,135.839576L769.353431,132.233827L766.635785,128.697191L760.148655,129.807070L758.587567,134.383637L756.125477,132.651410L756.712765,129.010915L757.041627,123.568902L753.732900,123.674985L753.474518,121.873141L744.650385,122.160086L729.977722,112.693051L730.557331,109.053349L721.858031,110.255602L717.048170,107.706972L715.548860,105.044901L705.480051,104.494971L702.874075,101.873592L696.248920,102.112306L686.613600,97.036399L682.195960,97.201109L680.121564,98.183287L677.750770,104.608617L686.146002,108.820685L687.082035,115.123061L689.555153,116.842873L691.590889,123.106412L703.278063,127.208763L705.173548,132.575069L703.234639,134.456929L703.631677,137.161204L706.098542,138.883755L706.494724,141.588414L702.223058,142.649113L699.226444,137.320780L697.023766,137.401714L696.453614,141.047769L686.545272,141.415834L684.043846,146.948790L678.141314,144.452920L676.074155,145.438871L675.375955,148.185343L672.209722,149.214187L670.949058,155.611808L667.088491,159.390650L663.791222,159.520542L662.265939,164.116761L659.374170,166.953537L653.747178,166.271831L652.378284,164.512610L647.983979,164.690667L644.281465,162.120015L644.009966,160.315949L639.342356,158.693829L638.997532,156.411482L638.269180,155.794689L638.183743,155.614615L638.068224,155.435088L637.931141,155.255988L637.778854,155.077228L637.616053,154.898742L637.446152,154.720478L637.094201,154.364416L636.199583,153.472262L635.852524,153.108932L635.685395,152.923370L635.524952,152.733563L635.373829,152.537716L635.235555,152.333422L635.114802,152.117508L635.015079,151.886683L634.932891,151.644176L634.863456,151.393189L634.803154,151.136143L634.749278,150.874843L634.653380,150.344436L634.523039,149.540016L633.808973,144.965762L633.675248,144.164370L633.625708,143.901064L633.571440,143.641403L633.510292,143.387042L633.439342,143.140236L633.354672,142.904003L633.251104,142.682333L633.124150,142.478053L632.978235,142.288385L632.818566,142.109316L632.649083,141.937811L632.472724,141.771606L632.291651,141.609035L631.733692,141.132692L630.414990,140.034235L629.290138,139.088569L622.940543,133.714951L622.568642,133.396412L622.199774,133.072832L621.837176,132.738813L621.659900,132.565105L621.487049,132.386247L621.149332,132.015235L620.653385,131.441029L617.874985,128.134517L612.641850,121.918586L602.339532,119.459397L600.541495,115.007087L599.439505,115.055155L600.123290,112.306251L597.500082,109.703292L589.783506,110.045052L586.757357,111.992695L584.272044,110.292220L583.850436,107.592552L581.504930,106.792384L581.082824,104.093017L575.569457,104.343189L575.004678,100.744873L572.657304,99.946404L573.194904,96.298264L578.852621,96.946418L576.222634,94.348543L589.585793,87.408453L588.060158,84.760292L597.175718,86.168958L599.104555,84.273981L598.824789,82.475154L601.998740,81.432492L601.439893,77.836026L603.510565,76.841526L602.671850,71.448144L609.305852,71.163184L607.502396,66.716928L600.166009,62.509709L597.251464,58.113407L593.791232,57.360187L592.121389,53.815186L583.266259,54.205840L578.414049,51.709696L573.986182,51.908436L572.198870,54.703113L572.767312,58.296194L566.413923,60.395265L566.129294,58.598555L562.525060,56.955024L562.239679,55.158508L551.994895,53.825086L552.281755,55.621526L548.143660,57.625221L547.899443,63.066526L538.092864,64.439186L536.554468,61.798278L537.660233,61.744959L537.082650,58.152249L538.188865,58.098937L537.467084,53.609581L536.360532,53.662124L535.637968,49.173394L533.134948,47.484668L526.494507,47.806722L518.223992,51.831529L514.759368,51.098254L514.467288,49.303592L513.736996,44.815476L508.577376,40.548735L509.245257,37.801728L506.590511,35.220868L503.267913,35.387541L502.454222,37.237742L496.770439,36.621250L494.851081,38.528608L486.953461,38.029305L485.253771,34.498630L477.205151,33.108234L474.543715,30.533080L463.169327,29.326238L459.996708,30.400675L458.439357,27.770194L452.901249,28.068462L447.868467,24.723002L447.566785,22.929822L443.286110,24.068712L443.739549,26.758235L442.842068,28.064952L440.719239,28.734247L440.506370,30.579105L436.942306,30.789643L436.816208,30.633888L436.678577,30.438628L436.558755,30.230698L436.459859,30.005245L436.379043,29.766928L436.311362,29.519267L436.253069,29.264928L436.201365,29.005901L436.154192,28.743652L436.026905,27.946788L435.746717,26.075545L435.299550,23.140218L435.019003,21.269531L434.935920,20.736891L434.845036,20.209376L434.793807,19.949447L434.736266,19.693711L434.669726,19.443964L434.590591,19.202615L434.494110,18.972849L434.379689,18.762618L434.248683,18.563447L434.105537,18.372343L433.953642,18.187028L433.795547,18.005802L433.633138,17.827425L433.131801,17.302181L432.621024,16.787688L432.276448,16.455475L432.102055,16.295751L431.925428,16.142722L431.745646,15.999008L431.561493,15.868053L431.368283,15.750556L431.170529,15.646259L430.969487,15.551559L430.766107,15.463724L430.354978,15.301017L429.733211,15.072353L424.691495,13.340252L422.972692,9.818381L420.602311,9.047286L418.422355,2.839660L417.313446,2.902004L417.533024,0.000000L373.878013,0.000000L372.177784,1.010449L375.972402,3.497320L376.283889,5.287895L375.175260,5.354046L376.265927,11.622997L367.558508,13.052008L362.657368,10.634362L358.382826,11.800194L356.960786,10.076937L354.744853,10.213061L355.059429,12.004010L348.255284,11.518048L345.591274,21.600026L340.358338,22.280132L336.805904,20.264962L333.368509,21.734677L330.908537,17.984449L328.044413,18.561028L316.488136,14.630155L318.553677,6.708261L321.039786,5.106172L320.194000,0.000000L319.926753,0.000000Z "/></g><g class="" id="hranice_"><path d="M319.926753,0.000000L309.930999,3.358184L306.968370,2.541627L306.198483,1.142732L306.955515,0.000000L280.688891,0.000000L281.287766,1.401980L278.817785,2.913409L279.418491,6.381297L273.356785,6.055098L273.324235,7.680806L266.642488,9.393288L260.582386,7.135599L255.304954,8.686840L254.211331,14.327265L233.704691,20.983075L232.166674,23.661689L224.788449,25.308832L218.182300,22.149283L212.635135,24.684962L213.066641,26.020972L210.612987,28.137703L204.555796,27.449103L202.791249,32.030662L205.466674,35.532905L204.881995,37.213387L202.159341,38.543831L199.172374,37.527726L198.384955,40.680421L182.993436,38.943432L180.303582,40.667481L178.276242,39.375006L175.263049,41.037421L175.118674,42.712865L168.243798,39.718291L158.809116,44.082363L151.505079,43.187120L147.004048,45.088780L150.194648,50.591140L147.748602,56.185838L147.602805,58.213940L143.441761,59.779086L138.808762,65.675545L130.791432,62.792306L126.677514,56.805754L123.283844,55.961178L124.690427,60.527794L116.638978,64.448327L116.872034,69.718616L111.805829,71.043563L109.620185,67.452848L104.852064,67.641021L101.257044,73.462744L102.434875,76.093194L97.527104,82.981255L97.797980,85.378481L88.516447,84.746571L87.698801,82.378356L80.500044,85.976101L71.904240,84.085709L70.957738,96.676479L65.606685,102.077224L59.167193,103.720814L39.126461,94.064901L37.347921,97.244574L35.417388,96.133559L26.146162,99.581876L22.232938,104.453784L22.296769,106.555923L16.659252,102.645416L12.966133,103.870305L7.810227,102.897864L5.302952,104.858030L0.000000,105.515158L0.000000,200.921423L3.833910,202.078303L4.409304,205.939304L0.272984,209.824492L0.000000,210.810471L0.000000,249.054046L2.928274,248.961029L4.513046,253.081025L2.857940,257.449029L4.727905,258.508158L4.911510,260.005969L5.785365,261.104764L6.564416,262.643421L10.047112,262.446058L10.928168,267.147105L13.111164,269.144062L13.018123,274.541361L16.046086,278.461539L20.862996,281.151801L23.200024,280.055221L24.651908,281.858843L25.153499,289.525938L23.632098,291.277072L26.233209,293.139511L27.723160,299.652596L36.256443,301.637417L37.356555,303.785000L44.446961,307.656152L44.791185,311.592899L48.701355,314.583694L48.462511,317.046636L49.688735,317.586216L58.764504,317.621523L64.269507,320.205920L66.182174,320.072360L64.559747,316.554651L74.623945,317.827225L79.482774,319.901956L85.439937,325.514902L88.889366,325.846544L88.700144,330.964271L90.222119,333.986359L93.608488,333.965628L94.577954,336.664642L97.913525,337.305058L99.010024,340.929646L103.634111,343.140633L103.189205,346.211158L113.311587,352.170769L114.394765,354.054284L113.637916,358.119614L115.759857,360.044851L124.590561,364.251294L132.933195,363.236336L151.105161,376.858181L150.417219,378.727276L153.728249,386.517953L152.937570,389.686515L156.864840,392.676913L168.938858,398.993427L170.389934,398.791220L169.811424,393.365728L181.435857,393.035157L185.903002,398.888863L188.629543,399.430136L197.348791,411.307941L204.591210,411.693222L207.846332,410.142888L212.883515,420.546148L217.466722,421.357598L216.727057,422.374426L221.504909,428.076521L219.914610,431.257404L221.499090,432.698278L230.075714,432.930606L238.691523,438.703688L241.623967,443.073854L252.078587,445.786120L255.591030,448.454638L255.903805,450.268337L261.953622,452.460694L261.283918,456.296910L256.996625,456.615514L255.237220,459.006632L256.704856,461.230052L261.146485,461.818050L260.386496,463.711376L261.924577,466.352881L271.006615,469.326999L285.035831,468.333304L292.116601,471.496088L297.436533,471.115069L298.649815,472.646593L311.727482,472.646593L311.835620,472.347423L312.336334,472.646593L315.636466,472.646593L316.247132,468.986786L323.175167,468.568834L325.605513,464.543378L324.212060,458.706487L327.765541,457.867503L327.902615,457.996728L329.900525,459.840472L332.761218,462.517939L332.727577,462.690585L332.644658,462.917175L332.735820,463.289718L333.720983,463.872024L333.820232,463.998292L333.898241,464.116903L334.605599,464.245174L334.822247,464.169133L335.182827,463.946932L335.768039,463.784955L336.428673,463.876743L339.512494,464.985093L340.565225,465.374168L342.040000,465.925877L342.670738,466.152104L342.880132,466.220914L343.088715,466.283469L343.296123,466.336951L343.501862,466.377544L343.705267,466.400142L343.905467,466.398011L344.102296,466.365576L344.295908,466.308333L344.487186,466.233079L344.676798,466.144953L344.865241,466.047786L345.052882,465.944394L345.426749,465.726513L345.799737,465.501476L348.973543,463.558994L349.346857,463.336347L349.532985,463.230550L349.718476,463.131319L349.903008,463.041964L350.086129,462.967108L350.267216,462.913131L350.445423,462.888727L350.619607,462.905616L350.786580,462.972422L350.949534,463.080481L351.109530,463.218925L351.267375,463.379454L351.423679,463.555811L351.578897,463.743333L351.733363,463.938591L352.040940,464.343066L353.451541,466.257624L356.656061,465.521628L358.518942,466.898589L360.186054,470.856439L366.526319,470.503133L368.854013,466.896280L368.392703,459.250596L366.882028,456.572418L368.322372,451.458773L369.995034,447.328892L376.549988,444.611176L380.747605,440.314768L379.723463,437.476556L381.509821,435.120068L380.583024,431.512035L391.670732,430.830456L393.036977,432.548265L404.956997,435.463958L407.819381,432.774438L407.941861,430.693525L403.610119,428.500373L405.242121,419.060953L406.959430,417.924201L405.422362,412.521468L407.483559,411.408683L408.150122,406.677090L405.779681,401.078591L404.606912,393.320370L407.630579,388.567273L407.039845,384.940661L412.286528,383.701614L417.845655,383.824595L418.416215,387.904656L432.586558,387.963076L435.033221,393.353428L435.123402,396.967542L437.673101,397.711767L443.504978,394.724164L449.917416,395.776649L451.941942,393.225812L452.368240,387.733238L456.460209,390.840374L465.678053,390.598991L475.455863,397.364256L483.006483,396.938327L483.291482,398.752777L487.748282,399.419372L489.679782,404.803172L507.748455,407.698275L514.189696,410.810388L519.219373,415.349284L530.595897,416.319095L533.272451,412.517623L537.584218,412.293065L544.719353,414.563474L544.796235,414.776696L544.888303,414.968226L545.000962,415.130345L545.142838,415.260029L545.306343,415.358803L545.485685,415.434937L545.676451,415.494724L545.875323,415.542893L546.079839,415.582953L546.499091,415.648329L547.781019,415.812519L548.207391,415.874667L548.630837,415.951455L548.840819,415.999331L549.049117,416.056788L549.255174,416.127260L549.460236,416.214306L549.663082,416.314497L549.864333,416.424270L550.263811,416.662445L550.859115,417.043564L551.450572,417.436902L551.839664,417.704862L552.030852,417.841676L552.218381,417.981415L552.400681,418.125233L552.575636,418.274675L552.740435,418.431765L552.891391,418.599113L553.023736,418.780025L553.126531,418.960843L553.385073,419.517922L553.478135,419.682746L553.586809,419.822469L553.723969,419.934309L553.881226,420.016231L554.053551,420.075862L554.237028,420.119095L554.428651,420.150431L554.626135,420.173280L554.827751,420.190214L556.068087,420.254496L556.273592,420.270267L556.476933,420.291424L556.677105,420.320379L556.872800,420.360331L557.062304,420.415508L557.243375,420.491463L557.413107,420.595409L557.573086,420.737002L557.721493,420.907264L557.861745,421.097829L557.996608,421.301982L558.390841,421.943850L558.525505,422.152261L558.665453,422.349820L558.813444,422.530586L558.972888,422.687286L559.145562,422.813530L559.329846,422.915301L559.522677,422.999054L559.721712,423.069735L559.925184,423.131085L560.340524,423.236245L560.761893,423.329119L562.028483,423.593738L565.126102,426.295948L564.991670,428.282677L572.001049,431.595117L573.487172,434.266892L575.640773,434.160726L580.492118,437.583497L582.199242,435.417798L586.488821,436.824917L586.042245,439.144538L588.434784,439.943154L598.162819,439.477678L598.047516,437.890470L601.224749,437.695823L606.224326,438.217449L607.906074,440.847956L615.986834,440.471723L615.796592,438.501345L626.326152,438.383632L631.807070,440.401709L638.913227,436.689512L641.539027,430.492847L645.225575,428.179599L646.982108,427.235853L653.549502,426.686524L657.718868,424.327370L660.689266,426.216532L660.621856,429.344239L665.326188,431.888215L675.027573,431.482033L678.654040,434.074563L680.562714,441.464244L686.059312,439.689258L690.342566,440.695616L695.229704,445.079766L699.202327,445.670702L709.546984,445.638386L712.035598,442.466014L713.024456,442.814159L713.165920,442.995173L713.323301,443.169533L713.491913,443.339210L713.668296,443.505656L713.849934,443.669926L714.222275,443.994739L715.923499,445.446450L717.796727,447.067098L718.360417,447.846334L718.509848,449.785404L718.045654,450.870919L719.289742,453.139348L719.953993,453.782227L719.831146,454.342260L719.987663,457.062087L720.016259,457.435843L720.039646,457.620908L720.056168,457.712477L720.077690,457.805371L720.103071,457.897495L720.161616,458.080189L720.271389,458.381648L720.538207,459.074122L720.873552,460.200594L720.684771,461.629260L720.632968,462.079480L720.620746,462.226248L720.613183,462.369961L720.612303,462.509296L720.620836,462.642462L720.642439,462.767063L720.681942,462.879936L720.744995,462.980728L720.826701,463.069296L720.921927,463.149006L721.026813,463.222386L721.138495,463.291313L721.254871,463.357165L721.618969,463.544912L722.653314,464.052341L723.596129,464.523145L723.960341,464.120794L725.520526,462.418323L725.955432,461.925923L726.095372,461.758115L726.230820,461.587021L726.359942,461.411300L726.480293,461.229163L726.588651,461.038252L726.680821,460.835496L726.756175,460.609013L726.814445,460.370032L726.860442,460.122074L726.897741,459.867757L726.928964,459.609001L726.980238,459.083341L727.023767,458.552056L727.185111,456.417873L727.231611,455.888530L727.258415,455.626238L727.289127,455.366553L727.325470,455.110619L727.369792,454.859994L727.425248,454.616774L727.496013,454.383732L727.585761,454.162497L727.690883,453.951484L727.807162,453.747891L727.931412,453.549603L728.061264,453.355045L728.194979,453.163065L728.469334,452.783741L729.729411,451.094336L730.006790,450.716990L730.278898,450.335556L730.411252,450.141943L730.539645,449.945217L730.662431,449.744078L730.777399,449.536778L730.881618,449.321004L730.969424,449.103751L731.047177,448.878572L731.117523,448.647555L731.182484,448.412298L731.243596,448.174011L731.358582,447.691748L731.632642,446.475397L731.745842,445.991312L731.867577,445.513288L731.934058,445.278255L732.006211,445.047237L732.086048,444.821654L732.178740,444.594439L732.279602,444.373000L732.386398,444.155759L732.497436,443.941520L732.727517,443.518711L733.082154,442.891253L734.986424,439.554076L735.814817,438.089904L736.875899,436.202573L737.114084,435.786427L737.357546,435.377384L737.483021,435.177895L737.612478,434.983757L737.747517,434.797118L737.890257,434.620822L738.041590,434.458011L738.200556,434.305450L738.365067,434.160338L738.533544,434.020552L738.877988,433.751043L739.579724,433.229279L742.756098,430.904710L743.107184,430.644220L743.452796,430.377451L743.621563,430.239434L743.785933,430.096374L743.944043,429.946133L744.093398,429.785847L744.230702,429.611738L744.351116,429.424450L744.459859,429.223775L744.560068,429.013309L744.654128,428.795791L744.830513,428.347297L744.998409,427.889067L745.162711,427.426714L746.547127,423.481652L746.712747,423.020990L746.884880,422.568755L746.975657,422.348731L747.071503,422.135263L747.174508,421.931055L747.287457,421.739704L747.414004,421.565936L747.558413,421.412329L747.716622,421.276565L747.884891,421.153811L748.060381,421.040394L748.240961,420.933562L748.425058,420.831281L748.799535,420.634859L751.641915,419.207160L752.397423,418.823642L752.961046,418.530348L753.332374,418.326209L753.515425,418.219025L753.695792,418.106582L753.872483,417.986929L754.045868,417.857574L754.215535,417.720928L754.547523,417.433233L755.036006,416.983089L761.224400,411.123314L772.414043,414.277974L787.237024,421.667567L794.720426,421.477586L800.279574,418.298757L803.298818,418.516417L809.601357,424.930418L811.900448,425.494243L822.005184,420.883033L826.135490,416.528286L839.955607,415.284682L851.385552,403.345296L866.027498,401.787503L867.967384,399.999094L868.425679,389.312150L873.108276,383.245818L892.046105,380.783974L898.817546,375.579366L901.570334,368.186856L901.947603,361.391642L900.088313,359.084528L901.183957,349.802655L905.480395,332.308675L908.370348,329.636798L929.091269,324.276644L936.734959,320.080803L941.647097,315.230692L942.609599,312.471620L941.439947,308.230142L949.085178,306.053167L958.105915,298.775684L961.364491,293.009107L962.054204,285.543032L964.286594,283.916393L985.979327,285.866681L992.782743,287.922910L1000.000000,284.242596L1000.000000,250.302915L998.695809,249.341057L988.951024,250.395350L985.328759,247.729030L983.783259,244.124455L975.019304,244.265413L974.150226,246.094093L972.629856,246.118810L972.586558,246.031861L972.488472,245.794766L972.403069,245.550060L972.326928,245.299820L972.257447,245.045620L972.131161,244.529745L972.013993,244.008576L971.058185,239.558893L970.943169,239.036965L970.823245,238.517505L970.692511,238.003454L970.619931,237.750032L970.539961,237.500299L970.449887,237.255610L970.346018,237.013782L970.231809,236.777116L970.110075,236.544206L969.982953,236.313986L969.852039,236.085659L969.583235,235.632493L967.934241,232.931704L966.565354,230.678613L964.242594,226.845926L962.607646,224.135229L962.195137,223.462223L961.913730,223.021457L961.769172,222.805837L961.620630,222.595143L961.466611,222.391221L961.304189,222.193551L961.136198,222.002757L960.964178,221.816926L960.612415,221.454707L960.075390,220.922573L959.455277,220.316924L961.854241,218.184918L961.625550,216.376105L964.689862,214.510752L964.461678,212.701377L958.972454,212.795517L958.513974,209.177821L959.611911,209.159454L959.153973,205.542164L960.252596,205.523034L958.695205,201.925280L953.086914,201.117333L952.563489,205.657709L942.985069,205.834686L942.736658,205.752687L942.308242,205.622601L940.373580,205.051448L938.658930,204.533367L920.598967,197.540794L921.769894,200.436671L921.733798,200.449904L921.227876,200.547906L920.978817,200.603112L920.714759,200.670107L920.450969,200.749369L920.203017,200.841739L919.986756,200.948389L919.818108,201.070580L919.692435,201.216680L919.596811,201.395152L919.523659,201.600364L919.473299,201.796727L916.954315,202.713354L912.208370,200.092127L911.618999,195.572433L909.067769,192.906669L901.375496,193.071121L899.327476,185.863862L892.731282,186.008394L892.108955,189.649160L888.453577,187.012196L884.056816,187.111614L881.498873,184.449927L882.118582,180.811007L872.356740,173.791295L867.956719,173.895256L865.998714,175.754391L866.483342,179.367486L872.960249,178.306296L873.924558,185.532740L863.669519,183.059762L854.750254,190.534061L848.281346,191.604848L844.702293,190.431699L844.517532,190.281796L844.326151,190.138262L844.131693,190.001909L843.935000,189.870774L843.537296,189.618585L843.136414,189.373826L840.318232,187.688910L834.887567,184.427920L831.861411,182.630904L831.464206,182.382397L831.269353,182.252807L831.078587,182.117401L830.893639,181.973713L830.716830,181.818439L830.551219,181.647222L830.401717,181.459846L830.263098,181.256975L830.132432,181.042782L830.007490,180.820443L829.886596,180.592344L829.652318,180.125459L829.423210,179.651231L827.036758,174.647402L826.578032,173.699594L826.341421,173.233750L826.218954,173.005457L826.092117,172.782023L825.959207,172.565344L825.817990,172.357910L825.665569,172.160396L825.504742,171.972218L825.337791,171.790823L824.992008,171.441080L824.637437,171.100760L823.379434,169.922989L823.223966,169.776289L822.850342,166.898511L815.751814,163.470269L810.381967,164.378429L810.247349,164.336714L810.037381,164.264415L809.829331,164.185023L809.623968,164.095692L809.422311,163.992659L809.227315,163.874260L809.035955,163.742415L808.847242,163.600782L808.660427,163.452136L808.290389,163.141571L807.922914,162.821549L805.908387,161.037518L801.874942,157.488246L799.493906,155.384968L799.125722,155.067370L798.754155,154.760464L798.566084,154.614237L798.375649,154.475469L798.181969,154.346945L797.985990,154.231840L797.887673,154.180008L797.739223,153.112951L816.084204,149.874895L816.562196,145.334241L823.173592,145.153240L823.405358,138.810453L818.621670,136.225141L817.997654,131.717008L820.807752,128.020902L820.433945,125.317417L817.123349,125.407479L813.312073,121.892983L808.772083,121.114581L810.628344,126.491290L805.740509,131.153633L800.478216,133.113277L797.170465,133.208704L796.918000,131.405548L777.070712,131.995646L774.273847,135.702912L769.865201,135.839576L769.353431,132.233827L766.635785,128.697191L760.148655,129.807070L758.587567,134.383637L756.125477,132.651410L756.712765,129.010915L757.041627,123.568902L753.732900,123.674985L753.474518,121.873141L744.650385,122.160086L729.977722,112.693051L730.557331,109.053349L721.858031,110.255602L717.048170,107.706972L715.548860,105.044901L705.480051,104.494971L702.874075,101.873592L696.248920,102.112306L686.613600,97.036399L682.195960,97.201109L680.121564,98.183287L677.750770,104.608617L686.146002,108.820685L687.082035,115.123061L689.555153,116.842873L691.590889,123.106412L703.278063,127.208763L705.173548,132.575069L703.234639,134.456929L703.631677,137.161204L706.098542,138.883755L706.494724,141.588414L702.223058,142.649113L699.226444,137.320780L697.023766,137.401714L696.453614,141.047769L686.545272,141.415834L684.043846,146.948790L678.141314,144.452920L676.074155,145.438871L675.375955,148.185343L672.209722,149.214187L670.949058,155.611808L667.088491,159.390650L663.791222,159.520542L662.265939,164.116761L659.374170,166.953537L653.747178,166.271831L652.378284,164.512610L647.983979,164.690667L644.281465,162.120015L644.009966,160.315949L639.342356,158.693829L638.997532,156.411482L638.269180,155.794689L638.183743,155.614615L638.068224,155.435088L637.931141,155.255988L637.778854,155.077228L637.616053,154.898742L637.446152,154.720478L637.094201,154.364416L636.199583,153.472262L635.852524,153.108932L635.685395,152.923370L635.524952,152.733563L635.373829,152.537716L635.235555,152.333422L635.114802,152.117508L635.015079,151.886683L634.932891,151.644176L634.863456,151.393189L634.803154,151.136143L634.749278,150.874843L634.653380,150.344436L634.523039,149.540016L633.808973,144.965762L633.675248,144.164370L633.625708,143.901064L633.571440,143.641403L633.510292,143.387042L633.439342,143.140236L633.354672,142.904003L633.251104,142.682333L633.124150,142.478053L632.978235,142.288385L632.818566,142.109316L632.649083,141.937811L632.472724,141.771606L632.291651,141.609035L631.733692,141.132692L630.414990,140.034235L629.290138,139.088569L622.940543,133.714951L622.568642,133.396412L622.199774,133.072832L621.837176,132.738813L621.659900,132.565105L621.487049,132.386247L621.149332,132.015235L620.653385,131.441029L617.874985,128.134517L612.641850,121.918586L602.339532,119.459397L600.541495,115.007087L599.439505,115.055155L600.123290,112.306251L597.500082,109.703292L589.783506,110.045052L586.757357,111.992695L584.272044,110.292220L583.850436,107.592552L581.504930,106.792384L581.082824,104.093017L575.569457,104.343189L575.004678,100.744873L572.657304,99.946404L573.194904,96.298264L578.852621,96.946418L576.222634,94.348543L589.585793,87.408453L588.060158,84.760292L597.175718,86.168958L599.104555,84.273981L598.824789,82.475154L601.998740,81.432492L601.439893,77.836026L603.510565,76.841526L602.671850,71.448144L609.305852,71.163184L607.502396,66.716928L600.166009,62.509709L597.251464,58.113407L593.791232,57.360187L592.121389,53.815186L583.266259,54.205840L578.414049,51.709696L573.986182,51.908436L572.198870,54.703113L572.767312,58.296194L566.413923,60.395265L566.129294,58.598555L562.525060,56.955024L562.239679,55.158508L551.994895,53.825086L552.281755,55.621526L548.143660,57.625221L547.899443,63.066526L538.092864,64.439186L536.554468,61.798278L537.660233,61.744959L537.082650,58.152249L538.188865,58.098937L537.467084,53.609581L536.360532,53.662124L535.637968,49.173394L533.134948,47.484668L526.494507,47.806722L518.223992,51.831529L514.759368,51.098254L514.467288,49.303592L513.736996,44.815476L508.577376,40.548735L509.245257,37.801728L506.590511,35.220868L503.267913,35.387541L502.454222,37.237742L496.770439,36.621250L494.851081,38.528608L486.953461,38.029305L485.253771,34.498630L477.205151,33.108234L474.543715,30.533080L463.169327,29.326238L459.996708,30.400675L458.439357,27.770194L452.901249,28.068462L447.868467,24.723002L447.566785,22.929822L443.286110,24.068712L443.739549,26.758235L442.842068,28.064952L440.719239,28.734247L440.506370,30.579105L436.942306,30.789643L436.816208,30.633888L436.678577,30.438628L436.558755,30.230698L436.459859,30.005245L436.379043,29.766928L436.311362,29.519267L436.253069,29.264928L436.201365,29.005901L436.154192,28.743652L436.026905,27.946788L435.746717,26.075545L435.299550,23.140218L435.019003,21.269531L434.935920,20.736891L434.845036,20.209376L434.793807,19.949447L434.736266,19.693711L434.669726,19.443964L434.590591,19.202615L434.494110,18.972849L434.379689,18.762618L434.248683,18.563447L434.105537,18.372343L433.953642,18.187028L433.795547,18.005802L433.633138,17.827425L433.131801,17.302181L432.621024,16.787688L432.276448,16.455475L432.102055,16.295751L431.925428,16.142722L431.745646,15.999008L431.561493,15.868053L431.368283,15.750556L431.170529,15.646259L430.969487,15.551559L430.766107,15.463724L430.354978,15.301017L429.733211,15.072353L424.691495,13.340252L422.972692,9.818381L420.602311,9.047286L418.422355,2.839660L417.313446,2.902004L417.533024,0.000000L373.878013,0.000000L372.177784,1.010449L375.972402,3.497320L376.283889,5.287895L375.175260,5.354046L376.265927,11.622997L367.558508,13.052008L362.657368,10.634362L358.382826,11.800194L356.960786,10.076937L354.744853,10.213061L355.059429,12.004010L348.255284,11.518048L345.591274,21.600026L340.358338,22.280132L336.805904,20.264962L333.368509,21.734677L330.908537,17.984449L328.044413,18.561028L316.488136,14.630155L318.553677,6.708261L321.039786,5.106172L320.194000,0.000000L319.926753,0.000000Z "/></g><g class="" id="reky"><path d="M249.956982,0.000000L255.646020,12.081487L255.623195,28.499887L252.016083,34.758309L254.764697,48.322433L247.687726,52.497170L236.152553,52.497170L226.682597,57.716363L231.805012,70.245926L230.655850,76.512564L238.578651,82.780443L245.261060,83.825211L255.243561,84.870013L260.697976,91.139551L266.154059,97.410335L276.057350,97.410335L282.235202,92.184595L288.436465,97.410335L292.903510,101.591551L297.541962,107.864418L302.266939,115.184345L305.170792,120.413911L307.249062,125.644349L312.632585,130.875662L318.017546,136.107850L328.706120,145.527999L332.184411,147.621752L339.969140,151.809681L344.189609,152.856751L351.804450,154.950997L356.766236,154.950997L361.814720,155.998173L370.998682,157.045385L376.787860,157.045385L380.922988,157.045385L389.581496,151.809681L392.801059,150.762646L406.503416,146.574858L412.379182,147.621752L416.928320,162.281970L426.709094,180.092978L433.597171,183.237161L448.407981,182.189064L462.677728,174.853383L472.858599,176.556154L496.341566,176.556154L511.778272,177.997033L519.548551,175.770248L523.546654,170.662345L517.245804,160.187230L516.820494,141.340915L521.570322,120.413911L529.999825,113.092763L511.167128,96.365117L500.985036,93.229673L492.629776,82.780443L497.019549,76.512564L488.401045,72.334667L483.175275,69.201606L477.486510,60.848290L473.354686,51.453435L470.894117,47.805859L475.427418,38.221289L483.044024,38.662221 " data-code="Labe" data-name="Labe"/><path d="M302.468791,119.398329L292.810471,122.030372L283.616779,124.004549L276.659099,127.953277L278.799903,135.193908L283.804947,145.728732L289.949030,150.997480L292.241430,153.632188L294.851799,160.219936L299.905716,164.832190L301.211511,168.127078L298.767964,170.104178L295.810621,178.673072L296.858430,185.266145L297.490189,193.181684L296.197257,209.674606L297.346789,217.594203L300.789188,221.554715L303.189216,225.515698L306.061791,242.024767L308.149515,255.237654L310.655004,260.524173L313.526600,263.828637L317.913151,266.472422L321.360352,270.438453L323.241040,274.404903L321.359545,283.661567L317.387260,286.306737L312.161314,286.306737L306.412775,286.306737L302.019256,290.274828L302.012381,296.889201L306.033141,301.519913L308.854018,304.166271L311.358858,309.459502L312.663040,312.768116L314.696885,318.724278L317.574465,330.343608L312.246656,334.274417L307.068023,340.265874L314.487836,343.796431L319.069048,361.086288L321.563119,369.142099L321.567773,380.317652L323.127377,386.945268L323.907144,390.259391L323.513162,393.656581L322.001572,395.313826L322.085112,398.959941L319.189552,400.534475L316.418436,404.595323L310.989225,406.501538L307.397394,414.458603L306.528242,423.743223L302.255082,429.712668L306.410070,442.980156L309.889769,454.259657L309.664831,458.241108L307.236828,460.895536L299.777867,459.568309L292.220104,456.913932L282.610888,454.923216L267.320515,454.259657L263.543444,452.932559L256.466682,449.614926L251.443991,445.633984L241.389952,430.375976L238.898791,425.069715L236.505716,421.090325L233.063205,417.111202L229.096506,413.132348L224.081064,409.153769L217.968716,404.512446L203.602163,394.568059L197.066893,391.253668L193.582813,386.613867L193.962475,384.625506L193.100392,379.986293 " data-code="Vltava" data-name="Vltava"/><path d="M296.319395,186.669352L285.228445,191.285548L276.633808,201.179686L258.448292,201.839405L247.564277,195.902426L243.396559,195.902426L239.903509,197.881296L229.370078,203.158884L221.539536,209.757092L218.244971,214.376636L215.419887,218.336763L211.701714,224.277841L209.866903,227.578895L205.052013,232.861251L198.420385,234.842346L195.712408,233.521603L188.161023,230.219971L182.945153,230.219971L177.976421,233.521603L174.945211,234.842346L171.815188,234.842346L166.076812,234.842346L164.984365,234.181968L163.370313,233.521603L159.669788,232.861251L154.632672,228.239145L151.601080,229.559682L148.666704,232.200912L146.346652,234.198098L142.587617,236.693684 " data-code="Berounka" data-name="Berounka"/><path d="M299.383558,210.416987L314.868613,215.036624L320.867391,218.336763L331.816205,218.336763L345.051275,214.376636L356.197466,210.416987L365.004388,209.757092L373.973395,211.076895L382.530581,213.716661L384.474786,218.336763L386.582045,224.938026L399.067092,230.880272L414.631998,236.163139L423.638411,244.088955L433.527267,250.034493L450.917750,252.016561L469.689398,257.963419L476.289897,261.928534L490.837632,267.216021L505.912411,272.504260L515.541212,275.148659L529.237329,276.470928L536.028772,276.470928L539.628546,275.809788L544.738045,274.487542L546.190526,273.165342L546.598167,271.843189L545.961109,270.521083L545.381438,269.860047 " data-code="Sázava" data-name="Sázava"/><path d="M306.726380,340.007351L296.738280,330.059824L289.858886,315.497919L288.085328,312.850834L284.117852,308.880522L280.202122,305.572219L274.616667,300.941045L271.007482,301.602609L267.128673,305.572219L266.386577,309.542214L265.846160,316.159716L265.102849,320.130716L262.889997,325.425957L259.528579,329.397813L244.276630,335.356270L233.184619,334.032099L216.760839,331.383876L211.428554,330.059824L201.190704,326.087908L194.862237,325.425957L189.252160,327.411840L184.785122,330.721845L181.315319,333.370029L172.802908,338.666869L161.908395,347.275560L163.338889,352.574016L165.293278,357.873069L162.580023,363.835207L156.863982,364.497712L149.767379,360.522817L148.480298,364.497712L145.904310,372.448470L145.951600,373.111091 " data-code="Otava" data-name="Otava"/><path d="M317.621631,329.397813L320.190303,325.425957L322.050756,322.447304L323.392373,312.850834L325.564448,310.534773L329.540502,307.888003L339.921550,303.587366L348.235469,302.925769L351.295397,305.241404L355.562286,316.159716L359.045082,327.080853L358.522972,333.701063L357.921201,336.018370L357.083469,341.977712L357.580590,344.957676L357.527831,347.606696L357.579366,351.580509L358.914078,355.223468L360.170573,357.873069L362.213026,360.522817L363.993735,363.172711L367.764693,371.123255L370.722917,382.057319L372.948088,390.342247L374.257745,393.656581L376.406470,397.634053L382.358472,403.269300L391.617013,414.209928L400.844624,424.499541 " data-code="Luznice" data-name="Luznice"/><path d="M692.569347,145.811049L694.232926,152.397141L693.419172,160.302291L688.079724,175.459459L687.478546,191.285548L688.126937,203.818644L703.644210,213.716661L705.824985,220.317005L705.459648,227.578895L708.375292,230.880272L713.562872,236.163139L730.973690,249.373829L743.996842,254.659488L756.377385,258.624242L759.673345,265.894078L765.744031,280.438010L769.264243,295.648922L772.968749,312.850834L778.296695,319.468857L793.232190,328.073821L796.097949,330.721845L800.509165,338.666869L803.350342,346.613296L804.158544,355.223468L805.433096,374.436358L800.870903,381.725949L798.033385,385.039742L793.158872,389.016570L788.405325,394.319473L784.112953,398.959941L775.340304,406.252897L765.452039,412.883679L761.313887,413.546800L756.771391,415.536206L752.813348,418.188855L750.429362,420.841622L737.677131,430.790547L735.755642,432.780526L732.734638,440.077656L730.930779,443.394809L729.185675,447.375616L728.490789,451.356663L722.663236,463.386504L723.744115,471.118614L723.831976,472.646593 " data-code="Morava" data-name="Morava"/><path d="M518.353238,145.811049L523.264485,145.481781L528.204885,145.481781L536.903036,146.798874L543.899359,149.433227L549.164655,153.055827L554.980756,157.008234L562.820282,160.302291L575.233026,165.244032L583.187967,166.891454L592.965397,168.538963L603.124039,171.504701L606.507416,171.504701L610.811577,170.186560L620.210669,170.516090L630.633000,173.482017L636.220175,174.800298L637.369870,173.152455L637.738588,171.504701 " data-code="Orlice" data-name="Orlice"/><path d="M794.237881,255.981024L797.512451,252.016561L800.722299,247.391909L808.308338,239.465343L820.253908,233.521603L827.942381,237.483983L829.114277,238.804877L831.915798,240.786312L847.164994,252.677274L859.489311,261.267652L866.280953,255.981024L881.290229,249.373829L890.942284,241.446816L897.720984,236.163139L899.412379,232.200912L901.492395,226.918658L904.348983,218.996830L909.098227,214.376636L917.360584,208.437343L922.492111,202.499138L923.356606,193.005553L893.264485,158.495672L880.416056,114.434613L829.998335,30.672308L809.600964,0.000000 " data-code="Odra" data-name="Odra"/><path d="M943.414810,301.602609L947.399586,299.617949L950.728575,296.310399L949.352121,293.003123L943.920190,285.728090L936.260697,271.843189L926.830932,250.695170L921.386956,232.861251L918.702799,226.918658L915.486900,215.696626L914.765996,213.716661L913.978537,211.076895 " data-code="Ostravice" data-name="Ostravice"/><path d="M721.599411,463.964842L719.662377,454.010824L714.040391,438.087446L705.860308,428.800632L693.778410,422.831276L682.750369,416.862515L676.973907,410.894364L667.410761,409.568192L663.270950,410.231274L658.256000,412.883679L654.231684,414.873063L650.206758,416.862515L647.173187,418.188855L644.312740,421.504833L646.412652,421.504833L643.257440,427.474057L641.035444,432.117192L637.646872,435.433930L633.674687,438.087446L627.896760,438.087446L619.024294,438.750843L615.758649,437.424057L607.779539,430.127235L595.433077,420.841622L579.418909,411.557461L575.858066,412.883679L571.997112,416.862515L562.941182,421.504833L558.384073,423.494509L547.159778,414.873063L537.737036,408.905117L526.107915,401.611814L520.447538,402.937799L517.989892,404.926834L513.957676,406.915941L509.869868,408.242051L503.627751,408.905117L493.384172,405.589862L484.082953,400.948834L481.296523,398.959941 " data-code="Dyje" data-name="Dyje"/><path d="M663.679008,408.905117L658.314171,395.645281L654.117342,389.679404L652.893406,387.690927L644.387017,380.400492L636.990138,373.773720L632.040487,371.123255L629.361955,370.460661L625.577407,369.135499L619.754869,368.472931L605.547964,367.810372L589.426228,363.172711L571.395891,354.561091L561.752953,345.951041L544.148496,336.018370L534.089745,334.694180L529.845858,334.032099L523.059268,328.073821L516.928230,317.483341L510.202117,312.189089L494.420150,304.910591L488.556618,303.587366L484.428978,304.248973L481.513468,306.895509L479.231082,310.865631L478.517069,314.836132L478.602007,322.116355L477.528916,328.073821L474.829331,333.370029L472.486955,336.680481L466.010206,340.653346L463.970668,341.315524L464.025363,341.977712 " data-code="Jihlava" data-name="Jihlava"/><path d="M665.544332,406.252897L665.542728,400.285862L667.465467,398.296993L671.133798,392.330823L673.927736,388.353745L671.477314,384.376966L667.454439,380.400492L664.887319,375.099005L663.833921,369.135499L664.181420,367.147822L664.410988,363.835207L663.703619,355.885855L658.864764,348.600117L654.439621,345.951041L650.479880,342.639909L644.950182,339.329018L640.991924,336.018370L634.299990,331.383876L631.507287,329.397813L628.773419,328.073821L626.852265,324.102086L624.232458,318.145170L621.554382,311.527355L618.236467,303.587366L616.721847,298.294896L613.345824,289.696123L608.338197,274.487542L601.078365,269.199023L597.768915,267.216021L593.005661,260.606781L586.853025,255.981024L580.179910,251.355859L575.423920,250.695170L568.638489,250.695170L561.621114,248.052536L556.808137,246.731293L555.242483,246.731293 " data-code="Svratka" data-name="Svratka"/><path d="M663.290550,351.249345L666.365303,344.626559L669.270026,341.977712L668.665906,329.397813L661.436301,318.807008L661.198711,316.159716L662.292303,310.865631L659.128906,298.956417L653.397472,281.760462L649.263022,276.470928L639.594829,261.928534L633.763775,249.373829L630.140445,238.144423L628.902087,230.219971L626.636564,228.239145L626.055286,227.578895 " data-code="Svitava" data-name="Svitava"/><path d="M903.105449,215.696626L896.907911,211.076895L887.452828,205.138205L873.640418,202.499138L857.486792,202.499138L852.991573,199.200611L840.942606,187.988195L827.533197,173.482017L822.458040,169.527511L813.935701,167.550447L804.757890,174.800298L792.321445,180.733256L782.629080,177.437028L775.870332,172.163792L761.975547,157.667018L755.944235,149.103921L754.712678,147.128156 " data-code="Opava" data-name="Opava"/><path d="M344.917627,153.714526L347.907478,145.811049L348.978052,139.884757L349.225720,136.592859L352.072191,133.301308L356.531757,130.668317L359.376369,127.377390L362.300055,118.822599L363.662255,110.270141L365.375506,99.747236L367.382265,86.598547L370.736993,83.312231L374.553795,79.369103L377.962161,76.740624L385.351277,72.141311L399.828373,65.572021L411.357592,60.974328L415.853003,59.004092L422.017128,58.347373L427.583983,58.870257L431.701214,55.965762L430.109568,50.321567L429.806491,44.032015L427.411649,38.733179L420.829293,38.081636L420.019081,34.555372L417.207541,31.150776L416.540625,28.488415L415.920780,26.616024L414.755264,21.690934 " data-code="Jizera" data-name="Jizera"/><path d="M143.717894,235.832936L145.769083,242.437595L150.284150,247.061599L155.746770,250.364830L162.400952,255.650636L169.121393,268.868515L176.513847,284.074863L171.908332,285.397439L166.779766,286.720061L163.838238,289.365438L160.140917,295.979659L158.910745,300.610267L160.342733,305.903038L161.299933,311.858221L158.973587,315.828816L151.222688,317.152431L149.178010,317.814254L148.654855,317.814254 " data-code="Úslava" data-name="Úslava"/><path d="M142.395606,239.135108L143.171519,249.704159L144.129367,255.650636L142.427891,260.937215L140.010169,263.580792L136.073289,266.885531L130.812412,280.768619L124.259717,291.349589L121.075783,297.964140L117.981296,313.181711L115.648915,317.152431L111.269785,321.785409L105.927287,335.025224L105.637491,338.335798 " data-code="Úhlava" data-name="Úhlava"/><path d="M142.444144,239.795581L139.932284,241.116563L133.912412,244.419237L130.074905,249.043501L125.287752,254.989867L114.136956,259.615498L107.301907,258.954658L98.093273,261.598092L84.746156,272.173723L81.268776,282.091083L76.136769,283.413591L70.481701,284.736145L56.987240,286.058744L56.448888,293.333839L59.138527,301.933395L61.305469,310.534773L54.460289,309.873065L53.414260,309.873065 " data-code="Radbuza" data-name="Radbuza"/><path d="M141.728245,237.153767L132.762438,235.832936L126.502177,235.832936L117.914982,232.531080L111.937397,229.229543L108.807982,229.229543L99.702867,225.928327L93.397192,225.268123L88.514193,229.889825L84.625302,233.851784L80.166200,237.153767L76.086581,238.474649L61.952992,237.814202L58.160995,235.832936L52.618251,231.210427L42.290432,225.268123L38.547317,223.947753L27.351152,227.909018L20.616931,228.569274L7.962796,226.588545L0.000000,226.588545 " data-code="Mze" data-name="Mze"/><path d="M870.194989,292.010994L867.878827,289.696123L860.570047,284.405503L847.153824,280.768619L839.902775,281.429845L835.232097,281.760462L833.275818,280.438010L827.528432,280.438010L818.804629,282.091083L808.448982,283.082960L801.511252,287.050723L795.031205,290.357501L792.605919,292.341701L788.120535,294.656727L780.142711,295.979659L777.821403,296.310399L776.085057,297.302635L772.443711,300.279491L771.030354,301.933395L770.768917,301.933395 " data-code="Becva" data-name="Becva"/><path d="M0.000000,159.188409L5.025066,156.744499L11.315385,153.572315L19.274055,148.338919L29.292748,147.466771L41.416818,146.277519L44.934259,142.947854L49.884626,139.539280L55.642850,138.667379L68.141437,135.814055L72.100687,135.180018L77.561743,134.545994L81.474116,133.277986L85.840138,131.376069L89.751624,130.108189L97.489124,130.662880L107.921381,130.425154L113.211808,128.364937L120.217627,125.829472L124.877695,122.898097L130.728254,122.501986L138.003626,126.067163L141.846002,123.928008L152.959185,118.699577L156.365221,117.432210L162.991052,119.016427L166.685948,122.343543L176.928738,118.065888L182.537617,115.372848L187.191358,114.897630L194.999430,112.363255L201.354710,110.462607L207.456617,111.729693L210.958421,111.729693L215.762031,109.195573L221.664791,107.928590L232.412265,106.265752L237.570327,106.661657L240.470636,105.394776L247.118943,100.961094L251.905912,99.852771L252.058281,96.290569L250.023218,92.728770L249.233545,90.671024L250.164021,85.131608L249.656884,84.261217 " data-code="Ohre" data-name="Ohre"/></g></svg>