<?xml version="1.0" encoding="utf-8"?><!DOCTYPE svg  PUBLIC '-//W3C//DTD SVG 1.1//EN'  'http://www.w3.org/Graphics/SVG/1.1/DTD/svg11.dtd'><svg enable_background="new 0 0 1000 474" height="474px" pretty_print="False" style="stroke-linejoin: round; stroke:#000; fill: none;" version="1.1" viewBox="0 0 1000 474" width="1000px" xmlns="http://www.w3.org/2000/svg" xmlns:xlink="http://www.w3.org/1999/xlink"><defs><style type="text/css"><![CDATA[path { fill-rule: evenodd; }]]></style></defs><metadata><views><view h="474.646593407" padding="0" w="1000"><proj flip="auto" id="robinson" lon0="13.8501256986"/><bbox h="38.38" w="81.03" x="161.18" y="-850.29"/></view></views></metadata><g class="" id="pokushory2"><path d="M301.787980,449.300676L282.434877,423.217878L241.255682,380.686597L202.658815,357.377598L174.560800,343.671691L143.137508,343.671691L131.413801,346.412550L120.965852,351.894753L123.813586,361.490147L128.636484,368.345170L137.994503,377.943797L143.711395,382.058051L164.420779,398.518302L203.422621,427.335490L228.632616,445.181632L248.024400,457.539522L279.602873,472.646593L285.043971,472.646593L291.470728,471.273093L296.294279,463.032633L297.748152,453.419974L301.787980,449.300676Z " data-code="Sumava" data-name="Sumava"/><path d="M201.448370,58.383405L210.240364,47.513296L211.420835,48.871856L213.663245,36.646893L213.446312,33.930871L213.120723,29.857269L208.508686,25.784187L186.432903,17.639575L98.661775,61.101513L44.176618,93.737010L49.660831,110.067422L61.103751,119.597416L112.054934,96.458157L128.831551,91.016098L201.448370,58.383405Z " data-code="Krusné hory" data-name="Krusné hory"/><path d="M277.801709,47.513296L262.898680,48.871856L208.208208,62.460655L201.554318,73.335882L199.827717,92.376525L228.505557,88.295421L255.662873,78.774895L284.278610,61.101513L282.871646,57.024438L277.801709,47.513296Z " data-code="Ceské Stredohorí" data-name="Ceské Stredohorí"/><path d="M551.064546,57.024438L519.177409,36.646893L468.411329,20.354215L450.680332,25.784187L454.988168,50.230475L477.995085,55.665530L525.599191,71.976274L545.043360,73.335882L544.671701,69.257234L551.064546,57.024438Z " data-code="Krkonose" data-name="Krkonose"/><path d="M419.003715,43.437961L433.535436,25.784187L425.314412,5.426531L414.130125,0.000000L387.355409,12.210982L400.658047,42.079632L400.540496,40.721360L419.003715,43.437961Z " data-code="Jizerské hory" data-name="Jizerské hory"/><path d="M648.572776,164.718902L644.875835,153.656827L622.475730,120.959080L575.325437,99.179539L567.267525,116.874265L597.716182,144.116444L626.753598,167.291026L641.384000,174.110373L647.469075,170.018585L648.572776,164.718902Z " data-code="Orlické hory" data-name="Orlické hory"/><path d="M748.547042,197.450639L766.546063,182.826960L761.718103,175.822467L755.862099,165.927337L722.937535,148.204822L707.441348,155.019978L687.321901,170.018585L701.619888,206.064032L721.565125,220.087980L730.541430,213.837992L748.547042,197.450639Z " data-code="Hrubý Jeseník" data-name="Hrubý Jeseník"/><path d="M997.163064,260.160761L969.734011,256.058277L918.304642,282.048357L900.988216,314.902858L913.414229,321.742934L951.046548,306.686736L987.507599,282.048357L997.342513,272.470963L998.944361,266.999258L998.804267,265.631457L997.163064,260.160761Z " data-code="Beskydy" data-name="Beskydy"/><path d="M499.179521,364.232040L541.387794,350.524142L560.450360,332.709916L578.897581,283.416752L580.095942,260.160761L567.968489,245.120609L503.348013,209.597093L457.664175,217.791489L427.404358,230.086880L414.505951,243.753637L386.306906,282.048357L383.549619,314.902858L390.706415,323.120586L399.059404,332.709916L407.194884,339.560713L446.908721,361.490147L474.918735,372.458642L483.595623,372.458642L490.846580,368.345170L499.179521,364.232040Z " data-code="Ceskomoravská vrchovina" data-name="Ceskomoravská vrchovina"/><path d="M884.547437,365.607009L870.145464,365.603045L800.258742,410.690378L793.206056,424.772097L801.428984,435.181595L826.832162,429.711972L899.239730,386.172634L903.746199,378.349212L905.376489,371.087447L884.547437,365.607009Z " data-code="Bílé Karpaty" data-name="Bílé Karpaty"/><path d="M71.213601,306.686736L62.232040,271.102962L42.454867,235.552933L18.963138,208.231560L8.177690,208.231560L1.055639,230.086880L9.412429,257.425720L31.125850,290.259449L54.656823,317.641924L63.317689,317.641924L71.213601,306.686736Z " data-code="Ceský les" data-name="Ceský les"/><path d="M702.371540,257.294273L661.681367,244.781877L652.367112,251.037526L649.265119,271.375878L663.113896,315.218314L677.332856,335.589598L700.877879,335.589598L709.598055,308.952183L708.679292,285.462771L708.183693,266.681413L706.786357,261.596414L702.371540,257.294273Z " data-code="Drahanská vrchovina" data-name="Drahanská vrchovina"/><path d="M698.155325,146.409702L710.020708,141.733080L713.900444,130.823689L711.806296,109.016311L698.465941,98.118301L681.111090,96.561750L679.839268,109.016311L688.651967,137.057160L691.261232,138.615722L698.155325,146.409702Z " data-code="Rychlebské hory" data-name="Rychlebské hory"/><path d="M764.736092,192.045697L748.801904,209.224498L730.923616,232.273930L750.424729,255.729984L783.941469,257.294273L799.497553,213.520633L778.639573,195.558786L770.480573,190.874755L764.736092,192.045697Z " data-code="Nízký Jeseník" data-name="Nízký Jeseník"/><path d="M197.095492,194.778066L162.507008,177.605167L100.539765,172.923847L79.931043,246.345685L87.335007,263.552099L115.544888,277.636077L184.338849,271.375878L199.179343,238.527339L200.989239,213.520633L197.095492,194.778066Z " data-code="Plzenská pahorkatina" data-name="Plzenská pahorkatina"/><path d="M394.214685,421.872210L372.484990,398.326445L336.199589,410.882978L339.978355,443.856663L353.383266,456.422580L371.924637,454.851713L382.141465,442.286091L386.500896,434.433807L386.377782,432.863467L394.214685,421.872210Z " data-code="Novohradské hory" data-name="Novohradské hory"/><path d="M793.689441,345.778764L788.562355,337.352943L781.609674,337.548875L765.356273,354.402131L760.457194,368.516473L765.016108,370.869260L775.014109,371.653548L793.689441,345.778764Z " data-code="Chriby" data-name="Chriby"/><path d="M106.503674,120.307523L90.398654,118.749872L81.474523,131.213244L65.718486,151.476834L70.090679,160.833709L80.949418,157.714438L92.808334,151.476834L102.969364,139.005375L108.544934,131.213244L108.197444,126.538898L106.967175,126.538898L106.503674,120.307523Z " data-code="Doupovské hory" data-name="Doupovské hory"/><path d="M249.728224,237.354738L220.040972,252.992643L210.863899,262.378675L206.742892,273.332079L205.090679,284.288666L213.452480,296.814268L223.353136,296.814268L239.085474,292.116701L247.269880,285.854147L260.036581,274.897113L266.368455,260.814168L268.984033,246.736648L267.262355,240.481762L260.722373,235.791333L259.487381,235.791333L249.728224,237.354738Z " data-code="Brdy" data-name="Brdy"/><path d="M384.337862,32.893072L376.475821,23.195964L369.650076,20.999909L367.555363,28.309994L371.426617,38.956490L375.701586,46.611370L391.954463,68.638313L400.546435,73.492717L405.537170,71.975108L404.121305,62.493807L395.016950,49.225302L384.337862,32.893072Z " data-code="Jestedsko-kozákovský hrbet" data-name="Jestedsko-kozákovský hrbet"/><path d="M334.677802,36.265214L335.689447,27.324798L329.269953,21.036170L319.693619,17.701889L307.452576,10.734527L302.681748,12.286883L295.976598,20.049791L295.236790,27.701551L297.761707,35.430510L302.954913,39.258002L315.572137,43.501994L326.462324,41.379927L334.677802,36.265214Z " data-code="Luzické hory" data-name="Luzické hory"/><path d="M919.701587,325.598637L907.775302,328.732812L897.064013,333.238580L888.761838,341.859583L884.373467,355.774176L885.806232,364.203321L891.149918,366.555902L900.086654,365.967746L907.888717,360.086577L917.223296,349.306312L923.353897,337.548875L922.043600,325.794517L921.908025,325.990397L919.701587,325.598637Z " data-code="Javorníky" data-name="Javorníky"/><path d="M355.301831,308.364781L380.233146,264.529981L384.328998,246.541166L378.151675,223.872716L365.296951,217.622014L349.932631,218.403288L326.679073,228.561509L309.517722,230.124584L297.724353,244.977349L289.500257,258.271987L269.428595,286.441219L268.637015,308.364781L273.071606,317.764197L291.858423,336.569226L303.495800,342.839347L317.130465,342.839347L330.397776,338.136674L332.631083,335.001832L333.870270,335.001832L355.301831,308.364781Z " data-code="Stredoceská pahorkatina" data-name="Stredoceská pahorkatina"/></g></svg>