<?xml version="1.0" encoding="utf-8"?><!DOCTYPE svg  PUBLIC '-//W3C//DTD SVG 1.1//EN'  'http://www.w3.org/Graphics/SVG/1.1/DTD/svg11.dtd'><svg enable_background="new 0 0 1000 880" height="880px" pretty_print="False" style="stroke-linejoin: round; stroke:#000; fill: none;" version="1.1" viewBox="0 0 1000 880" width="1000px" xmlns="http://www.w3.org/2000/svg" xmlns:xlink="http://www.w3.org/1999/xlink"><defs><style type="text/css"><![CDATA[path { fill-rule: evenodd; }]]></style></defs><metadata><views><view h="880.412682668" padding="0" w="1000"><proj flip="auto" id="robinson" lon0="14.449724128"/><bbox h="71.67" w="81.5" x="156.79" y="-869.09"/></view></views></metadata><g class="" id="region_cz"><path d="M152.283916,56.070486L239.871178,178.932893L285.296906,218.313030L302.051205,230.433595L307.714340,242.460072L307.691626,258.798977L304.101978,265.027097L306.837284,278.525546L299.794579,282.680071L288.315257,282.680071L278.891153,287.873993L283.988766,300.342890L282.845168,306.579186L290.729608,312.816718L297.379662,313.856427L307.313830,314.896170L312.741835,321.135352L318.171501,327.375774L328.026843,327.375774L334.174782,322.175336L340.346020,327.375774L344.791436,331.536746L349.407430,337.779241L354.109530,345.063726L356.999323,350.267971L359.067530,355.473085L364.424987,360.679069L369.783875,365.885923L380.420697,375.260462L383.882147,377.344078L391.629183,381.511729L395.829218,382.553730L403.407189,384.637836L408.344951,384.637836L413.368992,385.679942L422.508487,386.722082L428.269635,386.722082L432.384741,386.722082L441.001326,381.511729L444.205301,380.469764L457.841313,376.302252L463.688630,377.344078L468.215742,391.933314L477.949160,409.658084L484.803885,412.787043L499.542984,411.744021L513.743640,404.443858L523.875217,406.138384L547.244484,406.138384L562.606449,407.572287L570.339106,405.356284L574.317851,400.273113L568.047508,389.848716L567.624257,371.093651L572.351088,350.267971L580.739777,342.982271L561.998264,326.335618L551.865471,323.215355L543.550667,312.816718L547.919185,306.579186L539.342410,302.421518L534.141942,299.303627L528.480721,290.990756L524.368903,281.641389L521.920248,278.011474L526.431599,268.473310L534.011327,268.912108 " data-id="1" data-name="Labe" id="1"/><path d="M354.310404,349.257306L344.698848,351.876605L335.549670,353.841224L328.625678,357.770834L330.756116,364.976406L335.736927,375.460223L341.851261,380.703461L344.132562,383.325412L346.730292,389.881263L351.759739,394.471186L353.059211,397.750120L350.627496,399.717648L347.684472,408.245053L348.727207,414.806203L349.355908,422.683416L348.069235,439.096483L349.213202,446.977735L352.638933,450.919072L355.027341,454.860876L357.886007,471.290011L359.963623,484.438924L362.456981,489.699847L365.314673,492.988311L369.679986,495.619295L373.110496,499.566123L374.982078,503.513369L373.109693,512.725213L369.156640,515.357576L363.955998,515.357576L358.235292,515.357576L353.863046,519.306455L353.856204,525.888802L357.857496,530.497093L360.664715,533.130638L363.157427,538.398240L364.455295,541.690834L366.479292,547.618158L369.342939,559.181230L364.040926,563.093006L358.887368,569.055454L366.271255,572.568916L370.830286,589.775059L373.312281,597.791865L373.316913,608.913308L374.868965,615.508835L375.644957,618.806911L375.252883,622.187653L373.748611,623.836874L373.831747,627.465335L370.950207,629.032246L368.192508,633.073432L362.789584,634.970417L359.215144,642.888955L358.350200,652.128621L354.097730,658.069163L358.232600,671.272413L361.695451,682.497301L361.471603,686.459474L359.055355,689.101049L351.632509,687.780249L344.111339,685.138724L334.548649,683.157647L319.332309,682.497301L315.573526,681.176628L308.531028,677.875058L303.532656,673.913391L293.527298,658.729260L291.048198,653.448691L288.666710,649.488569L285.240866,645.528711L281.293373,641.569122L276.302216,637.609807L270.219463,632.990956L255.922469,623.094718L249.418841,619.796375L245.951631,615.179039L246.329455,613.200305L245.471545,608.583554 " data-id="2" data-name="Vltava" id="2"/><path d="M348.190783,416.202617L337.153532,420.796462L328.600509,430.642694L310.503044,431.299219L299.671727,425.390986L295.524189,425.390986L292.048051,427.360274L281.565621,432.612309L273.772993,439.178570L270.494380,443.775747L267.682974,447.716700L263.982804,453.629012L262.156876,456.914083L257.365299,462.170863L250.765781,464.142366L248.070915,462.828018L240.556093,459.542371L235.365476,459.542371L230.420802,462.828018L227.404269,464.142366L224.289401,464.142366L218.578809,464.142366L217.491652,463.485186L215.885415,462.828018L212.202807,462.170863L207.190080,457.571136L204.173166,458.885280L201.252997,461.513721L198.944179,463.501237L195.203344,465.984741 " data-id="4" data-name="Berounka" id="4"/><path d="M351.240109,439.835270L366.650188,444.432540L372.619922,447.716700L383.515723,447.716700L396.686712,443.775747L407.778935,439.835270L416.543216,439.178570L425.468796,440.491983L433.984550,443.118968L435.919341,447.716700L438.016398,454.286001L450.440995,460.199475L465.930538,465.456764L474.893344,473.344205L484.734320,479.260956L502.040602,481.233426L520.721361,487.151492L527.289901,491.097408L541.767199,496.359293L556.768990,501.621928L566.351169,504.253524L579.980973,505.569391L586.739533,505.569391L590.321877,504.911451L595.406636,503.595608L596.852085,502.279810L597.257753,500.964058L596.623780,499.648353L596.046915,498.990518 " data-id="5" data-name="Sázava" id="5"/><path d="M358.547379,568.798182L348.607639,558.898819L341.761554,544.407420L339.996583,541.773152L336.048317,537.822064L332.151546,534.529779L326.593135,529.921027L323.001424,530.579388L319.141397,534.529779L318.402893,538.480552L317.865092,545.066013L317.125381,549.017786L314.923243,554.287389L311.578101,558.240013L296.399998,564.169621L285.361693,562.851862L269.017434,560.216460L263.710967,558.898819L253.522686,554.946134L247.224860,554.287389L241.641946,556.263656L237.196536,559.557635L233.743534,562.192997L225.272338,567.464191L214.430574,576.031200L215.854142,581.304002L217.799069,586.577398L215.098950,592.510668L209.410586,593.169966L202.348343,589.214316L201.067494,593.169966L198.503978,601.082228L198.551040,601.741640 " data-id="6" data-name="Otava" id="6"/><path d="M369.389877,558.240013L371.946112,554.287389L373.797557,551.323157L375.132678,541.773152L377.294236,539.468305L381.251039,536.834350L391.581824,532.554536L399.855489,531.896142L402.900602,534.200565L407.146831,545.066013L410.612763,555.934272L410.093182,562.522428L409.494324,564.828516L408.660648,570.759003L409.155362,573.724539L409.102858,576.360732L409.154145,580.315306L410.482394,583.940626L411.732805,586.577398L413.765369,589.214316L415.537456,591.851380L419.290156,599.763429L422.234057,610.644552L424.448454,618.889366L425.751770,622.187653L427.890091,626.145867L433.813274,631.753829L443.026988,642.641484L452.209920,652.881277 " data-id="7" data-name="Luznice" id="7"/><path d="M742.522168,375.542142L744.177692,382.096345L743.367879,389.963220L738.054283,405.047000L737.456016,420.796462L738.101268,433.268875L753.543409,443.118968L755.713625,449.687354L755.350057,456.914083L758.251583,460.199475L763.414046,465.456764L780.740564,478.603490L793.700661,483.863557L806.021259,487.809115L809.301262,495.043752L815.342554,509.517265L818.845722,524.654528L822.532292,541.773152L827.834441,548.359132L842.697621,556.922432L845.549505,559.557635L849.939363,567.464191L852.766783,575.372142L853.571072,583.940626L854.839453,603.060491L850.299349,610.314787L847.475570,613.612535L842.624658,617.570108L837.894127,622.847335L833.622538,627.465335L824.892365,634.722981L815.051976,641.321657L810.933861,641.981567L806.413358,643.961341L802.474480,646.601146L800.102036,649.241070L787.411549,659.141823L785.499364,661.122167L782.492987,668.383966L780.697861,671.685059L778.961207,675.646591L778.269685,679.608362L772.470349,691.579958L773.545993,699.274629L775.065776,725.704750L808.594682,878.412683 " data-id="8" data-name="Morava" id="8"/><path d="M569.149580,375.542142L574.037048,375.214468L578.953527,375.214468L587.609564,376.525184L594.572011,379.146782L599.811814,382.751841L605.599754,386.685112L613.401323,389.963220L625.753967,394.881034L633.670392,396.520479L643.400482,398.160012L653.509937,401.111390L656.876933,401.111390L661.160253,399.799631L670.513837,400.127565L680.885705,403.079132L686.445828,404.391030L687.589956,402.751166L687.956889,401.111390 " data-id="9" data-name="Orlice" id="9"/><path d="M843.698443,485.178695L846.957158,481.233426L850.151464,476.631166L857.700773,468.742979L869.588505,462.828018L877.239752,466.771212L878.405974,468.085711L881.193930,470.057553L896.369292,481.890941L908.633938,490.439726L915.392696,485.178695L930.329299,478.603490L939.934622,470.714858L946.680501,465.456764L948.363705,461.513721L950.433651,456.257043L953.276408,448.373571L958.002657,443.775747L966.225009,437.865210L971.331691,431.955757L972.191999,422.508138L942.245579,388.165348L929.459360,344.317624L879.285751,260.960880L705.744336,0.000000 " data-id="10" data-name="Odra" id="10"/><path d="M992.153085,530.579388L996.118568,528.604338L999.431439,525.312803L998.061649,522.021540L992.656019,514.781731L985.033612,500.964058L975.649504,479.918434L970.231886,462.170863L967.560725,456.257043L964.360397,445.089345L963.642984,443.118968L962.859337,440.491983 " data-id="11" data-name="Ostravice" id="11"/><path d="M771.411674,692.155495L769.484018,682.249673L763.889254,666.403393L755.748777,657.161543L743.725377,651.221090L732.750731,645.281229L727.002238,639.341974L717.485396,638.022223L713.365629,638.682094L708.374960,641.321657L704.370129,643.301409L700.364690,645.281229L697.345808,646.601146L694.499211,649.901069L696.588955,649.901069L693.449020,655.841392L691.237782,660.462046L687.865618,663.762724L683.912665,666.403393L678.162714,666.403393L669.333206,667.063577L666.083372,665.743215L658.142897,658.481723L645.856213,649.241070L629.919583,640.001861L626.375981,641.321657L622.533721,645.281229L613.521638,649.901069L608.986593,651.881111L597.816645,643.301409L588.439525,637.362359L576.866711,630.104369L571.233740,631.423933L568.787994,633.403338L564.775300,635.382814L560.707285,636.702503L554.495392,637.362359L544.301409,634.063155L535.045226,629.444598L532.272286,627.465335 " data-id="12" data-name="Dyje" id="12"/><path d="M713.771710,637.362359L708.432849,624.166724L704.256341,618.229733L703.038330,616.250884L694.573127,608.995747L687.212063,602.401061L682.286377,599.763429L679.620814,599.104043L675.854590,597.785297L670.060243,597.125937L655.922126,596.466587L639.878448,591.851380L621.935411,583.281456L612.339162,574.713094L594.819942,564.828516L584.809894,563.510736L580.586555,562.851862L573.832825,556.922432L567.731472,546.383230L561.037925,541.114611L545.332371,533.871354L539.497230,532.554536L535.389575,533.212939L532.488182,535.846661L530.216846,539.797561L529.506290,543.748838L529.590817,550.993811L528.522922,556.922432L525.836407,562.192997L523.505372,565.487420L517.059983,569.441049L515.030320,570.100021L515.084750,570.759003 " data-id="12" data-name="Jihlava" id="12"/><path d="M715.628004,634.722981L715.626407,628.784836L717.539836,626.805597L721.190406,620.868314L723.970816,616.910492L721.532259,612.952969L717.528862,608.995747L714.974171,603.719929L713.925873,597.785297L714.271690,595.807245L714.500146,592.510668L713.796202,584.599805L708.980777,577.349344L704.577059,574.713094L700.636490,571.417994L695.133566,568.123134L691.194473,564.828516L684.534940,560.216460L681.755759,558.240013L679.035128,556.922432L677.123276,552.969927L674.516153,547.041853L671.851044,540.456081L668.549194,532.554536L667.041908,527.287691L663.682230,518.730552L658.698849,503.595608L651.474168,498.332694L648.180742,496.359293L643.440550,489.782055L637.317704,485.178695L630.676899,480.575924L625.943936,479.918434L619.191360,479.918434L612.207962,477.288595L607.418288,475.973749L605.860214,475.973749 " data-id="13" data-name="Svratka" id="13"/><path d="M713.385134,579.985745L716.444999,573.395025L719.335658,570.759003L718.734463,558.240013L711.539862,547.700487L711.303423,545.066013L712.391720,539.797561L709.243639,527.946009L703.539956,510.833314L699.425524,505.569391L689.804143,491.097408L684.001321,478.603490L680.395535,467.428455L679.163173,459.542371L676.908619,457.571136L676.330155,456.914083 " data-id="14" data-name="Svitava" id="14"/><path d="M952.038895,445.089345L945.871364,440.491983L936.462060,434.582046L922.716528,431.955757L906.641114,431.955757L902.167660,428.673201L890.177032,417.515074L876.832549,403.079132L871.781965,399.143773L863.300889,397.176282L854.167516,404.391030L841.791285,410.295262L832.145849,407.014993L825.419825,401.767290L811.592316,387.340706L805.590207,378.819070L804.364614,376.852872 " data-id="16" data-name="Opava" id="16"/><path d="M396.553711,383.407352L399.529086,375.542142L400.594477,369.644544L400.840945,366.368584L403.673634,363.092971L408.111607,360.472728L410.942446,357.197735L413.851977,348.684364L415.207581,340.173316L416.912537,329.701360L418.909580,316.616335L422.248064,313.345931L426.046387,309.421894L429.438250,306.806142L436.791590,302.229098L451.198589,295.691616L462.671987,291.116183L467.145632,289.155487L473.279911,288.501948L478.819812,289.022300L482.917108,286.131868L481.333169,280.515001L481.031559,274.255902L478.648313,268.982722L472.097828,268.334333L471.291538,264.825143L468.493612,261.437031L467.829924,258.787561L467.213080,256.924236L466.053207,252.022992 " data-id="17" data-name="Jizera" id="17"/><path d="M196.328149,465.128160L198.369406,471.700840L202.862612,476.302456L208.298783,479.589693L214.920747,484.849906L221.608649,498.003787L228.965310,513.136508L224.382093,514.452681L219.278359,515.768899L216.351074,518.401468L212.671654,524.983664L211.447439,529.591851L212.872493,534.858996L213.825058,540.785345L211.509976,544.736715L203.796606,546.053922L201.761828,546.712540L201.241205,546.712540 " data-id="18" data-name="Úslava" id="18"/><path d="M195.012263,468.414344L195.784418,478.932221L196.737629,484.849906L195.044392,490.110889L192.638375,492.741666L188.720557,496.030404L183.485152,509.846273L176.964184,520.376011L173.795666,526.958536L170.716162,542.102427L168.395074,546.053922L164.037147,550.664467L158.720517,563.840178L158.432123,567.134723 " data-id="18" data-name="Úhlava" id="18"/><path d="M195.060565,469.071618L192.560867,470.386204L186.570143,473.672887L182.751216,478.274762L177.987241,484.192337L166.890436,488.795571L160.088481,488.137931L150.924433,490.768565L137.641940,501.292992L134.181397,511.162333L129.074239,512.478439L123.446551,513.794589L110.017428,515.110784L109.481682,522.350654L112.158299,530.908573L114.314749,539.468305L107.502711,538.809800L106.461747,538.809800 " data-id="19" data-name="Radbuza" id="19"/><path d="M194.348133,466.442596L185.425736,465.128160L179.195787,465.128160L170.650169,461.842291L164.701527,458.556739L161.587264,458.556739L152.526234,455.271507L146.251089,454.614500L141.391733,459.213824L137.521671,463.156600L133.084160,466.442596L129.024293,467.757082L114.959137,467.099832L111.185500,465.128160L105.669592,460.528032L95.391779,454.614500L91.666787,453.300523L80.524832,457.242608L73.823217,457.899667L61.230351,455.928528L50.850425,455.928528L49.902648,457.242608 " data-id="20" data-name="Mze" id="20"/><path d="M919.287781,521.034215L916.982833,518.730552L909.709441,513.465547L896.358176,509.846273L889.142236,510.504297L884.494173,510.833314L882.547365,509.517265L876.827807,509.517265L868.146244,511.162333L857.840736,512.149408L850.936598,516.097960L844.487926,519.388727L842.074383,521.363320L837.610716,523.667137L829.671519,524.983664L827.361450,525.312803L825.633511,526.300235L822.009796,529.262677L820.603282,530.908573L820.343111,530.908573 " data-id="21" data-name="Becva" id="21"/><path d="M0.568561,395.263478L4.601882,395.895063L11.585061,395.895063L18.519357,397.000366L27.745087,399.440056L33.904458,392.263629L40.838807,393.368803L48.032225,392.816211L51.977548,389.500868L58.306844,386.422654L64.566707,383.265829L72.486842,378.057772L82.457027,377.189847L94.522395,376.006353L98.022805,372.692810L102.949203,369.300739L108.679547,368.433060L121.117618,365.593551L125.057698,364.962584L130.492312,364.331630L134.385743,363.069761L138.730625,361.177053L142.623173,359.915311L150.323209,360.467317L160.704955,360.230742L165.969767,358.180500L172.941665,355.657312L177.579170,352.740129L183.401402,352.345936L190.641548,355.893852L194.465319,353.765054L205.524695,348.561938L208.914240,347.300708L215.507990,348.877254L219.184996,352.188261L229.378192,347.931317L234.959914,345.251317L239.591122,344.778399L247.361389,342.256295L253.685898,340.364850L259.758261,341.625801L263.243109,341.625801L268.023461,339.103950L273.897641,337.843102L284.593078,336.188315L289.726166,336.582304L292.612432,335.321557L299.228549,330.909342L303.992341,329.806385L304.143972,326.261430L302.118763,322.716876L301.332913,320.669094L302.258884,315.156499L301.754202,314.290322 " data-id="3" data-name="Ohre" id="3"/></g><g class="" id="region_it"><path d="M1000.000000,435.122269L991.725426,435.275156L991.478218,435.193554L991.051876,435.064097L989.126580,434.495710L987.420232,433.980138L969.447713,427.021421L970.612970,429.903277L970.577049,429.916446L970.073576,430.013973L969.825724,430.068912L969.562944,430.135582L969.300431,430.214461L969.053680,430.306383L968.838466,430.412517L968.670634,430.534117L968.545570,430.679509L968.450409,430.857117L968.377611,431.061336L968.327494,431.256748L965.820707,432.168937L961.097741,429.560401L960.511224,425.062591L957.972346,422.409733L950.317318,422.573389L948.279214,415.401026L941.714957,415.544858L941.095643,419.167996L937.457964,416.543801L933.082492,416.642737L930.536933,413.993937L931.153642,410.372636L921.439065,403.386912L917.060348,403.490370L915.111823,405.340503L915.594105,408.936104L922.039653,407.880053L922.999292,415.071507L912.793906,412.610503L903.917827,420.048613L897.480240,421.114216L893.918516,419.946747L893.734650,419.797569L893.544195,419.654730L893.350679,419.519037L893.154938,419.388537L892.759159,419.137570L892.360218,418.893995L889.555682,417.217238L884.151310,413.972037L881.139807,412.183721L880.744525,411.936418L880.550616,411.807456L880.360773,411.672705L880.176721,411.529713L880.000767,411.375191L879.835958,411.204803L879.687180,411.018333L879.549232,410.816445L879.419199,410.603290L879.294862,410.382027L879.174553,410.155032L878.941410,409.690408L878.713411,409.218475L876.338514,404.238874L875.882008,403.295655L875.646544,402.832067L875.524669,402.604879L875.398446,402.382527L875.266181,402.166898L875.125646,401.960467L874.973964,401.763910L874.813916,401.576643L874.647772,401.396126L874.303664,401.048077L873.950810,400.709404L872.698898,399.537336L872.544183,399.391347L872.172368,396.527502L865.108209,393.115859L859.764362,394.019622L859.630396,393.978109L859.421444,393.906160L859.214402,393.827152L859.010034,393.738254L858.809353,393.635719L858.615301,393.517894L858.424867,393.386687L858.237068,393.245740L858.051157,393.097814L857.682911,392.788752L857.317216,392.470280L855.312442,390.694887L851.298527,387.162799L848.929019,385.069706L848.562618,384.753645L848.192850,384.448225L848.005689,384.302707L847.816176,384.164610L847.623434,384.036708L847.428404,383.922161L847.330563,383.870579L847.182831,382.808689L865.438990,379.586312L865.914667,375.067643L872.494052,374.887517L872.724696,368.575441L867.964170,366.002646L867.343175,361.516341L870.139668,357.838131L869.767670,355.147736L866.473103,355.237361L862.680281,351.739882L858.162273,350.965249L860.009546,356.315925L855.145377,360.955694L849.908564,362.905849L846.616827,363.000815L846.365585,361.206389L826.614394,361.793630L823.831071,365.482946L819.443771,365.618949L818.934478,362.030657L816.229990,358.511145L809.774270,359.615650L808.220740,364.170059L805.770572,362.446218L806.355016,358.823350L806.682286,353.407686L803.389579,353.513256L803.132448,351.720136L794.351040,352.005692L779.749419,342.584495L780.326221,338.962415L771.669042,340.158847L766.882469,337.622557L765.390419,334.973375L755.370361,334.426108L752.777002,331.817421L746.183925,332.054980L736.595258,327.003649L732.199007,327.167561L730.134654,328.144984L727.775340,334.539204L736.129924,338.730878L737.061425,345.002738L739.522568,346.714224L741.548448,352.947436L753.179034,357.029924L755.065342,362.370247L753.135821,364.242996L753.530937,366.934177L755.985857,368.648388L756.380121,371.339951L752.129138,372.395515L749.147033,367.092981L746.955020,367.173523L746.387628,370.801924L736.527261,371.168207L734.037946,376.674374L728.163993,374.190588L726.106843,375.171766L725.412023,377.904940L722.261121,378.928802L721.006561,385.295447L717.164685,389.055993L713.883382,389.185255L712.365483,393.759220L709.487716,396.582261L703.887969,395.903856L702.525703,394.153153L698.152674,394.330348L694.468086,391.772143L694.197902,389.976811L689.552892,388.362546L689.209737,386.091249L688.484912,385.477442L688.399889,385.298240L688.284929,385.119582L688.148510,384.941350L687.996960,384.763455L687.834947,384.585833L687.665869,384.408432L687.315622,384.054095L686.425336,383.166260L686.079957,382.804690L685.913637,382.620025L685.753971,382.431138L685.603580,382.236239L685.465975,382.032935L685.345807,381.818066L685.246567,381.588358L685.164777,381.347026L685.095678,381.097254L685.035668,380.841452L684.982053,380.581418L684.886619,380.053579L684.756910,379.253054L684.046301,374.700947L683.913223,373.903435L683.863923,373.641404L683.809918,373.383000L683.749066,373.129872L683.678460,372.884260L683.594199,372.649171L683.491132,372.428574L683.364794,372.225283L683.219585,372.036533L683.060689,371.858332L682.892026,371.687657L682.716522,371.522257L682.536325,371.360473L681.981068,370.886436L680.668751,369.793298L679.549345,368.852210L673.230494,363.504610L672.860393,363.187614L672.493311,362.865600L672.132469,362.533199L671.956051,362.360332L671.784037,362.182340L671.447956,361.813124L670.954410,361.241699L668.189462,357.951195L662.981665,351.765361L652.729229,349.318079L650.939898,344.887326L649.843243,344.935162L650.523717,342.199567L647.913210,339.609212L640.233996,339.949316L637.222499,341.887529L634.749220,340.195287L634.329653,337.508691L631.995504,336.712397L631.575441,334.026100L626.088769,334.275061L625.526725,330.694167L623.190717,329.899565L623.725714,326.269088L629.356037,326.914104L626.738783,324.328807L640.037240,317.422320L638.518993,314.786980L647.590417,316.188826L649.509915,314.303024L649.231504,312.512907L652.390087,311.475293L651.833945,307.896241L653.894592,306.906555L653.059938,301.539287L659.661819,301.255708L657.867095,296.830979L650.566230,292.644131L647.665796,288.269115L644.222318,287.519541L642.560560,283.991705L633.748305,284.380467L628.919588,281.896409L624.513160,282.094187L622.734502,284.875332L623.300191,288.451016L616.977564,290.539924L616.694314,288.751914L613.107531,287.116340L612.823531,285.328523L602.628351,284.001556L602.913822,285.789299L598.795763,287.783292L598.552728,293.198252L588.793630,294.564266L587.262683,291.936144L588.363094,291.883083L587.788308,288.307769L588.889167,288.254715L588.170881,283.787095L587.069687,283.839384L586.350621,279.372387L583.859719,277.691838L577.251431,278.012333L569.020960,282.017652L565.573111,281.287928L565.282445,279.501955L564.555689,275.035570L559.421051,270.789488L560.085698,268.055781L557.443806,265.487417L554.137295,265.653283L553.327544,267.494526L547.671281,266.881019L545.761216,268.779142L537.901835,268.282256L536.210374,264.768676L528.200724,263.385012L525.552174,260.822326L514.232859,259.621327L511.075601,260.690562L509.525791,258.072818L504.014497,258.369641L499.006083,255.040380L498.705861,253.255881L494.445912,254.389257L494.897156,257.065759L494.004021,258.366148L491.891470,259.032203L491.679631,260.868128L488.132824,261.077647L488.007337,260.922646L487.870372,260.728331L487.751130,260.521408L487.652713,260.297047L487.572289,260.059884L487.504935,259.813422L487.446924,259.560314L487.395471,259.302541L487.348526,259.041562L487.221855,258.248557L486.943024,256.386374L486.498022,253.465259L486.218834,251.603630L486.136153,251.073569L486.045708,250.548608L485.994728,250.289938L485.937465,250.035439L485.871248,249.786901L485.792496,249.546721L485.696482,249.318068L485.582615,249.108855L485.452243,248.910648L485.309791,248.720469L485.158631,248.536052L485.001302,248.355703L484.839679,248.178189L484.340769,247.655489L483.832465,247.143486L483.489558,246.812883L483.316009,246.653932L483.140237,246.501643L482.961326,246.358626L482.778064,246.228304L482.585790,246.111377L482.388993,246.007585L482.188924,245.913343L481.986529,245.825933L481.577391,245.664014L480.958634,245.436457L475.941330,243.712743L474.230848,240.207924L471.871945,239.440563L469.702543,233.262993L468.599003,233.325035L468.940868,228.806863L472.749184,224.993542L469.130586,223.397544L468.672668,220.724613L464.100412,220.084020L462.536158,217.474133L458.115787,217.725961L456.059451,218.743884L456.366181,220.524946L454.156938,220.652007L452.898504,219.824610L451.975896,214.480321L452.927421,213.526050L451.668551,212.699593L446.450219,214.800182L448.171390,218.298444L444.856971,218.491291L440.128378,216.968213L440.615403,213.340795L433.829428,212.839477L430.824256,214.816818L430.358511,212.145357L427.837487,210.495558L427.198646,213.232667L422.934256,214.386557L421.192176,217.190545L422.763988,219.795871L427.026682,218.641787L427.492594,221.313788L428.596888,221.247988L428.734329,228.439959L423.681879,231.442638L427.458124,233.917468L427.768104,235.699374L426.664843,235.765204L427.750229,242.003802L419.084969,243.425894L414.207560,241.019954L409.953714,242.180141L408.538560,240.465228L406.333355,240.600693L406.646409,242.382970L399.875208,241.899361L397.224097,251.932525L392.016497,252.609338L388.481263,250.603924L385.060512,252.066524L382.612451,248.334454L379.762194,248.908241L368.261871,244.996400L370.317410,237.112862L372.791482,235.518530L371.935771,230.352442L361.736481,233.779006L358.788197,232.966403L358.022038,231.574281L362.939838,224.150906L363.019222,219.332266L357.214538,214.766911L352.654976,216.040335L353.355999,214.720028L352.042178,213.500342L345.751548,212.137796L339.469694,209.662374L332.655918,213.055731L328.817194,211.433105L328.281815,209.131628L324.950571,207.773047L321.090475,209.042415L317.739170,205.791602L315.339935,205.904241L313.544601,209.022758L311.250943,208.893475L313.419285,211.432349L312.676984,213.982766L309.700360,215.026280L311.120600,216.768570L309.736145,219.247563L314.152777,221.337235L319.926518,219.678646L320.882873,222.029284L316.969779,223.650175L318.590785,225.944371L332.180015,229.369708L333.231933,231.832273L330.773911,233.336384L331.371710,236.787482L325.339353,236.462861L325.306960,238.080699L318.657566,239.784889L312.626805,237.538132L307.374926,239.081862L306.286597,244.694977L285.879246,251.318561L284.348677,253.984205L277.006176,255.623373L270.432012,252.479122L264.911705,255.002523L265.341122,256.332065L262.899348,258.438547L256.871485,257.753281L255.115482,262.312657L257.777952,265.797943L257.196105,267.470288L254.486633,268.794291L251.514129,267.783105L250.730522,270.920536L235.413526,269.191956L232.736696,270.907658L230.719172,269.621441L227.720567,271.275808L227.576892,272.943139L220.735302,269.963064L211.346302,274.306006L204.077630,273.415098L199.598391,275.307551L202.773543,280.783269L200.339341,286.350878L200.194249,288.369161L196.053352,289.926729L191.442786,295.794639L183.464274,292.925359L179.370274,286.967793L175.993037,286.127306L177.392809,290.671812L169.380344,294.573362L169.612271,299.818133L164.570595,301.136665L162.395534,297.563336L157.650499,297.750598L154.072885,303.544133L155.245014,306.161847L150.361005,313.016557L150.630570,315.402177L141.393976,314.773326L140.580289,312.416577L133.416388,315.996903L124.862202,314.115664L123.920283,326.645472L118.595139,332.020067L112.186825,333.655699L92.243128,324.046539L90.473198,327.210816L88.552013,326.105180L79.325676,329.536801L75.431399,334.385120L75.494922,336.477081L69.884700,332.585508L66.209462,333.804466L61.078520,332.836734L58.583385,334.787409L44.856039,336.488467L41.216511,341.745556L41.947444,345.930604L38.750626,344.900234L34.601708,347.653530L33.191905,351.323704L27.996942,351.636596L28.757932,356.802050L24.225002,358.780051L21.601999,363.465772L22.999799,367.335367L21.465664,368.494895L18.556262,367.256344L19.451328,372.402354L18.169368,372.048976L17.777893,374.280268L20.369811,377.264188L18.222491,379.344590L17.800293,381.064216L12.964462,380.362418L10.312785,376.425834L12.383787,374.973400L11.371085,373.043006L12.998072,371.527655L4.123511,366.567944L5.209177,364.253632L8.221990,365.762550L5.996532,361.605226L0.000000,361.359739L0.000000,380.378394L1.468688,382.106259L0.000000,384.616044L0.000000,393.811896L1.503204,395.360839L4.374935,395.235353L4.961887,396.859864L7.303074,396.205790L12.061167,400.387539L10.032263,403.984844L18.987422,404.992073L20.537566,409.052516L22.569435,407.737777L27.386281,412.159264L37.624340,415.117168L38.377582,416.881707L36.891896,417.396944L37.921647,418.757000L43.463810,417.067404L48.811335,421.224584L44.548386,425.810912L45.494645,428.028576L57.121456,431.536960L57.694064,435.379267L53.577771,439.245644L52.345005,443.698223L50.130541,444.200947L50.421847,448.060755L47.940342,447.234214L46.523476,448.857607L47.034287,451.711497L45.466424,453.524065L47.140983,458.374827L36.728530,462.997643L36.215200,464.785666L43.554229,474.806714L51.515555,478.342134L56.220205,478.192689L57.797304,482.292737L56.150211,486.639592L58.011122,487.693593L58.193838,489.184151L59.063463,490.277626L59.838741,491.808833L63.304574,491.612426L64.181365,496.290712L66.353791,498.277999L66.261201,503.649166L69.274503,507.550364L74.068090,510.227599L76.393802,509.136329L77.838657,510.931218L78.337819,518.561191L76.823785,520.303846L79.412302,522.157268L80.895039,528.638817L89.387006,530.614028L90.481790,532.751213L97.537866,536.603622L97.880423,540.521308L101.771661,543.497622L101.533973,545.948639L102.754261,546.485606L111.786086,546.520742L117.264435,549.092626L119.167841,548.959713L117.553270,545.459035L127.568739,546.725448L132.404043,548.790134L138.332362,554.375903L141.765089,554.705939L141.576784,559.798887L143.091390,562.806343L146.461363,562.785712L147.426134,565.471658L150.745555,566.108973L151.836745,569.716011L156.438443,571.916294L155.995691,574.971951L166.069063,580.902707L167.146996,582.777103L166.393811,586.822749L168.505479,588.738665L177.293426,592.924741L185.595667,591.914697L203.679648,605.470587L202.995037,607.330633L206.290035,615.083589L205.503185,618.236809L209.411440,621.212729L221.426998,627.498659L222.871047,627.297431L222.295339,621.898208L233.863488,621.569238L238.309004,627.394602L241.022343,627.933254L249.699375,639.753549L256.906728,640.136964L260.146089,638.594136L265.158883,648.947026L269.719899,649.754547L268.983815,650.766452L273.738534,656.440938L272.155935,659.606420L273.732742,661.040318L282.267840,661.271520L290.841933,667.016651L293.760179,671.365657L304.164180,674.064791L307.659616,676.720389L307.970877,678.525306L313.991402,680.707047L313.324940,684.524690L309.058406,684.841751L307.307520,687.221291L308.768049,689.433946L313.188172,690.019098L312.431863,691.903257L313.962498,694.531972L323.000561,697.491690L336.961851,696.502806L344.008338,699.650276L349.302511,699.271102L352.043648,702.731236L356.611013,704.234227L357.218454,707.846277L362.090965,704.760511L363.631881,700.497489L367.116592,702.579560L368.022033,697.153124L374.916523,696.737195L377.335103,692.731230L375.948396,686.922600L379.484672,686.087678L379.621082,686.216277L381.609319,688.051094L384.456161,690.715598L384.422683,690.887407L384.340166,691.112900L384.430886,691.483639L385.411279,692.063126L385.510047,692.188783L385.587679,692.306819L386.291612,692.434469L386.507211,692.358796L386.866045,692.137671L387.448424,691.976479L388.105859,692.067822L391.174749,693.170806L392.222382,693.557997L393.690017,694.107035L394.317701,694.332167L394.526081,694.400644L394.733654,694.462896L394.940058,694.516119L395.144800,694.556515L395.347221,694.579003L395.546452,694.576883L395.742327,694.544605L395.935002,694.487639L396.125354,694.412750L396.314048,694.325051L396.501578,694.228354L396.688311,694.125462L397.060368,693.908637L397.431550,693.684689L400.589989,691.751612L400.961496,691.530043L401.146722,691.424758L401.331315,691.326007L401.514953,691.237085L401.697188,691.162592L401.877399,691.108876L402.054743,691.084591L402.228083,691.101398L402.394248,691.167880L402.556413,691.275416L402.715634,691.413190L402.872714,691.572942L403.028262,691.748444L403.182729,691.935059L403.336447,692.129371L403.642534,692.531888L405.046305,694.437175L408.235309,693.704743L410.089171,695.075037L411.748211,699.013724L418.057778,698.662129L420.374202,695.072739L419.915125,687.464075L418.411765,684.798864L419.845135,679.709977L421.509698,675.600093L428.032914,672.895535L432.210207,668.619930L431.191024,665.795461L432.968733,663.450382L432.046423,659.859818L443.080447,659.181539L444.440077,660.891031L456.302382,663.792606L459.150907,661.116109L459.272793,659.045272L454.962025,656.862738L456.586126,647.469022L458.295119,646.337774L456.765494,640.961200L458.816711,639.853803L459.480046,635.145119L457.121083,629.573727L455.953992,621.853070L458.963019,617.122986L458.375145,613.513934L463.596425,612.280886L469.128635,612.403272L469.696433,616.463577L483.798166,616.521715L486.232983,621.885967L486.322727,625.482583L488.860081,626.223205L494.663721,623.250067L501.045112,624.297456L503.059835,621.758969L503.484069,616.292989L507.556225,619.385081L516.729438,619.144868L526.459906,625.877376L533.973968,625.453509L534.257587,627.259174L538.692808,627.922542L540.614956,633.280274L558.596144,636.161360L565.006197,639.258404L570.011521,643.775324L581.332963,644.740439L583.996557,640.957373L588.287448,640.733903L595.388035,642.993319L595.464545,643.205509L595.556168,643.396111L595.668281,643.557445L595.809470,643.686501L595.972183,643.784797L596.150657,643.860563L596.340499,643.920060L596.538408,643.967996L596.741934,644.007861L597.159157,644.072921L598.434877,644.236316L598.859185,644.298163L599.280581,644.374579L599.489546,644.422224L599.696836,644.479402L599.901895,644.549534L600.105964,644.636158L600.307828,644.735864L600.508105,644.845105L600.905648,645.082127L601.498070,645.461401L602.086663,645.852835L602.473871,646.119497L602.664134,646.255649L602.850755,646.394710L603.032172,646.537832L603.206280,646.686551L603.370281,646.842881L603.520506,647.009418L603.652210,647.189454L603.754508,647.369397L604.011797,647.923778L604.104409,648.087804L604.212557,648.226851L604.349052,648.338149L604.505549,648.419675L604.677039,648.479017L604.859627,648.522041L605.050323,648.553225L605.246851,648.575963L605.447490,648.592815L606.681821,648.656786L606.886331,648.672480L607.088687,648.693535L607.287890,648.722350L607.482638,648.762108L607.671224,648.817018L607.851418,648.892606L608.020329,648.996048L608.179533,649.136956L608.327222,649.306394L608.466795,649.496036L608.601004,649.699200L608.993329,650.337961L609.127341,650.545362L609.266611,650.741965L609.413885,650.921856L609.572557,651.077797L609.744395,651.203429L609.927787,651.304708L610.119685,651.388055L610.317756,651.458394L610.520243,651.519448L610.933572,651.624098L611.352901,651.716523L612.613358,651.979860L615.695979,654.668986L615.562198,656.646097L622.537639,659.942498L624.016567,662.601336L626.159740,662.495685L630.987595,665.901883L632.686455,663.746670L636.955264,665.146976L636.510850,667.455366L638.891805,668.250115L648.572739,667.786894L648.457994,666.207370L651.619843,666.013665L656.595214,666.532766L658.268818,669.150537L666.310453,668.776125L666.121132,666.815287L676.599710,666.698144L682.054090,668.706450L689.125841,665.012227L691.738927,658.845565L695.407626,656.543517L697.155654,655.604341L703.691249,655.057671L707.840428,652.709940L710.796444,654.589955L710.729361,657.702518L715.410915,660.234176L725.065328,659.829961L728.674237,662.409939L730.573669,669.763841L736.043654,667.997448L740.306169,668.998934L745.169644,673.361857L749.123033,673.949932L759.417603,673.917772L761.894167,670.760760L762.878237,671.107220L763.019017,671.287357L763.175636,671.460873L763.343431,671.629728L763.518960,671.795369L763.699719,671.958843L764.070256,672.282084L765.763244,673.726765L767.627402,675.339566L768.188363,676.115030L768.337071,678.044711L767.875123,679.124970L769.113188,681.382416L769.774223,682.022182L769.651971,682.579504L769.807730,685.286162L769.836188,685.658108L769.859461,685.842277L769.875903,685.933403L769.897321,686.025847L769.922579,686.117524L769.980840,686.299334L770.090082,686.599334L770.355608,687.288455L770.689330,688.409473L770.501463,689.831221L770.449911,690.279262L770.437747,690.425319L770.430222,690.568336L770.429345,690.706996L770.437837,690.839517L770.459336,690.963516L770.498647,691.075842L770.561395,691.176145L770.642705,691.264285L770.737470,691.343609L770.841849,691.416634L770.952990,691.485227L771.068802,691.550760L771.431137,691.737598L772.460474,692.242571L773.398724,692.711094L773.761173,692.310692L775.313804,690.616464L775.746604,690.126448L775.885866,689.959452L776.020659,689.789187L776.149155,689.614317L776.268923,689.433062L776.376757,689.243075L776.468481,689.041301L776.543470,688.815915L776.601458,688.578090L776.647232,688.331333L776.684350,688.078247L776.715422,687.820744L776.766448,687.297629L776.809766,686.768917L776.970329,684.645066L777.016604,684.118287L777.043278,683.857265L777.073842,683.598837L777.110009,683.344142L777.154116,683.094730L777.209303,682.852688L777.279726,682.620775L777.369039,682.400611L777.473653,682.190620L777.589369,681.988012L777.713017,681.790684L777.842240,681.597069L777.975308,681.406018L778.248334,681.028531L779.502310,679.347305L779.778347,678.971786L780.049137,678.592200L780.180850,678.399524L780.308621,678.203750L780.430813,678.003585L780.545224,677.797289L780.648939,677.582559L780.736320,677.366358L780.813696,677.142270L780.883701,676.912371L780.948348,676.678253L781.009163,676.441120L781.123593,675.961192L781.396326,674.750731L781.508978,674.268989L781.630123,673.793280L781.696282,673.559385L781.768086,673.329486L781.847537,673.104995L781.939780,672.878880L782.040153,672.658513L782.146432,672.442324L782.256933,672.229122L782.485900,671.808360L782.838820,671.183940L784.733870,667.862921L785.558252,666.405838L786.614196,664.527645L786.851228,664.113514L787.093512,663.706452L787.218379,663.507929L787.347209,663.314731L787.481594,663.128996L787.623643,662.953553L787.774243,662.791530L787.932439,662.639708L788.096154,662.495298L788.263816,662.356190L788.606592,662.087985L789.304930,661.568748L792.465925,659.255434L792.815311,658.996205L793.159249,658.730727L793.327199,658.593379L793.490774,658.451012L793.648118,658.301498L793.796749,658.141988L793.933389,657.968722L794.053220,657.782341L794.161437,657.582638L794.261160,657.373191L794.354764,657.156726L794.530296,656.710403L794.697379,656.254392L794.860886,655.794277L796.238598,651.868317L796.403416,651.409885L796.574716,650.959840L796.665053,650.740882L796.760435,650.528447L796.862942,650.325227L796.975344,650.134803L797.101278,649.961876L797.244988,649.809013L797.402431,649.673906L797.569885,649.551747L797.744525,649.438878L797.924230,649.332564L798.107436,649.230778L798.480101,649.035307L801.308718,647.614521L802.060568,647.232860L802.621462,646.940986L802.990992,646.737836L803.173157,646.631171L803.352651,646.519271L803.528486,646.400198L803.701032,646.271469L803.869877,646.135485L804.200258,645.849183L804.686375,645.401218L810.844807,639.569816L821.980271,642.709201L836.731483,650.063016L844.178651,649.873954L849.710883,646.710517L852.715508,646.927122L858.987532,653.310068L861.275491,653.871163L871.331302,649.282280L875.441609,644.948618L889.194812,643.711035L900.569416,631.829458L915.140468,630.279207L917.070962,628.499456L917.527038,617.864257L922.186962,611.827297L941.033098,609.377373L947.771753,604.197964L950.511213,596.841248L950.886654,590.078934L949.036367,587.782991L950.126706,578.546060L954.402341,561.136782L957.278303,558.477842L977.898896,553.143641L985.505577,548.968115L990.393932,544.141487L991.351773,541.395774L990.187784,537.174832L997.795999,535.008398L1000.000000,533.230319L1000.000000,435.122269Z "/></g><g class="" id="mountains"><path d="M353.632889,677.562330L334.373490,651.605820L293.393677,609.280467L254.983689,586.084326L227.021720,572.444781L195.750573,572.444781L184.083629,575.172368L173.686267,580.628028L176.520214,590.176962L181.319760,596.998795L190.632469,606.550947L196.321681,610.645281L216.930794,627.025834L255.743797,655.703495L280.831730,673.463230L300.129623,685.761285L331.555198,700.795211L336.969952,700.795211L343.365592,699.428361L348.165787,691.227799L349.612622,681.661683L353.632889,677.562330Z " data-id="1" data-name="Sumava" id="1"/><path d="M253.779104,288.537806L262.528529,277.720327L263.703285,279.072310L265.934838,266.906538L265.718954,264.203665L265.394943,260.149788L260.805236,256.096426L238.836340,247.991249L151.490183,291.242753L97.268832,323.720235L102.726492,339.971578L114.114007,349.455429L164.818494,326.428207L181.513883,321.012497L253.779104,288.537806Z " data-id="2" data-name="Krusné hory" id="2"/><path d="M329.762755,277.720327L314.931884,279.072310L260.506213,292.595314L253.884539,303.417885L252.166299,322.366337L280.705286,318.304993L307.731111,308.830564L336.208297,291.242753L334.808145,287.185419L329.762755,277.720327Z " data-id="3" data-name="Ceské Stredohorí" id="3"/><path d="M601.702506,287.185419L569.969760,266.906538L519.449480,250.692746L501.804333,256.096426L506.091312,280.424350L528.986834,285.833089L576.360450,302.064860L595.710474,303.417885L595.340615,299.358986L601.702506,287.185419Z " data-id="3" data-name="Krkonose" id="3"/><path d="M470.281089,273.664724L484.742450,256.096426L476.561230,235.837338L465.431095,230.437082L438.786017,242.588940L452.024246,272.312972L451.907265,270.961277L470.281089,273.664724Z " data-id="4" data-name="Jizerské hory" id="4"/><path d="M698.738620,394.358446L695.059579,383.349932L672.767931,350.810501L625.845931,329.136412L617.827033,346.745463L648.128264,373.855742L677.025086,396.918117L691.584651,403.704446L697.640263,399.632469L698.738620,394.358446Z " data-id="5" data-name="Orlické hory" id="5"/><path d="M798.228830,426.931703L816.140703,412.378829L811.336119,405.408249L805.508469,395.561030L772.743319,377.924324L757.322161,384.706483L737.300129,399.632469L751.528888,435.503391L771.377554,449.459438L780.310397,443.239711L798.228830,426.931703Z " data-id="6" data-name="Hrubý Jeseník" id="6"/><path d="M1000.000000,494.526234L967.164496,511.119815L949.931913,543.815241L962.297762,550.622198L999.747873,535.638899L1000.000000,535.468525L1000.000000,494.526234Z " data-id="6" data-name="Beskydy" id="6"/><path d="M550.068699,592.905580L592.072607,579.264053L611.042876,561.536080L629.400779,512.481584L630.593337,489.338194L618.524603,474.370863L554.217008,439.019346L508.754362,447.174066L478.641057,459.409925L465.805101,473.010511L437.742591,511.119815L434.998654,543.815241L442.120799,551.993180L450.433344,561.536080L458.529433,568.353707L498.050983,590.176962L525.925379,601.092350L534.560254,601.092350L541.776104,596.998795L550.068699,592.905580Z " data-id="7" data-name="Ceskomoravská vrchovina" id="7"/><path d="M933.570737,594.273892L919.238496,594.269947L849.690152,639.138975L842.671613,653.152514L850.854728,663.511611L876.134909,658.068471L948.191893,614.739941L952.676543,606.954399L954.298938,599.727794L933.570737,594.273892Z " data-id="8" data-name="Bílé Karpaty" id="8"/><path d="M124.174908,535.638899L115.236834,500.227415L95.555417,464.849513L72.177431,437.660425L61.444204,437.660425L54.356637,459.409925L62.672965,486.616396L84.281253,519.291150L107.698294,546.541045L116.317225,546.541045L124.174908,535.638899Z " data-id="9" data-name="Ceský les" id="9"/><path d="M752.276901,486.485585L711.783742,474.033771L702.514585,480.259132L699.427611,500.499010L713.209335,544.129169L727.359449,564.401819L750.790472,564.401819L759.468426,537.893377L758.554112,514.517697L758.060912,495.827274L756.670342,490.766895L752.276901,486.485585Z " data-id="10" data-name="Drahanská vrchovina" id="10"/><path d="M748.081100,376.137896L759.889033,371.483918L763.749984,360.627347L761.665976,338.925556L748.390212,328.080312L731.119390,326.531298L729.853726,338.925556L738.623756,366.830637L741.220387,368.381653L748.081100,376.137896Z " data-id="11" data-name="Rychlebské hory" id="11"/><path d="M814.339496,421.552930L798.482458,438.648554L780.690734,461.586386L800.097425,484.928870L833.451884,486.485585L848.932649,442.923888L828.175659,425.049010L820.056163,420.387657L814.339496,421.552930Z " data-id="12" data-name="Nízký Jeseník" id="12"/><path d="M249.447302,424.272069L215.026290,407.182319L153.359080,402.523665L132.850141,475.590008L140.218257,492.713112L168.291551,506.728898L236.752425,500.499010L251.521064,467.809517L253.322197,442.923888L249.447302,424.272069Z " data-id="13" data-name="Plzenská pahorkatina" id="13"/><path d="M445.612082,650.266668L423.987598,626.834906L387.877884,639.330643L391.638354,672.144676L404.978361,684.649752L423.429958,683.086490L433.597319,670.581708L437.935642,662.767443L437.813124,661.204707L445.612082,650.266668Z " data-id="14" data-name="Novohradské hory" id="14"/><path d="M843.152658,574.541651L838.050396,566.156627L831.131379,566.351609L814.956673,583.123265L810.081315,597.169268L814.618156,599.510664L824.567749,600.291154L843.152658,574.541651Z " data-id="15" data-name="Chriby" id="15"/><path d="M159.294112,350.162098L143.267070,348.611990L134.386147,361.015016L118.706399,381.180494L123.057422,390.492065L133.863586,387.387896L145.665082,381.180494L155.776915,368.769419L161.325489,361.015016L160.979682,356.363303L159.755370,356.363303L159.294112,350.162098Z " data-id="16" data-name="Doupovské hory" id="16"/><path d="M301.825197,466.642594L272.281685,482.204782L263.149045,491.545370L259.047991,502.445739L257.403778,513.349276L265.725093,525.814232L275.577812,525.814232L291.233977,521.139410L299.378756,514.907178L312.083643,504.003195L318.384859,489.988438L320.987773,475.979078L319.274431,469.754477L312.766114,465.086758L311.537102,465.086758L301.825197,466.642594Z " data-id="17" data-name="Brdy" id="17"/><path d="M435.783080,263.170892L427.959107,253.520735L421.166411,251.335313L419.081839,258.610004L422.934349,269.204952L427.188620,276.822768L443.362804,298.743061L451.913175,303.573961L456.879746,302.063700L455.470736,292.628305L446.410462,279.424044L435.783080,263.170892Z " data-id="17" data-name="Jestedsko-kozákovský hrbet" id="17"/><path d="M386.363465,266.526706L387.370212,257.629578L380.981800,251.371399L371.451833,248.053262L359.270058,241.119634L354.522330,242.664474L347.849645,250.389795L347.113419,258.004507L349.626111,265.696044L354.794172,269.505004L367.350306,273.728447L378.187765,271.616655L386.363465,266.526706Z " data-id="18" data-name="Luzické hory" id="18"/><path d="M968.554678,554.459233L956.686137,557.578232L946.026711,562.062185L937.764733,570.641446L933.397610,584.488668L934.823437,592.877000L940.141250,595.218191L949.034716,594.632882L956.799003,588.780189L966.088386,578.052119L972.189304,566.351609L970.885351,554.654164L970.750432,554.849095L968.554678,554.459233Z " data-id="19" data-name="Javorníky" id="19"/><path d="M406.887637,537.308820L431.698239,493.686260L435.774259,475.784543L429.626846,453.225849L416.834362,447.005412L401.544433,447.782903L378.403465,457.891939L361.325206,459.447447L349.588938,474.228297L341.404661,487.458566L321.430183,515.491407L320.642435,537.308820L325.055555,546.662725L343.751410,565.376704L355.332440,571.616466L368.901089,571.616466L382.104162,566.936563L384.326656,563.816899L385.559843,563.816899L406.887637,537.308820Z " data-id="20" data-name="Stredoceská pahorkatina" id="20"/></g></svg>