<?xml version="1.0" encoding="utf-8"?><!DOCTYPE svg  PUBLIC '-//W3C//DTD SVG 1.1//EN'  'http://www.w3.org/Graphics/SVG/1.1/DTD/svg11.dtd'><svg enable_background="new 0 0 1000 463" height="463px" pretty_print="False" style="stroke-linejoin: round; stroke:#000; fill: none;" version="1.1" viewBox="0 0 1000 463" width="1000px" xmlns="http://www.w3.org/2000/svg" xmlns:xlink="http://www.w3.org/1999/xlink"><defs><style type="text/css"><![CDATA[path { fill-rule: evenodd; }]]></style></defs><metadata><views><view h="463.924133454" padding="0" w="1000"><proj flip="auto" id="robinson" lon0="14.1635895904"/><bbox h="40.76" w="88.06" x="155.23" y="-852.33"/></view></views></metadata><g class="" id="reservoir"><path d="M575.134049,121.605685L574.910477,121.584630L574.569740,121.762897L573.975644,122.791111L573.576779,124.036247L573.321618,125.161408L574.043396,126.290824L574.688226,126.759028L575.535106,127.101588L577.704403,127.418178L578.226204,127.255320L578.617412,126.911355L580.999517,125.955996L579.738132,124.856775L578.534442,123.372262L578.163464,123.003075L578.383246,122.401579L577.459811,121.543924L575.963528,121.249856L575.790160,121.428121L575.134049,121.605685Z "/><path d="M593.548903,346.177137L588.177847,344.709253L587.225662,343.362971L587.021490,343.497244L586.927886,344.288049L587.865063,345.309969L588.186325,345.536830L592.569274,347.107223L592.910281,347.329146L593.975523,347.777236L597.252477,348.835992L598.347337,350.294827L598.614849,350.571192L599.440535,350.475065L601.028429,351.485115L601.136035,354.342219L601.515048,354.569127L603.677777,356.725873L604.852923,356.148327L604.743262,354.222757L604.586561,351.662530L603.769390,351.222881L601.556140,349.968988L601.322381,349.734329L600.737297,349.424751L599.297580,349.361139L598.291046,347.753913L596.826336,347.652138L593.548903,346.177137Z "/><path d="M676.376352,397.518508L675.643403,397.110980L675.168302,397.502235L672.182699,398.884032L671.655269,398.074619L669.597937,397.581477L668.980922,397.824156L667.958212,400.720826L668.773998,401.102909L670.088233,400.814931L671.848289,399.807374L674.497780,400.875074L675.191050,400.645824L676.181087,399.595110L677.183160,401.304566L678.060058,400.425774L677.370878,399.689214L676.376352,397.518508Z M692.305535,398.432987L690.626882,396.911950L689.671508,396.421775L685.278626,397.530802L685.002417,397.945557L685.242288,399.005094L686.949947,400.175488L689.881869,401.403854L691.213705,402.744251L693.204938,403.583749L694.791617,403.889180L695.096734,405.209724L695.703243,405.956429L696.355878,406.061679L697.094669,405.787094L697.748231,403.693510L697.586361,401.385501L697.493094,400.327736L695.793677,400.626001L692.305535,398.432987Z M681.127542,400.456907L684.053156,399.996997L685.092664,399.333319L684.951215,397.851749L685.407302,397.221352L683.376267,396.146651L681.235655,395.154749L680.595689,395.021035L679.331611,395.733475L676.427283,397.231964L677.072752,398.948418L677.778366,400.024591L678.990319,400.618230L679.803104,400.678372L681.127542,400.456907Z "/><path d="M940.352707,242.333775L940.813120,242.833443L941.535822,241.330235L941.407765,238.461441L942.678339,237.911107L943.748148,236.892206L943.900110,236.443364L943.563924,235.802877L943.277585,235.669004L942.651492,235.954366L941.036257,236.935188L940.026895,237.179693L940.053545,238.215516L940.167078,239.175268L940.352707,242.333775Z "/><path d="M340.506891,378.398663L340.145724,376.752308L337.042002,377.371604L336.155888,377.897508L336.776744,378.804097L338.315657,379.365600L339.431456,379.695463L340.206938,379.065954L340.506891,378.398663Z "/><path d="M350.240767,367.986844L348.245653,367.715670L348.058573,367.868705L350.112006,370.436066L351.005352,371.052628L351.140779,371.735143L350.334442,372.266583L350.494541,372.565785L351.733165,372.778136L354.377053,373.245324L354.854428,372.897092L354.769799,372.494196L353.338504,371.549283L353.056917,370.064599L350.966676,368.127243L350.240767,367.986844Z "/><path d="M344.963763,240.994084L345.528848,240.741093L346.245895,239.988472L347.326514,239.652336L347.334964,238.057674L345.910175,235.236792L346.031479,234.302882L347.289539,232.603458L348.028421,232.096203L347.436195,230.685091L347.230317,228.130958L348.121229,227.287335L347.273615,226.955078L346.395525,227.058857L345.435633,227.829249L345.196333,228.375882L345.511545,229.550894L345.769064,230.405412L345.813734,231.281600L345.241079,231.839056L344.583911,232.120861L344.273676,232.757045L344.461055,234.216865L344.260585,236.606835L344.356881,237.134597L344.846394,237.827255L343.699215,239.813709L342.722174,240.940526L340.499006,241.854553L338.470390,241.360538L337.285448,241.576184L336.908437,242.013118L336.847056,242.697425L336.873003,244.633439L336.046578,244.503757L335.364643,244.937207L334.253142,245.610408L332.668167,245.377006L331.100288,245.412952L330.430792,246.084645L330.414558,246.587895L330.994152,247.219436L331.300912,247.759343L330.791129,248.595923L329.422466,248.665824L326.925535,249.207179L326.937340,249.757002L327.509216,250.290621L328.311018,251.499578L327.947936,252.073859L327.589712,252.807935L328.386561,252.974964L329.052435,252.870871L330.375501,251.656077L330.880786,251.430494L330.978472,251.106222L330.285034,250.450638L329.710570,249.627981L331.473973,249.206474L332.725458,248.179458L332.523628,247.643760L331.841862,246.455115L333.425506,246.839523L334.145843,247.106660L334.804715,246.902959L335.464300,245.645541L336.175585,245.433218L337.176946,245.786504L338.632166,245.861215L338.995979,245.453831L338.981358,244.956941L337.900039,242.914907L341.609412,243.001880L342.982921,243.249251L343.615778,243.120280L344.106503,242.559294L344.131506,241.233688L344.963763,240.994084Z "/><path d="M323.234395,264.441926L324.032716,261.646698L323.886158,261.385282L323.327711,261.392200L321.466220,262.872029L320.833200,264.393626L318.635502,263.629984L318.122136,263.103651L317.510263,263.027115L317.012181,263.412843L316.697335,264.539105L317.172940,265.200295L318.839376,265.749160L320.109087,265.591423L322.506621,265.009962L323.234395,264.441926Z "/><path d="M392.519578,370.412400L392.860333,370.621003L393.163931,369.037467L394.212159,368.426123L394.177168,367.808125L393.809877,366.539627L393.077148,366.110439L390.279473,366.108318L389.383574,367.024678L389.971157,367.908531L390.658042,368.359656L391.921909,368.993360L392.519578,370.412400Z "/><path d="M549.452262,390.522354L546.093995,390.271928L546.233149,391.443422L547.114294,393.705028L548.593257,394.884491L551.060245,394.958304L550.994974,394.213097L550.590570,393.875634L549.313315,392.785071L550.077597,392.258391L552.111928,393.168880L553.035483,393.856532L554.028097,392.217360L554.908931,392.103175L557.939351,392.142371L559.975021,394.180553L559.073076,395.035185L559.272741,396.081562L562.746825,396.781988L563.654070,396.882406L564.605251,395.363458L564.517183,394.215219L563.190950,394.520435L560.534417,391.833998L559.876199,391.420784L554.971233,389.782398L554.392012,390.271928L552.747140,391.410378L549.452262,390.522354Z "/><path d="M412.103330,371.918854L411.740964,369.895858L410.927998,369.671337L406.578145,370.422424L405.353501,372.459486L407.673746,374.044342L408.284942,374.014406L408.332753,373.503267L408.788351,372.561713L411.124754,372.503571L412.103330,371.918854Z "/><path d="M566.077538,261.723879L564.909025,260.672024L562.914392,259.557975L562.400201,259.563575L561.995106,261.027844L562.828222,262.035789L563.739123,262.286918L565.254953,262.251190L566.077538,261.723879Z "/><path d="M786.633984,208.203487L786.766713,208.242205L787.503776,208.370161L788.167216,208.183777L789.211231,208.325976L791.052819,207.557277L792.313966,208.604042L792.717747,210.117610L793.255200,211.622104L793.847328,211.736159L795.914416,211.984687L797.301645,212.235329L797.665049,213.168919L798.745664,213.629388L799.256618,212.996421L800.704220,212.434577L801.841535,213.003462L803.592494,214.331371L804.856004,214.835514L806.649603,213.289316L803.420970,211.898089L802.560687,211.909354L801.606555,210.935674L801.959356,209.895146L801.826506,209.746603L800.994593,209.711403L800.987538,210.607601L799.725885,210.430190L799.198718,211.468624L798.002892,211.643929L797.134798,210.730100L796.178421,210.454830L794.595951,209.794475L793.830551,209.280177L793.832421,205.634155L793.785820,204.733886L793.383754,203.911773L792.484225,203.721733L792.915640,204.772599L792.772716,206.627369L790.312109,206.697761L788.631562,207.856438L787.395839,207.386908L786.633984,208.203487Z "/><path d="M47.369688,185.819292L48.728132,186.044420L49.921413,186.164113L51.253787,185.448576L55.065999,183.476419L56.963128,183.153139L59.411577,182.435801L59.222895,179.398122L58.933213,178.864037L56.390182,179.001834L51.203467,182.462277L50.735864,184.108505L48.166598,184.411239L47.418379,184.718135L47.369688,185.819292Z "/><path d="M395.077826,349.168891L394.446516,348.547623L390.168724,349.375275L388.287653,349.877810L389.171391,350.754258L393.078291,351.803190L394.446034,350.963477L395.157421,350.101868L395.077826,349.168891Z "/><path d="M938.995906,246.033291L934.582869,243.610003L934.108728,243.965569L934.222052,245.199381L935.438366,247.409452L936.413640,246.647368L937.364585,248.735597L938.434259,247.811829L938.844148,246.875493L938.995906,246.033291Z "/><path d="M191.773835,125.193032L190.483084,124.783237L187.669004,125.134534L183.415959,126.442934L182.781214,126.812713L181.097463,128.007173L181.401378,129.281167L181.998198,130.730617L183.187866,131.226429L185.909356,130.879205L189.922417,129.811550L191.389834,130.107180L191.773835,125.193032Z "/><path d="M314.518615,267.563528L313.983712,267.095928L313.184157,267.111444L311.247463,270.391837L310.447095,270.549834L310.262217,272.119971L308.693427,273.793170L308.538239,274.021724L309.419805,274.887282L309.792237,276.654442L310.197683,277.474914L310.005777,280.414098L310.669952,281.459733L311.732522,282.914643L312.217665,283.480536L312.375675,284.077485L314.025021,287.699613L314.229310,289.050331L313.277606,290.418037L313.005643,291.240944L314.026691,293.517796L314.707760,293.590494L315.172176,293.950457L316.613623,296.658053L316.524682,297.889101L317.291462,298.335225L317.266537,299.194311L317.604919,300.882893L316.534822,301.384823L316.532147,301.873346L317.052427,302.618145L317.376959,303.225997L317.485995,302.436710L318.294915,302.449417L318.085967,302.119022L319.033121,301.708857L318.507314,300.021650L319.642050,299.244431L319.701163,297.793807L318.032424,295.036012L318.149131,294.682392L317.889288,293.857290L317.133078,292.764711L316.045615,288.693945L316.363575,288.130087L316.095850,287.485084L316.199537,286.637564L316.401649,285.150042L316.193572,284.794401L315.443915,283.062113L314.565134,281.491484L315.579475,280.069793L314.195055,279.844021L313.730488,278.655920L314.530578,277.378262L313.534565,277.206830L312.702622,273.178761L312.966775,272.925523L313.791741,271.317260L315.363028,269.186427L315.645188,268.468421L314.518615,267.563528Z "/><path d="M935.355953,284.468400L933.829954,284.871315L934.877981,286.641092L934.645712,287.608579L935.048896,288.584560L935.573799,290.030585L936.795233,290.404627L937.004389,290.873244L937.157281,291.866958L938.318951,293.122334L939.423574,293.103453L938.423078,291.958708L937.281517,290.136446L936.782375,289.015750L936.451985,288.099036L935.646635,285.603667L938.814469,285.005059L938.214099,284.534023L935.355953,284.468400Z "/><path d="M698.442364,419.890613L696.933027,419.903278L696.120704,420.124898L695.581752,420.361308L695.629650,420.662837L696.612413,421.004006L699.964544,422.937100L700.825275,422.561943L701.516430,420.434213L701.123264,420.257164L698.442364,419.890613Z "/><path d="M366.388135,84.915129L365.207135,85.432435L365.048375,85.719131L365.639362,87.228358L365.909922,87.759726L367.038422,88.378732L368.252042,88.909419L368.837269,88.029293L370.445777,88.482485L369.013899,86.674568L366.964085,84.953681L366.388135,84.915129Z "/><path d="M618.739319,272.483198L617.932194,270.823596L617.472352,271.423208L618.609951,273.191764L620.349123,273.717629L622.158591,274.587065L622.803320,274.387125L624.934785,274.690561L625.621130,275.078103L625.643694,273.321623L625.478840,272.307911L623.364525,272.749028L622.507358,273.334306L621.517930,273.226315L619.809784,272.728769L618.739319,272.483198Z "/><path d="M291.735319,415.795384L291.015988,415.241921L289.519443,416.206592L289.626635,416.543488L290.556723,417.554187L294.810337,420.919068L295.601713,421.497360L299.096411,421.725281L301.827052,427.000984L304.880824,428.107435L307.137634,428.297862L307.037035,430.624102L305.323308,431.214525L304.810373,431.957165L306.226057,434.443551L304.411776,435.376679L306.556866,436.573201L309.322910,439.353610L311.795181,440.509850L313.833732,440.700316L316.625646,441.203037L319.852805,442.731051L322.610354,444.124940L325.889218,447.588649L329.396465,448.728751L331.765222,448.471695L335.455633,447.444190L335.020931,446.867067L332.969474,445.843837L327.733935,445.980028L325.803744,443.874607L325.813972,441.988282L324.712790,442.593684L324.453948,439.301924L323.659376,438.549991L323.625878,438.807714L323.096127,440.043953L322.406400,442.311162L318.188764,438.700801L316.255008,438.545742L317.083244,436.871273L319.129742,434.497357L317.344301,433.845308L313.367509,435.082155L311.291398,435.604654L312.269582,433.078574L310.056246,431.763894L315.469879,427.618272L316.087162,425.798991L315.709126,424.253000L313.678218,423.231565L311.982065,427.298301L310.183236,426.081436L308.431511,425.565391L303.302261,424.395989L302.789606,422.926381L300.314531,420.723002L298.764861,419.901938L296.980318,420.496500L294.652834,419.354805L293.629649,418.284620L291.735319,415.795384Z "/><path d="M447.696366,246.396884L446.525517,245.301591L445.545945,244.626391L444.466824,244.840649L444.400370,245.390398L444.506046,246.358823L444.515866,247.003047L447.024482,248.667234L445.821060,249.535662L445.763520,251.036433L445.513727,252.725500L446.051498,252.877775L447.130685,252.538684L447.143764,252.306045L447.310383,251.188699L446.545943,250.753051L447.913444,249.531432L448.627423,249.074659L449.123592,249.902213L449.175305,250.459802L450.210507,251.622944L450.752210,252.091737L451.714445,252.964486L452.495551,253.546097L453.750138,254.934954L454.841677,255.921290L455.847011,255.517305L456.871809,256.450074L457.062659,257.153018L457.327584,257.224229L458.500209,256.298489L459.809069,256.766644L460.257828,255.791563L462.782765,256.716585L464.511384,256.624927L466.336094,257.192501L467.331719,258.900922L468.229191,261.189765L468.058615,263.505563L468.070376,263.921634L468.591451,263.909645L468.403317,266.458365L468.647925,266.820166L469.516237,267.190435L469.874281,266.765155L470.109858,265.216422L469.740669,264.502731L469.784356,263.039429L469.319951,260.285773L469.659385,260.180709L469.835671,259.668788L467.558732,256.596725L467.165750,255.443277L465.267413,255.790153L463.632748,255.675330L462.378979,255.055513L460.405379,254.067793L458.916320,254.426640L458.107426,254.357549L457.137098,254.746010L456.683539,254.052283L454.524775,253.575707L452.295151,251.301490L452.437678,250.857380L452.031463,249.241719L452.276254,248.540355L449.851318,247.695214L449.060655,246.788070L447.696366,246.396884Z "/><path d="M151.084381,228.578505L150.251396,228.626660L151.282532,230.111647L151.842095,230.907410L150.264005,232.206107L148.862780,233.942792L147.850595,236.528622L143.571636,237.122618L142.812968,237.963251L142.837939,238.047809L146.126457,237.642638L147.977488,237.661664L148.531591,236.974647L150.516521,233.842472L153.390067,232.122974L154.751716,232.615435L155.445024,232.594580L159.805206,234.021702L161.705749,234.493090L162.747132,234.299718L164.355764,232.735207L164.392172,232.129315L163.484994,232.189903L162.463613,232.225834L160.688505,232.071711L159.388480,231.758037L157.976297,230.766811L156.835582,231.082887L152.799437,230.458953L151.084381,228.578505Z "/><path d="M741.079470,180.880623L740.857593,180.046239L740.413946,180.067034L739.908543,181.492119L740.477831,181.936852L741.079470,180.880623Z M746.994806,181.782318L745.617466,180.132864L744.664295,179.150256L743.715831,178.850320L743.107125,179.084679L743.762117,180.729464L745.518848,182.157703L746.281859,182.713330L746.994806,181.782318Z "/></g><g class="" id="region_cz"><path d="M268.244684,0.000000L281.960492,11.890406L297.451026,23.096725L302.686994,34.216054L302.665993,49.322526L299.347110,55.080864L301.876093,67.561134L295.364615,71.402285L284.751170,71.402285L276.037920,76.204434L280.751023,87.732810L279.693686,93.498707L286.983409,99.265746L293.131853,100.227030L302.316694,101.188346L307.335268,106.956911L312.355378,112.726623L321.467338,112.726623L327.151543,107.918450L332.857288,112.726623L336.967390,116.573735L341.235202,122.345363L345.582626,129.080385L348.254444,133.892077L350.166648,138.704572L355.119995,143.517872L360.074666,148.331978L369.909160,156.999401L373.109515,158.925851L380.272198,162.779139L384.155426,163.742543L391.161797,165.669446L395.727107,165.669446L400.372188,166.632946L408.822296,167.596479L414.148885,167.596479L417.953591,167.596479L425.920234,162.779139L428.882535,161.815769L441.489992,157.962610L446.896250,158.925851L451.081885,172.414631L460.081117,188.802434L466.418796,191.695378L480.046135,190.731030L493.175645,183.981513L502.543004,185.548223L524.149543,185.548223L538.352765,186.873967L545.502153,184.825115L549.180784,180.125365L543.383409,170.487273L542.992083,153.146890L547.362373,133.892077L555.118308,127.155932L537.790455,111.764924L528.421972,108.880021L520.734348,99.265746L524.773352,93.498707L516.843517,89.654649L512.035317,86.771938L506.801118,79.086101L502.999451,70.441950L500.735496,67.085837L504.906559,58.267131L511.914553,58.672830 " data-id="1" data-name="Labe" id="1"/><path d="M345.768349,132.957646L336.881786,135.379373L328.422724,137.195802L322.021004,140.829003L323.990744,147.491065L328.595856,157.184094L334.248990,162.031838L336.358214,164.456017L338.759999,170.517365L343.410078,174.761073L344.611532,177.792680L342.363240,179.611798L339.642206,187.495987L340.606289,193.562234L341.187567,200.845275L339.997947,216.020315L341.055625,223.307089L344.222956,226.951133L346.431207,230.595610L349.074247,245.785507L350.995149,257.942606L353.300434,262.806702L355.942573,265.847119L359.978613,268.279650L363.150362,271.928771L364.880772,275.578279L363.149620,284.095280L359.494743,286.529086L354.686382,286.529086L349.397185,286.529086L345.354734,290.180103L345.348409,296.265948L349.047886,300.526639L351.643359,302.961538L353.948047,307.831808L355.148017,310.876044L357.019346,316.356274L359.666990,327.047151L354.764904,330.663865L350.000075,336.176569L356.827001,339.425014L361.042147,355.333309L363.336927,362.745413L363.341209,373.027973L364.776192,379.126003L365.493651,382.175308L365.131150,385.301043L363.740345,386.825864L363.817210,390.180633L361.153022,391.629353L358.603335,395.365715L353.607950,397.119612L350.303127,404.440860L349.503426,412.983584L345.571716,418.476036L349.394696,430.683373L352.596346,441.061575L352.389383,444.724885L350.155391,447.167208L343.292446,445.946035L336.338592,443.503758L327.497209,441.672112L313.428627,441.061575L309.953367,439.840520L303.442080,436.787985L298.820731,433.125144L289.570070,419.086341L287.277967,414.204082L285.076113,410.542669L281.908679,406.881501L278.258943,403.220581L273.644265,399.559914L268.020329,395.289460L254.801748,386.139689L248.788685,383.090137L245.583003,378.821084L245.932329,376.991604L245.139131,372.723092 " data-id="2" data-name="Vltava" id="2"/><path d="M340.110326,194.853317L329.905608,199.100651L321.997733,208.204189L305.265348,208.811193L295.251030,203.348614L291.416337,203.348614L288.202402,205.169360L278.510655,210.025238L271.305819,216.096210L268.274510,220.346625L265.675166,223.990315L262.254098,229.456665L260.565899,232.493946L256.135747,237.354210L250.034026,239.177004L247.542432,237.961796L240.594447,234.923984L235.795355,234.923984L231.223654,237.961796L228.434657,239.177004L225.554741,239.177004L220.274895,239.177004L219.269741,238.569394L217.784661,237.961796L214.379830,237.354210L209.745210,233.101437L206.955860,234.316456L204.255957,236.746636L202.121291,238.584235L198.662625,240.880409 " data-id="4" data-name="Berounka" id="4"/><path d="M342.929644,216.703375L357.177351,220.953876L362.696792,223.990315L372.770731,223.990315L384.948241,220.346625L395.203785,216.703375L403.306982,216.096210L411.559312,217.310553L419.432728,219.739386L421.221580,223.990315L423.160457,230.064097L434.647875,235.531523L448.969052,240.392258L457.255800,247.684754L466.354478,253.155209L482.355359,254.978897L499.627041,260.450567L505.700121,264.098846L519.085406,268.963831L532.955621,273.829508L541.815024,276.262604L554.416740,277.479216L560.665507,277.479216L563.977638,276.870905L568.678857,275.654314L570.015277,274.437766L570.390345,273.221261L569.804192,272.004799L569.270840,271.396583 " data-id="5" data-name="Sázava" id="5"/><path d="M349.685732,335.938703L340.495739,326.786043L334.166049,313.387720L332.534209,310.952153L328.883758,307.299092L325.280918,304.255142L320.141774,299.994026L316.820984,300.602727L313.252115,304.255142L312.569317,307.907911L312.072082,313.996635L311.388166,317.650329L309.352134,322.522449L306.259314,326.176930L292.226085,331.659272L282.020392,330.440910L266.908968,328.004295L262.002765,326.786043L252.582979,323.131506L246.760194,322.522449L241.598395,324.349648L237.488300,327.395164L234.295755,329.831742L226.463536,334.705334L216.439559,342.626140L217.755748,347.501217L219.553970,352.376845L217.057520,357.862573L211.798225,358.472140L205.268682,354.814863L204.084446,358.472140L201.714295,365.787585L201.757807,366.397259 " data-id="6" data-name="Otava" id="6"/><path d="M359.710387,326.176930L362.073807,322.522449L363.785599,319.781808L365.020013,310.952153L367.018526,308.821158L370.676870,306.385882L380.228411,302.428890L387.877999,301.820159L390.693421,303.950761L394.619360,313.996635L397.823859,324.045109L397.343470,330.136325L396.789783,332.268466L396.018991,337.751621L396.476389,340.493468L396.427846,342.930816L396.475263,346.587098L397.703324,349.938963L398.859417,352.376845L400.738666,354.814863L402.377086,357.253014L405.846722,364.568263L408.568566,374.628631L410.615933,382.251543L411.820941,385.301043L413.797970,388.960691L419.274372,394.145649L427.793101,404.212056L436.283371,413.679468 " data-id="7" data-name="Luznice" id="7"/><path d="M704.697565,157.259834L706.228214,163.319658L705.479484,170.593140L700.566689,184.539161L700.013549,199.100651L700.610130,210.632279L714.887481,219.739386L716.893999,225.812323L716.557855,232.493946L719.240521,235.531523L724.013583,240.392258L740.033173,252.547335L752.015699,257.410639L763.406963,261.058586L766.439557,267.747519L772.025159,281.129305L775.264085,295.124775L778.672580,310.952153L783.574791,317.041357L797.316852,324.958733L799.953620,327.395164L804.012354,334.705334L806.626504,342.016794L807.370126,349.938963L808.542833,367.616630L804.345187,374.323739L801.734403,377.372740L797.249393,381.031797L792.875682,385.910966L788.926296,390.180633L780.854634,396.890839L771.756499,402.991782L767.949010,403.601915L763.769486,405.432357L760.127715,407.873043L757.934223,410.313839L746.200970,419.467785L744.433020,421.298753L741.653412,428.012800L739.993691,431.064893L738.388032,434.727610L737.748671,438.390547L732.386774,449.459133L733.381284,456.573401L733.688962,461.924133 " data-id="8" data-name="Morava" id="8"/><path d="M544.402353,157.259834L548.921162,156.956876L553.466794,156.956876L561.469912,158.168726L567.907187,160.592578L572.751755,163.925711L578.103115,167.562298L585.316217,170.593140L596.737109,175.140007L604.056404,176.655790L613.052559,178.171653L622.399466,180.900411L625.512491,180.900411L629.472723,179.687597L638.120773,179.990796L647.710298,182.719728L652.851024,183.932670L653.908852,182.416500L654.248108,180.900411 " data-id="9" data-name="Orlice" id="9"/><path d="M798.242182,258.626577L801.255094,254.978897L804.208457,250.723782L811.188326,243.430596L822.179374,237.961796L829.253494,241.607558L830.331748,242.822905L832.909411,244.646012L846.940106,255.586816L858.279638,263.490772L864.528587,258.626577L878.338533,252.547335L887.219332,245.253738L893.456374,240.392258L895.012616,236.746636L896.926427,231.886466L899.554756,224.597639L903.924508,220.346625L911.526654,214.881916L916.248142,209.418209L917.043558,200.683217L889.355976,168.930880L877.534212,128.390561L831.145164,51.321358L797.015983,0.000000 " data-id="10" data-name="Odra" id="10"/><path d="M935.498993,300.602727L939.165362,298.776653L942.228345,295.733396L940.961877,292.690391L935.963990,285.996677L928.916536,273.221261L920.240265,253.763094L915.231294,237.354210L912.761617,231.886466L909.802688,221.561140L909.139389,219.739386L908.414852,217.310553 " data-id="11" data-name="Ostravice" id="11"/><path d="M731.407955,449.991259L729.625701,440.832626L724.452946,426.181620L716.926499,417.636876L705.810016,412.144507L695.663181,406.652686L690.348293,401.161425L681.549299,399.941222L677.740283,400.551320L673.126057,402.991782L669.423308,404.822203L665.719997,406.652686L662.928826,407.873043L660.296946,410.924055L662.229062,410.924055L659.325971,416.416303L657.281525,420.688424L654.163720,423.740135L650.508936,426.181620L645.192700,426.181620L637.029196,426.792007L634.024495,425.571239L626.682964,418.857476L615.323057,410.313839L600.588515,401.771537L597.312205,402.991782L593.759764,406.652686L585.427456,410.924055L581.234487,412.754744L570.907080,404.822203L562.237270,399.331131L551.537385,392.620606L546.329305,393.840636L544.068040,395.670736L540.358022,397.500901L536.596854,398.721047L530.853519,399.331131L521.428462,396.280784L512.870466,392.010602L510.306688,390.180633 " data-id="12" data-name="Dyje" id="12"/><path d="M678.115734,399.331131L673.179579,387.130834L669.318103,381.641666L668.191966,379.812080L660.365287,373.104194L653.559463,367.006940L649.005318,364.568263L646.540817,363.958614L643.058676,362.739340L637.701394,362.129715L624.629704,361.520099L609.796190,357.253014L593.206584,349.329514L584.334174,341.407457L568.136417,332.268466L558.881419,331.050086L554.976644,330.440910L548.732343,324.958733L543.091211,315.214495L536.902554,310.343285L522.381659,303.646382L516.986659,302.428890L513.188842,303.037631L510.506298,305.472693L508.406288,309.125579L507.749328,312.778814L507.827479,319.477304L506.840135,324.958733L504.356263,329.831742L502.201056,332.877670L496.241838,336.533079L494.365271,337.142346L494.415596,337.751621 " data-id="12" data-name="Jihlava" id="12"/><path d="M679.832009,396.890839L679.830532,391.400605L681.599633,389.570659L684.974843,384.081221L687.545529,380.421935L685.290910,376.762924L681.589487,373.104194L679.227495,368.226327L678.258269,362.739340L678.578001,360.910491L678.789225,357.862573L678.138379,350.548421L673.686178,343.844857L669.614629,341.407457L665.971295,338.360905L660.883453,335.314574L657.241483,332.268466L651.084274,328.004295L648.514725,326.176930L645.999308,324.958733L644.231666,321.304363L641.821197,315.823440L639.357116,309.734427L636.304321,302.428890L634.910729,297.559320L631.804469,289.647640L627.196982,275.654314L620.517253,270.788379L617.472247,268.963831L613.089606,262.882709L607.428602,258.626577L601.288708,254.370990L596.912749,253.763094L590.669515,253.763094L584.212870,251.331622L579.784478,250.115954L578.343928,250.115954 " data-id="13" data-name="Svratka" id="13"/><path d="M677.758317,346.282396L680.587378,340.188810L683.259997,337.751621L682.704150,326.176930L676.052233,316.432393L675.833628,313.996635L676.839836,309.125579L673.929212,298.167982L668.655754,282.346085L664.851671,277.479216L655.956024,264.098846L650.590906,252.547335L647.257101,242.215226L646.117696,234.923984L644.033201,233.101437L643.498370,232.493946 " data-id="14" data-name="Svitava" id="14"/><path d="M898.410588,221.561140L892.708270,217.310553L884.008704,211.846399L871.299987,209.418209L856.437131,209.418209L852.301106,206.383254L841.214923,196.066777L828.877005,182.719728L824.207383,179.081210L816.366030,177.262125L807.921580,183.932670L796.478880,189.391550L787.560993,186.358710L781.342308,181.506837L768.557799,168.168440L763.008424,160.289586L761.875277,158.471696 " data-id="16" data-name="Opava" id="16"/><path d="M384.825272,164.531776L387.576216,157.259834L388.561245,151.807088L388.789122,148.778232L391.408144,145.749695L395.511364,143.327096L398.128675,140.299133L400.818741,132.427920L402.072093,124.558854L403.648445,114.876791L405.494853,102.778761L408.581518,99.755041L412.093335,96.126992L415.229353,93.708544L422.028035,89.476743L435.348324,83.432378L445.956291,79.202068L450.092492,77.389265L455.764067,76.785023L460.886097,77.266125L464.674337,74.593716L463.209873,69.400526L462.931014,63.613546L460.727534,58.738119L454.671147,58.138637L453.925676,54.894142L451.338795,51.761594L450.725169,49.311972L450.154853,47.589195L449.082468,43.057650 " data-id="17" data-name="Jizera" id="17"/><path d="M199.702587,240.088440L201.589873,246.165347L205.744160,250.419867L210.770284,253.459150L216.892758,258.322588L223.076196,270.484281L229.877949,284.475551L225.640441,285.692446L220.921679,286.909383L218.215196,289.343379L214.813313,295.429085L213.681439,299.689679L214.999002,304.559526L215.879716,310.038855L213.739259,313.692176L206.607703,314.910027L204.726407,315.518966L204.245055,315.518966 " data-id="18" data-name="Úslava" id="18"/><path d="M198.485957,243.126749L199.199870,252.851271L200.081180,258.322588L198.515663,263.186739L196.291131,265.619078L192.668830,268.659749L187.828328,281.433496L181.799232,291.168984L178.869714,297.254993L176.022495,311.256590L173.876484,314.910027L169.847273,319.172802L164.931673,331.354678L164.665033,334.400718 " data-id="18" data-name="Úhlava" id="18"/><path d="M198.530616,243.734446L196.219469,244.949874L190.680621,247.988644L187.149753,252.243403L182.745122,257.714619L172.485341,261.970635L166.196452,261.362599L157.723642,263.794807L145.443038,273.525383L142.243522,282.650287L137.521593,283.867120L132.318398,285.083994L119.902225,286.300909L119.406890,292.994680L121.881611,300.907081L123.875401,308.821158L117.577191,308.212325L116.614746,308.212325 " data-id="19" data-name="Radbuza" id="19"/><path d="M197.871922,241.303729L189.622536,240.088440L183.862507,240.088440L175.961480,237.050422L170.461539,234.012697L167.582183,234.012697L159.204620,230.975268L153.402806,230.367818L148.909988,234.620218L145.331842,238.265594L141.229049,241.303729L137.475415,242.519064L124.471184,241.911391L120.982189,240.088440L115.882343,235.835297L106.379778,230.367818L102.935760,229.152953L92.634235,232.797690L86.438118,233.405188L74.795123,231.582730L65.198148,231.582730L64.321861,232.797690 " data-id="20" data-name="Mze" id="20"/><path d="M868.129869,291.777539L865.998781,289.647640L859.274016,284.779771L846.929828,281.433496L840.258181,282.041886L835.960718,282.346085L834.160757,281.129305L828.872621,281.129305L820.845902,282.650287L811.317732,283.562908L804.934368,287.213623L798.972115,290.256170L796.740624,292.081821L792.613648,294.211862L785.273299,295.429085L783.137478,295.733396L781.539876,296.646347L778.189495,299.385334L776.889073,300.907081L776.648527,300.907081 " data-id="21" data-name="Becva" id="21"/><path d="M18.709011,175.493604L22.438101,176.077548L28.894544,176.077548L35.305791,177.099479L43.835630,179.355145L49.530404,172.720031L55.941699,173.741842L62.592523,173.230932L66.240253,170.165663L72.092135,167.319636L77.879821,164.400929L85.202546,159.585712L94.420686,158.783254L105.575971,157.689030L108.812348,154.625425L113.367151,151.489216L118.665259,150.686985L130.165135,148.061658L133.808017,147.478285L138.832702,146.894924L142.432454,145.728236L146.449605,143.978294L150.048541,142.811725L157.167769,143.322093L166.766426,143.103362L171.634117,141.207769L178.080130,138.874903L182.367831,136.177762L187.750896,135.813302L194.444923,139.093601L197.980269,137.125377L208.205443,132.314729L211.339318,131.148632L217.435706,132.606260L220.835357,135.667520L230.259688,131.731675L235.420384,129.253825L239.702264,128.816580L246.886424,126.484716L252.733881,124.735941L258.348209,125.901779L261.570198,125.901779L265.989971,123.570150L271.421066,122.404407L281.309753,120.874439L286.055656,121.238710L288.724213,120.073060L294.841280,115.993655L299.245743,114.973894L299.385936,111.696333L297.513487,108.419142L296.786914,106.525823L297.643039,101.429039L297.176425,100.628197 " data-id="3" data-name="Ohre" id="3"/></g><g class="" id="region_it"><path d="M352.522036,461.924133L352.962027,461.645486L354.386713,457.704022L357.608575,459.629043L358.445719,454.611919L364.820162,454.227364L367.056310,450.523566L365.774202,445.153077L369.043739,444.381133L369.169860,444.500032L371.008125,446.196450L373.640231,448.659971L373.609279,448.818822L373.532986,449.027306L373.616863,449.370080L374.523306,449.905857L374.614624,450.022035L374.686400,450.131169L375.337236,450.249190L375.536573,450.179225L375.868340,449.974779L376.406790,449.825745L377.014635,449.910199L379.852041,450.929985L380.820652,451.287971L382.177584,451.795595L382.757923,452.003745L382.950584,452.067057L383.142501,452.124613L383.333336,452.173822L383.522634,452.211171L383.709787,452.231963L383.893990,452.230003L384.075090,452.200159L384.253232,452.147490L384.429226,452.078250L384.603686,451.997166L384.777071,451.907763L384.949719,451.812632L385.293712,451.612162L385.636896,451.405106L388.557096,449.617840L388.900580,449.412983L389.071835,449.315640L389.242505,449.224338L389.412291,449.142123L389.580780,449.073249L389.747397,449.023585L389.911364,449.001132L390.071630,449.016671L390.225261,449.078139L390.375194,449.177563L390.522405,449.304945L390.667637,449.452647L390.811452,449.614911L390.954267,449.787449L391.096390,449.967105L391.379390,450.339260L392.677275,452.100833L395.625735,451.423648L397.339761,452.690582L398.873661,456.332176L404.707302,456.007102L406.848999,452.688457L406.424550,445.653709L405.034588,443.189533L406.359840,438.484498L407.898846,434.684619L413.930020,432.184064L417.792223,428.230965L416.849916,425.619543L418.493534,423.451352L417.640793,420.131623L427.842528,419.504505L429.099602,421.085052L440.067141,423.767763L442.700804,421.293152L442.813497,419.378517L438.827887,417.360610L440.329482,408.675456L441.909568,407.629536L440.495321,402.658514L442.391816,401.634647L443.005116,397.281137L440.824088,392.129990L439.745030,384.991698L442.527088,380.618401L441.983557,377.281577L446.810999,376.141537L451.925919,376.254691L452.450889,380.008730L465.488937,380.062483L467.740098,385.022113L467.823072,388.347438L470.169035,389.032196L475.534911,386.283320L481.434958,387.251705L483.297711,384.904695L483.689946,379.851010L487.454942,382.709867L495.936226,382.487773L504.932731,388.712453L511.880012,388.320558L512.142238,389.990023L516.242914,390.603353L518.020075,395.556956L534.644954,398.220723L540.571502,401.084159L545.199278,405.260371L555.666751,406.152688L558.129432,402.654976L562.096664,402.448362L568.661659,404.537352L568.732397,404.733536L568.817109,404.909761L568.920766,405.058926L569.051305,405.178247L569.201745,405.269129L569.366757,405.339180L569.542279,405.394190L569.725260,405.438510L569.913434,405.475368L570.299186,405.535520L571.478680,405.686590L571.870982,405.743772L572.260592,405.814425L572.453796,405.858475L572.645450,405.911341L572.835041,405.976182L573.023718,406.056272L573.210355,406.148458L573.395525,406.249459L573.763082,406.468603L574.310818,406.819268L574.855013,407.181176L575.213015,407.427724L575.388927,407.553606L575.561470,407.682179L575.729203,407.814505L575.890179,407.952006L576.041809,408.096544L576.180703,408.250519L576.302473,408.416975L576.397054,408.583345L576.634937,409.095910L576.720563,409.247564L576.820553,409.376122L576.946753,409.479025L577.091445,409.554401L577.249999,409.609268L577.418815,409.649046L577.595127,409.677878L577.776831,409.698901L577.962336,409.714482L579.103562,409.773627L579.292646,409.788138L579.479739,409.807604L579.663916,409.834246L579.843974,409.871005L580.018335,409.921774L580.184937,409.991659L580.341107,410.087299L580.488303,410.217578L580.624852,410.374236L580.753896,410.549573L580.877983,410.737413L581.240715,411.327992L581.364618,411.519749L581.493383,411.701523L581.629549,411.867844L581.776252,412.012023L581.935129,412.128179L582.104687,412.221818L582.282110,412.298879L582.465241,412.363912L582.652454,412.420360L583.034607,412.517117L583.422306,412.602570L584.587687,412.846044L587.437788,415.332331L587.314098,417.160310L593.763387,420.208066L595.130760,422.666350L597.112275,422.568668L601.575968,425.717939L603.146684,423.725292L607.093500,425.019974L606.682608,427.154244L608.883969,427.889045L617.834677,427.460764L617.728587,426.000383L620.651940,425.821289L625.252022,426.301234L626.799387,428.721548L634.234447,428.375379L634.059407,426.562445L643.747592,426.454138L648.790553,428.310959L655.328886,424.895388L657.744869,419.193874L661.136840,417.065468L662.753016,416.197133L668.795636,415.691698L672.631845,413.521054L675.364891,415.259261L675.302867,418.137046L679.631295,420.477743L688.557482,420.104018L691.894173,422.489390L693.650332,429.288591L698.707720,427.655437L702.648717,428.581381L707.145343,432.615212L710.800531,433.158929L720.318588,433.129194L722.608347,430.210314L723.518190,430.530640L723.648350,430.697189L723.793156,430.857617L723.948294,431.013736L724.110583,431.166882L724.277707,431.318026L724.620296,431.616885L726.185582,432.952595L727.909128,434.443744L728.427776,435.160715L728.565267,436.944841L728.138164,437.943617L729.282842,440.030786L729.894016,440.622294L729.780985,441.137578L729.924995,443.640074L729.951307,443.983965L729.972824,444.154242L729.988026,444.238495L730.007828,444.323965L730.031182,444.408728L730.085048,444.576824L730.186050,444.854194L730.431547,445.491336L730.740097,446.527796L730.566400,447.842303L730.518737,448.256548L730.507491,448.391588L730.500533,448.523818L730.499722,448.652019L730.507574,448.774544L730.527451,448.889189L730.563797,448.993043L730.621812,449.085781L730.696989,449.167272L730.784606,449.240613L730.881111,449.308129L730.983869,449.371548L731.090946,449.432139L731.425950,449.604883L732.377645,450.071766L733.245124,450.504949L733.580233,450.134749L735.015750,448.568315L735.415904,448.115261L735.544662,447.960862L735.669287,447.803439L735.788091,447.641760L735.898825,447.474176L735.998525,447.298520L736.083331,447.111966L736.152663,446.903580L736.206277,446.683695L736.248598,446.455550L736.282917,446.221555L736.311645,445.983475L736.358822,445.499818L736.398873,445.010986L736.547325,443.047336L736.590109,442.560292L736.614771,442.318958L736.643029,442.080024L736.676468,441.844540L736.717249,441.613941L736.768273,441.390156L736.833383,441.175736L736.915960,440.972179L737.012683,440.778027L737.119670,440.590702L737.233992,440.408258L737.353468,440.229247L737.476498,440.052607L737.728930,439.703594L738.888320,438.149182L739.143535,437.801988L739.393900,437.451033L739.515678,437.272891L739.633811,437.091884L739.746786,436.906817L739.852567,436.716082L739.948459,436.517549L740.029249,436.317656L740.100789,436.110470L740.165513,435.897913L740.225284,435.681454L740.281512,435.462208L740.387310,435.018481L740.639472,433.899324L740.743626,433.453920L740.855634,433.014093L740.916802,432.797840L740.983190,432.585282L741.056648,432.377724L741.141933,432.168665L741.234735,431.964920L741.332998,431.765038L741.435163,431.567918L741.646860,431.178894L741.973159,430.601574L743.725267,427.531057L744.487467,426.183881L745.463761,424.447359L745.682914,424.064465L745.906922,423.688107L746.022371,423.504559L746.141483,423.325933L746.265732,423.154208L746.397066,422.991999L746.536307,422.842197L746.682570,422.701827L746.833936,422.568310L746.988951,422.439694L747.305872,422.191720L747.951535,421.711649L750.874098,419.572826L751.197130,419.333151L751.515126,419.087698L751.670407,418.960710L751.821643,418.829081L751.967119,418.690845L752.104539,418.543367L752.230873,418.383171L752.341664,418.210848L752.441718,418.026208L752.533920,417.832559L752.620464,417.632423L752.782755,417.219766L752.937235,416.798151L753.088409,416.372743L754.362202,412.742915L754.514587,412.319062L754.672966,411.902963L754.756489,411.700521L754.844676,411.504110L754.939451,411.316219L755.043375,411.140158L755.159810,410.980276L755.292680,410.838942L755.438247,410.714027L755.593070,410.601082L755.754537,410.496727L755.920687,410.398432L756.090074,410.304324L756.434629,410.123597L759.049886,408.809979L759.745024,408.457107L760.263610,408.187249L760.605267,407.999422L760.773691,407.900803L760.939646,407.797344L761.102218,407.687252L761.261748,407.568233L761.417858,407.442506L761.723318,407.177800L762.172768,406.763625L767.866674,401.372081L778.162198,404.274665L791.800735,411.073786L798.686169,410.898985L803.801108,407.974164L806.579096,408.174431L812.378025,414.075916L814.493406,414.594688L823.790714,410.351940L827.590983,406.345164L840.306791,405.200931L850.823417,394.215573L864.295385,392.782256L866.080262,391.136751L866.501937,381.303758L870.810366,375.722161L888.234951,373.457033L894.465313,368.668304L896.998138,361.866500L897.345260,355.614263L895.634539,353.491501L896.642635,344.951305L900.595761,328.855198L903.254791,326.396819L922.319987,321.464973L929.352901,317.604405L933.872531,313.141846L934.758123,310.603240L933.681933,306.700681L940.716265,304.697659L949.016192,298.001691L952.014389,292.695897L952.648989,285.826405L954.702998,284.329745L974.662354,286.124193L980.922136,288.016117L989.725977,283.526753L996.048939,281.865789L996.779415,279.926921L998.588196,278.230852L997.277071,275.742633L995.163491,274.937015L993.444149,269.114837L992.437473,269.128944L991.518766,261.626610L990.511538,261.640713L988.583254,254.154861L986.362714,252.517182L977.396594,253.487231L974.063769,251.033966L972.641764,247.717418L964.578101,247.847113L963.778467,249.529670L962.379584,249.552412L962.339746,249.472410L962.249497,249.254261L962.170918,249.029109L962.100862,248.798864L962.036933,248.564976L961.920738,248.090322L961.812933,247.610797L960.933499,243.516671L960.827673,243.036448L960.717332,242.558496L960.597044,242.085521L960.530264,241.852349L960.456684,241.622571L960.373807,241.397434L960.278238,241.174930L960.173155,240.957174L960.061149,240.742875L959.944184,240.531051L959.823731,240.320969L959.576406,239.904013L958.059176,237.419033L956.799672,235.345978L954.662514,231.819545L953.158208,229.325448L952.778660,228.706220L952.519740,228.300673L952.386733,228.102283L952.250060,227.908425L952.108348,227.720797L951.958905,227.538922L951.804338,227.363374L951.646063,227.192392L951.322408,226.859117L950.828294,226.369503L950.257732,225.812249L952.465005,223.850603L952.254587,222.186325L955.074043,220.470024L954.864092,218.805229L949.813489,218.891847L949.391645,215.563226L950.401849,215.546327L949.980504,212.218080L950.991340,212.200478L949.558394,208.890206L944.398238,208.146819L943.916638,212.324392L935.103591,212.487227L934.875030,212.411781L934.480846,212.292089L932.700775,211.766575L931.123135,211.289892L914.506271,204.856067L915.583633,207.520546L915.550422,207.532721L915.084926,207.622892L914.855769,207.673687L914.612810,207.735329L914.370098,207.808258L914.141960,207.893246L913.942979,207.991374L913.787807,208.103802L913.672176,208.238227L913.584193,208.402439L913.516886,208.591253L913.470550,208.771925L911.152848,209.615308L906.786132,207.203533L906.243855,203.044989L903.896483,200.592235L896.818869,200.743547L894.934498,194.112190L888.865378,194.245173L888.292779,197.595020L884.929487,195.168766L880.884054,195.260239L878.530505,192.811237L879.100696,189.463088L870.118882,183.004292L866.070449,183.099947L864.268900,184.810525L864.714804,188.134913L870.674168,187.158518L871.561422,193.807526L862.125822,191.532154L853.919259,198.409213L847.967255,199.394437L844.674189,198.315030L844.504192,198.177105L844.328103,198.045040L844.149184,197.919582L843.968207,197.798926L843.602282,197.566889L843.233433,197.341687L840.640441,195.791406L835.643718,192.790988L832.859370,191.137564L832.493903,190.908915L832.314621,190.789680L832.139098,190.665094L831.968929,190.532887L831.806247,190.390020L831.653870,190.232485L831.516314,190.060081L831.388771,189.873421L831.268546,189.676343L831.153588,189.471771L831.042354,189.261897L830.826797,188.832320L830.615996,188.395985L828.420235,183.791991L827.998163,182.919919L827.780460,182.491299L827.667778,182.281248L827.551076,182.075668L827.428787,181.876303L827.298853,181.685443L827.158612,181.503712L827.010636,181.330571L826.857025,181.163670L826.538873,180.841874L826.212634,180.528747L825.055153,179.445087L824.912108,179.310109L824.568339,176.662282L818.037025,173.507977L813.096260,174.343570L812.972399,174.305188L812.779208,174.238667L812.587783,174.165619L812.398830,174.083426L812.213287,173.988625L812.033872,173.879687L811.857802,173.758378L811.684169,173.628062L811.512281,173.491294L811.171812,173.205544L810.833700,172.911095L808.980146,171.269618L805.268997,168.003953L803.078220,166.068740L802.739456,165.776520L802.397579,165.494138L802.224536,165.359595L802.049318,165.231915L801.871114,165.113661L801.690795,165.007754L801.600334,164.960063L801.463746,163.978270L818.342855,160.998955L818.782652,156.821126L824.865759,156.654588L825.079005,150.818627L820.677562,148.439896L820.103409,144.291990L822.688964,140.891224L822.345026,138.403764L819.298966,138.486629L815.792233,135.252962L811.615015,134.536759L813.322950,139.483838L808.825682,143.773632L803.983878,145.576688L800.940435,145.664491L800.708144,144.005417L782.446771,144.548363L779.873393,147.959397L775.817023,148.085141L775.346146,144.767512L772.845656,141.513474L766.876886,142.534667L765.440539,146.745539L763.175184,145.151727L763.715544,141.802129L764.018129,136.794965L760.973788,136.892572L760.736053,135.234706L752.617020,135.498722L739.116789,126.788160L739.650084,123.439291L731.645909,124.545477L727.220385,122.200498L725.840879,119.751142L716.576627,119.245154L714.178884,116.833239L708.083118,117.052879L699.217717,112.382566L695.153073,112.534115L693.244433,113.437811L691.063080,119.349719L698.787483,123.225218L699.648722,129.023997L701.924223,130.606386L703.797292,136.369432L714.550591,140.143980L716.294616,145.081486L714.510637,146.812975L714.875949,149.301162L717.145697,150.886071L717.510222,153.374612L713.579887,154.350555L710.822720,149.447987L708.796050,149.522454L708.271456,152.877167L699.154849,153.215822L696.853302,158.306663L691.422417,156.010227L689.520436,156.917395L688.878026,159.444408L685.964794,160.391041L684.804865,166.277454L681.252779,169.754344L678.218982,169.873857L676.815578,174.102811L674.154878,176.712912L668.977517,176.085678L667.718006,174.467029L663.674831,174.630859L660.268170,172.265617L660.018365,170.605706L655.723725,169.113204L655.406454,167.013230L654.736302,166.445722L654.657692,166.280037L654.551404,166.114855L654.425274,165.950066L654.285156,165.785590L654.135363,165.621366L653.979039,165.457346L653.655211,165.129736L652.832078,164.308870L652.512751,163.974573L652.358976,163.803838L652.211354,163.629198L652.072307,163.449000L651.945082,163.261031L651.833977,163.062369L651.742223,162.849988L651.666602,162.626860L651.602716,162.395928L651.547232,162.159421L651.497661,161.919001L651.409426,161.430976L651.289500,160.690834L650.632492,156.482090L650.509452,155.744734L650.463871,155.502468L650.413939,155.263555L650.357678,155.029520L650.292397,154.802435L650.214492,154.585078L650.119200,154.381121L650.002391,154.193163L649.868134,154.018651L649.721224,153.853891L649.565284,153.696090L649.403018,153.543166L649.236413,153.393586L648.723039,152.955305L647.509709,151.944621L646.474739,151.074519L640.632514,146.130285L640.290330,145.837200L639.950936,145.539475L639.617312,145.232147L639.454202,145.072319L639.295163,144.907753L638.984431,144.566387L638.528113,144.038063L635.971724,140.995761L631.156747,135.276519L621.677646,133.013834L620.023282,128.917290L619.009348,128.961517L619.638494,126.432267L617.224896,124.037300L610.124920,124.351751L607.340578,126.143766L605.053856,124.579169L604.665937,122.095220L602.507851,121.358991L602.119473,118.875319L597.046657,119.105500L596.527008,115.794711L594.367203,115.060045L594.861846,111.703413L600.067477,112.299776L597.647641,109.909486L609.943005,103.523950L608.539278,101.087393L616.926450,102.383498L618.701162,100.639941L618.443751,98.984851L621.364084,98.025503L620.849892,94.716417L622.755106,93.801383L621.983409,88.838964L628.087315,88.576775L626.427966,84.485800L619.677800,80.614763L616.996144,76.569752L613.812405,75.876718L612.275992,72.614984L604.128440,72.974422L599.663950,70.677735L595.589895,70.860594L593.945400,73.431960L594.468420,76.737933L588.622704,78.669275L588.360820,77.016133L585.044585,75.503930L584.782007,73.850967L575.355842,72.624092L575.619781,74.276986L571.812344,76.120574L571.587641,81.127087L562.564665,82.390064L561.149197,79.960179L562.166604,79.911121L561.635174,76.605490L562.652996,76.556438L561.988889,72.425807L560.970758,72.474152L560.305931,68.344098L558.002916,66.790312L551.893086,67.086632L544.283434,70.789833L541.095654,70.115151L540.826913,68.463893L540.154976,64.334404L535.407640,60.408601L536.022153,57.881096L533.579537,55.506462L530.522434,55.659816L529.773762,57.362176L524.544146,56.794945L522.778156,58.549894L515.511603,58.090488L513.947729,54.841935L506.542241,53.562640L504.093469,51.193256L493.627962,50.082847L490.708854,51.071431L489.275945,48.651141L484.180364,48.925575L479.549732,45.847437L479.272155,44.197543L475.333531,45.245429L475.750738,47.720043L474.924971,48.922345L472.971769,49.538160L472.775909,51.235603L469.496635,51.429317L469.380613,51.286008L469.253980,51.106351L469.143732,50.915035L469.052738,50.707598L468.978380,50.488324L468.916107,50.260452L468.862472,50.026436L468.814900,49.788107L468.771496,49.546814L468.654380,48.813624L468.396580,47.091904L467.985145,44.391127L467.727016,42.669919L467.650571,42.179840L467.566949,41.694477L467.519814,41.455318L467.466871,41.220016L467.405648,40.990225L467.332836,40.768162L467.244064,40.556755L467.138787,40.363323L467.018249,40.180067L466.886541,40.004233L466.746783,39.833726L466.601321,39.666981L466.451889,39.502857L465.990612,39.019584L465.520649,38.546201L465.203607,38.240535L465.043149,38.093574L464.880635,37.952772L464.715219,37.820542L464.545780,37.700051L464.368010,37.591943L464.186057,37.495980L464.001080,37.408847L463.813951,37.328030L463.435674,37.178324L462.863590,36.967932L458.224737,35.374236L456.643276,32.133783L454.462303,31.424304L452.456537,25.712704L451.436237,25.770066L451.752315,21.592697L455.273372,18.067012L451.927723,16.591399L451.504345,14.120086L447.276971,13.527812L445.830708,11.114787L441.743762,11.347620L439.842534,12.288761L440.126128,13.935480L438.083527,14.052956L436.920015,13.287969L436.067000,8.346797L436.946751,7.464506L435.782837,6.700387L430.958120,8.642531L432.549465,11.876921L429.485050,12.055221L425.113131,10.647028L425.563420,7.293224L419.289307,6.829720L416.510813,8.657912L416.080199,6.187957L413.749334,4.662602L413.158680,7.193252L409.215950,8.260104L407.605274,10.852589L409.058525,13.261398L412.999687,12.194366L413.430456,14.664820L414.451453,14.603982L414.578527,21.253468L409.907181,24.029657L413.398586,26.317813L413.685184,27.965310L412.665141,28.026175L413.668658,33.794200L405.657013,35.109025L401.147503,32.884563L397.214522,33.957238L395.906112,32.371680L393.867244,32.496926L394.156684,34.144768L387.896231,33.697637L385.445091,42.974006L380.630296,43.599767L377.361723,41.745621L374.198997,43.097897L371.935591,39.647335L369.300327,40.177841L358.667465,36.561068L360.567957,29.272180L362.855411,27.798108L362.064246,23.021694L352.634282,26.189794L349.908385,25.438485L349.200017,24.151371L353.746871,17.287935L353.820266,12.832762L348.453426,8.611768L344.237788,9.789140L344.885933,8.568422L343.671214,7.440736L337.855081,6.180966L332.047063,3.892264L325.747246,7.029662L322.198074,5.529430L321.703078,3.401551L318.623108,2.145447L315.054176,3.319067L311.955658,0.313461L309.737396,0.417604L308.077482,3.300893L305.956834,3.181362L307.961619,5.528731L307.275309,7.886772L304.523210,8.851574L305.836322,10.462444L304.556296,12.754448L308.639784,14.686498L313.978016,13.153015L314.862234,15.326346L311.244302,16.824974L312.743036,18.946121L325.307240,22.113087L326.279813,24.389902L324.007197,25.780560L324.559904,28.971343L318.982564,28.671209L318.952615,30.167014L312.804779,31.742658L307.228915,29.665372L302.373181,31.092659L301.366945,36.282381L282.498906,42.406353L281.083786,44.870929L274.295125,46.386456L268.216846,43.479374L263.112932,45.812437L263.509959,47.041691L261.252366,48.989283L255.679181,48.355707L254.055631,52.571172L256.517274,55.793565L255.979314,57.339766L253.474217,58.563900L250.725926,57.628988L250.001427,60.529764L235.839781,58.931570L233.364862,60.517858L231.499519,59.328660L228.727097,60.858238L228.594259,62.399804L222.268726,59.644514L213.587931,63.659871L206.867530,62.836163L202.726157,64.585869L205.661810,69.648558L203.411217,74.796206L203.277070,76.662251L199.448518,78.102333L195.185723,83.527630L187.809026,80.874779L184.023833,75.366588L180.901338,74.589498L182.195527,78.791215L174.787436,82.398474L175.001870,87.247636L170.340484,88.466712L168.329486,85.162916L163.942366,85.336053L160.634609,90.692586L161.718325,93.112848L157.202714,99.450511L157.451945,101.656185L148.912061,101.074769L148.159750,98.895788L141.536217,102.206052L133.627268,100.466713L132.756397,112.051407L127.832925,117.020599L121.907986,118.532857L103.468628,109.648509L101.832203,112.574107L100.055931,111.551868L91.525531,114.724645L87.924996,119.207258L87.983727,121.141424L82.796681,117.543389L79.398663,118.670403L74.654745,117.775666L72.347816,119.579203L59.655915,121.151951L56.290914,126.012502L56.966713,129.881874L54.011029,128.929225L50.175061,131.474841L48.871598,134.868176L44.068488,135.157467L44.772077,139.933295L40.581062,141.762097L38.155911,146.094377L39.448276,149.672090L38.029860,150.744156L35.339912,149.599028L36.167464,154.356879L34.982201,154.030155L34.620255,156.093143L37.016666,158.851988L35.031317,160.775466L34.640965,162.365382L30.169898,161.716520L27.718235,158.076870L29.633022,156.733992L28.696708,154.949206L30.200972,153.548157L21.995814,148.962553L22.999588,146.822809L25.785147,148.217910L23.727553,144.374170L16.109702,144.062310L15.003824,140.308316L15.637089,137.403082L13.487416,136.900999L13.013186,134.941903L4.413596,136.215651L1.421515,135.068995L1.343266,136.170009L4.702532,137.733830L4.371158,140.589234L7.102448,143.179428L1.120357,145.975666L1.935805,147.192300L0.269444,147.818199L5.786633,151.481840L9.286556,150.886071L8.511669,151.868956L11.009420,153.129401L10.781998,155.406635L13.121004,155.097466L14.322819,157.583560L15.261643,158.294013L19.541242,163.328825L16.830965,167.960312L17.871318,173.830002L19.573154,175.583620L22.228273,175.467599L22.770951,176.969575L24.935545,176.364837L29.334737,180.231160L27.458872,183.557123L35.738550,184.488377L37.171767,188.242543L39.050373,187.026975L43.503889,191.114952L52.969698,193.849743L53.666124,195.481184L52.292501,195.957557L53.244579,197.215025L58.368700,195.652874L63.312866,199.496480L59.371467,203.736866L60.246351,205.787253L70.996160,209.031001L71.525576,212.583486L67.719772,216.158224L66.579993,220.274948L64.532564,220.739753L64.801897,224.308418L62.507571,223.544222L61.197578,225.045163L61.669859,227.683787L60.220259,229.359634L61.768507,233.844506L52.141458,238.118626L51.666848,239.771780L58.452299,249.036947L65.813108,252.305693L70.162889,252.167520L71.621028,255.958305L70.098175,259.977280L71.818719,260.951778L71.987653,262.329904L72.791682,263.340899L73.508482,264.756608L76.712890,264.575016L77.523544,268.900422L79.532106,270.737810L79.446500,275.703833L82.232510,279.310766L86.664521,281.786059L88.814806,280.777103L90.150676,282.436605L90.612187,289.491054L89.212355,291.102262L91.605622,292.815881L92.976518,298.808532L100.827941,300.634754L101.840147,302.610732L108.363988,306.172556L108.680706,309.794734L112.278430,312.546547L112.058671,314.812686L113.186913,315.309149L121.537474,315.341635L126.602595,317.719524L128.362428,317.596636L126.869643,314.360012L136.129653,315.530900L140.600232,317.439848L146.081383,322.604287L149.255181,322.909428L149.081080,327.618219L150.481440,330.398824L153.597218,330.379750L154.489218,332.863096L157.558257,333.452339L158.567139,336.787301L162.821735,338.821618L162.412379,341.646789L171.725924,347.130192L172.722549,348.863203L172.026176,352.603689L173.978562,354.375089L182.103640,358.245412L189.779649,357.311556L206.499567,369.844934L205.866596,371.564677L208.913055,378.732833L208.185556,381.648208L211.799014,384.399656L222.908247,390.211444L224.243373,390.025394L223.711089,385.033431L234.406661,384.729275L238.516855,390.115235L241.025529,390.613257L249.048058,401.541955L255.711765,401.896449L258.706783,400.469996L263.341466,410.041974L267.558447,410.788585L266.877886,411.724163L271.273959,416.970626L269.810735,419.897338L271.268605,421.223078L279.159906,421.436841L287.087261,426.748620L289.785386,430.769584L299.404620,433.265124L302.636398,435.720412L302.924181,437.389185L308.490581,439.406359L307.874390,442.936040L303.929678,443.229185L302.310860,445.429238L303.661222,447.474994L307.747939,448.016008L307.048678,449.758046L308.463857,452.188479L316.820186,454.924948L329.728385,454.010654L336.243360,456.920714L341.138198,456.570140L343.672573,459.769279L347.895424,461.158900L348.024114,461.924133L352.522036,461.924133Z "/></g><g class="" id="mountains"><path d="M345.141938,436.498846L327.335263,412.500218L289.446529,373.367437L253.933780,351.920965L228.080962,339.310241L199.168577,339.310241L188.381663,341.832089L178.768567,346.876232L181.388751,355.704897L185.826270,362.012163L194.436528,370.843803L199.696607,374.629304L218.751188,389.774283L254.636553,416.288808L277.832121,432.708938L295.674387,444.079359L324.729553,457.979287L329.735875,457.979287L335.649096,456.715537L340.087216,449.133538L341.424917,440.288988L345.141938,436.498846Z " data-id="1" data-name="Sumava" id="1"/><path d="M252.820056,76.818175L260.909518,66.816652L261.995663,68.066655L264.058891,56.818539L263.859291,54.319543L263.559720,50.571446L259.316212,46.823827L239.004414,39.330018L158.246718,79.319091L108.115247,109.346818L113.161239,124.372333L123.689802,133.140824L170.569684,111.850529L186.005751,106.843323L252.820056,76.818175Z " data-id="2" data-name="Krusné hory" id="2"/><path d="M323.072312,66.816652L309.360123,68.066655L259.039744,80.569628L252.917538,90.575860L251.328903,108.095044L277.715214,104.340044L302.702500,95.580265L329.031671,79.319091L327.737131,75.567798L323.072312,66.816652Z " data-id="3" data-name="Ceské Stredohorí" id="3"/><path d="M574.499833,75.567798L545.160667,56.818539L498.451097,41.827742L482.136911,46.823827L486.100526,69.316712L507.269054,74.317474L551.069311,89.324894L568.959776,90.575860L568.617815,86.823121L574.499833,75.567798Z " data-id="3" data-name="Krkonose" id="3"/><path d="M452.991444,63.066960L466.361994,46.823827L458.797878,28.092868L448.507282,23.099949L423.872024,34.335202L436.111702,61.817170L436.003545,60.567432L452.991444,63.066960Z " data-id="4" data-name="Jizerské hory" id="4"/><path d="M664.216580,174.656837L660.815046,164.478688L640.204842,134.393684L596.822136,114.354457L589.408099,130.635269L617.423728,155.700638L644.140883,177.023434L657.602229,183.297874L663.201071,179.533044L664.216580,174.656837Z " data-id="5" data-name="Orlické hory" id="5"/><path d="M756.202311,204.773115L772.763104,191.317955L768.320926,184.873162L762.932852,175.768711L732.639155,159.462330L718.381205,165.732915L699.869421,179.533044L713.024914,212.698247L731.376409,225.601599L739.635454,219.851022L756.202311,204.773115Z " data-id="6" data-name="Hrubý Jeseník" id="6"/><path d="M984.952443,262.472328L959.715134,258.697657L912.395275,282.610976L896.462535,312.840208L907.895636,319.133721L942.520910,305.280602L976.068508,282.610976L985.117554,273.798872L986.591404,268.764388L986.462504,267.505883L984.952443,262.472328Z " data-id="6" data-name="Beskydy" id="6"/><path d="M526.760729,358.227697L565.596311,345.615141L583.135666,329.224377L600.108844,283.870028L601.211449,262.472328L590.053051,248.633973L530.596134,215.948996L488.562704,223.488611L460.720825,234.801527L448.853077,247.376230L422.907302,282.610976L420.370339,312.840208L426.955265,320.401291L434.640801,329.224377L442.126207,335.527754L478.666674,355.704897L504.438523,365.796945L512.422076,365.796945L519.093639,362.012163L526.760729,358.227697Z " data-id="7" data-name="Ceskomoravská vrchovina" id="7"/><path d="M881.335471,359.492798L868.084301,359.489150L803.781940,400.973739L797.292806,413.930245L804.858673,423.507963L828.231988,418.475395L894.853763,378.415107L899.000138,371.216823L900.500158,364.535316L881.335471,359.492798Z " data-id="8" data-name="Bílé Karpaty" id="8"/><path d="M132.991815,305.280602L124.727934,272.540182L106.531073,239.830811L84.916473,214.692577L74.992846,214.692577L68.439889,234.801527L76.128922,259.955833L96.107312,290.165953L117.758022,315.360407L125.726833,315.360407L132.991815,305.280602Z " data-id="9" data-name="Ceský les" id="9"/><path d="M713.716505,259.834889L676.277717,248.322307L667.707726,254.078094L664.853600,272.791291L677.595779,313.130457L690.678560,331.873955L712.342196,331.873955L720.365578,307.365027L719.520230,285.752558L719.064232,268.471941L717.778551,263.793263L713.716505,259.834889Z " data-id="10" data-name="Drahanská vrchovina" id="10"/><path d="M709.837190,157.810651L720.754459,153.507719L724.324181,143.470052L722.397368,123.405212L710.122986,113.378018L694.154890,111.945845L692.984694,123.405212L701.093207,149.205432L703.493976,150.639456L709.837190,157.810651Z " data-id="11" data-name="Rychlebské hory" id="11"/><path d="M771.097761,199.800060L756.436808,215.606173L739.987101,236.813819L757.929960,258.395596L788.768514,259.834889L803.081575,219.559021L783.890271,203.032432L776.383224,198.722683L771.097761,199.800060Z " data-id="12" data-name="Nízký Jeseník" id="12"/><path d="M248.814999,202.314096L216.990340,186.513414L159.974645,182.206159L141.012682,249.761158L147.825026,265.592678L173.780771,278.551263L237.077687,272.791291L250.732338,242.567544L252.397613,219.559021L248.814999,202.314096Z " data-id="13" data-name="Plzenská pahorkatina" id="13"/><path d="M430.183204,411.262077L410.189839,389.597757L376.803856,401.150949L380.280677,431.489842L392.614456,443.051668L409.674262,441.606322L419.074705,430.044768L423.085792,422.819928L422.972515,421.375067L430.183204,411.262077Z " data-id="14" data-name="Novohradské hory" id="14"/><path d="M797.737566,341.248946L793.020164,333.496398L786.623044,333.676674L771.668385,349.183255L767.160772,362.169778L771.355402,364.334564L780.554503,365.056182L797.737566,341.248946Z " data-id="15" data-name="Chriby" id="15"/><path d="M165.462002,133.794190L150.643869,132.361005L142.432828,143.828480L127.935792,162.472889L131.958621,171.082094L141.949683,168.212071L152.861001,162.472889L162.210105,150.997973L167.340154,143.828480L167.020430,139.527642L165.888467,139.527642L165.462002,133.794190Z " data-id="16" data-name="Doupovské hory" id="16"/><path d="M297.242065,241.488641L269.926999,255.876985L261.483228,264.513018L257.691515,274.591180L256.171323,284.672270L263.864967,296.197003L272.974502,296.197003L287.449733,291.874799L294.980157,286.112661L306.726723,276.031158L312.552642,263.073524L314.959221,250.120881L313.375115,244.365797L307.357716,240.050161L306.221408,240.050161L297.242065,241.488641Z " data-id="17" data-name="Brdy" id="17"/><path d="M421.095597,53.364670L413.861780,44.442418L407.581452,42.421841L405.654118,49.147807L409.216037,58.943585L413.149411,65.986795L428.103587,86.253656L436.009009,90.720164L440.600955,89.323821L439.298226,80.600131L430.921362,68.391858L421.095597,53.364670Z " data-id="17" data-name="Jestedsko-kozákovský hrbet" id="17"/><path d="M375.403669,56.467358L376.334478,48.241334L370.427939,42.455205L361.616811,39.387353L350.353900,32.976724L345.964289,34.405038L339.794921,41.547643L339.114227,48.587983L341.437388,55.699352L346.215626,59.221005L357.824660,63.125876L367.844657,61.173376L375.403669,56.467358Z " data-id="18" data-name="Luzické hory" id="18"/><path d="M913.680597,322.681331L902.707292,325.565066L892.851899,329.710798L885.213116,337.642931L881.175403,350.445666L882.493680,358.201272L887.410375,360.365869L895.633013,359.824710L902.811645,354.413481L911.400336,344.494622L917.041066,333.676674L915.835469,322.861558L915.710727,323.041787L913.680597,322.681331Z " data-id="19" data-name="Javorníky" id="19"/><path d="M394.379717,306.824562L417.318873,266.492422L421.087441,249.941019L415.403723,229.083912L403.576167,223.332679L389.439547,224.051524L368.044086,233.398043L352.254028,234.836219L341.403020,248.502160L333.836077,260.734478L315.368260,286.652822L314.639932,306.824562L318.720173,315.472909L336.005812,332.775305L346.713293,338.544406L359.258469,338.544406L371.465642,334.217505L373.520495,331.333155L374.660664,331.333155L394.379717,306.824562Z " data-id="20" data-name="Stredoceská pahorkatina" id="20"/></g></svg>