<?xml version="1.0" encoding="utf-8"?><!DOCTYPE svg  PUBLIC '-//W3C//DTD SVG 1.1//EN'  'http://www.w3.org/Graphics/SVG/1.1/DTD/svg11.dtd'><svg enable_background="new 0 0 1000 474" height="474px" pretty_print="False" style="stroke-linejoin: round; stroke:#000; fill: none;" version="1.1" viewBox="0 0 1000 474" width="1000px" xmlns="http://www.w3.org/2000/svg" xmlns:xlink="http://www.w3.org/1999/xlink"><defs><style type="text/css"><![CDATA[path { fill-rule: evenodd; }]]></style></defs><metadata><views><view h="474.646593407" padding="0" w="1000"><proj flip="auto" id="robinson" lon0="13.8501256986"/><bbox h="38.38" w="81.03" x="161.18" y="-850.29"/></view></views></metadata><g class="" id="mountains"><path d="M301.787980,449.300676L282.434877,423.217878L241.255682,380.686597L202.658815,357.377598L174.560800,343.671691L143.137508,343.671691L131.413801,346.412550L120.965852,351.894753L123.813586,361.490147L128.636484,368.345170L137.994503,377.943797L143.711395,382.058051L164.420779,398.518302L203.422621,427.335490L228.632616,445.181632L248.024400,457.539522L279.602873,472.646593L285.043971,472.646593L291.470728,471.273093L296.294279,463.032633L297.748152,453.419974L301.787980,449.300676Z " data-id="1" data-name="Sumava" id="1"/><path d="M201.448370,58.383405L210.240364,47.513296L211.420835,48.871856L213.663245,36.646893L213.446312,33.930871L213.120723,29.857269L208.508686,25.784187L186.432903,17.639575L98.661775,61.101513L44.176618,93.737010L49.660831,110.067422L61.103751,119.597416L112.054934,96.458157L128.831551,91.016098L201.448370,58.383405Z " data-id="2" data-name="Krusné hory" id="2"/><path d="M277.801709,47.513296L262.898680,48.871856L208.208208,62.460655L201.554318,73.335882L199.827717,92.376525L228.505557,88.295421L255.662873,78.774895L284.278610,61.101513L282.871646,57.024438L277.801709,47.513296Z " data-id="3" data-name="Ceské Stredohorí" id="3"/><path d="M551.064546,57.024438L519.177409,36.646893L468.411329,20.354215L450.680332,25.784187L454.988168,50.230475L477.995085,55.665530L525.599191,71.976274L545.043360,73.335882L544.671701,69.257234L551.064546,57.024438Z " data-id="3" data-name="Krkonose" id="3"/><path d="M419.003715,43.437961L433.535436,25.784187L425.314412,5.426531L414.130125,0.000000L387.355409,12.210982L400.658047,42.079632L400.540496,40.721360L419.003715,43.437961Z " data-id="4" data-name="Jizerské hory" id="4"/><path d="M648.572776,164.718902L644.875835,153.656827L622.475730,120.959080L575.325437,99.179539L567.267525,116.874265L597.716182,144.116444L626.753598,167.291026L641.384000,174.110373L647.469075,170.018585L648.572776,164.718902Z " data-id="5" data-name="Orlické hory" id="5"/><path d="M748.547042,197.450639L766.546063,182.826960L761.718103,175.822467L755.862099,165.927337L722.937535,148.204822L707.441348,155.019978L687.321901,170.018585L701.619888,206.064032L721.565125,220.087980L730.541430,213.837992L748.547042,197.450639Z " data-id="6" data-name="Hrubý Jeseník" id="6"/><path d="M997.163064,260.160761L969.734011,256.058277L918.304642,282.048357L900.988216,314.902858L913.414229,321.742934L951.046548,306.686736L987.507599,282.048357L997.342513,272.470963L998.944361,266.999258L998.804267,265.631457L997.163064,260.160761Z " data-id="6" data-name="Beskydy" id="6"/><path d="M499.179521,364.232040L541.387794,350.524142L560.450360,332.709916L578.897581,283.416752L580.095942,260.160761L567.968489,245.120609L503.348013,209.597093L457.664175,217.791489L427.404358,230.086880L414.505951,243.753637L386.306906,282.048357L383.549619,314.902858L390.706415,323.120586L399.059404,332.709916L407.194884,339.560713L446.908721,361.490147L474.918735,372.458642L483.595623,372.458642L490.846580,368.345170L499.179521,364.232040Z " data-id="7" data-name="Ceskomoravská vrchovina" id="7"/><path d="M884.547437,365.607009L870.145464,365.603045L800.258742,410.690378L793.206056,424.772097L801.428984,435.181595L826.832162,429.711972L899.239730,386.172634L903.746199,378.349212L905.376489,371.087447L884.547437,365.607009Z " data-id="8" data-name="Bílé Karpaty" id="8"/><path d="M71.213601,306.686736L62.232040,271.102962L42.454867,235.552933L18.963138,208.231560L8.177690,208.231560L1.055639,230.086880L9.412429,257.425720L31.125850,290.259449L54.656823,317.641924L63.317689,317.641924L71.213601,306.686736Z " data-id="9" data-name="Ceský les" id="9"/><path d="M702.371540,257.294273L661.681367,244.781877L652.367112,251.037526L649.265119,271.375878L663.113896,315.218314L677.332856,335.589598L700.877879,335.589598L709.598055,308.952183L708.679292,285.462771L708.183693,266.681413L706.786357,261.596414L702.371540,257.294273Z " data-id="10" data-name="Drahanská vrchovina" id="10"/><path d="M698.155325,146.409702L710.020708,141.733080L713.900444,130.823689L711.806296,109.016311L698.465941,98.118301L681.111090,96.561750L679.839268,109.016311L688.651967,137.057160L691.261232,138.615722L698.155325,146.409702Z " data-id="11" data-name="Rychlebské hory" id="11"/><path d="M764.736092,192.045697L748.801904,209.224498L730.923616,232.273930L750.424729,255.729984L783.941469,257.294273L799.497553,213.520633L778.639573,195.558786L770.480573,190.874755L764.736092,192.045697Z " data-id="12" data-name="Nízký Jeseník" id="12"/><path d="M197.095492,194.778066L162.507008,177.605167L100.539765,172.923847L79.931043,246.345685L87.335007,263.552099L115.544888,277.636077L184.338849,271.375878L199.179343,238.527339L200.989239,213.520633L197.095492,194.778066Z " data-id="13" data-name="Plzenská pahorkatina" id="13"/><path d="M394.214685,421.872210L372.484990,398.326445L336.199589,410.882978L339.978355,443.856663L353.383266,456.422580L371.924637,454.851713L382.141465,442.286091L386.500896,434.433807L386.377782,432.863467L394.214685,421.872210Z " data-id="14" data-name="Novohradské hory" id="14"/><path d="M793.689441,345.778764L788.562355,337.352943L781.609674,337.548875L765.356273,354.402131L760.457194,368.516473L765.016108,370.869260L775.014109,371.653548L793.689441,345.778764Z " data-id="15" data-name="Chriby" id="15"/><path d="M106.503674,120.307523L90.398654,118.749872L81.474523,131.213244L65.718486,151.476834L70.090679,160.833709L80.949418,157.714438L92.808334,151.476834L102.969364,139.005375L108.544934,131.213244L108.197444,126.538898L106.967175,126.538898L106.503674,120.307523Z " data-id="16" data-name="Doupovské hory" id="16"/><path d="M249.728224,237.354738L220.040972,252.992643L210.863899,262.378675L206.742892,273.332079L205.090679,284.288666L213.452480,296.814268L223.353136,296.814268L239.085474,292.116701L247.269880,285.854147L260.036581,274.897113L266.368455,260.814168L268.984033,246.736648L267.262355,240.481762L260.722373,235.791333L259.487381,235.791333L249.728224,237.354738Z " data-id="17" data-name="Brdy" id="17"/><path d="M384.337862,32.893072L376.475821,23.195964L369.650076,20.999909L367.555363,28.309994L371.426617,38.956490L375.701586,46.611370L391.954463,68.638313L400.546435,73.492717L405.537170,71.975108L404.121305,62.493807L395.016950,49.225302L384.337862,32.893072Z " data-id="17" data-name="Jestedsko-kozákovský hrbet" id="17"/><path d="M334.677802,36.265214L335.689447,27.324798L329.269953,21.036170L319.693619,17.701889L307.452576,10.734527L302.681748,12.286883L295.976598,20.049791L295.236790,27.701551L297.761707,35.430510L302.954913,39.258002L315.572137,43.501994L326.462324,41.379927L334.677802,36.265214Z " data-id="18" data-name="Luzické hory" id="18"/><path d="M919.701587,325.598637L907.775302,328.732812L897.064013,333.238580L888.761838,341.859583L884.373467,355.774176L885.806232,364.203321L891.149918,366.555902L900.086654,365.967746L907.888717,360.086577L917.223296,349.306312L923.353897,337.548875L922.043600,325.794517L921.908025,325.990397L919.701587,325.598637Z " data-id="19" data-name="Javorníky" id="19"/><path d="M355.301831,308.364781L380.233146,264.529981L384.328998,246.541166L378.151675,223.872716L365.296951,217.622014L349.932631,218.403288L326.679073,228.561509L309.517722,230.124584L297.724353,244.977349L289.500257,258.271987L269.428595,286.441219L268.637015,308.364781L273.071606,317.764197L291.858423,336.569226L303.495800,342.839347L317.130465,342.839347L330.397776,338.136674L332.631083,335.001832L333.870270,335.001832L355.301831,308.364781Z " data-id="20" data-name="Stredoceská pahorkatina" id="20"/></g><g class="" id="river"><path d="M249.956982,0.000000L255.646020,12.081487L255.623195,28.499887L252.016083,34.758309L254.764697,48.322433L247.687726,52.497170L236.152553,52.497170L226.682597,57.716363L231.805012,70.245926L230.655850,76.512564L238.578651,82.780443L245.261060,83.825211L255.243561,84.870013L260.697976,91.139551L266.154059,97.410335L276.057350,97.410335L282.235202,92.184595L288.436465,97.410335L292.903510,101.591551L297.541962,107.864418L302.266939,115.184345L305.170792,120.413911L307.249062,125.644349L312.632585,130.875662L318.017546,136.107850L328.706120,145.527999L332.184411,147.621752L339.969140,151.809681L344.189609,152.856751L351.804450,154.950997L356.766236,154.950997L361.814720,155.998173L370.998682,157.045385L376.787860,157.045385L380.922988,157.045385L389.581496,151.809681L392.801059,150.762646L406.503416,146.574858L412.379182,147.621752L416.928320,162.281970L426.709094,180.092978L433.597171,183.237161L448.407981,182.189064L462.677728,174.853383L472.858599,176.556154L496.341566,176.556154L511.778272,177.997033L519.548551,175.770248L523.546654,170.662345L517.245804,160.187230L516.820494,141.340915L521.570322,120.413911L529.999825,113.092763L511.167128,96.365117L500.985036,93.229673L492.629776,82.780443L497.019549,76.512564L488.401045,72.334667L483.175275,69.201606L477.486510,60.848290L473.354686,51.453435L470.894117,47.805859L475.427418,38.221289L483.044024,38.662221 " data-id="1" data-name="Labe" id="1"/><path d="M302.468791,119.398329L292.810471,122.030372L283.616779,124.004549L276.659099,127.953277L278.799903,135.193908L283.804947,145.728732L289.949030,150.997480L292.241430,153.632188L294.851799,160.219936L299.905716,164.832190L301.211511,168.127078L298.767964,170.104178L295.810621,178.673072L296.858430,185.266145L297.490189,193.181684L296.197257,209.674606L297.346789,217.594203L300.789188,221.554715L303.189216,225.515698L306.061791,242.024767L308.149515,255.237654L310.655004,260.524173L313.526600,263.828637L317.913151,266.472422L321.360352,270.438453L323.241040,274.404903L321.359545,283.661567L317.387260,286.306737L312.161314,286.306737L306.412775,286.306737L302.019256,290.274828L302.012381,296.889201L306.033141,301.519913L308.854018,304.166271L311.358858,309.459502L312.663040,312.768116L314.696885,318.724278L317.574465,330.343608L312.246656,334.274417L307.068023,340.265874L314.487836,343.796431L319.069048,361.086288L321.563119,369.142099L321.567773,380.317652L323.127377,386.945268L323.907144,390.259391L323.513162,393.656581L322.001572,395.313826L322.085112,398.959941L319.189552,400.534475L316.418436,404.595323L310.989225,406.501538L307.397394,414.458603L306.528242,423.743223L302.255082,429.712668L306.410070,442.980156L309.889769,454.259657L309.664831,458.241108L307.236828,460.895536L299.777867,459.568309L292.220104,456.913932L282.610888,454.923216L267.320515,454.259657L263.543444,452.932559L256.466682,449.614926L251.443991,445.633984L241.389952,430.375976L238.898791,425.069715L236.505716,421.090325L233.063205,417.111202L229.096506,413.132348L224.081064,409.153769L217.968716,404.512446L203.602163,394.568059L197.066893,391.253668L193.582813,386.613867L193.962475,384.625506L193.100392,379.986293 " data-id="2" data-name="Vltava" id="2"/><path d="M296.319395,186.669352L285.228445,191.285548L276.633808,201.179686L258.448292,201.839405L247.564277,195.902426L243.396559,195.902426L239.903509,197.881296L229.370078,203.158884L221.539536,209.757092L218.244971,214.376636L215.419887,218.336763L211.701714,224.277841L209.866903,227.578895L205.052013,232.861251L198.420385,234.842346L195.712408,233.521603L188.161023,230.219971L182.945153,230.219971L177.976421,233.521603L174.945211,234.842346L171.815188,234.842346L166.076812,234.842346L164.984365,234.181968L163.370313,233.521603L159.669788,232.861251L154.632672,228.239145L151.601080,229.559682L148.666704,232.200912L146.346652,234.198098L142.587617,236.693684 " data-id="4" data-name="Berounka" id="4"/><path d="M299.383558,210.416987L314.868613,215.036624L320.867391,218.336763L331.816205,218.336763L345.051275,214.376636L356.197466,210.416987L365.004388,209.757092L373.973395,211.076895L382.530581,213.716661L384.474786,218.336763L386.582045,224.938026L399.067092,230.880272L414.631998,236.163139L423.638411,244.088955L433.527267,250.034493L450.917750,252.016561L469.689398,257.963419L476.289897,261.928534L490.837632,267.216021L505.912411,272.504260L515.541212,275.148659L529.237329,276.470928L536.028772,276.470928L539.628546,275.809788L544.738045,274.487542L546.190526,273.165342L546.598167,271.843189L545.961109,270.521083L545.381438,269.860047 " data-id="5" data-name="Sázava" id="5"/><path d="M306.726380,340.007351L296.738280,330.059824L289.858886,315.497919L288.085328,312.850834L284.117852,308.880522L280.202122,305.572219L274.616667,300.941045L271.007482,301.602609L267.128673,305.572219L266.386577,309.542214L265.846160,316.159716L265.102849,320.130716L262.889997,325.425957L259.528579,329.397813L244.276630,335.356270L233.184619,334.032099L216.760839,331.383876L211.428554,330.059824L201.190704,326.087908L194.862237,325.425957L189.252160,327.411840L184.785122,330.721845L181.315319,333.370029L172.802908,338.666869L161.908395,347.275560L163.338889,352.574016L165.293278,357.873069L162.580023,363.835207L156.863982,364.497712L149.767379,360.522817L148.480298,364.497712L145.904310,372.448470L145.951600,373.111091 " data-id="6" data-name="Otava" id="6"/><path d="M317.621631,329.397813L320.190303,325.425957L322.050756,322.447304L323.392373,312.850834L325.564448,310.534773L329.540502,307.888003L339.921550,303.587366L348.235469,302.925769L351.295397,305.241404L355.562286,316.159716L359.045082,327.080853L358.522972,333.701063L357.921201,336.018370L357.083469,341.977712L357.580590,344.957676L357.527831,347.606696L357.579366,351.580509L358.914078,355.223468L360.170573,357.873069L362.213026,360.522817L363.993735,363.172711L367.764693,371.123255L370.722917,382.057319L372.948088,390.342247L374.257745,393.656581L376.406470,397.634053L382.358472,403.269300L391.617013,414.209928L400.844624,424.499541 " data-id="7" data-name="Luznice" id="7"/><path d="M692.569347,145.811049L694.232926,152.397141L693.419172,160.302291L688.079724,175.459459L687.478546,191.285548L688.126937,203.818644L703.644210,213.716661L705.824985,220.317005L705.459648,227.578895L708.375292,230.880272L713.562872,236.163139L730.973690,249.373829L743.996842,254.659488L756.377385,258.624242L759.673345,265.894078L765.744031,280.438010L769.264243,295.648922L772.968749,312.850834L778.296695,319.468857L793.232190,328.073821L796.097949,330.721845L800.509165,338.666869L803.350342,346.613296L804.158544,355.223468L805.433096,374.436358L800.870903,381.725949L798.033385,385.039742L793.158872,389.016570L788.405325,394.319473L784.112953,398.959941L775.340304,406.252897L765.452039,412.883679L761.313887,413.546800L756.771391,415.536206L752.813348,418.188855L750.429362,420.841622L737.677131,430.790547L735.755642,432.780526L732.734638,440.077656L730.930779,443.394809L729.185675,447.375616L728.490789,451.356663L722.663236,463.386504L723.744115,471.118614L723.831976,472.646593 " data-id="8" data-name="Morava" id="8"/><path d="M518.353238,145.811049L523.264485,145.481781L528.204885,145.481781L536.903036,146.798874L543.899359,149.433227L549.164655,153.055827L554.980756,157.008234L562.820282,160.302291L575.233026,165.244032L583.187967,166.891454L592.965397,168.538963L603.124039,171.504701L606.507416,171.504701L610.811577,170.186560L620.210669,170.516090L630.633000,173.482017L636.220175,174.800298L637.369870,173.152455L637.738588,171.504701 " data-id="9" data-name="Orlice" id="9"/><path d="M794.237881,255.981024L797.512451,252.016561L800.722299,247.391909L808.308338,239.465343L820.253908,233.521603L827.942381,237.483983L829.114277,238.804877L831.915798,240.786312L847.164994,252.677274L859.489311,261.267652L866.280953,255.981024L881.290229,249.373829L890.942284,241.446816L897.720984,236.163139L899.412379,232.200912L901.492395,226.918658L904.348983,218.996830L909.098227,214.376636L917.360584,208.437343L922.492111,202.499138L923.356606,193.005553L893.264485,158.495672L880.416056,114.434613L829.998335,30.672308L809.600964,0.000000 " data-id="10" data-name="Odra" id="10"/><path d="M943.414810,301.602609L947.399586,299.617949L950.728575,296.310399L949.352121,293.003123L943.920190,285.728090L936.260697,271.843189L926.830932,250.695170L921.386956,232.861251L918.702799,226.918658L915.486900,215.696626L914.765996,213.716661L913.978537,211.076895 " data-id="11" data-name="Ostravice" id="11"/><path d="M721.599411,463.964842L719.662377,454.010824L714.040391,438.087446L705.860308,428.800632L693.778410,422.831276L682.750369,416.862515L676.973907,410.894364L667.410761,409.568192L663.270950,410.231274L658.256000,412.883679L654.231684,414.873063L650.206758,416.862515L647.173187,418.188855L644.312740,421.504833L646.412652,421.504833L643.257440,427.474057L641.035444,432.117192L637.646872,435.433930L633.674687,438.087446L627.896760,438.087446L619.024294,438.750843L615.758649,437.424057L607.779539,430.127235L595.433077,420.841622L579.418909,411.557461L575.858066,412.883679L571.997112,416.862515L562.941182,421.504833L558.384073,423.494509L547.159778,414.873063L537.737036,408.905117L526.107915,401.611814L520.447538,402.937799L517.989892,404.926834L513.957676,406.915941L509.869868,408.242051L503.627751,408.905117L493.384172,405.589862L484.082953,400.948834L481.296523,398.959941 " data-id="12" data-name="Dyje" id="12"/><path d="M663.679008,408.905117L658.314171,395.645281L654.117342,389.679404L652.893406,387.690927L644.387017,380.400492L636.990138,373.773720L632.040487,371.123255L629.361955,370.460661L625.577407,369.135499L619.754869,368.472931L605.547964,367.810372L589.426228,363.172711L571.395891,354.561091L561.752953,345.951041L544.148496,336.018370L534.089745,334.694180L529.845858,334.032099L523.059268,328.073821L516.928230,317.483341L510.202117,312.189089L494.420150,304.910591L488.556618,303.587366L484.428978,304.248973L481.513468,306.895509L479.231082,310.865631L478.517069,314.836132L478.602007,322.116355L477.528916,328.073821L474.829331,333.370029L472.486955,336.680481L466.010206,340.653346L463.970668,341.315524L464.025363,341.977712 " data-id="12" data-name="Jihlava" id="12"/><path d="M665.544332,406.252897L665.542728,400.285862L667.465467,398.296993L671.133798,392.330823L673.927736,388.353745L671.477314,384.376966L667.454439,380.400492L664.887319,375.099005L663.833921,369.135499L664.181420,367.147822L664.410988,363.835207L663.703619,355.885855L658.864764,348.600117L654.439621,345.951041L650.479880,342.639909L644.950182,339.329018L640.991924,336.018370L634.299990,331.383876L631.507287,329.397813L628.773419,328.073821L626.852265,324.102086L624.232458,318.145170L621.554382,311.527355L618.236467,303.587366L616.721847,298.294896L613.345824,289.696123L608.338197,274.487542L601.078365,269.199023L597.768915,267.216021L593.005661,260.606781L586.853025,255.981024L580.179910,251.355859L575.423920,250.695170L568.638489,250.695170L561.621114,248.052536L556.808137,246.731293L555.242483,246.731293 " data-id="13" data-name="Svratka" id="13"/><path d="M663.290550,351.249345L666.365303,344.626559L669.270026,341.977712L668.665906,329.397813L661.436301,318.807008L661.198711,316.159716L662.292303,310.865631L659.128906,298.956417L653.397472,281.760462L649.263022,276.470928L639.594829,261.928534L633.763775,249.373829L630.140445,238.144423L628.902087,230.219971L626.636564,228.239145L626.055286,227.578895 " data-id="14" data-name="Svitava" id="14"/><path d="M903.105449,215.696626L896.907911,211.076895L887.452828,205.138205L873.640418,202.499138L857.486792,202.499138L852.991573,199.200611L840.942606,187.988195L827.533197,173.482017L822.458040,169.527511L813.935701,167.550447L804.757890,174.800298L792.321445,180.733256L782.629080,177.437028L775.870332,172.163792L761.975547,157.667018L755.944235,149.103921L754.712678,147.128156 " data-id="16" data-name="Opava" id="16"/><path d="M344.917627,153.714526L347.907478,145.811049L348.978052,139.884757L349.225720,136.592859L352.072191,133.301308L356.531757,130.668317L359.376369,127.377390L362.300055,118.822599L363.662255,110.270141L365.375506,99.747236L367.382265,86.598547L370.736993,83.312231L374.553795,79.369103L377.962161,76.740624L385.351277,72.141311L399.828373,65.572021L411.357592,60.974328L415.853003,59.004092L422.017128,58.347373L427.583983,58.870257L431.701214,55.965762L430.109568,50.321567L429.806491,44.032015L427.411649,38.733179L420.829293,38.081636L420.019081,34.555372L417.207541,31.150776L416.540625,28.488415L415.920780,26.616024L414.755264,21.690934 " data-id="17" data-name="Jizera" id="17"/><path d="M143.717894,235.832936L145.769083,242.437595L150.284150,247.061599L155.746770,250.364830L162.400952,255.650636L169.121393,268.868515L176.513847,284.074863L171.908332,285.397439L166.779766,286.720061L163.838238,289.365438L160.140917,295.979659L158.910745,300.610267L160.342733,305.903038L161.299933,311.858221L158.973587,315.828816L151.222688,317.152431L149.178010,317.814254L148.654855,317.814254 " data-id="18" data-name="Úslava" id="18"/><path d="M142.395606,239.135108L143.171519,249.704159L144.129367,255.650636L142.427891,260.937215L140.010169,263.580792L136.073289,266.885531L130.812412,280.768619L124.259717,291.349589L121.075783,297.964140L117.981296,313.181711L115.648915,317.152431L111.269785,321.785409L105.927287,335.025224L105.637491,338.335798 " data-id="18" data-name="Úhlava" id="18"/><path d="M142.444144,239.795581L139.932284,241.116563L133.912412,244.419237L130.074905,249.043501L125.287752,254.989867L114.136956,259.615498L107.301907,258.954658L98.093273,261.598092L84.746156,272.173723L81.268776,282.091083L76.136769,283.413591L70.481701,284.736145L56.987240,286.058744L56.448888,293.333839L59.138527,301.933395L61.305469,310.534773L54.460289,309.873065L53.414260,309.873065 " data-id="19" data-name="Radbuza" id="19"/><path d="M141.728245,237.153767L132.762438,235.832936L126.502177,235.832936L117.914982,232.531080L111.937397,229.229543L108.807982,229.229543L99.702867,225.928327L93.397192,225.268123L88.514193,229.889825L84.625302,233.851784L80.166200,237.153767L76.086581,238.474649L61.952992,237.814202L58.160995,235.832936L52.618251,231.210427L42.290432,225.268123L38.547317,223.947753L27.351152,227.909018L20.616931,228.569274L7.962796,226.588545L0.000000,226.588545 " data-id="20" data-name="Mze" id="20"/><path d="M870.194989,292.010994L867.878827,289.696123L860.570047,284.405503L847.153824,280.768619L839.902775,281.429845L835.232097,281.760462L833.275818,280.438010L827.528432,280.438010L818.804629,282.091083L808.448982,283.082960L801.511252,287.050723L795.031205,290.357501L792.605919,292.341701L788.120535,294.656727L780.142711,295.979659L777.821403,296.310399L776.085057,297.302635L772.443711,300.279491L771.030354,301.933395L770.768917,301.933395 " data-id="21" data-name="Becva" id="21"/><path d="M0.000000,159.188409L5.025066,156.744499L11.315385,153.572315L19.274055,148.338919L29.292748,147.466771L41.416818,146.277519L44.934259,142.947854L49.884626,139.539280L55.642850,138.667379L68.141437,135.814055L72.100687,135.180018L77.561743,134.545994L81.474116,133.277986L85.840138,131.376069L89.751624,130.108189L97.489124,130.662880L107.921381,130.425154L113.211808,128.364937L120.217627,125.829472L124.877695,122.898097L130.728254,122.501986L138.003626,126.067163L141.846002,123.928008L152.959185,118.699577L156.365221,117.432210L162.991052,119.016427L166.685948,122.343543L176.928738,118.065888L182.537617,115.372848L187.191358,114.897630L194.999430,112.363255L201.354710,110.462607L207.456617,111.729693L210.958421,111.729693L215.762031,109.195573L221.664791,107.928590L232.412265,106.265752L237.570327,106.661657L240.470636,105.394776L247.118943,100.961094L251.905912,99.852771L252.058281,96.290569L250.023218,92.728770L249.233545,90.671024L250.164021,85.131608L249.656884,84.261217 " data-id="3" data-name="Ohre" id="3"/></g></svg>