<?xml version="1.0" encoding="utf-8"?><!DOCTYPE svg  PUBLIC '-//W3C//DTD SVG 1.1//EN'  'http://www.w3.org/Graphics/SVG/1.1/DTD/svg11.dtd'><svg enable_background="new 0 0 1000 406" height="406px" pretty_print="False" style="stroke-linejoin: round; stroke:#000; fill: none;" version="1.1" viewBox="0 0 1000 406" width="1000px" xmlns="http://www.w3.org/2000/svg" xmlns:xlink="http://www.w3.org/1999/xlink"><defs><style type="text/css"><![CDATA[path { fill-rule: evenodd; }]]></style></defs><metadata><views><view h="406.801758593" padding="0" w="1000"><proj flip="auto" id="robinson" lon0="16.0674821508"/><bbox h="32.11" w="79.12" x="159.32" y="-844.84"/></view></views></metadata><g class="" id="pond"><path d="M588.455720,40.824204L588.206959,40.800777L587.827834,40.999128L587.166806,42.143184L586.723004,43.528599L586.439096,44.780523L587.242191,46.037182L587.959669,46.558136L588.901961,46.939289L591.315655,47.291547L591.896245,47.110341L592.331526,46.727623L594.982005,45.664631L593.578510,44.441570L592.239209,42.789808L591.826436,42.379028L592.070979,41.709765L591.043507,40.755484L589.378649,40.428287L589.185749,40.626635L588.455720,40.824204Z "/><path d="M608.945237,290.696427L602.969064,289.063168L601.909603,287.565211L601.682429,287.714612L601.578279,288.594511L602.621041,289.731563L602.978497,289.983983L607.855240,291.731299L608.234666,291.978225L609.419920,292.476798L613.066064,293.654836L614.284273,295.278027L614.581924,295.585527L615.500634,295.478571L617.267424,296.602415L617.387153,299.781408L617.808867,300.033881L620.215255,302.433610L621.522795,301.790996L621.400779,299.648487L621.226424,296.799818L620.317188,296.310638L617.854589,294.915478L617.594493,294.654382L616.943492,294.309925L615.341573,294.239147L614.221641,292.450847L612.591913,292.337606L608.945237,290.696427Z "/><path d="M701.104229,347.822043L700.288704,347.368602L699.760077,347.803937L696.438109,349.341412L695.851257,348.440807L693.562142,347.892107L692.875612,348.162127L691.737681,351.385142L692.645375,351.810273L694.107675,351.489850L696.066024,350.368779L699.014013,351.556769L699.785388,351.301691L700.886965,350.132601L702.001934,352.034648L702.977625,351.056850L702.210801,350.237306L701.104229,347.822043Z M718.828033,348.839551L716.960259,347.147150L715.897251,346.601750L711.009455,347.835723L710.702128,348.297205L710.969023,349.476112L712.869071,350.778366L716.131311,352.145123L717.613195,353.636532L719.828765,354.570610L721.594203,354.910451L721.933695,356.379771L722.608535,357.210601L723.334698,357.327709L724.156722,357.022189L724.883917,354.692737L724.703810,352.124702L724.600035,350.947766L722.709158,351.279634L718.828033,348.839551Z M706.390700,351.091490L709.645921,350.579766L710.802543,349.841316L710.645158,348.192829L711.152629,347.491409L708.892772,346.295631L706.510993,345.191978L705.798927,345.043199L704.392434,345.835904L701.160898,347.503217L701.879087,349.413051L702.664197,350.610469L704.012692,351.270988L704.917048,351.337906L706.390700,351.091490Z "/><path d="M994.820809,175.153818L995.333093,175.709779L996.137217,174.037216L995.994733,170.845217L997.408452,170.232881L998.598789,169.099188L998.767871,168.599778L998.393810,167.887133L998.075211,167.738177L997.378581,168.055689L995.581370,169.147012L994.458291,169.419064L994.487943,170.571585L994.614266,171.639465L994.820809,175.153818Z "/><path d="M327.394889,326.548110L326.993032,324.716273L323.539637,325.405340L322.553692,325.990493L323.244494,326.999221L324.956786,327.623985L326.198293,327.991011L327.061143,327.290580L327.394889,326.548110Z "/><path d="M338.225408,314.963270L336.005519,314.661545L335.797362,314.831822L338.082140,317.688427L339.076133,318.374453L339.226818,319.133862L338.329637,319.725175L338.507773,320.058086L339.885943,320.294360L342.827697,320.814183L343.358855,320.426719L343.264692,319.978432L341.672144,318.927063L341.358832,317.275110L339.033100,315.119487L338.225408,314.963270Z "/><path d="M332.353884,173.663194L332.982632,173.381700L333.780464,172.544287L334.982828,172.170281L334.992230,170.395961L333.406921,167.257270L333.541891,166.218144L334.941687,164.327259L335.763813,163.762855L335.104866,162.192764L334.875793,159.350876L335.867078,158.412208L334.923970,158.042519L333.946951,158.157990L332.878916,159.015175L332.612655,159.623394L332.963381,160.930786L333.249912,161.881576L333.299614,162.856477L332.662442,163.476737L331.931237,163.790291L331.586049,164.498149L331.794539,166.122437L331.571484,168.781666L331.678629,169.368887L332.223292,170.139581L330.946869,172.349835L329.859752,173.603602L327.386116,174.620605L325.128951,174.070933L323.810510,174.310874L323.391024,174.797035L323.322729,175.558438L323.351598,177.712567L322.432066,177.568275L321.673303,178.050558L320.436577,178.799604L318.673035,178.539907L316.928516,178.579902L316.183592,179.327269L316.165530,179.887217L316.810422,180.589909L317.151742,181.190644L316.584526,182.121475L315.061666,182.199251L312.283424,182.801596L312.296559,183.413363L312.932865,184.007101L313.825000,185.352263L313.421011,185.991244L313.022430,186.808023L313.909053,186.993869L314.649947,186.878049L316.122072,185.526392L316.684284,185.275395L316.792975,184.914590L316.021412,184.185146L315.382228,183.269806L317.344301,182.800812L318.736781,181.658090L318.512212,181.062038L317.753637,179.739477L319.515699,180.167194L320.317190,180.464427L321.050293,180.237777L321.784187,178.838695L322.575607,178.602452L323.689785,178.995540L325.308953,179.078668L325.713755,178.625386L325.697486,178.072516L324.494343,175.800422L328.621623,175.897193L330.149876,176.172433L330.854031,176.028932L331.400043,175.404744L331.427863,173.929792L332.353884,173.663194Z "/><path d="M308.176432,199.752727L309.064693,196.642581L308.901624,196.351714L308.280260,196.359411L306.209049,198.005961L305.504712,199.698985L303.059416,198.849310L302.488213,198.263679L301.807405,198.178520L301.253208,198.607705L300.902890,199.860855L301.432078,200.596536L303.286259,201.207237L304.699018,201.031729L307.366665,200.384759L308.176432,199.752727Z "/><path d="M385.267454,317.662095L385.646599,317.894200L385.984401,316.132258L387.150725,315.452039L387.111792,314.764416L386.703120,313.353006L385.887841,312.875465L382.774973,312.873104L381.778140,313.892704L382.431922,314.876134L383.196192,315.378084L384.602450,316.083183L385.267454,317.662095Z "/><path d="M559.880559,340.037685L556.143942,339.759046L556.298773,341.062524L557.279190,343.578928L558.924777,344.891272L561.669701,344.973401L561.597077,344.144237L561.147112,343.768755L559.725958,342.555327L560.576346,341.969310L562.839870,342.982376L563.867474,343.747501L564.971919,341.923655L565.951991,341.796606L569.323824,341.840218L571.588838,344.108026L570.585278,345.058943L570.807437,346.223208L574.672921,347.002546L575.682378,347.114277L576.740722,345.424200L576.642731,344.146598L575.167082,344.486201L572.211257,341.497103L571.478883,341.037336L566.021312,339.214365L565.376833,339.759046L563.546646,341.025757L559.880559,340.037685Z "/><path d="M407.057559,319.338270L406.654368,317.087358L405.749811,316.837542L400.909893,317.673248L399.547277,319.939810L402.128928,321.703220L402.808982,321.669912L402.862179,321.101187L403.369107,320.053554L405.968735,319.988862L407.057559,319.338270Z "/><path d="M578.378880,196.728458L577.078720,195.558098L574.859366,194.318538L574.287245,194.324769L573.836510,195.954006L574.763487,197.075508L575.777013,197.354931L577.463621,197.315177L578.378880,196.728458Z "/><path d="M823.783757,137.178328L823.931440,137.221407L824.751541,137.363780L825.489727,137.156396L826.651363,137.314617L828.700429,136.459314L830.103659,137.624010L830.552931,139.308101L831.150935,140.982094L831.809775,141.108999L834.109746,141.385526L835.653263,141.664406L836.057608,142.703177L837.259969,143.215524L837.828488,142.511245L839.439180,141.886102L840.704628,142.519079L842.652855,143.996594L844.058715,144.557535L846.054385,142.837139L842.462006,141.289172L841.504802,141.301706L840.443175,140.218329L840.835723,139.060573L840.687906,138.895295L839.762267,138.856129L839.754418,139.853295L838.350624,139.655896L837.764065,140.811323L836.433514,141.006378L835.467618,139.989595L834.403494,139.683312L832.642738,138.948560L831.791107,138.376320L831.793188,134.319528L831.741336,133.317832L831.293973,132.403098L830.293101,132.191648L830.773120,133.360907L830.614094,135.424640L827.876269,135.502962L826.006387,136.792179L824.631445,136.269751L823.783757,137.178328Z "/><path d="M1.232129,112.272274L2.743619,112.522766L4.071337,112.655944L5.553819,111.859793L9.795525,109.665447L11.906390,109.305745L14.630687,108.507591L14.420747,105.127679L14.098429,104.533423L11.268893,104.686745L5.497831,108.537049L4.977546,110.368745L2.118820,110.705586L1.286305,111.047057L1.232129,112.272274Z "/><path d="M388.113920,294.025240L387.411485,293.333979L382.651747,294.254876L380.558749,294.814028L381.542051,295.789218L385.889112,296.956326L387.410948,296.022008L388.202482,295.063329L388.113920,294.025240Z "/><path d="M993.311148,179.270130L988.400927,176.573828L987.873369,176.969453L987.999459,178.342270L989.352806,180.801333L990.437957,179.953390L991.496038,182.276884L992.686224,181.249043L993.142292,180.207216L993.311148,179.270130Z "/><path d="M161.905202,44.815711L160.469032,44.359747L157.337911,44.750621L152.605706,46.206429L151.899450,46.617869L150.026004,47.946900L150.364159,49.364425L151.028217,50.977173L152.351916,51.528845L155.380016,51.142502L159.845198,49.954563L161.477938,50.283498L161.905202,44.815711Z "/><path d="M298.478711,203.226017L297.883544,202.705735L296.993909,202.722999L294.839022,206.372970L293.948483,206.548767L293.742776,208.295800L291.997242,210.157505L291.824571,210.411809L292.805456,211.374883L293.219847,213.341135L293.670971,214.254044L293.457445,217.524363L294.196447,218.687802L295.378729,220.306626L295.918530,220.936273L296.094341,221.600476L297.929507,225.630682L298.156811,227.133575L297.097887,228.655370L296.795283,229.570988L297.931366,232.104357L298.689165,232.185245L299.205903,232.585762L300.809747,235.598402L300.710786,236.968143L301.563954,237.464529L301.536220,238.420401L301.912725,240.299223L300.722068,240.857701L300.719092,241.401263L301.297988,242.229973L301.659083,242.906307L301.780402,242.028096L302.680458,242.042235L302.447969,241.674618L303.501831,241.218242L302.916786,239.340950L304.179364,238.476168L304.245137,236.862113L302.388393,233.793619L302.518249,233.400158L302.229131,232.482098L301.387726,231.266427L300.177746,226.737038L300.531528,226.109654L300.233641,225.391983L300.349009,224.448980L300.573891,222.793871L300.342372,222.398162L299.508257,220.470710L298.530470,218.723130L299.659089,217.141268L298.118697,216.890060L297.601791,215.568104L298.492021,214.146503L297.383795,213.955756L296.458123,209.473875L296.752036,209.192107L297.669945,207.402653L299.418257,205.031755L299.732206,204.232856L298.478711,203.226017Z "/><path d="M989.261108,222.035433L987.563186,222.483742L988.729287,224.452906L988.470850,225.529392L988.919457,226.615330L989.503497,228.224268L990.862541,228.640450L991.095261,229.161863L991.265379,230.267531L992.557925,231.664340L993.786997,231.643332L992.673783,230.369618L991.403611,228.342055L990.848235,227.095099L990.480622,226.075106L989.584540,223.298602L993.109269,222.632553L992.441261,222.108450L989.261108,222.035433Z "/><path d="M725.656252,372.714646L723.976869,372.728737L723.073029,372.975326L722.473356,373.238369L722.526651,373.573870L723.620134,373.953476L727.349925,376.104357L728.307628,375.686934L729.076650,373.319488L728.639189,373.122493L725.656252,372.714646Z "/><path d="M356.191978,0.000000L354.877923,0.575587L354.701278,0.894582L355.358846,2.573843L355.659888,3.165076L356.915528,3.853821L358.265877,4.444297L358.917037,3.465014L360.706764,3.969263L359.113567,1.957662L356.832816,0.042896L356.191978,0.000000Z "/><path d="M636.973667,208.699949L636.075608,206.853371L635.563960,207.520537L636.829723,209.488344L638.764835,210.073454L640.778162,211.040843L641.495528,210.818377L643.867129,211.155999L644.630799,211.587202L644.655905,209.632832L644.472478,208.504913L642.119960,208.995728L641.166221,209.646944L640.065323,209.526787L638.164733,208.973187L636.973667,208.699949Z "/><path d="M315.032735,404.801759L317.668362,404.515742L321.774544,403.372476L321.290868,402.730333L319.008289,401.591823L313.182901,401.743358L311.035250,399.400734L311.046630,397.301891L309.821386,397.975500L309.533382,394.312882L308.649291,393.476234L308.612021,393.762994L308.022586,395.138510L307.255152,397.661148L302.562348,393.644035L300.410730,393.471507L301.332277,391.608388L303.609339,388.967021L301.622745,388.241510L297.197918,389.617703L294.887907,390.199069L295.976296,387.388395L293.513600,385.925599L299.537146,381.312921L300.223973,379.288675L299.803347,377.568510L297.543633,376.431997L295.656387,380.956901L293.654897,379.602941L291.705818,379.028757L285.998694,377.727607L285.428283,376.092430L282.674360,373.640813L280.950100,372.727246L278.964506,373.388793L276.374802,372.118472L275.236342,370.927717L273.128592,368.158038L272.328219,367.542220L270.663070,368.615574L270.782339,368.990425L271.817213,370.114992L276.550049,373.858968L277.430584,374.502412L281.319003,374.756012L284.357284,380.626088L287.755102,381.857194L290.266170,382.069076L290.154237,384.657396L288.247438,385.314337L287.676714,386.140644L289.251893,388.907152L287.233210,389.945410L289.619971,391.276735L292.697645,394.370392L295.448448,395.656896L297.716667,395.868821L300.823124,396.428180L304.413863,398.128343L307.482084,399.679271L311.130353,403.533210L315.032735,404.801759Z "/><path d="M446.660594,179.674687L445.357834,178.455995L444.267901,177.704725L443.067204,177.943122L442.993263,178.554807L443.110845,179.632338L443.121771,180.349141L445.913014,182.200819L444.574012,183.167087L444.509989,184.836938L444.232054,186.716300L444.830411,186.885730L446.031182,186.508436L446.045734,186.249588L446.231125,185.006359L445.380562,184.521629L446.902129,183.162380L447.696547,182.654146L448.248614,183.574934L448.306154,184.195342L449.457985,185.489527L450.060717,186.011136L451.131359,186.982211L452.000467,187.629347L453.396398,189.174677L454.610913,190.272136L455.729510,189.822636L456.869766,190.860494L457.082117,191.642632L457.376888,191.721867L458.681625,190.691830L460.137944,191.212728L460.637261,190.127793L463.446663,191.157030L465.370033,191.055046L467.400320,191.686564L468.508114,193.587460L469.506698,196.134170L469.316904,198.710871L469.329990,199.173817L469.909770,199.160478L469.700441,201.996343L469.972607,202.398906L470.938746,202.810889L471.337127,202.337697L471.599246,200.614480L471.188463,199.820382L471.237071,198.192221L470.720345,195.128332L471.098021,195.011431L471.294168,194.441836L468.760703,191.023667L468.323447,189.740268L466.211238,190.126224L464.392409,189.998464L462.997386,189.308817L460.801435,188.209819L459.144616,188.609094L458.244590,188.532220L457.164942,188.964445L456.660285,188.192561L454.258309,187.662293L451.777490,185.131857L451.936074,184.637713L451.484093,182.840027L451.756463,182.059646L449.058328,181.119290L448.178587,180.109944L446.660594,179.674687Z "/><path d="M116.631574,159.848845L115.704743,159.902425L116.852049,161.554715L117.474653,162.440130L115.718773,163.885142L114.159682,165.817485L113.033462,168.694642L108.272424,169.355559L107.428283,170.290900L107.456068,170.384984L111.115078,169.934166L113.174651,169.955335L113.791180,169.190917L115.999738,165.705863L119.197024,163.792643L120.712079,164.340585L121.483497,164.317381L126.334908,165.905286L128.449571,166.429782L129.608279,166.214624L131.398144,164.473851L131.438653,163.799698L130.429271,163.867112L129.292818,163.907091L127.317722,163.735605L125.871233,163.386591L124.299950,162.283691L123.030720,162.635377L118.539852,161.941148L116.631574,159.848845Z "/><path d="M773.096959,106.777203L772.850085,105.848814L772.356456,105.871953L771.794113,107.457591L772.427538,107.952428L773.096959,106.777203Z M779.678731,107.780484L778.146217,105.945199L777.085660,104.851888L776.030340,104.518161L775.353055,104.778923L776.081841,106.609013L778.036488,108.198161L778.885462,108.816387L779.678731,107.780484Z "/></g><g class="" id="border"><path d="M1000.000000,137.212932L999.322120,137.115275L998.786262,141.763503L988.980315,141.944684L988.726003,141.860738L988.287410,141.727562L986.306792,141.142842L984.551411,140.612454L966.062450,133.453778L967.261191,136.418444L967.224238,136.431992L966.706297,136.532321L966.451323,136.588839L966.180992,136.657425L965.910936,136.738570L965.657095,136.833134L965.435696,136.942317L965.263042,137.067411L965.134384,137.216981L965.036488,137.399694L964.961598,137.609780L964.910042,137.810807L962.331222,138.749208L957.472541,136.065716L956.869170,131.438661L954.257338,128.709573L946.382342,128.877932L944.285673,121.499470L937.532791,121.647435L936.895681,125.374685L933.153473,122.675082L928.652271,122.776861L926.033566,120.051949L926.667996,116.326589L916.674269,109.140129L912.169730,109.246561L910.165214,111.149857L910.661354,114.848778L917.292115,113.762381L918.279329,121.160482L907.780691,118.628761L898.649556,126.280606L892.026985,127.376829L888.362914,126.175812L888.173765,126.022348L887.977838,125.875405L887.778760,125.735813L887.577395,125.601563L887.170244,125.343384L886.759839,125.092810L883.874714,123.367871L878.315048,120.029418L875.217008,118.189716L874.810368,117.935306L874.610887,117.802638L874.415589,117.664016L874.226248,117.516914L874.045238,117.357952L873.875694,117.182668L873.722640,116.990840L873.580728,116.783151L873.446959,116.563870L873.319049,116.336250L873.195283,116.102732L872.955441,115.624757L872.720890,115.139263L870.277750,110.016573L869.808127,109.046250L869.565896,108.569341L869.440519,108.335625L869.310669,108.106884L869.174603,107.885058L869.030031,107.672695L868.873989,107.470490L868.709342,107.277842L868.538425,107.092138L868.184429,106.734088L867.821435,106.385683L866.533549,105.179935L866.374388,105.029751L865.991889,102.083613L858.724741,98.573936L853.227338,99.503669L853.089522,99.460963L852.874566,99.386947L852.661575,99.305669L852.451334,99.214216L852.244887,99.108735L852.045258,98.987524L851.849353,98.852547L851.656157,98.707550L851.464904,98.555373L851.086077,98.237431L850.709873,97.909807L848.647492,96.083398L844.518236,92.449815L842.080641,90.296577L841.703711,89.971434L841.323318,89.657238L841.130778,89.507537L840.935820,89.365473L840.737539,89.233895L840.536906,89.116057L840.436253,89.062993L840.284276,87.970589L859.065027,84.655616L859.554373,80.007103L866.322817,79.821802L866.560089,73.328348L861.662768,70.681623L861.023929,66.066404L863.900779,62.282500L863.518092,59.514796L860.128856,59.606997L856.227046,56.009017L851.579213,55.212125L853.479568,60.716553L848.475626,65.489647L843.088332,67.495840L839.702008,67.593534L839.443546,65.747545L819.124803,66.351661L816.261501,70.146990L811.748131,70.286900L811.224204,66.595499L808.442002,62.974853L801.800776,64.111097L800.202606,68.796376L797.682031,67.023001L798.283270,63.296030L798.619944,57.724746L795.232621,57.833350L794.968101,55.988704L785.934359,56.282465L770.913158,46.590549L771.506535,42.864389L762.600591,44.095200L757.676476,41.486030L756.141551,38.760723L745.833566,38.197730L743.165687,35.514083L736.383158,35.758467L726.518959,30.561986L721.996381,30.730609L719.872709,31.736118L717.445600,38.314076L726.040253,42.626198L726.998521,49.078281L729.530386,50.838946L731.614479,57.251271L743.579272,61.451069L745.519783,66.944847L743.534817,68.871409L743.941286,71.639922L746.466749,73.403391L746.872342,76.172296L742.499206,77.258192L739.431410,71.803289L737.176410,71.886145L736.592714,75.618809L726.449008,75.995617L723.888162,81.660004L717.845421,79.104846L715.729158,80.114218L715.014373,82.925931L711.772929,83.979214L710.482319,90.528804L706.530047,94.397410L703.154455,94.530387L701.592940,99.235785L698.632479,102.139946L692.871823,101.442047L691.470412,99.641037L686.971724,99.823324L683.181259,97.191609L682.903311,95.344688L678.124826,93.684037L677.771811,91.347474L677.026158,90.716029L676.938692,90.531678L676.820429,90.347886L676.680089,90.164532L676.524184,89.981526L676.357516,89.798800L676.183580,89.616301L675.823268,89.251782L674.907400,88.338435L674.552097,87.966475L674.380997,87.776504L674.216743,87.582189L674.062030,87.381690L673.920472,87.172544L673.796850,86.951500L673.694758,86.715192L673.610618,86.466925L673.539534,86.209976L673.477800,85.946823L673.422644,85.679317L673.324468,85.136310L673.191031,84.312783L672.460003,79.629871L672.323101,78.809442L672.272385,78.539882L672.216827,78.274052L672.154227,78.013650L672.081592,77.760981L671.994910,77.519137L671.888882,77.292201L671.758912,77.083068L671.609531,76.888895L671.446069,76.705572L671.272560,76.529993L671.092013,76.359840L670.906638,76.193408L670.335425,75.705749L668.985399,74.581200L667.833827,73.613070L661.333403,68.111806L660.952667,67.785701L660.575037,67.454434L660.203826,67.112481L660.022339,66.934646L659.845382,66.751540L659.499643,66.371715L658.991915,65.783869L656.147516,62.398813L650.790073,56.035228L640.243032,53.517623L638.402284,48.959553L637.274117,49.008763L637.974145,46.194561L635.288624,43.529771L627.388748,43.879649L624.290715,45.873556L621.746366,44.132688L621.314743,41.368892L618.913522,40.549717L618.481388,37.786228L612.837056,38.042343L612.258862,34.358552L609.855728,33.541116L610.406098,29.806318L616.198209,30.469868L613.505749,27.810282L627.186338,20.705337L625.624463,17.994271L634.956556,19.436398L636.931211,17.496408L636.644799,15.654852L639.894144,14.587421L639.322022,10.905525L641.441882,9.887401L640.583244,4.365904L647.374831,4.074176L645.722295,0.000000L143.128900,0.000000L143.243666,2.595292L138.057117,3.951713L135.819555,0.275703L130.938171,0.468346L127.257754,6.428359L128.463564,9.121294L123.439213,16.172974L123.716523,18.627145L114.214516,17.980224L113.377447,15.555754L106.007690,19.238960L97.207699,17.303664L96.238714,30.193517L90.760552,35.722551L84.168095,37.405184L63.651313,27.519903L61.830524,30.775107L59.854134,29.637700L50.362677,33.167929L46.356498,38.155565L46.421846,40.307638L40.650414,36.304240L36.869567,37.558226L31.591188,36.562685L29.024354,38.569414L14.902552,40.319352L11.158442,45.727504L11.910378,50.032809L8.621699,48.972832L4.353562,51.805244L2.903248,55.580880L0.000000,55.755743L0.000000,119.051286L7.463050,121.207455L8.237936,123.022698L6.709558,123.552741L7.768899,124.951878L13.470317,123.213732L18.971504,127.490368L14.586058,132.208485L15.559508,134.489874L27.520417,138.099071L28.109478,142.051787L23.874903,146.029265L22.606714,150.609789L20.328617,151.126959L20.628294,155.097680L18.075482,154.247387L16.617903,155.917428L17.143392,158.853325L15.530477,160.717978L17.253154,165.708127L6.541498,170.463780L6.013418,172.303182L13.563334,182.612186L21.753430,186.249196L26.593268,186.095457L28.215685,190.313320L26.521263,194.785083L28.435648,195.869370L28.623614,197.402760L29.518227,198.527656L30.315783,200.102862L33.881208,199.900811L34.783193,204.713528L37.018044,206.757921L36.922793,212.283428L40.022682,216.296727L44.954014,219.050893L47.346556,217.928265L48.832928,219.774730L49.346434,227.623951L47.788894,229.416682L50.451792,231.323362L51.977136,237.991159L60.713120,240.023128L61.839363,242.221725L69.098196,246.184833L69.450597,250.215094L73.453650,253.276933L73.209132,255.798380L74.464484,256.350777L83.755840,256.386922L89.391610,259.032710L91.349710,258.895977L89.688744,255.294708L99.992009,256.597511L104.966255,258.721525L111.064926,264.467803L114.596292,264.807322L114.402576,270.046616L115.960705,273.140492L119.427514,273.119268L120.420008,275.882395L123.834813,276.538023L124.957358,280.248710L129.691287,282.512218L129.235812,285.655680L139.598643,291.756857L140.707551,293.685113L139.932723,297.847011L142.105069,299.817981L151.145539,304.124345L159.686346,303.085277L178.289971,317.030697L177.585688,318.944191L180.975368,326.919929L180.165908,330.163757L184.186467,333.225190L196.547293,339.691748L198.032837,339.484737L197.440586,333.930367L209.341147,333.591944L213.914405,339.584700L216.705713,340.138830L225.632079,352.298783L233.046536,352.693215L236.378980,351.106054L241.535818,361.756435L246.227895,362.587160L245.470660,363.628143L250.362006,369.465686L248.733931,372.722127L250.356048,374.197228L259.136402,374.435075L267.956873,380.345292L270.958975,384.819267L281.661935,387.595962L285.257814,390.327868L285.578019,392.184650L291.771544,394.429084L291.085931,398.356426L286.696797,398.682598L284.895599,401.130515L286.398097,403.406750L290.945233,404.008716L290.626903,404.801759L356.458677,404.801759L355.508877,400.823240L359.146769,399.964327L359.287099,400.096621L361.332467,401.984162L364.261113,404.725230L364.246201,404.801759L400.945433,404.801759L400.738994,401.380275L399.192435,398.638478L400.666993,393.403363L402.379388,389.175381L409.090048,386.393107L413.387376,381.994641L412.338907,379.089011L414.167699,376.676546L413.218886,372.982807L424.569973,372.285038L425.968672,374.043653L438.171842,377.028605L441.102220,374.275198L441.227609,372.144855L436.792970,369.899606L438.463739,360.235961L440.221841,359.072206L438.648262,353.541136L440.758420,352.401917L441.440817,347.557930L439.014068,341.826442L437.813441,333.883932L440.908933,329.017929L440.304166,325.305170L445.675480,324.036690L451.366659,324.162593L451.950773,328.339572L466.457720,328.399380L468.962502,333.917775L469.054824,337.617739L471.665090,338.379643L477.635498,335.321072L484.200258,336.398557L486.272874,333.787127L486.709299,328.164082L490.898469,331.345025L500.335275,331.097909L510.345348,338.023877L518.075328,337.587830L518.367097,339.445381L522.929764,340.127811L524.907145,345.639498L543.405024,348.603372L549.999271,351.789410L555.148424,356.436124L566.795188,357.428971L569.535320,353.537199L573.949511,353.307307L581.254134,355.631648L581.332842,355.849935L581.427098,356.046014L581.542433,356.211984L581.687679,356.344748L581.855068,356.445869L582.038670,356.523812L582.233967,356.585019L582.437563,356.634332L582.646937,356.675343L583.076149,356.742273L584.388527,356.910363L584.825027,356.973987L585.258532,357.052599L585.473502,357.101612L585.686748,357.160434L585.897700,357.232581L586.107633,357.321694L586.315297,357.424265L586.521329,357.536645L586.930296,357.780478L587.539741,358.170650L588.145247,358.573332L588.543582,358.847656L588.739312,358.987721L588.931295,359.130779L589.117925,359.278013L589.297037,359.431005L589.465751,359.591827L589.620292,359.763150L589.755781,359.948359L589.861018,360.133472L590.125701,360.703784L590.220974,360.872524L590.332229,361.015565L590.472647,361.130062L590.633640,361.213930L590.810058,361.274978L590.997893,361.319238L591.194069,361.351318L591.396244,361.374709L591.602648,361.392046L592.872448,361.457855L593.082835,361.474000L593.291005,361.495660L593.495932,361.525303L593.696276,361.566204L593.890282,361.622692L594.075653,361.700451L594.249418,361.806866L594.413197,361.951823L594.565130,362.126129L594.708713,362.321221L594.846779,362.530223L595.250377,363.187338L595.388240,363.400700L595.531512,363.602952L595.683018,363.788012L595.846249,363.948434L596.023025,364.077677L596.211687,364.181865L596.409099,364.267607L596.612862,364.339967L596.821167,364.402775L597.246373,364.510433L597.677752,364.605513L598.974428,364.876418L602.145629,367.642816L602.008003,369.676739L609.183884,373.067863L610.705309,375.803103L612.910067,375.694416L617.876651,379.198492L619.624327,376.981348L624.015801,378.421892L623.558616,380.796614L626.007988,381.614200L635.967105,381.137668L635.849063,379.512757L639.101768,379.313486L644.220106,379.847503L645.941802,382.540495L654.214514,382.155325L654.019753,380.138142L664.799433,380.017633L670.410546,382.083648L677.685504,378.283271L680.373677,371.939410L684.147796,369.571212L685.946054,368.605049L692.669451,368.042670L696.937857,365.627476L699.978814,367.561514L699.909803,370.763517L704.725882,373.367923L714.657715,372.952093L718.370326,375.606206L720.324339,383.171423L725.951504,381.354273L730.336503,382.384537L735.339730,386.872828L739.406721,387.477802L749.997106,387.444717L752.544835,384.196989L753.557182,384.553404L753.702007,384.738717L753.863126,384.917219L754.035743,385.090927L754.216316,385.261327L754.402269,385.429499L754.783454,385.762028L756.525090,387.248222L758.442814,388.907367L759.019895,389.705114L759.172876,391.690245L758.697654,392.801545L759.971295,395.123859L760.651325,395.782009L760.525559,396.355345L760.685794,399.139779L760.715070,399.522414L760.739012,399.711875L760.755926,399.805619L760.777959,399.900719L760.803944,399.995031L760.863879,400.182065L760.976260,400.490685L761.249416,401.199609L761.592727,402.352839L761.399462,403.815441L761.346428,404.276356L761.333915,404.426610L761.326173,404.573737L761.325272,404.716382L761.330743,404.801759L766.186494,404.801759L766.350086,404.623248L766.795322,404.119152L766.938587,403.947357L767.077252,403.772199L767.209441,403.592304L767.332651,403.405841L767.443583,403.210394L767.537943,403.002822L767.615087,402.770960L767.674741,402.526302L767.721830,402.272454L767.760015,402.012095L767.791980,401.747193L767.844472,401.209046L767.889035,400.665142L768.054212,398.480262L768.101816,397.938346L768.129256,397.669823L768.160698,397.403969L768.197905,397.141955L768.243280,396.885377L768.300052,396.636379L768.372498,396.397802L768.464379,396.171312L768.571998,395.955287L768.691039,395.746857L768.818241,395.543859L768.951177,395.344680L769.088068,395.148139L769.368940,394.759805L770.658949,393.030269L770.942918,392.643959L771.221489,392.253465L771.356987,392.055253L771.488429,391.853854L771.614132,391.647937L771.731831,391.435713L771.838526,391.214813L771.928418,390.992400L772.008018,390.761872L772.080034,390.525367L772.146539,390.284522L772.209102,390.040574L772.326820,389.546855L772.607390,388.301612L772.723279,387.806027L772.847905,387.316648L772.915965,387.076032L772.989833,386.839527L773.071566,386.608585L773.166460,386.375973L773.269718,386.149274L773.379050,385.926872L773.492726,385.707544L773.728273,385.274692L774.091334,384.632329L776.040838,381.215880L776.888909,379.716928L777.975196,377.784765L778.219039,377.358734L778.468285,376.939975L778.596740,376.735747L778.729272,376.536997L778.867519,376.345925L779.013649,376.165441L779.168577,375.998762L779.331319,375.842577L779.499738,375.694018L779.672217,375.550912L780.024843,375.275001L780.743248,374.740843L783.995074,372.361056L784.354500,372.094378L784.708322,371.821272L784.881098,371.679977L785.049372,371.533519L785.211238,371.379708L785.364140,371.215615L785.504707,371.037371L785.627980,370.845634L785.739307,370.640192L785.841895,370.424726L785.938190,370.202042L786.118765,369.742893L786.290650,369.273779L786.458855,368.800443L787.876156,364.761670L788.045710,364.290065L788.221932,363.827087L788.314865,363.601837L788.412988,363.383298L788.518440,363.174239L788.634072,362.978343L788.763625,362.800447L788.911464,362.643191L789.073431,362.504202L789.245698,362.378532L789.425355,362.262421L789.610225,362.153051L789.798695,362.048341L790.182068,361.847253L793.091966,360.385640L793.865420,359.993013L794.442432,359.692751L794.822581,359.483763L795.009980,359.374033L795.194632,359.258919L795.375519,359.136423L795.553023,359.003996L795.726720,358.864104L796.066594,358.569575L796.566680,358.108738L802.902075,352.109770L814.357518,355.339366L829.532607,362.904493L837.193770,362.709998L842.884972,359.455660L845.975935,359.678489L852.428185,366.244850L854.781890,366.822068L865.126655,362.101322L869.355072,357.643133L883.503475,356.369987L895.204929,344.146992L910.194682,342.552194L912.180648,340.721303L912.649830,329.780500L917.443657,323.570067L936.831339,321.049744L943.763629,315.721505L946.581808,308.153393L946.968038,301.196763L945.064583,298.834846L946.186253,289.332491L950.584748,271.422956L953.543351,268.687611L974.756479,263.200131L982.581738,258.904621L987.610560,253.939300L988.595925,251.114688L987.398489,246.772457L995.225326,244.543770L1000.000000,240.691801L1000.000000,137.212932Z "/></g><g class="" id="mountains"><path d="M326.996053,404.801759L328.416342,395.411151L332.552133,391.194003L312.739313,364.491630L270.581941,320.950054L231.068238,297.087370L202.302779,283.055891L170.133054,283.055891L158.130859,285.861856L147.434728,291.474285L150.350108,301.297608L155.287570,308.315467L164.867881,318.142101L170.720572,322.354086L191.921890,339.205336L231.850188,368.707052L257.659026,386.977114L277.511445,399.628555L288.325048,404.801759L326.996053,404.801759Z " data-id="1" data-name="Sumava" id="1"/><path d="M114.205655,0.000000L68.821431,27.184223L74.435917,43.902550L86.150654,53.658921L138.312139,29.970009L155.487271,24.398678L209.781117,0.000000L114.205655,0.000000Z " data-id="2" data-name="Krusné hory" id="2"/><path d="M233.791164,0.000000L229.937505,6.298483L228.169890,25.791421L257.528948,21.613373L285.331363,11.866696L304.545244,0.000000L233.791164,0.000000Z " data-id="3" data-name="Ceské Stredohorí" id="3"/><path d="M547.359576,0.000000L561.679789,4.906580L581.585838,6.298483L581.205351,2.122951L582.314803,0.000000L547.359576,0.000000Z " data-id="3" data-name="Krkonose" id="3"/><path d="M687.574507,99.852230L683.789749,88.527385L660.857548,55.052930L612.587240,32.756035L604.337919,50.871084L635.509858,78.760378L665.237033,102.485453L680.214968,109.466787L686.444589,105.277802L687.574507,99.852230Z " data-id="5" data-name="Orlické hory" id="5"/><path d="M789.923577,133.361482L808.350150,118.390429L803.407505,111.219550L797.412398,101.089370L763.705738,82.945872L747.841452,89.922916L727.244085,105.277802L741.881709,142.179478L762.300727,156.536554L771.490257,150.138102L789.923577,133.361482Z " data-id="6" data-name="Hrubý Jeseník" id="6"/><path d="M1000.000000,201.631252L963.713625,219.968747L945.985862,253.603679L958.707044,260.606235L997.233287,245.192389L1000.000000,243.322796L1000.000000,201.631252Z " data-id="6" data-name="Beskydy" id="6"/><path d="M534.632542,304.104633L577.843437,290.071115L597.358818,271.833728L616.244237,221.369646L617.471064,197.561229L605.055533,182.163811L538.900053,145.796464L492.131035,154.185511L461.152421,166.772968L447.947623,180.764368L419.078734,219.968747L416.255950,253.603679L423.582750,262.016612L432.134157,271.833728L440.462888,278.847260L481.120093,301.297608L509.795462,312.526651L518.678462,312.526651L526.101660,308.315467L534.632542,304.104633Z " data-id="7" data-name="Ceskomoravská vrchovina" id="7"/><path d="M929.154546,305.512264L914.410466,305.508205L842.863644,351.666549L835.643428,366.082768L844.061685,376.739534L870.068294,371.139985L944.195842,326.566407L948.809358,318.557146L950.478374,311.122884L929.154546,305.512264Z " data-id="8" data-name="Bílé Karpaty" id="8"/><path d="M96.500655,245.192389L87.305745,208.763353L67.058781,172.368863L43.009026,144.398494L31.967380,144.398494L24.676151,166.772968L33.231449,194.761220L55.460653,228.374886L79.550585,256.407809L88.417182,256.407809L96.500655,245.192389Z " data-id="9" data-name="Ceský les" id="9"/><path d="M742.651216,194.626650L700.994481,181.817032L691.458975,188.221280L688.283296,209.042752L702.461040,253.926627L717.017759,274.781815L741.122074,274.781815L750.049390,247.511650L749.108802,223.464267L748.601431,204.236774L747.170902,199.030984L742.651216,194.626650Z " data-id="10" data-name="Drahanská vrchovina" id="10"/><path d="M738.334848,81.108110L750.482083,76.320399L754.453979,65.151865L752.310086,42.826471L738.652842,31.669588L720.885742,30.076062L719.583708,42.826471L728.605746,71.533407L731.276991,73.128991L738.334848,81.108110Z " data-id="11" data-name="Rychlebské hory" id="11"/><path d="M806.497185,127.828150L790.184493,145.415018L771.881522,169.011970L791.845867,193.025203L826.158769,194.626650L842.084374,149.813204L820.730931,131.424689L812.378121,126.629393L806.497185,127.828150Z " data-id="12" data-name="Nízký Jeseník" id="12"/><path d="M225.372763,130.625423L189.962660,113.044597L126.523437,108.252077L105.425172,183.417988L113.005012,201.033126L141.884994,215.451657L212.313097,209.042752L227.506115,175.413924L229.359004,149.813204L225.372763,130.625423Z " data-id="13" data-name="Plzenská pahorkatina" id="13"/><path d="M427.174356,363.113997L404.928490,339.008922L367.781160,351.863725L371.649688,385.620672L385.373021,398.485082L404.354826,396.876899L414.814347,384.012792L419.277332,375.973983L419.151294,374.366341L427.174356,363.113997Z " data-id="14" data-name="Novohradské hory" id="14"/><path d="M836.138296,285.213015L830.889420,276.587046L823.771584,276.787632L807.132097,294.041223L802.116645,308.490839L806.783852,310.899515L817.019347,311.702432L836.138296,285.213015Z " data-id="15" data-name="Chriby" id="15"/><path d="M132.629013,54.385896L116.141432,52.791245L107.005316,65.550674L90.875008,86.295608L95.351059,95.874747L106.467738,92.681380L118.608352,86.295608L129.010750,73.527900L134.718762,65.550674L134.363018,60.765292L133.103525,60.765292L132.629013,54.385896Z " data-id="16" data-name="Doupovské hory" id="16"/><path d="M279.255742,174.213469L248.863294,190.222838L239.468227,199.831828L235.249329,211.045420L233.557869,222.262272L242.118298,235.085409L252.254136,235.085409L268.360182,230.276255L276.739001,223.864940L289.808965,212.647630L296.291247,198.230158L298.968956,183.818238L297.206381,177.414772L290.511047,172.612926L289.246719,172.612926L279.255742,174.213469Z " data-id="17" data-name="Brdy" id="17"/><path d="M423.761523,0.000000L424.860444,1.489328L433.656510,6.459045L438.765796,4.905386L438.033264,0.000000L423.761523,0.000000Z " data-id="17" data-name="Jestedsko-kozákovský hrbet" id="17"/><path d="M965.143753,264.553527L952.934169,267.762151L941.968443,272.374950L933.469057,281.200737L928.976444,295.445860L930.443242,304.075232L935.913864,306.483697L945.062884,305.881570L953.050279,299.860698L962.606592,288.824357L968.882821,276.787632L967.541399,264.754059L967.402603,264.954592L965.143753,264.553527Z " data-id="19" data-name="Javorníky" id="19"/><path d="M387.337160,246.910295L412.860697,202.034237L417.053842,183.618113L410.729783,160.411193L397.569706,154.012011L381.840419,154.811843L358.034493,165.211363L340.465488,166.811568L328.391978,182.017148L319.972525,195.627589L299.424078,224.465957L298.613695,246.910295L303.153626,256.532986L322.386708,275.784712L334.300520,282.203774L348.259066,282.203774L361.841530,277.389394L364.127887,274.180086L365.396510,274.180086L387.337160,246.910295Z " data-id="20" data-name="Stredoceská pahorkatina" id="20"/></g><g class="" id="river"><path d="M259.625056,0.000000L260.906779,3.135128L259.730319,9.550625L267.841320,15.967393L274.682464,17.036978L284.902091,18.106598L290.486070,24.525063L296.071758,30.944805L306.210294,30.944805L312.534895,25.594932L318.883463,30.944805L323.456620,35.225342L328.205254,41.647216L333.042469,49.141022L336.015301,54.494811L338.142938,59.849494L343.654342,65.205072L349.167218,70.561547L360.109690,80.205463L363.670605,82.348952L371.640253,86.636361L375.960976,87.708304L383.756702,89.852297L388.836351,89.852297L394.004757,90.924348L403.406876,91.996434L409.333572,91.996434L413.566925,91.996434L422.431109,86.636361L425.727150,85.564455L439.754995,81.277190L445.770335,82.348952L450.427534,97.357411L460.440642,115.591504L467.492339,118.810374L482.654967,117.737381L497.263680,110.227447L507.686389,111.970665L531.727174,111.970665L547.530566,113.445772L555.485421,111.166091L559.578496,105.936855L553.127975,95.212912L552.692561,75.918919L557.555218,54.494811L566.184956,46.999756L546.904905,29.874759L536.480945,26.664835L527.927214,15.967393L532.421262,9.550625L523.598033,5.273486L518.248129,2.066002L516.841143,0.000000 " data-id="1" data-name="Labe" id="1"/><path d="M333.249116,53.455105L323.361371,56.149670L313.949290,58.170742L306.826337,62.213269L309.017993,69.625894L314.141928,80.410965L320.431958,85.804867L322.778812,88.502160L325.451189,95.246394L330.625157,99.968209L331.961970,103.341364L329.460379,105.365429L326.432787,114.137870L327.505485,120.887555L328.152252,128.991121L326.828606,145.875818L328.005445,153.983539L331.529615,158.038130L333.986654,162.093202L336.927464,178.994430L339.064781,192.521178L341.629785,197.933274L344.569593,201.316233L349.060344,204.022818L352.589430,208.083059L354.514792,212.143729L352.588604,221.620277L348.521960,224.328280L343.171877,224.328280L337.286785,224.328280L332.788903,228.390630L332.781865,235.162122L336.898134,239.902832L339.786019,242.612053L342.350359,248.031020L343.685521,251.418227L345.767678,257.515873L348.713612,269.411211L343.259245,273.435392L337.957599,279.569172L345.553663,283.183594L350.243698,300.884156L352.797014,309.131326L352.801778,320.572345L354.398429,327.357395L355.196719,330.750242L354.793378,334.228130L353.245881,335.924740L353.331406,339.657466L350.367064,341.269402L347.530123,345.426712L341.971946,347.378207L338.294794,355.524285L337.404996,365.029454L333.030330,371.140698L337.284017,384.723344L340.846373,396.270780L340.616092,400.346807L338.130413,403.064288L330.494271,401.705534L322.756980,398.988105L312.919505,396.950102L297.265922,396.270780L293.399130,394.912157L286.154266,391.515717L281.012265,387.440211L270.719401,371.819762L268.169064,366.387456L265.719144,362.313539L262.194859,358.239894L258.133934,354.166527L252.999355,350.093440L246.741814,345.341866L232.033995,335.161259L225.343485,331.768137L221.776643,327.018122L222.165325,324.982529L221.282763,320.233115 " data-id="2" data-name="Vltava" id="2"/><path d="M326.953646,122.324095L315.599240,127.049944L306.800444,137.179109L288.182947,137.854499L277.040392,131.776492L272.773673,131.776492L269.197649,133.802368L258.414005,139.205321L250.397455,145.960264L247.024631,150.689541L244.132438,154.743738L240.325944,160.825941L238.447548,164.205409L233.518285,169.613243L226.729129,171.641397L223.956826,170.289281L216.226064,166.909221L210.886295,166.909221L205.799535,170.289281L202.696322,171.641397L199.491948,171.641397L193.617261,171.641397L192.498864,170.965332L190.846472,170.289281L187.058044,169.613243L181.901276,164.881342L178.797671,166.233248L175.793591,168.937218L173.418428,170.981845L169.570100,173.536712 " data-id="4" data-name="Berounka" id="4"/><path d="M330.090596,146.635834L345.943485,151.365207L352.084759,154.743738L363.293652,154.743738L376.843111,150.689541L388.254070,146.635834L397.270193,145.960264L406.452251,147.311418L415.212705,150.013889L417.203093,154.743738L419.360409,161.501808L432.142028,167.585207L448.076665,172.993564L457.297017,181.107651L467.420775,187.194421L485.224354,189.223570L504.441906,195.311692L511.199194,199.370994L526.092498,204.784080L541.525367,210.197938L551.382891,212.905152L565.404348,214.258830L572.357116,214.258830L576.042400,213.581985L581.273270,212.228331L582.760254,210.874723L583.177578,209.521164L582.525388,208.167651L581.931947,207.490913 " data-id="5" data-name="Sázava" id="5"/><path d="M337.607841,279.304507L327.382481,269.120685L320.339673,254.212874L318.523985,251.502911L314.462266,247.438287L310.453521,244.051398L304.735388,239.310214L301.040470,239.987493L297.069524,244.051398L296.309799,248.115697L295.756545,254.890392L294.995578,258.955720L292.730161,264.376745L289.288896,268.442948L273.674649,274.542944L262.319157,273.187318L245.505244,270.476189L240.046295,269.120685L229.565253,265.054419L223.086459,264.376745L217.343120,266.409800L212.769971,269.798432L209.217746,272.509521L200.503130,277.932183L189.349826,286.745366L190.814301,292.169682L192.815115,297.594610L190.037408,303.698374L184.185589,304.376616L176.920412,300.307301L175.602757,304.376616L172.965578,312.516237L173.013992,313.194598 " data-id="6" data-name="Otava" id="6"/><path d="M348.761899,268.442948L351.391587,264.376745L353.296234,261.327336L354.669720,251.502911L356.893390,249.131833L360.963892,246.422192L371.591533,242.019396L380.102942,241.342084L383.235557,243.712724L387.603802,254.890392L391.169328,266.070951L390.634817,272.848418L390.018750,275.220772L389.161119,281.321672L389.670049,284.372423L389.616036,287.084368L389.668796,291.152576L391.035213,294.882070L392.321554,297.594610L394.412525,300.307301L396.235532,303.020140L400.096067,311.159543L403.124560,322.353337L405.402589,330.835066L406.743355,334.228130L408.943121,338.300082L415.036508,344.069190L424.514978,355.269703L433.961783,365.803737 " data-id="7" data-name="Luznice" id="7"/><path d="M732.616179,80.495237L734.319275,87.237776L733.486191,95.330706L728.019909,110.847920L727.404450,127.049944L728.068244,139.880753L743.954117,150.013889L746.186694,156.771018L745.812679,164.205409L748.797581,167.585207L754.108388,172.993564L771.932785,186.518062L785.265291,191.929278L797.939923,195.988211L801.314176,203.430736L807.529066,218.320147L811.132898,233.892381L814.925401,251.502911L820.379908,258.278139L835.670183,267.087506L838.604016,269.798432L843.120017,277.932183L846.028683,286.067370L846.856083,294.882070L848.160911,314.551346L843.490347,322.014095L840.585427,325.406604L835.595124,329.477899L830.728660,334.906768L826.334326,339.657466L817.353291,347.123660L807.230138,353.911951L802.993688,354.590823L798.343289,356.627486L794.291226,359.343146L791.850610,362.058928L778.795461,372.244181L776.828329,374.281430L773.735563,381.751898L771.888854,385.147847L770.102298,389.223215L769.390905,393.298827L763.818600,404.801759 " data-id="8" data-name="Morava" id="8"/><path d="M554.261715,80.495237L559.289625,80.158148L564.347379,80.158148L573.252147,81.506527L580.414662,84.203457L585.805031,87.912108L591.759288,91.958402L599.785035,95.330706L612.492634,100.389834L620.636538,102.076389L630.646222,103.763033L641.046174,106.799220L644.509921,106.799220L648.916323,105.449768L658.538683,105.787125L669.208587,108.823505L674.928480,110.173101L676.105485,108.486115L676.482963,106.799220 " data-id="9" data-name="Orlice" id="9"/><path d="M836.699763,193.282206L840.052118,189.223570L843.338213,184.489063L851.104452,176.374209L863.333778,170.289281L871.204885,174.345783L872.404619,175.698054L875.272687,177.726557L890.884115,189.899978L903.501186,198.694413L910.454157,193.282206L925.819965,186.518062L935.701297,178.402750L942.641020,172.993564L944.372592,168.937218L946.502017,163.529489L949.426461,155.419484L954.288519,150.689541L962.747142,144.609165L968.000564,138.529903L968.885594,128.810806L938.078661,93.481172L924.925028,48.373480L895.808343,0.000000 " data-id="10" data-name="Odra" id="10"/><path d="M989.420263,239.987493L993.499695,237.955689L996.907761,234.569571L995.498610,231.183734L989.937648,223.735889L982.096211,209.521164L972.442450,187.870791L966.869156,169.613243L964.121240,163.529489L960.828950,152.040886L960.090921,150.013889L959.284756,147.311418 " data-id="11" data-name="Ostravice" id="11"/><path d="M762.062467,404.801759L760.352781,396.016036L754.597250,379.714412L746.222856,370.206997L733.853963,364.095844L722.563959,357.985301L716.650283,351.875381L706.859973,350.517707L702.621824,351.196540L697.487749,353.911951L693.367838,355.948591L689.247303,357.985301L686.141672,359.343146L683.213278,362.737893L685.363071,362.737893L682.132910,368.848911L679.858132,373.602340L676.389068,376.997864L672.322527,379.714412L666.407350,379.714412L657.324126,380.393567L653.980908,379.035264L645.812262,371.565112L633.172519,362.058928L616.777949,352.554229L613.132521,353.911951L609.179853,357.985301L599.908807,362.737893L595.243448,364.774831L583.752530,355.948591L574.105958,349.838882L562.200598,342.372332L556.405763,343.729814L553.889738,345.766098L549.761739,347.802454L545.576830,349.160064L539.186437,349.838882L528.699530,346.444875L519.177368,341.693603L516.324748,339.657466 " data-id="12" data-name="Dyje" id="12"/><path d="M703.039575,349.838882L697.547300,336.264069L693.250780,330.156478L691.997770,328.120767L683.289319,320.657153L675.716734,313.872968L670.649508,311.159543L667.907350,310.481209L664.032902,309.124569L658.072055,308.446263L643.527677,307.767966L627.022983,303.020140L608.564351,294.203959L598.692353,285.389384L580.669717,275.220772L570.372029,273.865126L566.027332,273.187318L559.079533,267.087506L552.802857,256.245459L545.916971,250.825446L529.760116,243.374053L523.757302,242.019396L519.531613,242.696719L516.546847,245.406121L514.210245,249.470550L513.479271,253.535367L513.566226,260.988526L512.467646,267.087506L509.703934,272.509521L507.305917,275.898610L500.675319,279.965847L498.587333,280.643755L498.643327,281.321672 " data-id="12" data-name="Jihlava" id="12"/><path d="M704.949209,347.123660L704.947566,341.014883L706.915978,338.978770L710.671447,332.870879L713.531753,328.799329L711.023123,324.728085L706.904688,320.657153L704.276589,315.229734L703.198167,309.124569L703.553921,307.089677L703.788942,303.698374L703.064770,295.560191L698.110973,288.101387L693.580714,285.389384L689.526912,281.999600L683.865862,278.610061L679.813579,275.220772L672.962683,270.476189L670.103642,268.442948L667.304833,267.087506L665.338044,263.021426L662.656006,256.923008L659.914315,250.147993L656.517585,242.019396L654.966987,236.601208L651.510769,227.798179L646.384190,212.228331L638.951907,206.814187L635.563844,204.784080L630.687443,198.017844L624.388656,193.282206L617.557027,188.547175L612.688062,187.870791L605.741449,187.870791L598.557383,185.165384L593.630077,183.812756L592.027232,183.812756 " data-id="13" data-name="Svratka" id="13"/><path d="M702.641890,290.813546L705.789680,284.033441L708.763403,281.321672L708.144933,268.442948L700.743594,257.600568L700.500361,254.890392L701.619930,249.470550L698.381389,237.278443L692.513810,219.674013L688.281149,214.258830L678.383297,199.370994L672.413731,186.518062L668.704332,175.021912L667.436558,166.909221L665.117219,164.881342L664.522133,164.205409 " data-id="14" data-name="Svitava" id="14"/><path d="M948.153388,152.040886L941.808632,147.311418L932.128952,141.231659L917.988440,138.529903L901.451098,138.529903L896.849099,135.153022L884.513919,123.674265L870.785981,108.823505L865.590268,104.775063L856.865488,102.751036L847.469666,110.173101L834.737803,116.246992L824.815205,112.872464L817.895908,107.473967L803.671065,92.632834L797.496484,83.866328L796.235673,81.843631 " data-id="16" data-name="Opava" id="16"/><path d="M376.706288,88.586454L379.767161,80.495237L380.863165,74.428171L381.116716,71.058077L384.030803,67.688338L388.596301,64.992802L391.508485,61.623702L394.501621,52.865699L395.896178,44.110085L397.650126,33.337217L399.704555,19.876192L403.138971,16.511812L407.046438,12.475019L410.535767,9.784102L418.100405,5.075536L429.285637,0.000000 " data-id="17" data-name="Jizera" id="17"/><path d="M170.727226,172.655517L172.827139,179.417064L177.449458,184.150908L183.041838,187.532604L189.854085,192.943970L196.734164,206.475828L204.302219,222.043390L199.587303,223.397383L194.336913,224.751423L191.325512,227.459639L187.540363,234.230975L186.280970,238.971578L187.746973,244.390075L188.726911,250.486718L186.345305,254.551632L178.410290,255.906688L176.317042,256.584232L175.781460,256.584232 " data-id="18" data-name="Úslava" id="18"/><path d="M169.373528,176.036130L170.167872,186.856240L171.148473,192.943970L169.406580,198.356127L166.931427,201.062500L162.901029,204.445740L157.515185,218.658609L150.806836,229.490921L147.547271,236.262595L144.379277,251.841647L141.991492,255.906688L137.508340,260.649718L132.038935,274.204034L131.742255,277.593248 " data-id="18" data-name="Úhlava" id="18"/><path d="M169.423219,176.712291L166.851692,178.064652L160.688823,181.445778L156.760160,186.179888L151.859291,192.267505L140.443618,197.003014L133.446208,196.326476L124.018831,199.032702L110.354664,209.859549L106.794683,220.012487L101.540769,221.366411L95.751370,222.720381L81.936359,224.074397L81.385218,231.522305L84.138748,240.326136L86.357164,249.131833L79.349382,248.454406L78.278505,248.454406 " data-id="19" data-name="Radbuza" id="19"/><path d="M168.690315,174.007724L159.511532,172.655517L153.102564,172.655517L144.311388,169.275229L138.191811,165.895267L134.988059,165.895267L125.666660,162.515633L119.211198,161.839746L114.212208,166.571233L110.230939,170.627305L105.665916,174.007724L101.489389,175.359982L87.020068,174.683846L83.137995,172.655517L77.463588,167.923205L66.890441,161.839746L63.058411,160.488012L51.596291,164.543374L44.702104,165.219313L31.747381,163.191533L21.069187,163.191533L20.094175,164.543374 " data-id="20" data-name="Mze" id="20"/><path d="M914.461168,230.168038L912.089987,227.798179L904.607594,222.381884L890.872679,218.658609L883.449388,219.335542L878.667762,219.674013L876.665013,218.320147L870.781103,218.320147L861.850074,220.012487L851.248437,221.027925L844.145907,225.089940L837.511932,228.475267L835.029036,230.506600L830.437105,232.876618L822.269774,234.230975L819.893326,234.569571L818.115734,235.585377L814.387891,238.632946L812.940961,240.326136L812.673314,240.326136 " data-id="21" data-name="Becva" id="21"/><path d="M0.000000,101.933929L3.636276,97.697218L10.769884,98.834149L18.170006,98.265679L22.228698,94.855069L28.739867,91.688402L35.179608,88.440865L43.327329,83.083154L53.584008,82.190290L65.996075,80.972788L69.597070,77.564029L74.665028,74.074487L80.560034,73.181875L93.355514,70.260772L97.408813,69.611675L102.999591,68.962590L107.004900,67.664461L111.474633,65.717366L115.479033,64.419368L123.400331,64.987236L134.080397,64.743863L139.496494,62.634707L146.668730,60.039015L151.439494,57.038007L157.429029,56.632487L164.877221,60.282352L168.810868,58.092383L180.188036,52.739755L183.674980,51.442283L190.458202,53.064132L194.240867,56.470280L204.726966,52.091013L210.469078,49.334003L215.233365,48.847496L223.226911,46.252918L229.733156,44.307123L235.980009,45.604307L239.564994,45.604307L244.482710,43.009991L250.525685,41.712912L261.528456,40.010574L266.809044,40.415885L269.778247,39.118910L276.584479,34.579909L281.485159,33.445259L281.641147,29.798440L279.557743,26.152033L278.749312,24.045408L279.701890,18.374407L279.182707,17.483340 " data-id="3" data-name="Ohre" id="3"/></g></svg>