<?xml version="1.0" encoding="utf-8"?><!DOCTYPE svg  PUBLIC '-//W3C//DTD SVG 1.1//EN'  'http://www.w3.org/Graphics/SVG/1.1/DTD/svg11.dtd'><svg enable_background="new 0 0 1000 474" height="474px" pretty_print="False" style="stroke-linejoin: round; stroke:#000; fill: none;" version="1.1" viewBox="0 0 1000 474" width="1000px" xmlns="http://www.w3.org/2000/svg" xmlns:xlink="http://www.w3.org/1999/xlink"><defs><style type="text/css"><![CDATA[path { fill-rule: evenodd; }]]></style></defs><metadata><views><view h="474.646593407" padding="0" w="1000"><proj flip="auto" id="robinson" lon0="13.8501256986"/><bbox h="38.38" w="81.03" x="161.18" y="-850.29"/></view></views></metadata><g class="" id="mountains"><path d="M301.787980,449.300676L282.434877,423.217878L241.255682,380.686597L202.658815,357.377598L174.560800,343.671691L143.137508,343.671691L131.413801,346.412550L120.965852,351.894753L123.813586,361.490147L128.636484,368.345170L137.994503,377.943797L143.711395,382.058051L164.420779,398.518302L203.422621,427.335490L228.632616,445.181632L248.024400,457.539522L279.602873,472.646593L285.043971,472.646593L291.470728,471.273093L296.294279,463.032633L297.748152,453.419974L301.787980,449.300676Z " data-id="1" data-name="Sumava" id="1"/><path d="M201.448370,58.383405L210.240364,47.513296L211.420835,48.871856L213.663245,36.646893L213.446312,33.930871L213.120723,29.857269L208.508686,25.784187L186.432903,17.639575L98.661775,61.101513L44.176618,93.737010L49.660831,110.067422L61.103751,119.597416L112.054934,96.458157L128.831551,91.016098L201.448370,58.383405Z " data-id="2" data-name="Krusné hory" id="2"/><path d="M277.801709,47.513296L262.898680,48.871856L208.208208,62.460655L201.554318,73.335882L199.827717,92.376525L228.505557,88.295421L255.662873,78.774895L284.278610,61.101513L282.871646,57.024438L277.801709,47.513296Z " data-id="3" data-name="Ceské Stredohorí" id="3"/><path d="M551.064546,57.024438L519.177409,36.646893L468.411329,20.354215L450.680332,25.784187L454.988168,50.230475L477.995085,55.665530L525.599191,71.976274L545.043360,73.335882L544.671701,69.257234L551.064546,57.024438Z " data-id="3" data-name="Krkonose" id="3"/><path d="M419.003715,43.437961L433.535436,25.784187L425.314412,5.426531L414.130125,0.000000L387.355409,12.210982L400.658047,42.079632L400.540496,40.721360L419.003715,43.437961Z " data-id="4" data-name="Jizerské hory" id="4"/><path d="M648.572776,164.718902L644.875835,153.656827L622.475730,120.959080L575.325437,99.179539L567.267525,116.874265L597.716182,144.116444L626.753598,167.291026L641.384000,174.110373L647.469075,170.018585L648.572776,164.718902Z " data-id="5" data-name="Orlické hory" id="5"/><path d="M748.547042,197.450639L766.546063,182.826960L761.718103,175.822467L755.862099,165.927337L722.937535,148.204822L707.441348,155.019978L687.321901,170.018585L701.619888,206.064032L721.565125,220.087980L730.541430,213.837992L748.547042,197.450639Z " data-id="6" data-name="Hrubý Jeseník" id="6"/><path d="M997.163064,260.160761L969.734011,256.058277L918.304642,282.048357L900.988216,314.902858L913.414229,321.742934L951.046548,306.686736L987.507599,282.048357L997.342513,272.470963L998.944361,266.999258L998.804267,265.631457L997.163064,260.160761Z " data-id="6" data-name="Beskydy" id="6"/><path d="M499.179521,364.232040L541.387794,350.524142L560.450360,332.709916L578.897581,283.416752L580.095942,260.160761L567.968489,245.120609L503.348013,209.597093L457.664175,217.791489L427.404358,230.086880L414.505951,243.753637L386.306906,282.048357L383.549619,314.902858L390.706415,323.120586L399.059404,332.709916L407.194884,339.560713L446.908721,361.490147L474.918735,372.458642L483.595623,372.458642L490.846580,368.345170L499.179521,364.232040Z " data-id="7" data-name="Ceskomoravská vrchovina" id="7"/><path d="M884.547437,365.607009L870.145464,365.603045L800.258742,410.690378L793.206056,424.772097L801.428984,435.181595L826.832162,429.711972L899.239730,386.172634L903.746199,378.349212L905.376489,371.087447L884.547437,365.607009Z " data-id="8" data-name="Bílé Karpaty" id="8"/><path d="M71.213601,306.686736L62.232040,271.102962L42.454867,235.552933L18.963138,208.231560L8.177690,208.231560L1.055639,230.086880L9.412429,257.425720L31.125850,290.259449L54.656823,317.641924L63.317689,317.641924L71.213601,306.686736Z " data-id="9" data-name="Ceský les" id="9"/><path d="M702.371540,257.294273L661.681367,244.781877L652.367112,251.037526L649.265119,271.375878L663.113896,315.218314L677.332856,335.589598L700.877879,335.589598L709.598055,308.952183L708.679292,285.462771L708.183693,266.681413L706.786357,261.596414L702.371540,257.294273Z " data-id="10" data-name="Drahanská vrchovina" id="10"/><path d="M698.155325,146.409702L710.020708,141.733080L713.900444,130.823689L711.806296,109.016311L698.465941,98.118301L681.111090,96.561750L679.839268,109.016311L688.651967,137.057160L691.261232,138.615722L698.155325,146.409702Z " data-id="11" data-name="Rychlebské hory" id="11"/><path d="M764.736092,192.045697L748.801904,209.224498L730.923616,232.273930L750.424729,255.729984L783.941469,257.294273L799.497553,213.520633L778.639573,195.558786L770.480573,190.874755L764.736092,192.045697Z " data-id="12" data-name="Nízký Jeseník" id="12"/><path d="M197.095492,194.778066L162.507008,177.605167L100.539765,172.923847L79.931043,246.345685L87.335007,263.552099L115.544888,277.636077L184.338849,271.375878L199.179343,238.527339L200.989239,213.520633L197.095492,194.778066Z " data-id="13" data-name="Plzenská pahorkatina" id="13"/><path d="M394.214685,421.872210L372.484990,398.326445L336.199589,410.882978L339.978355,443.856663L353.383266,456.422580L371.924637,454.851713L382.141465,442.286091L386.500896,434.433807L386.377782,432.863467L394.214685,421.872210Z " data-id="14" data-name="Novohradské hory" id="14"/><path d="M793.689441,345.778764L788.562355,337.352943L781.609674,337.548875L765.356273,354.402131L760.457194,368.516473L765.016108,370.869260L775.014109,371.653548L793.689441,345.778764Z " data-id="15" data-name="Chriby" id="15"/><path d="M106.503674,120.307523L90.398654,118.749872L81.474523,131.213244L65.718486,151.476834L70.090679,160.833709L80.949418,157.714438L92.808334,151.476834L102.969364,139.005375L108.544934,131.213244L108.197444,126.538898L106.967175,126.538898L106.503674,120.307523Z " data-id="16" data-name="Doupovské hory" id="16"/><path d="M249.728224,237.354738L220.040972,252.992643L210.863899,262.378675L206.742892,273.332079L205.090679,284.288666L213.452480,296.814268L223.353136,296.814268L239.085474,292.116701L247.269880,285.854147L260.036581,274.897113L266.368455,260.814168L268.984033,246.736648L267.262355,240.481762L260.722373,235.791333L259.487381,235.791333L249.728224,237.354738Z " data-id="17" data-name="Brdy" id="17"/><path d="M384.337862,32.893072L376.475821,23.195964L369.650076,20.999909L367.555363,28.309994L371.426617,38.956490L375.701586,46.611370L391.954463,68.638313L400.546435,73.492717L405.537170,71.975108L404.121305,62.493807L395.016950,49.225302L384.337862,32.893072Z " data-id="17" data-name="Jestedsko-kozákovský hrbet" id="17"/><path d="M334.677802,36.265214L335.689447,27.324798L329.269953,21.036170L319.693619,17.701889L307.452576,10.734527L302.681748,12.286883L295.976598,20.049791L295.236790,27.701551L297.761707,35.430510L302.954913,39.258002L315.572137,43.501994L326.462324,41.379927L334.677802,36.265214Z " data-id="18" data-name="Luzické hory" id="18"/><path d="M919.701587,325.598637L907.775302,328.732812L897.064013,333.238580L888.761838,341.859583L884.373467,355.774176L885.806232,364.203321L891.149918,366.555902L900.086654,365.967746L907.888717,360.086577L917.223296,349.306312L923.353897,337.548875L922.043600,325.794517L921.908025,325.990397L919.701587,325.598637Z " data-id="19" data-name="Javorníky" id="19"/><path d="M355.301831,308.364781L380.233146,264.529981L384.328998,246.541166L378.151675,223.872716L365.296951,217.622014L349.932631,218.403288L326.679073,228.561509L309.517722,230.124584L297.724353,244.977349L289.500257,258.271987L269.428595,286.441219L268.637015,308.364781L273.071606,317.764197L291.858423,336.569226L303.495800,342.839347L317.130465,342.839347L330.397776,338.136674L332.631083,335.001832L333.870270,335.001832L355.301831,308.364781Z " data-id="20" data-name="Stredoceská pahorkatina" id="20"/></g><g class="" id="border"><path d="M319.926753,0.000000L309.930999,3.358184L306.968370,2.541627L306.198483,1.142732L306.955515,0.000000L280.688891,0.000000L281.287766,1.401980L278.817785,2.913409L279.418491,6.381297L273.356785,6.055098L273.324235,7.680806L266.642488,9.393288L260.582386,7.135599L255.304954,8.686840L254.211331,14.327265L233.704691,20.983075L232.166674,23.661689L224.788449,25.308832L218.182300,22.149283L212.635135,24.684962L213.066641,26.020972L210.612987,28.137703L204.555796,27.449103L202.791249,32.030662L205.466674,35.532905L204.881995,37.213387L202.159341,38.543831L199.172374,37.527726L198.384955,40.680421L182.993436,38.943432L180.303582,40.667481L178.276242,39.375006L175.263049,41.037421L175.118674,42.712865L168.243798,39.718291L158.809116,44.082363L151.505079,43.187120L147.004048,45.088780L150.194648,50.591140L147.748602,56.185838L147.602805,58.213940L143.441761,59.779086L138.808762,65.675545L130.791432,62.792306L126.677514,56.805754L123.283844,55.961178L124.690427,60.527794L116.638978,64.448327L116.872034,69.718616L111.805829,71.043563L109.620185,67.452848L104.852064,67.641021L101.257044,73.462744L102.434875,76.093194L97.527104,82.981255L97.797980,85.378481L88.516447,84.746571L87.698801,82.378356L80.500044,85.976101L71.904240,84.085709L70.957738,96.676479L65.606685,102.077224L59.167193,103.720814L39.126461,94.064901L37.347921,97.244574L35.417388,96.133559L26.146162,99.581876L22.232938,104.453784L22.296769,106.555923L16.659252,102.645416L12.966133,103.870305L7.810227,102.897864L5.302952,104.858030L0.000000,105.515158L0.000000,200.921423L3.833910,202.078303L4.409304,205.939304L0.272984,209.824492L0.000000,210.810471L0.000000,249.054046L2.928274,248.961029L4.513046,253.081025L2.857940,257.449029L4.727905,258.508158L4.911510,260.005969L5.785365,261.104764L6.564416,262.643421L10.047112,262.446058L10.928168,267.147105L13.111164,269.144062L13.018123,274.541361L16.046086,278.461539L20.862996,281.151801L23.200024,280.055221L24.651908,281.858843L25.153499,289.525938L23.632098,291.277072L26.233209,293.139511L27.723160,299.652596L36.256443,301.637417L37.356555,303.785000L44.446961,307.656152L44.791185,311.592899L48.701355,314.583694L48.462511,317.046636L49.688735,317.586216L58.764504,317.621523L64.269507,320.205920L66.182174,320.072360L64.559747,316.554651L74.623945,317.827225L79.482774,319.901956L85.439937,325.514902L88.889366,325.846544L88.700144,330.964271L90.222119,333.986359L93.608488,333.965628L94.577954,336.664642L97.913525,337.305058L99.010024,340.929646L103.634111,343.140633L103.189205,346.211158L113.311587,352.170769L114.394765,354.054284L113.637916,358.119614L115.759857,360.044851L124.590561,364.251294L132.933195,363.236336L151.105161,376.858181L150.417219,378.727276L153.728249,386.517953L152.937570,389.686515L156.864840,392.676913L168.938858,398.993427L170.389934,398.791220L169.811424,393.365728L181.435857,393.035157L185.903002,398.888863L188.629543,399.430136L197.348791,411.307941L204.591210,411.693222L207.846332,410.142888L212.883515,420.546148L217.466722,421.357598L216.727057,422.374426L221.504909,428.076521L219.914610,431.257404L221.499090,432.698278L230.075714,432.930606L238.691523,438.703688L241.623967,443.073854L252.078587,445.786120L255.591030,448.454638L255.903805,450.268337L261.953622,452.460694L261.283918,456.296910L256.996625,456.615514L255.237220,459.006632L256.704856,461.230052L261.146485,461.818050L260.386496,463.711376L261.924577,466.352881L271.006615,469.326999L285.035831,468.333304L292.116601,471.496088L297.436533,471.115069L298.649815,472.646593L311.727482,472.646593L311.835620,472.347423L312.336334,472.646593L315.636466,472.646593L316.247132,468.986786L323.175167,468.568834L325.605513,464.543378L324.212060,458.706487L327.765541,457.867503L327.902615,457.996728L329.900525,459.840472L332.761218,462.517939L332.727577,462.690585L332.644658,462.917175L332.735820,463.289718L333.720983,463.872024L333.820232,463.998292L333.898241,464.116903L334.605599,464.245174L334.822247,464.169133L335.182827,463.946932L335.768039,463.784955L336.428673,463.876743L339.512494,464.985093L340.565225,465.374168L342.040000,465.925877L342.670738,466.152104L342.880132,466.220914L343.088715,466.283469L343.296123,466.336951L343.501862,466.377544L343.705267,466.400142L343.905467,466.398011L344.102296,466.365576L344.295908,466.308333L344.487186,466.233079L344.676798,466.144953L344.865241,466.047786L345.052882,465.944394L345.426749,465.726513L345.799737,465.501476L348.973543,463.558994L349.346857,463.336347L349.532985,463.230550L349.718476,463.131319L349.903008,463.041964L350.086129,462.967108L350.267216,462.913131L350.445423,462.888727L350.619607,462.905616L350.786580,462.972422L350.949534,463.080481L351.109530,463.218925L351.267375,463.379454L351.423679,463.555811L351.578897,463.743333L351.733363,463.938591L352.040940,464.343066L353.451541,466.257624L356.656061,465.521628L358.518942,466.898589L360.186054,470.856439L366.526319,470.503133L368.854013,466.896280L368.392703,459.250596L366.882028,456.572418L368.322372,451.458773L369.995034,447.328892L376.549988,444.611176L380.747605,440.314768L379.723463,437.476556L381.509821,435.120068L380.583024,431.512035L391.670732,430.830456L393.036977,432.548265L404.956997,435.463958L407.819381,432.774438L407.941861,430.693525L403.610119,428.500373L405.242121,419.060953L406.959430,417.924201L405.422362,412.521468L407.483559,411.408683L408.150122,406.677090L405.779681,401.078591L404.606912,393.320370L407.630579,388.567273L407.039845,384.940661L412.286528,383.701614L417.845655,383.824595L418.416215,387.904656L432.586558,387.963076L435.033221,393.353428L435.123402,396.967542L437.673101,397.711767L443.504978,394.724164L449.917416,395.776649L451.941942,393.225812L452.368240,387.733238L456.460209,390.840374L465.678053,390.598991L475.455863,397.364256L483.006483,396.938327L483.291482,398.752777L487.748282,399.419372L489.679782,404.803172L507.748455,407.698275L514.189696,410.810388L519.219373,415.349284L530.595897,416.319095L533.272451,412.517623L537.584218,412.293065L544.719353,414.563474L544.796235,414.776696L544.888303,414.968226L545.000962,415.130345L545.142838,415.260029L545.306343,415.358803L545.485685,415.434937L545.676451,415.494724L545.875323,415.542893L546.079839,415.582953L546.499091,415.648329L547.781019,415.812519L548.207391,415.874667L548.630837,415.951455L548.840819,415.999331L549.049117,416.056788L549.255174,416.127260L549.460236,416.214306L549.663082,416.314497L549.864333,416.424270L550.263811,416.662445L550.859115,417.043564L551.450572,417.436902L551.839664,417.704862L552.030852,417.841676L552.218381,417.981415L552.400681,418.125233L552.575636,418.274675L552.740435,418.431765L552.891391,418.599113L553.023736,418.780025L553.126531,418.960843L553.385073,419.517922L553.478135,419.682746L553.586809,419.822469L553.723969,419.934309L553.881226,420.016231L554.053551,420.075862L554.237028,420.119095L554.428651,420.150431L554.626135,420.173280L554.827751,420.190214L556.068087,420.254496L556.273592,420.270267L556.476933,420.291424L556.677105,420.320379L556.872800,420.360331L557.062304,420.415508L557.243375,420.491463L557.413107,420.595409L557.573086,420.737002L557.721493,420.907264L557.861745,421.097829L557.996608,421.301982L558.390841,421.943850L558.525505,422.152261L558.665453,422.349820L558.813444,422.530586L558.972888,422.687286L559.145562,422.813530L559.329846,422.915301L559.522677,422.999054L559.721712,423.069735L559.925184,423.131085L560.340524,423.236245L560.761893,423.329119L562.028483,423.593738L565.126102,426.295948L564.991670,428.282677L572.001049,431.595117L573.487172,434.266892L575.640773,434.160726L580.492118,437.583497L582.199242,435.417798L586.488821,436.824917L586.042245,439.144538L588.434784,439.943154L598.162819,439.477678L598.047516,437.890470L601.224749,437.695823L606.224326,438.217449L607.906074,440.847956L615.986834,440.471723L615.796592,438.501345L626.326152,438.383632L631.807070,440.401709L638.913227,436.689512L641.539027,430.492847L645.225575,428.179599L646.982108,427.235853L653.549502,426.686524L657.718868,424.327370L660.689266,426.216532L660.621856,429.344239L665.326188,431.888215L675.027573,431.482033L678.654040,434.074563L680.562714,441.464244L686.059312,439.689258L690.342566,440.695616L695.229704,445.079766L699.202327,445.670702L709.546984,445.638386L712.035598,442.466014L713.024456,442.814159L713.165920,442.995173L713.323301,443.169533L713.491913,443.339210L713.668296,443.505656L713.849934,443.669926L714.222275,443.994739L715.923499,445.446450L717.796727,447.067098L718.360417,447.846334L718.509848,449.785404L718.045654,450.870919L719.289742,453.139348L719.953993,453.782227L719.831146,454.342260L719.987663,457.062087L720.016259,457.435843L720.039646,457.620908L720.056168,457.712477L720.077690,457.805371L720.103071,457.897495L720.161616,458.080189L720.271389,458.381648L720.538207,459.074122L720.873552,460.200594L720.684771,461.629260L720.632968,462.079480L720.620746,462.226248L720.613183,462.369961L720.612303,462.509296L720.620836,462.642462L720.642439,462.767063L720.681942,462.879936L720.744995,462.980728L720.826701,463.069296L720.921927,463.149006L721.026813,463.222386L721.138495,463.291313L721.254871,463.357165L721.618969,463.544912L722.653314,464.052341L723.596129,464.523145L723.960341,464.120794L725.520526,462.418323L725.955432,461.925923L726.095372,461.758115L726.230820,461.587021L726.359942,461.411300L726.480293,461.229163L726.588651,461.038252L726.680821,460.835496L726.756175,460.609013L726.814445,460.370032L726.860442,460.122074L726.897741,459.867757L726.928964,459.609001L726.980238,459.083341L727.023767,458.552056L727.185111,456.417873L727.231611,455.888530L727.258415,455.626238L727.289127,455.366553L727.325470,455.110619L727.369792,454.859994L727.425248,454.616774L727.496013,454.383732L727.585761,454.162497L727.690883,453.951484L727.807162,453.747891L727.931412,453.549603L728.061264,453.355045L728.194979,453.163065L728.469334,452.783741L729.729411,451.094336L730.006790,450.716990L730.278898,450.335556L730.411252,450.141943L730.539645,449.945217L730.662431,449.744078L730.777399,449.536778L730.881618,449.321004L730.969424,449.103751L731.047177,448.878572L731.117523,448.647555L731.182484,448.412298L731.243596,448.174011L731.358582,447.691748L731.632642,446.475397L731.745842,445.991312L731.867577,445.513288L731.934058,445.278255L732.006211,445.047237L732.086048,444.821654L732.178740,444.594439L732.279602,444.373000L732.386398,444.155759L732.497436,443.941520L732.727517,443.518711L733.082154,442.891253L734.986424,439.554076L735.814817,438.089904L736.875899,436.202573L737.114084,435.786427L737.357546,435.377384L737.483021,435.177895L737.612478,434.983757L737.747517,434.797118L737.890257,434.620822L738.041590,434.458011L738.200556,434.305450L738.365067,434.160338L738.533544,434.020552L738.877988,433.751043L739.579724,433.229279L742.756098,430.904710L743.107184,430.644220L743.452796,430.377451L743.621563,430.239434L743.785933,430.096374L743.944043,429.946133L744.093398,429.785847L744.230702,429.611738L744.351116,429.424450L744.459859,429.223775L744.560068,429.013309L744.654128,428.795791L744.830513,428.347297L744.998409,427.889067L745.162711,427.426714L746.547127,423.481652L746.712747,423.020990L746.884880,422.568755L746.975657,422.348731L747.071503,422.135263L747.174508,421.931055L747.287457,421.739704L747.414004,421.565936L747.558413,421.412329L747.716622,421.276565L747.884891,421.153811L748.060381,421.040394L748.240961,420.933562L748.425058,420.831281L748.799535,420.634859L751.641915,419.207160L752.397423,418.823642L752.961046,418.530348L753.332374,418.326209L753.515425,418.219025L753.695792,418.106582L753.872483,417.986929L754.045868,417.857574L754.215535,417.720928L754.547523,417.433233L755.036006,416.983089L761.224400,411.123314L772.414043,414.277974L787.237024,421.667567L794.720426,421.477586L800.279574,418.298757L803.298818,418.516417L809.601357,424.930418L811.900448,425.494243L822.005184,420.883033L826.135490,416.528286L839.955607,415.284682L851.385552,403.345296L866.027498,401.787503L867.967384,399.999094L868.425679,389.312150L873.108276,383.245818L892.046105,380.783974L898.817546,375.579366L901.570334,368.186856L901.947603,361.391642L900.088313,359.084528L901.183957,349.802655L905.480395,332.308675L908.370348,329.636798L929.091269,324.276644L936.734959,320.080803L941.647097,315.230692L942.609599,312.471620L941.439947,308.230142L949.085178,306.053167L958.105915,298.775684L961.364491,293.009107L962.054204,285.543032L964.286594,283.916393L985.979327,285.866681L992.782743,287.922910L1000.000000,284.242596L1000.000000,250.302915L998.695809,249.341057L988.951024,250.395350L985.328759,247.729030L983.783259,244.124455L975.019304,244.265413L974.150226,246.094093L972.629856,246.118810L972.586558,246.031861L972.488472,245.794766L972.403069,245.550060L972.326928,245.299820L972.257447,245.045620L972.131161,244.529745L972.013993,244.008576L971.058185,239.558893L970.943169,239.036965L970.823245,238.517505L970.692511,238.003454L970.619931,237.750032L970.539961,237.500299L970.449887,237.255610L970.346018,237.013782L970.231809,236.777116L970.110075,236.544206L969.982953,236.313986L969.852039,236.085659L969.583235,235.632493L967.934241,232.931704L966.565354,230.678613L964.242594,226.845926L962.607646,224.135229L962.195137,223.462223L961.913730,223.021457L961.769172,222.805837L961.620630,222.595143L961.466611,222.391221L961.304189,222.193551L961.136198,222.002757L960.964178,221.816926L960.612415,221.454707L960.075390,220.922573L959.455277,220.316924L961.854241,218.184918L961.625550,216.376105L964.689862,214.510752L964.461678,212.701377L958.972454,212.795517L958.513974,209.177821L959.611911,209.159454L959.153973,205.542164L960.252596,205.523034L958.695205,201.925280L953.086914,201.117333L952.563489,205.657709L942.985069,205.834686L942.736658,205.752687L942.308242,205.622601L940.373580,205.051448L938.658930,204.533367L920.598967,197.540794L921.769894,200.436671L921.733798,200.449904L921.227876,200.547906L920.978817,200.603112L920.714759,200.670107L920.450969,200.749369L920.203017,200.841739L919.986756,200.948389L919.818108,201.070580L919.692435,201.216680L919.596811,201.395152L919.523659,201.600364L919.473299,201.796727L916.954315,202.713354L912.208370,200.092127L911.618999,195.572433L909.067769,192.906669L901.375496,193.071121L899.327476,185.863862L892.731282,186.008394L892.108955,189.649160L888.453577,187.012196L884.056816,187.111614L881.498873,184.449927L882.118582,180.811007L872.356740,173.791295L867.956719,173.895256L865.998714,175.754391L866.483342,179.367486L872.960249,178.306296L873.924558,185.532740L863.669519,183.059762L854.750254,190.534061L848.281346,191.604848L844.702293,190.431699L844.517532,190.281796L844.326151,190.138262L844.131693,190.001909L843.935000,189.870774L843.537296,189.618585L843.136414,189.373826L840.318232,187.688910L834.887567,184.427920L831.861411,182.630904L831.464206,182.382397L831.269353,182.252807L831.078587,182.117401L830.893639,181.973713L830.716830,181.818439L830.551219,181.647222L830.401717,181.459846L830.263098,181.256975L830.132432,181.042782L830.007490,180.820443L829.886596,180.592344L829.652318,180.125459L829.423210,179.651231L827.036758,174.647402L826.578032,173.699594L826.341421,173.233750L826.218954,173.005457L826.092117,172.782023L825.959207,172.565344L825.817990,172.357910L825.665569,172.160396L825.504742,171.972218L825.337791,171.790823L824.992008,171.441080L824.637437,171.100760L823.379434,169.922989L823.223966,169.776289L822.850342,166.898511L815.751814,163.470269L810.381967,164.378429L810.247349,164.336714L810.037381,164.264415L809.829331,164.185023L809.623968,164.095692L809.422311,163.992659L809.227315,163.874260L809.035955,163.742415L808.847242,163.600782L808.660427,163.452136L808.290389,163.141571L807.922914,162.821549L805.908387,161.037518L801.874942,157.488246L799.493906,155.384968L799.125722,155.067370L798.754155,154.760464L798.566084,154.614237L798.375649,154.475469L798.181969,154.346945L797.985990,154.231840L797.887673,154.180008L797.739223,153.112951L816.084204,149.874895L816.562196,145.334241L823.173592,145.153240L823.405358,138.810453L818.621670,136.225141L817.997654,131.717008L820.807752,128.020902L820.433945,125.317417L817.123349,125.407479L813.312073,121.892983L808.772083,121.114581L810.628344,126.491290L805.740509,131.153633L800.478216,133.113277L797.170465,133.208704L796.918000,131.405548L777.070712,131.995646L774.273847,135.702912L769.865201,135.839576L769.353431,132.233827L766.635785,128.697191L760.148655,129.807070L758.587567,134.383637L756.125477,132.651410L756.712765,129.010915L757.041627,123.568902L753.732900,123.674985L753.474518,121.873141L744.650385,122.160086L729.977722,112.693051L730.557331,109.053349L721.858031,110.255602L717.048170,107.706972L715.548860,105.044901L705.480051,104.494971L702.874075,101.873592L696.248920,102.112306L686.613600,97.036399L682.195960,97.201109L680.121564,98.183287L677.750770,104.608617L686.146002,108.820685L687.082035,115.123061L689.555153,116.842873L691.590889,123.106412L703.278063,127.208763L705.173548,132.575069L703.234639,134.456929L703.631677,137.161204L706.098542,138.883755L706.494724,141.588414L702.223058,142.649113L699.226444,137.320780L697.023766,137.401714L696.453614,141.047769L686.545272,141.415834L684.043846,146.948790L678.141314,144.452920L676.074155,145.438871L675.375955,148.185343L672.209722,149.214187L670.949058,155.611808L667.088491,159.390650L663.791222,159.520542L662.265939,164.116761L659.374170,166.953537L653.747178,166.271831L652.378284,164.512610L647.983979,164.690667L644.281465,162.120015L644.009966,160.315949L639.342356,158.693829L638.997532,156.411482L638.269180,155.794689L638.183743,155.614615L638.068224,155.435088L637.931141,155.255988L637.778854,155.077228L637.616053,154.898742L637.446152,154.720478L637.094201,154.364416L636.199583,153.472262L635.852524,153.108932L635.685395,152.923370L635.524952,152.733563L635.373829,152.537716L635.235555,152.333422L635.114802,152.117508L635.015079,151.886683L634.932891,151.644176L634.863456,151.393189L634.803154,151.136143L634.749278,150.874843L634.653380,150.344436L634.523039,149.540016L633.808973,144.965762L633.675248,144.164370L633.625708,143.901064L633.571440,143.641403L633.510292,143.387042L633.439342,143.140236L633.354672,142.904003L633.251104,142.682333L633.124150,142.478053L632.978235,142.288385L632.818566,142.109316L632.649083,141.937811L632.472724,141.771606L632.291651,141.609035L631.733692,141.132692L630.414990,140.034235L629.290138,139.088569L622.940543,133.714951L622.568642,133.396412L622.199774,133.072832L621.837176,132.738813L621.659900,132.565105L621.487049,132.386247L621.149332,132.015235L620.653385,131.441029L617.874985,128.134517L612.641850,121.918586L602.339532,119.459397L600.541495,115.007087L599.439505,115.055155L600.123290,112.306251L597.500082,109.703292L589.783506,110.045052L586.757357,111.992695L584.272044,110.292220L583.850436,107.592552L581.504930,106.792384L581.082824,104.093017L575.569457,104.343189L575.004678,100.744873L572.657304,99.946404L573.194904,96.298264L578.852621,96.946418L576.222634,94.348543L589.585793,87.408453L588.060158,84.760292L597.175718,86.168958L599.104555,84.273981L598.824789,82.475154L601.998740,81.432492L601.439893,77.836026L603.510565,76.841526L602.671850,71.448144L609.305852,71.163184L607.502396,66.716928L600.166009,62.509709L597.251464,58.113407L593.791232,57.360187L592.121389,53.815186L583.266259,54.205840L578.414049,51.709696L573.986182,51.908436L572.198870,54.703113L572.767312,58.296194L566.413923,60.395265L566.129294,58.598555L562.525060,56.955024L562.239679,55.158508L551.994895,53.825086L552.281755,55.621526L548.143660,57.625221L547.899443,63.066526L538.092864,64.439186L536.554468,61.798278L537.660233,61.744959L537.082650,58.152249L538.188865,58.098937L537.467084,53.609581L536.360532,53.662124L535.637968,49.173394L533.134948,47.484668L526.494507,47.806722L518.223992,51.831529L514.759368,51.098254L514.467288,49.303592L513.736996,44.815476L508.577376,40.548735L509.245257,37.801728L506.590511,35.220868L503.267913,35.387541L502.454222,37.237742L496.770439,36.621250L494.851081,38.528608L486.953461,38.029305L485.253771,34.498630L477.205151,33.108234L474.543715,30.533080L463.169327,29.326238L459.996708,30.400675L458.439357,27.770194L452.901249,28.068462L447.868467,24.723002L447.566785,22.929822L443.286110,24.068712L443.739549,26.758235L442.842068,28.064952L440.719239,28.734247L440.506370,30.579105L436.942306,30.789643L436.816208,30.633888L436.678577,30.438628L436.558755,30.230698L436.459859,30.005245L436.379043,29.766928L436.311362,29.519267L436.253069,29.264928L436.201365,29.005901L436.154192,28.743652L436.026905,27.946788L435.746717,26.075545L435.299550,23.140218L435.019003,21.269531L434.935920,20.736891L434.845036,20.209376L434.793807,19.949447L434.736266,19.693711L434.669726,19.443964L434.590591,19.202615L434.494110,18.972849L434.379689,18.762618L434.248683,18.563447L434.105537,18.372343L433.953642,18.187028L433.795547,18.005802L433.633138,17.827425L433.131801,17.302181L432.621024,16.787688L432.276448,16.455475L432.102055,16.295751L431.925428,16.142722L431.745646,15.999008L431.561493,15.868053L431.368283,15.750556L431.170529,15.646259L430.969487,15.551559L430.766107,15.463724L430.354978,15.301017L429.733211,15.072353L424.691495,13.340252L422.972692,9.818381L420.602311,9.047286L418.422355,2.839660L417.313446,2.902004L417.533024,0.000000L373.878013,0.000000L372.177784,1.010449L375.972402,3.497320L376.283889,5.287895L375.175260,5.354046L376.265927,11.622997L367.558508,13.052008L362.657368,10.634362L358.382826,11.800194L356.960786,10.076937L354.744853,10.213061L355.059429,12.004010L348.255284,11.518048L345.591274,21.600026L340.358338,22.280132L336.805904,20.264962L333.368509,21.734677L330.908537,17.984449L328.044413,18.561028L316.488136,14.630155L318.553677,6.708261L321.039786,5.106172L320.194000,0.000000L319.926753,0.000000Z "/></g></svg>