<?xml version="1.0" encoding="utf-8"?><!DOCTYPE svg  PUBLIC '-//W3C//DTD SVG 1.1//EN'  'http://www.w3.org/Graphics/SVG/1.1/DTD/svg11.dtd'><svg enable_background="new 0 0 1000 463" height="463px" pretty_print="False" style="stroke-linejoin: round; stroke:#000; fill: none;" version="1.1" viewBox="0 0 1000 463" width="1000px" xmlns="http://www.w3.org/2000/svg" xmlns:xlink="http://www.w3.org/1999/xlink"><defs><style type="text/css"><![CDATA[path { fill-rule: evenodd; }]]></style></defs><metadata><views><view h="463.924133454" padding="0" w="1000"><proj flip="auto" id="robinson" lon0="14.1635895904"/><bbox h="40.76" w="88.06" x="155.23" y="-852.33"/></view></views></metadata><g class="" id="border"><path d="M352.522036,461.924133L352.962027,461.645486L354.386713,457.704022L357.608575,459.629043L358.445719,454.611919L364.820162,454.227364L367.056310,450.523566L365.774202,445.153077L369.043739,444.381133L369.169860,444.500032L371.008125,446.196450L373.640231,448.659971L373.609279,448.818822L373.532986,449.027306L373.616863,449.370080L374.523306,449.905857L374.614624,450.022035L374.686400,450.131169L375.337236,450.249190L375.536573,450.179225L375.868340,449.974779L376.406790,449.825745L377.014635,449.910199L379.852041,450.929985L380.820652,451.287971L382.177584,451.795595L382.757923,452.003745L382.950584,452.067057L383.142501,452.124613L383.333336,452.173822L383.522634,452.211171L383.709787,452.231963L383.893990,452.230003L384.075090,452.200159L384.253232,452.147490L384.429226,452.078250L384.603686,451.997166L384.777071,451.907763L384.949719,451.812632L385.293712,451.612162L385.636896,451.405106L388.557096,449.617840L388.900580,449.412983L389.071835,449.315640L389.242505,449.224338L389.412291,449.142123L389.580780,449.073249L389.747397,449.023585L389.911364,449.001132L390.071630,449.016671L390.225261,449.078139L390.375194,449.177563L390.522405,449.304945L390.667637,449.452647L390.811452,449.614911L390.954267,449.787449L391.096390,449.967105L391.379390,450.339260L392.677275,452.100833L395.625735,451.423648L397.339761,452.690582L398.873661,456.332176L404.707302,456.007102L406.848999,452.688457L406.424550,445.653709L405.034588,443.189533L406.359840,438.484498L407.898846,434.684619L413.930020,432.184064L417.792223,428.230965L416.849916,425.619543L418.493534,423.451352L417.640793,420.131623L427.842528,419.504505L429.099602,421.085052L440.067141,423.767763L442.700804,421.293152L442.813497,419.378517L438.827887,417.360610L440.329482,408.675456L441.909568,407.629536L440.495321,402.658514L442.391816,401.634647L443.005116,397.281137L440.824088,392.129990L439.745030,384.991698L442.527088,380.618401L441.983557,377.281577L446.810999,376.141537L451.925919,376.254691L452.450889,380.008730L465.488937,380.062483L467.740098,385.022113L467.823072,388.347438L470.169035,389.032196L475.534911,386.283320L481.434958,387.251705L483.297711,384.904695L483.689946,379.851010L487.454942,382.709867L495.936226,382.487773L504.932731,388.712453L511.880012,388.320558L512.142238,389.990023L516.242914,390.603353L518.020075,395.556956L534.644954,398.220723L540.571502,401.084159L545.199278,405.260371L555.666751,406.152688L558.129432,402.654976L562.096664,402.448362L568.661659,404.537352L568.732397,404.733536L568.817109,404.909761L568.920766,405.058926L569.051305,405.178247L569.201745,405.269129L569.366757,405.339180L569.542279,405.394190L569.725260,405.438510L569.913434,405.475368L570.299186,405.535520L571.478680,405.686590L571.870982,405.743772L572.260592,405.814425L572.453796,405.858475L572.645450,405.911341L572.835041,405.976182L573.023718,406.056272L573.210355,406.148458L573.395525,406.249459L573.763082,406.468603L574.310818,406.819268L574.855013,407.181176L575.213015,407.427724L575.388927,407.553606L575.561470,407.682179L575.729203,407.814505L575.890179,407.952006L576.041809,408.096544L576.180703,408.250519L576.302473,408.416975L576.397054,408.583345L576.634937,409.095910L576.720563,409.247564L576.820553,409.376122L576.946753,409.479025L577.091445,409.554401L577.249999,409.609268L577.418815,409.649046L577.595127,409.677878L577.776831,409.698901L577.962336,409.714482L579.103562,409.773627L579.292646,409.788138L579.479739,409.807604L579.663916,409.834246L579.843974,409.871005L580.018335,409.921774L580.184937,409.991659L580.341107,410.087299L580.488303,410.217578L580.624852,410.374236L580.753896,410.549573L580.877983,410.737413L581.240715,411.327992L581.364618,411.519749L581.493383,411.701523L581.629549,411.867844L581.776252,412.012023L581.935129,412.128179L582.104687,412.221818L582.282110,412.298879L582.465241,412.363912L582.652454,412.420360L583.034607,412.517117L583.422306,412.602570L584.587687,412.846044L587.437788,415.332331L587.314098,417.160310L593.763387,420.208066L595.130760,422.666350L597.112275,422.568668L601.575968,425.717939L603.146684,423.725292L607.093500,425.019974L606.682608,427.154244L608.883969,427.889045L617.834677,427.460764L617.728587,426.000383L620.651940,425.821289L625.252022,426.301234L626.799387,428.721548L634.234447,428.375379L634.059407,426.562445L643.747592,426.454138L648.790553,428.310959L655.328886,424.895388L657.744869,419.193874L661.136840,417.065468L662.753016,416.197133L668.795636,415.691698L672.631845,413.521054L675.364891,415.259261L675.302867,418.137046L679.631295,420.477743L688.557482,420.104018L691.894173,422.489390L693.650332,429.288591L698.707720,427.655437L702.648717,428.581381L707.145343,432.615212L710.800531,433.158929L720.318588,433.129194L722.608347,430.210314L723.518190,430.530640L723.648350,430.697189L723.793156,430.857617L723.948294,431.013736L724.110583,431.166882L724.277707,431.318026L724.620296,431.616885L726.185582,432.952595L727.909128,434.443744L728.427776,435.160715L728.565267,436.944841L728.138164,437.943617L729.282842,440.030786L729.894016,440.622294L729.780985,441.137578L729.924995,443.640074L729.951307,443.983965L729.972824,444.154242L729.988026,444.238495L730.007828,444.323965L730.031182,444.408728L730.085048,444.576824L730.186050,444.854194L730.431547,445.491336L730.740097,446.527796L730.566400,447.842303L730.518737,448.256548L730.507491,448.391588L730.500533,448.523818L730.499722,448.652019L730.507574,448.774544L730.527451,448.889189L730.563797,448.993043L730.621812,449.085781L730.696989,449.167272L730.784606,449.240613L730.881111,449.308129L730.983869,449.371548L731.090946,449.432139L731.425950,449.604883L732.377645,450.071766L733.245124,450.504949L733.580233,450.134749L735.015750,448.568315L735.415904,448.115261L735.544662,447.960862L735.669287,447.803439L735.788091,447.641760L735.898825,447.474176L735.998525,447.298520L736.083331,447.111966L736.152663,446.903580L736.206277,446.683695L736.248598,446.455550L736.282917,446.221555L736.311645,445.983475L736.358822,445.499818L736.398873,445.010986L736.547325,443.047336L736.590109,442.560292L736.614771,442.318958L736.643029,442.080024L736.676468,441.844540L736.717249,441.613941L736.768273,441.390156L736.833383,441.175736L736.915960,440.972179L737.012683,440.778027L737.119670,440.590702L737.233992,440.408258L737.353468,440.229247L737.476498,440.052607L737.728930,439.703594L738.888320,438.149182L739.143535,437.801988L739.393900,437.451033L739.515678,437.272891L739.633811,437.091884L739.746786,436.906817L739.852567,436.716082L739.948459,436.517549L740.029249,436.317656L740.100789,436.110470L740.165513,435.897913L740.225284,435.681454L740.281512,435.462208L740.387310,435.018481L740.639472,433.899324L740.743626,433.453920L740.855634,433.014093L740.916802,432.797840L740.983190,432.585282L741.056648,432.377724L741.141933,432.168665L741.234735,431.964920L741.332998,431.765038L741.435163,431.567918L741.646860,431.178894L741.973159,430.601574L743.725267,427.531057L744.487467,426.183881L745.463761,424.447359L745.682914,424.064465L745.906922,423.688107L746.022371,423.504559L746.141483,423.325933L746.265732,423.154208L746.397066,422.991999L746.536307,422.842197L746.682570,422.701827L746.833936,422.568310L746.988951,422.439694L747.305872,422.191720L747.951535,421.711649L750.874098,419.572826L751.197130,419.333151L751.515126,419.087698L751.670407,418.960710L751.821643,418.829081L751.967119,418.690845L752.104539,418.543367L752.230873,418.383171L752.341664,418.210848L752.441718,418.026208L752.533920,417.832559L752.620464,417.632423L752.782755,417.219766L752.937235,416.798151L753.088409,416.372743L754.362202,412.742915L754.514587,412.319062L754.672966,411.902963L754.756489,411.700521L754.844676,411.504110L754.939451,411.316219L755.043375,411.140158L755.159810,410.980276L755.292680,410.838942L755.438247,410.714027L755.593070,410.601082L755.754537,410.496727L755.920687,410.398432L756.090074,410.304324L756.434629,410.123597L759.049886,408.809979L759.745024,408.457107L760.263610,408.187249L760.605267,407.999422L760.773691,407.900803L760.939646,407.797344L761.102218,407.687252L761.261748,407.568233L761.417858,407.442506L761.723318,407.177800L762.172768,406.763625L767.866674,401.372081L778.162198,404.274665L791.800735,411.073786L798.686169,410.898985L803.801108,407.974164L806.579096,408.174431L812.378025,414.075916L814.493406,414.594688L823.790714,410.351940L827.590983,406.345164L840.306791,405.200931L850.823417,394.215573L864.295385,392.782256L866.080262,391.136751L866.501937,381.303758L870.810366,375.722161L888.234951,373.457033L894.465313,368.668304L896.998138,361.866500L897.345260,355.614263L895.634539,353.491501L896.642635,344.951305L900.595761,328.855198L903.254791,326.396819L922.319987,321.464973L929.352901,317.604405L933.872531,313.141846L934.758123,310.603240L933.681933,306.700681L940.716265,304.697659L949.016192,298.001691L952.014389,292.695897L952.648989,285.826405L954.702998,284.329745L974.662354,286.124193L980.922136,288.016117L989.725977,283.526753L996.048939,281.865789L996.779415,279.926921L998.588196,278.230852L997.277071,275.742633L995.163491,274.937015L993.444149,269.114837L992.437473,269.128944L991.518766,261.626610L990.511538,261.640713L988.583254,254.154861L986.362714,252.517182L977.396594,253.487231L974.063769,251.033966L972.641764,247.717418L964.578101,247.847113L963.778467,249.529670L962.379584,249.552412L962.339746,249.472410L962.249497,249.254261L962.170918,249.029109L962.100862,248.798864L962.036933,248.564976L961.920738,248.090322L961.812933,247.610797L960.933499,243.516671L960.827673,243.036448L960.717332,242.558496L960.597044,242.085521L960.530264,241.852349L960.456684,241.622571L960.373807,241.397434L960.278238,241.174930L960.173155,240.957174L960.061149,240.742875L959.944184,240.531051L959.823731,240.320969L959.576406,239.904013L958.059176,237.419033L956.799672,235.345978L954.662514,231.819545L953.158208,229.325448L952.778660,228.706220L952.519740,228.300673L952.386733,228.102283L952.250060,227.908425L952.108348,227.720797L951.958905,227.538922L951.804338,227.363374L951.646063,227.192392L951.322408,226.859117L950.828294,226.369503L950.257732,225.812249L952.465005,223.850603L952.254587,222.186325L955.074043,220.470024L954.864092,218.805229L949.813489,218.891847L949.391645,215.563226L950.401849,215.546327L949.980504,212.218080L950.991340,212.200478L949.558394,208.890206L944.398238,208.146819L943.916638,212.324392L935.103591,212.487227L934.875030,212.411781L934.480846,212.292089L932.700775,211.766575L931.123135,211.289892L914.506271,204.856067L915.583633,207.520546L915.550422,207.532721L915.084926,207.622892L914.855769,207.673687L914.612810,207.735329L914.370098,207.808258L914.141960,207.893246L913.942979,207.991374L913.787807,208.103802L913.672176,208.238227L913.584193,208.402439L913.516886,208.591253L913.470550,208.771925L911.152848,209.615308L906.786132,207.203533L906.243855,203.044989L903.896483,200.592235L896.818869,200.743547L894.934498,194.112190L888.865378,194.245173L888.292779,197.595020L884.929487,195.168766L880.884054,195.260239L878.530505,192.811237L879.100696,189.463088L870.118882,183.004292L866.070449,183.099947L864.268900,184.810525L864.714804,188.134913L870.674168,187.158518L871.561422,193.807526L862.125822,191.532154L853.919259,198.409213L847.967255,199.394437L844.674189,198.315030L844.504192,198.177105L844.328103,198.045040L844.149184,197.919582L843.968207,197.798926L843.602282,197.566889L843.233433,197.341687L840.640441,195.791406L835.643718,192.790988L832.859370,191.137564L832.493903,190.908915L832.314621,190.789680L832.139098,190.665094L831.968929,190.532887L831.806247,190.390020L831.653870,190.232485L831.516314,190.060081L831.388771,189.873421L831.268546,189.676343L831.153588,189.471771L831.042354,189.261897L830.826797,188.832320L830.615996,188.395985L828.420235,183.791991L827.998163,182.919919L827.780460,182.491299L827.667778,182.281248L827.551076,182.075668L827.428787,181.876303L827.298853,181.685443L827.158612,181.503712L827.010636,181.330571L826.857025,181.163670L826.538873,180.841874L826.212634,180.528747L825.055153,179.445087L824.912108,179.310109L824.568339,176.662282L818.037025,173.507977L813.096260,174.343570L812.972399,174.305188L812.779208,174.238667L812.587783,174.165619L812.398830,174.083426L812.213287,173.988625L812.033872,173.879687L811.857802,173.758378L811.684169,173.628062L811.512281,173.491294L811.171812,173.205544L810.833700,172.911095L808.980146,171.269618L805.268997,168.003953L803.078220,166.068740L802.739456,165.776520L802.397579,165.494138L802.224536,165.359595L802.049318,165.231915L801.871114,165.113661L801.690795,165.007754L801.600334,164.960063L801.463746,163.978270L818.342855,160.998955L818.782652,156.821126L824.865759,156.654588L825.079005,150.818627L820.677562,148.439896L820.103409,144.291990L822.688964,140.891224L822.345026,138.403764L819.298966,138.486629L815.792233,135.252962L811.615015,134.536759L813.322950,139.483838L808.825682,143.773632L803.983878,145.576688L800.940435,145.664491L800.708144,144.005417L782.446771,144.548363L779.873393,147.959397L775.817023,148.085141L775.346146,144.767512L772.845656,141.513474L766.876886,142.534667L765.440539,146.745539L763.175184,145.151727L763.715544,141.802129L764.018129,136.794965L760.973788,136.892572L760.736053,135.234706L752.617020,135.498722L739.116789,126.788160L739.650084,123.439291L731.645909,124.545477L727.220385,122.200498L725.840879,119.751142L716.576627,119.245154L714.178884,116.833239L708.083118,117.052879L699.217717,112.382566L695.153073,112.534115L693.244433,113.437811L691.063080,119.349719L698.787483,123.225218L699.648722,129.023997L701.924223,130.606386L703.797292,136.369432L714.550591,140.143980L716.294616,145.081486L714.510637,146.812975L714.875949,149.301162L717.145697,150.886071L717.510222,153.374612L713.579887,154.350555L710.822720,149.447987L708.796050,149.522454L708.271456,152.877167L699.154849,153.215822L696.853302,158.306663L691.422417,156.010227L689.520436,156.917395L688.878026,159.444408L685.964794,160.391041L684.804865,166.277454L681.252779,169.754344L678.218982,169.873857L676.815578,174.102811L674.154878,176.712912L668.977517,176.085678L667.718006,174.467029L663.674831,174.630859L660.268170,172.265617L660.018365,170.605706L655.723725,169.113204L655.406454,167.013230L654.736302,166.445722L654.657692,166.280037L654.551404,166.114855L654.425274,165.950066L654.285156,165.785590L654.135363,165.621366L653.979039,165.457346L653.655211,165.129736L652.832078,164.308870L652.512751,163.974573L652.358976,163.803838L652.211354,163.629198L652.072307,163.449000L651.945082,163.261031L651.833977,163.062369L651.742223,162.849988L651.666602,162.626860L651.602716,162.395928L651.547232,162.159421L651.497661,161.919001L651.409426,161.430976L651.289500,160.690834L650.632492,156.482090L650.509452,155.744734L650.463871,155.502468L650.413939,155.263555L650.357678,155.029520L650.292397,154.802435L650.214492,154.585078L650.119200,154.381121L650.002391,154.193163L649.868134,154.018651L649.721224,153.853891L649.565284,153.696090L649.403018,153.543166L649.236413,153.393586L648.723039,152.955305L647.509709,151.944621L646.474739,151.074519L640.632514,146.130285L640.290330,145.837200L639.950936,145.539475L639.617312,145.232147L639.454202,145.072319L639.295163,144.907753L638.984431,144.566387L638.528113,144.038063L635.971724,140.995761L631.156747,135.276519L621.677646,133.013834L620.023282,128.917290L619.009348,128.961517L619.638494,126.432267L617.224896,124.037300L610.124920,124.351751L607.340578,126.143766L605.053856,124.579169L604.665937,122.095220L602.507851,121.358991L602.119473,118.875319L597.046657,119.105500L596.527008,115.794711L594.367203,115.060045L594.861846,111.703413L600.067477,112.299776L597.647641,109.909486L609.943005,103.523950L608.539278,101.087393L616.926450,102.383498L618.701162,100.639941L618.443751,98.984851L621.364084,98.025503L620.849892,94.716417L622.755106,93.801383L621.983409,88.838964L628.087315,88.576775L626.427966,84.485800L619.677800,80.614763L616.996144,76.569752L613.812405,75.876718L612.275992,72.614984L604.128440,72.974422L599.663950,70.677735L595.589895,70.860594L593.945400,73.431960L594.468420,76.737933L588.622704,78.669275L588.360820,77.016133L585.044585,75.503930L584.782007,73.850967L575.355842,72.624092L575.619781,74.276986L571.812344,76.120574L571.587641,81.127087L562.564665,82.390064L561.149197,79.960179L562.166604,79.911121L561.635174,76.605490L562.652996,76.556438L561.988889,72.425807L560.970758,72.474152L560.305931,68.344098L558.002916,66.790312L551.893086,67.086632L544.283434,70.789833L541.095654,70.115151L540.826913,68.463893L540.154976,64.334404L535.407640,60.408601L536.022153,57.881096L533.579537,55.506462L530.522434,55.659816L529.773762,57.362176L524.544146,56.794945L522.778156,58.549894L515.511603,58.090488L513.947729,54.841935L506.542241,53.562640L504.093469,51.193256L493.627962,50.082847L490.708854,51.071431L489.275945,48.651141L484.180364,48.925575L479.549732,45.847437L479.272155,44.197543L475.333531,45.245429L475.750738,47.720043L474.924971,48.922345L472.971769,49.538160L472.775909,51.235603L469.496635,51.429317L469.380613,51.286008L469.253980,51.106351L469.143732,50.915035L469.052738,50.707598L468.978380,50.488324L468.916107,50.260452L468.862472,50.026436L468.814900,49.788107L468.771496,49.546814L468.654380,48.813624L468.396580,47.091904L467.985145,44.391127L467.727016,42.669919L467.650571,42.179840L467.566949,41.694477L467.519814,41.455318L467.466871,41.220016L467.405648,40.990225L467.332836,40.768162L467.244064,40.556755L467.138787,40.363323L467.018249,40.180067L466.886541,40.004233L466.746783,39.833726L466.601321,39.666981L466.451889,39.502857L465.990612,39.019584L465.520649,38.546201L465.203607,38.240535L465.043149,38.093574L464.880635,37.952772L464.715219,37.820542L464.545780,37.700051L464.368010,37.591943L464.186057,37.495980L464.001080,37.408847L463.813951,37.328030L463.435674,37.178324L462.863590,36.967932L458.224737,35.374236L456.643276,32.133783L454.462303,31.424304L452.456537,25.712704L451.436237,25.770066L451.752315,21.592697L455.273372,18.067012L451.927723,16.591399L451.504345,14.120086L447.276971,13.527812L445.830708,11.114787L441.743762,11.347620L439.842534,12.288761L440.126128,13.935480L438.083527,14.052956L436.920015,13.287969L436.067000,8.346797L436.946751,7.464506L435.782837,6.700387L430.958120,8.642531L432.549465,11.876921L429.485050,12.055221L425.113131,10.647028L425.563420,7.293224L419.289307,6.829720L416.510813,8.657912L416.080199,6.187957L413.749334,4.662602L413.158680,7.193252L409.215950,8.260104L407.605274,10.852589L409.058525,13.261398L412.999687,12.194366L413.430456,14.664820L414.451453,14.603982L414.578527,21.253468L409.907181,24.029657L413.398586,26.317813L413.685184,27.965310L412.665141,28.026175L413.668658,33.794200L405.657013,35.109025L401.147503,32.884563L397.214522,33.957238L395.906112,32.371680L393.867244,32.496926L394.156684,34.144768L387.896231,33.697637L385.445091,42.974006L380.630296,43.599767L377.361723,41.745621L374.198997,43.097897L371.935591,39.647335L369.300327,40.177841L358.667465,36.561068L360.567957,29.272180L362.855411,27.798108L362.064246,23.021694L352.634282,26.189794L349.908385,25.438485L349.200017,24.151371L353.746871,17.287935L353.820266,12.832762L348.453426,8.611768L344.237788,9.789140L344.885933,8.568422L343.671214,7.440736L337.855081,6.180966L332.047063,3.892264L325.747246,7.029662L322.198074,5.529430L321.703078,3.401551L318.623108,2.145447L315.054176,3.319067L311.955658,0.313461L309.737396,0.417604L308.077482,3.300893L305.956834,3.181362L307.961619,5.528731L307.275309,7.886772L304.523210,8.851574L305.836322,10.462444L304.556296,12.754448L308.639784,14.686498L313.978016,13.153015L314.862234,15.326346L311.244302,16.824974L312.743036,18.946121L325.307240,22.113087L326.279813,24.389902L324.007197,25.780560L324.559904,28.971343L318.982564,28.671209L318.952615,30.167014L312.804779,31.742658L307.228915,29.665372L302.373181,31.092659L301.366945,36.282381L282.498906,42.406353L281.083786,44.870929L274.295125,46.386456L268.216846,43.479374L263.112932,45.812437L263.509959,47.041691L261.252366,48.989283L255.679181,48.355707L254.055631,52.571172L256.517274,55.793565L255.979314,57.339766L253.474217,58.563900L250.725926,57.628988L250.001427,60.529764L235.839781,58.931570L233.364862,60.517858L231.499519,59.328660L228.727097,60.858238L228.594259,62.399804L222.268726,59.644514L213.587931,63.659871L206.867530,62.836163L202.726157,64.585869L205.661810,69.648558L203.411217,74.796206L203.277070,76.662251L199.448518,78.102333L195.185723,83.527630L187.809026,80.874779L184.023833,75.366588L180.901338,74.589498L182.195527,78.791215L174.787436,82.398474L175.001870,87.247636L170.340484,88.466712L168.329486,85.162916L163.942366,85.336053L160.634609,90.692586L161.718325,93.112848L157.202714,99.450511L157.451945,101.656185L148.912061,101.074769L148.159750,98.895788L141.536217,102.206052L133.627268,100.466713L132.756397,112.051407L127.832925,117.020599L121.907986,118.532857L103.468628,109.648509L101.832203,112.574107L100.055931,111.551868L91.525531,114.724645L87.924996,119.207258L87.983727,121.141424L82.796681,117.543389L79.398663,118.670403L74.654745,117.775666L72.347816,119.579203L59.655915,121.151951L56.290914,126.012502L56.966713,129.881874L54.011029,128.929225L50.175061,131.474841L48.871598,134.868176L44.068488,135.157467L44.772077,139.933295L40.581062,141.762097L38.155911,146.094377L39.448276,149.672090L38.029860,150.744156L35.339912,149.599028L36.167464,154.356879L34.982201,154.030155L34.620255,156.093143L37.016666,158.851988L35.031317,160.775466L34.640965,162.365382L30.169898,161.716520L27.718235,158.076870L29.633022,156.733992L28.696708,154.949206L30.200972,153.548157L21.995814,148.962553L22.999588,146.822809L25.785147,148.217910L23.727553,144.374170L16.109702,144.062310L15.003824,140.308316L15.637089,137.403082L13.487416,136.900999L13.013186,134.941903L4.413596,136.215651L1.421515,135.068995L1.343266,136.170009L4.702532,137.733830L4.371158,140.589234L7.102448,143.179428L1.120357,145.975666L1.935805,147.192300L0.269444,147.818199L5.786633,151.481840L9.286556,150.886071L8.511669,151.868956L11.009420,153.129401L10.781998,155.406635L13.121004,155.097466L14.322819,157.583560L15.261643,158.294013L19.541242,163.328825L16.830965,167.960312L17.871318,173.830002L19.573154,175.583620L22.228273,175.467599L22.770951,176.969575L24.935545,176.364837L29.334737,180.231160L27.458872,183.557123L35.738550,184.488377L37.171767,188.242543L39.050373,187.026975L43.503889,191.114952L52.969698,193.849743L53.666124,195.481184L52.292501,195.957557L53.244579,197.215025L58.368700,195.652874L63.312866,199.496480L59.371467,203.736866L60.246351,205.787253L70.996160,209.031001L71.525576,212.583486L67.719772,216.158224L66.579993,220.274948L64.532564,220.739753L64.801897,224.308418L62.507571,223.544222L61.197578,225.045163L61.669859,227.683787L60.220259,229.359634L61.768507,233.844506L52.141458,238.118626L51.666848,239.771780L58.452299,249.036947L65.813108,252.305693L70.162889,252.167520L71.621028,255.958305L70.098175,259.977280L71.818719,260.951778L71.987653,262.329904L72.791682,263.340899L73.508482,264.756608L76.712890,264.575016L77.523544,268.900422L79.532106,270.737810L79.446500,275.703833L82.232510,279.310766L86.664521,281.786059L88.814806,280.777103L90.150676,282.436605L90.612187,289.491054L89.212355,291.102262L91.605622,292.815881L92.976518,298.808532L100.827941,300.634754L101.840147,302.610732L108.363988,306.172556L108.680706,309.794734L112.278430,312.546547L112.058671,314.812686L113.186913,315.309149L121.537474,315.341635L126.602595,317.719524L128.362428,317.596636L126.869643,314.360012L136.129653,315.530900L140.600232,317.439848L146.081383,322.604287L149.255181,322.909428L149.081080,327.618219L150.481440,330.398824L153.597218,330.379750L154.489218,332.863096L157.558257,333.452339L158.567139,336.787301L162.821735,338.821618L162.412379,341.646789L171.725924,347.130192L172.722549,348.863203L172.026176,352.603689L173.978562,354.375089L182.103640,358.245412L189.779649,357.311556L206.499567,369.844934L205.866596,371.564677L208.913055,378.732833L208.185556,381.648208L211.799014,384.399656L222.908247,390.211444L224.243373,390.025394L223.711089,385.033431L234.406661,384.729275L238.516855,390.115235L241.025529,390.613257L249.048058,401.541955L255.711765,401.896449L258.706783,400.469996L263.341466,410.041974L267.558447,410.788585L266.877886,411.724163L271.273959,416.970626L269.810735,419.897338L271.268605,421.223078L279.159906,421.436841L287.087261,426.748620L289.785386,430.769584L299.404620,433.265124L302.636398,435.720412L302.924181,437.389185L308.490581,439.406359L307.874390,442.936040L303.929678,443.229185L302.310860,445.429238L303.661222,447.474994L307.747939,448.016008L307.048678,449.758046L308.463857,452.188479L316.820186,454.924948L329.728385,454.010654L336.243360,456.920714L341.138198,456.570140L343.672573,459.769279L347.895424,461.158900L348.024114,461.924133L352.522036,461.924133Z "/></g></svg>