<?xml version="1.0" encoding="utf-8"?><!DOCTYPE svg  PUBLIC '-//W3C//DTD SVG 1.1//EN'  'http://www.w3.org/Graphics/SVG/1.1/DTD/svg11.dtd'><svg enable_background="new 0 0 1000 406" height="406px" pretty_print="False" style="stroke-linejoin: round; stroke:#000; fill: none;" version="1.1" viewBox="0 0 1000 406" width="1000px" xmlns="http://www.w3.org/2000/svg" xmlns:xlink="http://www.w3.org/1999/xlink"><defs><style type="text/css"><![CDATA[path { fill-rule: evenodd; }]]></style></defs><metadata><views><view h="406.801758593" padding="0" w="1000"><proj flip="auto" id="robinson" lon0="16.0674821508"/><bbox h="32.11" w="79.12" x="159.32" y="-844.84"/></view></views></metadata><g class="" id="pond"><path d="M588.455720,40.824204L588.206959,40.800777L587.827834,40.999128L587.166806,42.143184L586.723004,43.528599L586.439096,44.780523L587.242191,46.037182L587.959669,46.558136L588.901961,46.939289L591.315655,47.291547L591.896245,47.110341L592.331526,46.727623L594.982005,45.664631L593.578510,44.441570L592.239209,42.789808L591.826436,42.379028L592.070979,41.709765L591.043507,40.755484L589.378649,40.428287L589.185749,40.626635L588.455720,40.824204Z "/><path d="M608.945237,290.696427L602.969064,289.063168L601.909603,287.565211L601.682429,287.714612L601.578279,288.594511L602.621041,289.731563L602.978497,289.983983L607.855240,291.731299L608.234666,291.978225L609.419920,292.476798L613.066064,293.654836L614.284273,295.278027L614.581924,295.585527L615.500634,295.478571L617.267424,296.602415L617.387153,299.781408L617.808867,300.033881L620.215255,302.433610L621.522795,301.790996L621.400779,299.648487L621.226424,296.799818L620.317188,296.310638L617.854589,294.915478L617.594493,294.654382L616.943492,294.309925L615.341573,294.239147L614.221641,292.450847L612.591913,292.337606L608.945237,290.696427Z "/><path d="M701.104229,347.822043L700.288704,347.368602L699.760077,347.803937L696.438109,349.341412L695.851257,348.440807L693.562142,347.892107L692.875612,348.162127L691.737681,351.385142L692.645375,351.810273L694.107675,351.489850L696.066024,350.368779L699.014013,351.556769L699.785388,351.301691L700.886965,350.132601L702.001934,352.034648L702.977625,351.056850L702.210801,350.237306L701.104229,347.822043Z M718.828033,348.839551L716.960259,347.147150L715.897251,346.601750L711.009455,347.835723L710.702128,348.297205L710.969023,349.476112L712.869071,350.778366L716.131311,352.145123L717.613195,353.636532L719.828765,354.570610L721.594203,354.910451L721.933695,356.379771L722.608535,357.210601L723.334698,357.327709L724.156722,357.022189L724.883917,354.692737L724.703810,352.124702L724.600035,350.947766L722.709158,351.279634L718.828033,348.839551Z M706.390700,351.091490L709.645921,350.579766L710.802543,349.841316L710.645158,348.192829L711.152629,347.491409L708.892772,346.295631L706.510993,345.191978L705.798927,345.043199L704.392434,345.835904L701.160898,347.503217L701.879087,349.413051L702.664197,350.610469L704.012692,351.270988L704.917048,351.337906L706.390700,351.091490Z "/><path d="M994.820809,175.153818L995.333093,175.709779L996.137217,174.037216L995.994733,170.845217L997.408452,170.232881L998.598789,169.099188L998.767871,168.599778L998.393810,167.887133L998.075211,167.738177L997.378581,168.055689L995.581370,169.147012L994.458291,169.419064L994.487943,170.571585L994.614266,171.639465L994.820809,175.153818Z "/><path d="M327.394889,326.548110L326.993032,324.716273L323.539637,325.405340L322.553692,325.990493L323.244494,326.999221L324.956786,327.623985L326.198293,327.991011L327.061143,327.290580L327.394889,326.548110Z "/><path d="M338.225408,314.963270L336.005519,314.661545L335.797362,314.831822L338.082140,317.688427L339.076133,318.374453L339.226818,319.133862L338.329637,319.725175L338.507773,320.058086L339.885943,320.294360L342.827697,320.814183L343.358855,320.426719L343.264692,319.978432L341.672144,318.927063L341.358832,317.275110L339.033100,315.119487L338.225408,314.963270Z "/><path d="M332.353884,173.663194L332.982632,173.381700L333.780464,172.544287L334.982828,172.170281L334.992230,170.395961L333.406921,167.257270L333.541891,166.218144L334.941687,164.327259L335.763813,163.762855L335.104866,162.192764L334.875793,159.350876L335.867078,158.412208L334.923970,158.042519L333.946951,158.157990L332.878916,159.015175L332.612655,159.623394L332.963381,160.930786L333.249912,161.881576L333.299614,162.856477L332.662442,163.476737L331.931237,163.790291L331.586049,164.498149L331.794539,166.122437L331.571484,168.781666L331.678629,169.368887L332.223292,170.139581L330.946869,172.349835L329.859752,173.603602L327.386116,174.620605L325.128951,174.070933L323.810510,174.310874L323.391024,174.797035L323.322729,175.558438L323.351598,177.712567L322.432066,177.568275L321.673303,178.050558L320.436577,178.799604L318.673035,178.539907L316.928516,178.579902L316.183592,179.327269L316.165530,179.887217L316.810422,180.589909L317.151742,181.190644L316.584526,182.121475L315.061666,182.199251L312.283424,182.801596L312.296559,183.413363L312.932865,184.007101L313.825000,185.352263L313.421011,185.991244L313.022430,186.808023L313.909053,186.993869L314.649947,186.878049L316.122072,185.526392L316.684284,185.275395L316.792975,184.914590L316.021412,184.185146L315.382228,183.269806L317.344301,182.800812L318.736781,181.658090L318.512212,181.062038L317.753637,179.739477L319.515699,180.167194L320.317190,180.464427L321.050293,180.237777L321.784187,178.838695L322.575607,178.602452L323.689785,178.995540L325.308953,179.078668L325.713755,178.625386L325.697486,178.072516L324.494343,175.800422L328.621623,175.897193L330.149876,176.172433L330.854031,176.028932L331.400043,175.404744L331.427863,173.929792L332.353884,173.663194Z "/><path d="M308.176432,199.752727L309.064693,196.642581L308.901624,196.351714L308.280260,196.359411L306.209049,198.005961L305.504712,199.698985L303.059416,198.849310L302.488213,198.263679L301.807405,198.178520L301.253208,198.607705L300.902890,199.860855L301.432078,200.596536L303.286259,201.207237L304.699018,201.031729L307.366665,200.384759L308.176432,199.752727Z "/><path d="M385.267454,317.662095L385.646599,317.894200L385.984401,316.132258L387.150725,315.452039L387.111792,314.764416L386.703120,313.353006L385.887841,312.875465L382.774973,312.873104L381.778140,313.892704L382.431922,314.876134L383.196192,315.378084L384.602450,316.083183L385.267454,317.662095Z "/><path d="M559.880559,340.037685L556.143942,339.759046L556.298773,341.062524L557.279190,343.578928L558.924777,344.891272L561.669701,344.973401L561.597077,344.144237L561.147112,343.768755L559.725958,342.555327L560.576346,341.969310L562.839870,342.982376L563.867474,343.747501L564.971919,341.923655L565.951991,341.796606L569.323824,341.840218L571.588838,344.108026L570.585278,345.058943L570.807437,346.223208L574.672921,347.002546L575.682378,347.114277L576.740722,345.424200L576.642731,344.146598L575.167082,344.486201L572.211257,341.497103L571.478883,341.037336L566.021312,339.214365L565.376833,339.759046L563.546646,341.025757L559.880559,340.037685Z "/><path d="M407.057559,319.338270L406.654368,317.087358L405.749811,316.837542L400.909893,317.673248L399.547277,319.939810L402.128928,321.703220L402.808982,321.669912L402.862179,321.101187L403.369107,320.053554L405.968735,319.988862L407.057559,319.338270Z "/><path d="M578.378880,196.728458L577.078720,195.558098L574.859366,194.318538L574.287245,194.324769L573.836510,195.954006L574.763487,197.075508L575.777013,197.354931L577.463621,197.315177L578.378880,196.728458Z "/><path d="M823.783757,137.178328L823.931440,137.221407L824.751541,137.363780L825.489727,137.156396L826.651363,137.314617L828.700429,136.459314L830.103659,137.624010L830.552931,139.308101L831.150935,140.982094L831.809775,141.108999L834.109746,141.385526L835.653263,141.664406L836.057608,142.703177L837.259969,143.215524L837.828488,142.511245L839.439180,141.886102L840.704628,142.519079L842.652855,143.996594L844.058715,144.557535L846.054385,142.837139L842.462006,141.289172L841.504802,141.301706L840.443175,140.218329L840.835723,139.060573L840.687906,138.895295L839.762267,138.856129L839.754418,139.853295L838.350624,139.655896L837.764065,140.811323L836.433514,141.006378L835.467618,139.989595L834.403494,139.683312L832.642738,138.948560L831.791107,138.376320L831.793188,134.319528L831.741336,133.317832L831.293973,132.403098L830.293101,132.191648L830.773120,133.360907L830.614094,135.424640L827.876269,135.502962L826.006387,136.792179L824.631445,136.269751L823.783757,137.178328Z "/><path d="M1.232129,112.272274L2.743619,112.522766L4.071337,112.655944L5.553819,111.859793L9.795525,109.665447L11.906390,109.305745L14.630687,108.507591L14.420747,105.127679L14.098429,104.533423L11.268893,104.686745L5.497831,108.537049L4.977546,110.368745L2.118820,110.705586L1.286305,111.047057L1.232129,112.272274Z "/><path d="M388.113920,294.025240L387.411485,293.333979L382.651747,294.254876L380.558749,294.814028L381.542051,295.789218L385.889112,296.956326L387.410948,296.022008L388.202482,295.063329L388.113920,294.025240Z "/><path d="M993.311148,179.270130L988.400927,176.573828L987.873369,176.969453L987.999459,178.342270L989.352806,180.801333L990.437957,179.953390L991.496038,182.276884L992.686224,181.249043L993.142292,180.207216L993.311148,179.270130Z "/><path d="M161.905202,44.815711L160.469032,44.359747L157.337911,44.750621L152.605706,46.206429L151.899450,46.617869L150.026004,47.946900L150.364159,49.364425L151.028217,50.977173L152.351916,51.528845L155.380016,51.142502L159.845198,49.954563L161.477938,50.283498L161.905202,44.815711Z "/><path d="M298.478711,203.226017L297.883544,202.705735L296.993909,202.722999L294.839022,206.372970L293.948483,206.548767L293.742776,208.295800L291.997242,210.157505L291.824571,210.411809L292.805456,211.374883L293.219847,213.341135L293.670971,214.254044L293.457445,217.524363L294.196447,218.687802L295.378729,220.306626L295.918530,220.936273L296.094341,221.600476L297.929507,225.630682L298.156811,227.133575L297.097887,228.655370L296.795283,229.570988L297.931366,232.104357L298.689165,232.185245L299.205903,232.585762L300.809747,235.598402L300.710786,236.968143L301.563954,237.464529L301.536220,238.420401L301.912725,240.299223L300.722068,240.857701L300.719092,241.401263L301.297988,242.229973L301.659083,242.906307L301.780402,242.028096L302.680458,242.042235L302.447969,241.674618L303.501831,241.218242L302.916786,239.340950L304.179364,238.476168L304.245137,236.862113L302.388393,233.793619L302.518249,233.400158L302.229131,232.482098L301.387726,231.266427L300.177746,226.737038L300.531528,226.109654L300.233641,225.391983L300.349009,224.448980L300.573891,222.793871L300.342372,222.398162L299.508257,220.470710L298.530470,218.723130L299.659089,217.141268L298.118697,216.890060L297.601791,215.568104L298.492021,214.146503L297.383795,213.955756L296.458123,209.473875L296.752036,209.192107L297.669945,207.402653L299.418257,205.031755L299.732206,204.232856L298.478711,203.226017Z "/><path d="M989.261108,222.035433L987.563186,222.483742L988.729287,224.452906L988.470850,225.529392L988.919457,226.615330L989.503497,228.224268L990.862541,228.640450L991.095261,229.161863L991.265379,230.267531L992.557925,231.664340L993.786997,231.643332L992.673783,230.369618L991.403611,228.342055L990.848235,227.095099L990.480622,226.075106L989.584540,223.298602L993.109269,222.632553L992.441261,222.108450L989.261108,222.035433Z "/><path d="M725.656252,372.714646L723.976869,372.728737L723.073029,372.975326L722.473356,373.238369L722.526651,373.573870L723.620134,373.953476L727.349925,376.104357L728.307628,375.686934L729.076650,373.319488L728.639189,373.122493L725.656252,372.714646Z "/><path d="M356.191978,0.000000L354.877923,0.575587L354.701278,0.894582L355.358846,2.573843L355.659888,3.165076L356.915528,3.853821L358.265877,4.444297L358.917037,3.465014L360.706764,3.969263L359.113567,1.957662L356.832816,0.042896L356.191978,0.000000Z "/><path d="M636.973667,208.699949L636.075608,206.853371L635.563960,207.520537L636.829723,209.488344L638.764835,210.073454L640.778162,211.040843L641.495528,210.818377L643.867129,211.155999L644.630799,211.587202L644.655905,209.632832L644.472478,208.504913L642.119960,208.995728L641.166221,209.646944L640.065323,209.526787L638.164733,208.973187L636.973667,208.699949Z "/><path d="M315.032735,404.801759L317.668362,404.515742L321.774544,403.372476L321.290868,402.730333L319.008289,401.591823L313.182901,401.743358L311.035250,399.400734L311.046630,397.301891L309.821386,397.975500L309.533382,394.312882L308.649291,393.476234L308.612021,393.762994L308.022586,395.138510L307.255152,397.661148L302.562348,393.644035L300.410730,393.471507L301.332277,391.608388L303.609339,388.967021L301.622745,388.241510L297.197918,389.617703L294.887907,390.199069L295.976296,387.388395L293.513600,385.925599L299.537146,381.312921L300.223973,379.288675L299.803347,377.568510L297.543633,376.431997L295.656387,380.956901L293.654897,379.602941L291.705818,379.028757L285.998694,377.727607L285.428283,376.092430L282.674360,373.640813L280.950100,372.727246L278.964506,373.388793L276.374802,372.118472L275.236342,370.927717L273.128592,368.158038L272.328219,367.542220L270.663070,368.615574L270.782339,368.990425L271.817213,370.114992L276.550049,373.858968L277.430584,374.502412L281.319003,374.756012L284.357284,380.626088L287.755102,381.857194L290.266170,382.069076L290.154237,384.657396L288.247438,385.314337L287.676714,386.140644L289.251893,388.907152L287.233210,389.945410L289.619971,391.276735L292.697645,394.370392L295.448448,395.656896L297.716667,395.868821L300.823124,396.428180L304.413863,398.128343L307.482084,399.679271L311.130353,403.533210L315.032735,404.801759Z "/><path d="M446.660594,179.674687L445.357834,178.455995L444.267901,177.704725L443.067204,177.943122L442.993263,178.554807L443.110845,179.632338L443.121771,180.349141L445.913014,182.200819L444.574012,183.167087L444.509989,184.836938L444.232054,186.716300L444.830411,186.885730L446.031182,186.508436L446.045734,186.249588L446.231125,185.006359L445.380562,184.521629L446.902129,183.162380L447.696547,182.654146L448.248614,183.574934L448.306154,184.195342L449.457985,185.489527L450.060717,186.011136L451.131359,186.982211L452.000467,187.629347L453.396398,189.174677L454.610913,190.272136L455.729510,189.822636L456.869766,190.860494L457.082117,191.642632L457.376888,191.721867L458.681625,190.691830L460.137944,191.212728L460.637261,190.127793L463.446663,191.157030L465.370033,191.055046L467.400320,191.686564L468.508114,193.587460L469.506698,196.134170L469.316904,198.710871L469.329990,199.173817L469.909770,199.160478L469.700441,201.996343L469.972607,202.398906L470.938746,202.810889L471.337127,202.337697L471.599246,200.614480L471.188463,199.820382L471.237071,198.192221L470.720345,195.128332L471.098021,195.011431L471.294168,194.441836L468.760703,191.023667L468.323447,189.740268L466.211238,190.126224L464.392409,189.998464L462.997386,189.308817L460.801435,188.209819L459.144616,188.609094L458.244590,188.532220L457.164942,188.964445L456.660285,188.192561L454.258309,187.662293L451.777490,185.131857L451.936074,184.637713L451.484093,182.840027L451.756463,182.059646L449.058328,181.119290L448.178587,180.109944L446.660594,179.674687Z "/><path d="M116.631574,159.848845L115.704743,159.902425L116.852049,161.554715L117.474653,162.440130L115.718773,163.885142L114.159682,165.817485L113.033462,168.694642L108.272424,169.355559L107.428283,170.290900L107.456068,170.384984L111.115078,169.934166L113.174651,169.955335L113.791180,169.190917L115.999738,165.705863L119.197024,163.792643L120.712079,164.340585L121.483497,164.317381L126.334908,165.905286L128.449571,166.429782L129.608279,166.214624L131.398144,164.473851L131.438653,163.799698L130.429271,163.867112L129.292818,163.907091L127.317722,163.735605L125.871233,163.386591L124.299950,162.283691L123.030720,162.635377L118.539852,161.941148L116.631574,159.848845Z "/><path d="M773.096959,106.777203L772.850085,105.848814L772.356456,105.871953L771.794113,107.457591L772.427538,107.952428L773.096959,106.777203Z M779.678731,107.780484L778.146217,105.945199L777.085660,104.851888L776.030340,104.518161L775.353055,104.778923L776.081841,106.609013L778.036488,108.198161L778.885462,108.816387L779.678731,107.780484Z "/></g></svg>