<?xml version="1.0" encoding="utf-8"?><!DOCTYPE svg  PUBLIC '-//W3C//DTD SVG 1.1//EN'  'http://www.w3.org/Graphics/SVG/1.1/DTD/svg11.dtd'><svg enable_background="new 0 0 1000 465" height="465px" pretty_print="False" style="stroke-linejoin: round; stroke:#000; fill: none;" version="1.1" viewBox="0 0 1000 465" width="1000px" xmlns="http://www.w3.org/2000/svg" xmlns:xlink="http://www.w3.org/1999/xlink"><defs><style type="text/css"><![CDATA[path { fill-rule: evenodd; }]]></style></defs><metadata><views><view h="465.966758731" padding="0" w="1000"><proj flip="auto" id="robinson" lon0="15.5282862939"/><bbox h="40.96" w="88.1" x="155.16" y="-852.3"/></view></views></metadata><g class="" id="hranice"><path d="M349.099218,463.966759L353.602080,461.115091L355.026096,457.175480L358.246443,459.099596L359.083194,454.084832L365.454640,453.700457L367.689736,449.998401L366.408230,444.630437L369.676230,443.858856L369.802292,443.977699L371.639692,445.673319L374.270561,448.135682L374.239623,448.294458L374.163366,448.502844L374.247204,448.845457L375.153220,449.380982L375.244495,449.497106L375.316238,449.606188L375.966768,449.724154L376.166011,449.654221L376.497622,449.449872L377.035819,449.300908L377.643378,449.385322L380.479450,450.404629L381.447606,450.762446L382.803899,451.269832L383.383965,451.477884L383.576536,451.541166L383.768362,451.598695L383.959108,451.647881L384.148317,451.685212L384.335382,451.705994L384.519498,451.704035L384.700513,451.674206L384.878571,451.621561L385.054482,451.552353L385.228861,451.471308L385.402164,451.381947L385.574730,451.286861L385.918562,451.086485L386.261585,450.879526L389.180412,449.093101L389.523734,448.888340L389.694908,448.791043L389.865498,448.699784L390.035204,448.617608L390.203614,448.548766L390.370153,448.499125L390.534043,448.476682L390.694233,448.492214L390.847792,448.553653L390.997655,448.653031L391.144796,448.780352L391.289960,448.927985L391.433707,449.090173L391.576455,449.262630L391.718512,449.442202L392.001378,449.814182L393.298653,451.574926L396.245727,450.898059L397.958946,452.164397L399.492125,455.804279L405.323023,455.479358L407.463713,452.162274L407.039464,445.130833L405.650155,442.667816L406.974784,437.964994L408.513066,434.166902L414.541404,431.667523L418.401791,427.716282L417.459927,425.106089L419.102772,422.938917L418.250432,419.620749L428.447370,418.993926L429.703853,420.573730L440.666235,423.255179L443.298659,420.781732L443.411299,418.867997L439.427563,416.851039L440.928453,408.169969L442.507795,407.124541L441.094213,402.155856L442.989816,401.132471L443.602829,396.781008L441.422826,391.632284L440.344275,384.497348L443.125025,380.126107L442.581750,376.790852L447.406922,375.651348L452.519436,375.764449L453.044159,379.516724L466.076076,379.570451L468.326178,384.527749L468.409114,387.851510L470.753974,388.535946L476.117326,385.788362L482.014599,386.756292L483.876476,384.410386L484.268527,379.359077L488.031753,382.216590L496.509048,381.994600L505.501322,388.216353L512.445337,387.824642L512.707440,389.493322L516.806187,390.106364L518.582513,395.057637L535.199574,397.720152L541.123335,400.582242L545.748935,404.756490L556.211486,405.648387L558.673008,402.152320L562.638375,401.945803L569.200283,404.033811L569.270988,404.229903L569.355660,404.406045L569.459268,404.555140L569.589746,404.674405L569.740115,404.765244L569.905049,404.835262L570.080489,404.890246L570.263384,404.934545L570.451470,404.971386L570.837040,405.031510L572.015979,405.182509L572.408097,405.239664L572.797524,405.310283L572.990636,405.354313L573.182200,405.407153L573.371703,405.471965L573.560290,405.552017L573.746840,405.644159L573.931923,405.745113L574.299307,405.964154L574.846785,406.314654L575.390725,406.676392L575.748559,406.922824L575.924387,407.048647L576.096850,407.177159L576.264504,407.309423L576.425404,407.446859L576.576963,407.591329L576.715791,407.745232L576.837504,407.911610L576.932041,408.077901L577.169811,408.590225L577.255397,408.741808L577.355340,408.870305L577.481481,408.973160L577.626105,409.048501L577.784585,409.103342L577.953322,409.143101L578.129550,409.171920L578.311169,409.192932L578.496587,409.208506L579.637276,409.267624L579.826272,409.282128L580.013276,409.301585L580.197366,409.328214L580.377340,409.364956L580.551619,409.415701L580.718143,409.485553L580.874239,409.581148L581.021366,409.711366L581.157850,409.867950L581.286834,410.043205L581.410862,410.230957L581.773423,410.821258L581.897269,411.012925L582.025973,411.194613L582.162075,411.360856L582.308709,411.504967L582.467511,411.621069L582.636990,411.714663L582.814329,411.791688L582.997374,411.856690L583.184500,411.913112L583.566472,412.009824L583.953989,412.095236L585.118822,412.338596L587.967583,414.823714L587.843951,416.650833L594.290207,419.697156L595.656937,422.154284L597.637521,422.056648L602.099115,425.204438L603.669092,423.212728L607.614052,424.506801L607.203353,426.640067L609.403679,427.374523L618.350178,426.946443L618.244138,425.486749L621.166116,425.307740L625.764035,425.787459L627.310673,428.206635L634.742237,427.860628L634.567278,426.048547L644.250908,425.940291L649.291497,427.796238L655.826756,424.382274L658.241603,418.683441L661.631979,416.556036L663.247395,415.688109L669.287173,415.182912L673.121579,413.013289L675.853339,414.750678L675.791345,417.627110L680.117737,419.966706L689.039727,419.593157L692.374849,421.977407L694.130182,428.773412L699.185192,427.141025L703.124335,428.066534L707.618847,432.098467L711.272316,432.641929L720.785898,432.612208L723.074580,429.694700L723.983995,430.014876L724.114094,430.181347L724.258831,430.341700L724.413897,430.497745L724.576110,430.650819L724.743155,430.801892L725.085582,431.100610L726.650133,432.435692L728.372868,433.926140L728.891273,434.642773L729.028699,436.426061L728.601797,437.424367L729.745937,439.510554L730.356823,440.101785L730.243845,440.616826L730.387788,443.118146L730.414087,443.461875L730.435594,443.632072L730.450789,443.716285L730.470582,443.801715L730.493924,443.886438L730.547765,444.054455L730.648719,444.331695L730.894102,444.968537L731.202506,446.004510L731.028891,447.318399L730.981250,447.732449L730.970009,447.867425L730.963055,447.999593L730.962245,448.127734L730.970093,448.250201L730.989960,448.364793L731.026289,448.468597L731.084277,448.561291L731.159419,448.642745L731.246994,448.716051L731.343454,448.783535L731.446164,448.846925L731.553190,448.907486L731.888037,449.080150L732.839284,449.546813L733.706355,449.979793L734.041307,449.609767L735.476148,448.044069L735.876115,447.591228L736.004812,447.436901L736.129378,447.279553L736.248127,447.117950L736.358809,446.950445L736.458461,446.774871L736.543227,446.588405L736.612527,446.380117L736.666116,446.160335L736.708417,445.932298L736.742720,445.698412L736.771435,445.460445L736.818589,444.977015L736.858621,444.488413L737.007003,442.525687L737.049767,442.038871L737.074418,441.797651L737.102663,441.558829L737.136086,441.323456L737.176847,441.092965L737.227848,440.869285L737.292927,440.654966L737.375466,440.451505L737.472143,440.257444L737.579080,440.070207L737.693348,439.887849L737.812768,439.708922L737.935740,439.532365L738.188053,439.183516L739.346898,437.629835L739.601993,437.282804L739.852240,436.932015L739.973961,436.753956L740.092038,436.573035L740.204960,436.388055L740.310691,436.197409L740.406538,435.998970L740.487290,435.799171L740.558797,435.592083L740.623491,435.379625L740.683233,435.163268L740.739435,434.944125L740.845183,434.500606L741.097226,433.381976L741.201332,432.936781L741.313286,432.497161L741.374426,432.281010L741.440783,432.068552L741.514206,431.861092L741.599451,431.652131L741.692210,431.448482L741.790426,431.248694L741.892543,431.051666L742.104140,430.662825L742.430286,430.085776L744.181570,427.016703L744.943411,425.670161L745.919247,423.934455L746.138297,423.551742L746.362200,423.175561L746.477594,422.992099L746.596650,422.813557L746.720841,422.641913L746.852113,422.479780L746.991288,422.330049L747.137483,422.189744L747.288777,422.056290L747.443719,421.927735L747.760491,421.679877L748.405851,421.200032L751.327039,419.062215L751.649920,418.822652L751.967766,418.577315L752.122974,418.450387L752.274139,418.318820L752.419547,418.180648L752.556902,418.033240L752.683176,417.873119L752.793916,417.700877L752.893923,417.516324L752.986081,417.322767L753.072584,417.122724L753.234799,416.710261L753.389206,416.288844L753.540309,415.863636L754.813503,412.235515L754.965817,411.811862L755.124121,411.395959L755.207605,411.193612L755.295751,410.997293L755.390481,410.809490L755.494356,410.633512L755.610736,410.473705L755.743543,410.332438L755.889042,410.207581L756.043793,410.094689L756.205183,409.990384L756.371256,409.892134L756.540563,409.798071L756.884955,409.617429L759.498983,408.304429L760.193794,407.951723L760.712136,407.681992L761.053633,407.494253L761.221977,407.395680L761.387854,407.292270L761.550350,407.182230L761.709805,407.063267L761.865842,406.937599L762.171158,406.673017L762.620397,406.259037L768.311625,400.870028L778.602307,403.771247L792.234431,410.567171L799.116627,410.392453L804.229162,407.469007L807.005843,407.669179L812.802046,413.567889L814.916431,414.086417L824.209367,409.845665L828.007850,405.840773L840.717678,404.697078L851.229359,393.716885L864.694991,392.284243L866.479030,390.639512L866.900506,380.811142L871.206910,375.232170L888.623301,372.968107L894.850733,368.181630L897.382367,361.383024L897.729326,355.133727L896.019409,353.011963L897.027031,344.475784L900.978299,328.387245L903.636078,325.930022L922.692309,321.000496L929.721916,317.141743L934.239420,312.681282L935.124596,310.143870L934.048912,306.243146L941.079936,304.241066L949.375960,297.548246L952.372747,292.244947L953.007049,285.378686L955.060092,283.882729L975.010062,285.676333L981.266901,287.567368L990.066602,283.080115L996.386591,281.419933L997.116723,279.481976L998.924654,277.786704L997.614145,275.299655L995.501559,274.494417L993.783026,268.674976L992.776823,268.689076L991.858548,261.190270L990.851793,261.204367L988.924417,253.722034L986.704920,252.085126L977.743017,253.054718L974.411759,250.602607L972.990423,247.287619L964.930551,247.417253L964.131294,249.099019L962.733069,249.121750L962.693249,249.041786L962.603043,248.823739L962.524501,248.598693L962.454477,248.368556L962.390579,248.134778L962.274438,247.660348L962.166683,247.181049L961.287663,243.088848L961.181887,242.608850L961.071598,242.131123L960.951367,241.658370L960.884618,241.425308L960.811072,241.195638L960.728235,240.970607L960.632711,240.748207L960.527677,240.530554L960.415723,240.316356L960.298813,240.104631L960.178417,239.894648L959.931209,239.477888L958.414692,236.994077L957.155780,234.921996L955.019627,231.397221L953.516029,228.904298L953.136659,228.285360L952.877861,227.880005L952.744916,227.681708L952.608308,227.487941L952.466662,227.300401L952.317289,227.118612L952.162795,226.943146L952.004595,226.772244L951.681091,226.439126L951.187210,225.949742L950.616916,225.392751L952.823151,223.432027L952.612833,221.768532L955.430963,220.053038L955.221110,218.389025L950.172883,218.475602L949.751236,215.148547L950.760966,215.131656L950.339818,211.804974L951.350180,211.787381L949.917907,208.478665L944.760178,207.735627L944.278805,211.911236L935.469902,212.073995L935.241448,211.998584L934.847450,211.878948L933.068215,211.353681L931.491318,210.877222L914.882267,204.446423L915.959123,207.109649L915.925927,207.121819L915.460650,207.211947L915.231600,207.262718L914.988756,207.324331L914.746158,207.397225L914.518127,207.482174L914.319240,207.580255L914.164140,207.692631L914.048564,207.826993L913.960623,207.991127L913.893347,208.179853L913.847033,208.360440L911.530421,209.203426L907.165758,206.792785L906.623737,202.636197L904.277468,200.184596L897.203182,200.335836L895.319697,193.707598L889.253431,193.840519L888.681101,197.188790L885.319391,194.763677L881.275860,194.855107L878.923418,192.407257L879.493341,189.060682L870.515751,182.604924L866.469222,182.700533L864.668520,184.410307L865.114214,187.733131L871.070775,186.757196L871.957612,193.403078L862.526449,191.128775L854.323745,198.002600L848.374540,198.987362L845.083023,197.908461L844.913106,197.770601L844.737100,197.638599L844.558264,197.513200L844.377373,197.392600L844.011620,197.160673L843.642944,196.935576L841.051171,195.386024L836.056798,192.387017L833.273759,190.734371L832.908464,190.505829L832.729266,190.386650L832.553826,190.262123L832.383737,190.129978L832.221132,189.987179L832.068826,189.829717L831.931334,189.657394L831.803852,189.470822L831.683684,189.273837L831.568779,189.069361L831.457597,188.859586L831.242142,188.430211L831.031440,187.994081L828.836712,183.392252L828.414839,182.520590L828.197237,182.092172L828.084608,181.882219L827.967961,181.676736L827.845730,181.477464L827.715857,181.286695L827.575682,181.105049L827.427776,180.931989L827.274237,180.765167L826.956234,180.443522L826.630149,180.130542L825.473212,179.047392L825.330234,178.912478L824.986627,176.265896L818.458384,173.113074L813.519943,173.948274L813.396140,173.909910L813.203040,173.843420L813.011704,173.770406L812.822841,173.688252L812.637385,173.593496L812.458054,173.484609L812.282067,173.363357L812.108515,173.233102L811.936708,173.096398L811.596399,172.810784L811.258447,172.516472L809.405764,170.875767L805.696360,167.611638L803.506613,165.677335L803.168009,165.385252L802.826293,165.103003L802.653330,164.968524L802.478195,164.840904L802.300075,164.722705L802.119841,164.616848L802.029422,164.569180L801.892898,163.587848L818.764070,160.609934L819.203661,156.434069L825.283907,156.267609L825.497053,150.434393L821.097679,148.056781L820.523796,143.910825L823.108135,140.511659L822.764359,138.025368L819.719731,138.108194L816.214648,134.876048L812.039395,134.160182L813.746526,139.104934L809.251373,143.392711L804.411845,145.194919L801.369834,145.282681L801.137652,143.624387L782.884866,144.167078L780.312698,147.576507L776.258236,147.702192L775.787580,144.386123L773.288266,141.133616L767.322303,142.154329L765.886630,146.363221L763.622341,144.770158L764.162447,141.422135L764.464890,136.417326L761.421981,136.514887L761.184357,134.857800L753.069142,135.121692L739.575260,126.415226L740.108303,123.067932L732.107893,124.173598L727.684449,121.829721L726.305592,119.381517L717.045696,118.875767L714.649081,116.464986L708.556181,116.684523L699.694950,112.016406L695.632216,112.167884L693.724474,113.071155L691.544147,118.980283L699.264917,122.853960L700.125751,128.650012L702.400182,130.231657L704.272370,135.991992L715.020613,139.764766L716.763818,144.699950L714.980678,146.430624L715.345818,148.917642L717.614499,150.501806L717.978853,152.989176L714.050366,153.964660L711.294495,149.064398L709.268778,149.138830L708.744431,152.491966L699.632111,152.830461L697.331645,157.918908L691.903315,155.623552L690.002228,156.530294L689.360120,159.056118L686.448259,160.002306L685.288874,165.885951L681.738459,169.361206L678.706089,169.480663L677.303345,173.707628L674.643896,176.316501L669.468969,175.689563L668.210050,174.071675L664.168777,174.235428L660.763717,171.871298L660.514030,170.212168L656.221409,168.720367L655.904288,166.621380L655.234451,166.054139L655.155878,165.888532L655.049640,165.723428L654.923569,165.558717L654.783517,165.394318L654.633795,165.230171L654.477544,165.066229L654.153868,164.738773L653.331123,163.918293L653.011946,163.584153L652.858243,163.413498L652.710690,163.238940L652.571708,163.058827L652.444543,162.870946L652.333491,162.672378L652.241780,162.460097L652.166194,162.237073L652.102338,162.006250L652.046880,161.769854L651.997333,161.529547L651.909139,161.041752L651.789270,160.301958L651.132571,156.095193L651.009589,155.358183L650.964029,155.116032L650.914121,154.877231L650.857885,154.643306L650.792635,154.416328L650.714767,154.199073L650.619520,153.995211L650.502765,153.807343L650.368572,153.632912L650.221731,153.468230L650.065864,153.310503L649.903674,153.157651L649.737148,153.008141L649.224015,152.570066L648.011256,151.559858L646.976772,150.690165L641.137295,145.748256L640.795271,145.455308L640.456038,145.157724L640.122571,144.850540L639.959537,144.690787L639.800573,144.526299L639.489987,144.185093L639.033884,143.657018L636.478696,140.616146L631.665984,134.899594L622.191340,132.637973L620.537754,128.543355L619.524297,128.587562L620.153147,126.059501L617.740684,123.665660L610.644046,123.979963L607.861014,125.771135L605.575367,124.207273L605.187631,121.724493L603.030560,120.988610L602.642364,118.506106L597.571934,118.736179L597.052529,115.426947L594.893740,114.692626L595.388150,111.337572L600.591333,111.933655L598.172635,109.544489L610.462217,103.161956L609.059150,100.726544L617.442379,102.022040L619.216256,100.279303L618.958966,98.624992L621.877926,97.666095L621.363976,94.358564L623.268293,93.443961L622.496959,88.483875L628.597995,88.221809L626.939426,84.132758L620.192434,80.263542L617.512040,76.220432L614.329798,75.527724L612.794108,72.267524L604.650386,72.626794L600.187996,70.331186L596.115856,70.513960L594.472135,73.084116L594.994909,76.388534L589.151942,78.318969L588.890180,76.666604L585.575505,75.155112L585.313051,73.502926L575.891319,72.276628L576.155133,73.928745L572.349486,75.771466L572.124889,80.775625L563.106157,82.038007L561.691353,79.609265L562.708283,79.560230L562.177102,76.256154L563.194445,76.207124L562.530651,72.078437L561.512998,72.126759L560.848484,67.998647L558.546552,66.445591L552.439595,66.741771L544.833522,70.443231L541.647241,69.768867L541.378626,68.118385L540.707005,63.990838L535.961901,60.066881L536.576125,57.540565L534.134658,55.167047L531.078992,55.320330L530.330673,57.021888L525.103516,56.454924L523.338356,58.209048L516.075220,57.749858L514.512081,54.502832L507.110076,53.224139L504.662456,50.855869L494.201869,49.745983L491.284134,50.734101L489.851899,48.314949L484.758714,48.589255L480.130259,45.512565L479.852813,43.863446L475.916041,44.910839L476.333052,47.384290L475.507674,48.586027L473.555389,49.201552L473.359622,50.898196L470.081890,51.091820L469.965923,50.948578L469.839349,50.769005L469.729153,50.577780L469.638202,50.370439L469.563879,50.151269L469.501635,49.923504L469.448025,49.689598L469.400475,49.451381L469.357092,49.210201L469.240031,48.477356L468.982353,46.756446L468.571110,44.056939L468.313103,42.336541L468.236694,41.846692L468.153111,41.361557L468.105998,41.122510L468.053080,40.887319L467.991886,40.657637L467.919108,40.435677L467.830378,40.224370L467.725150,40.031029L467.604669,39.847860L467.473023,39.672108L467.333331,39.501681L467.187937,39.335014L467.038576,39.170968L466.577516,38.687922L466.107774,38.214762L465.790880,37.909239L465.630498,37.762347L465.468061,37.621612L465.302723,37.489444L465.133363,37.369009L464.955676,37.260952L464.773809,37.165034L464.588919,37.077942L464.401878,36.997163L464.023779,36.847528L463.451963,36.637235L458.815292,35.044288L457.234575,31.805359L455.054627,31.096213L453.049805,25.387299L452.029984,25.444635L452.345913,21.269229L455.865315,17.745203L452.521240,16.270283L452.098060,13.800132L447.872674,13.208137L446.427091,10.796247L442.342067,11.028970L440.441733,11.969669L440.725194,13.615613L438.683553,13.733034L437.520589,12.968407L436.667974,8.029558L437.547312,7.147682L436.383946,6.383923L431.561497,8.325153L433.152093,11.558022L430.089120,11.736239L425.719257,10.328708L426.169334,6.976481L419.898171,6.513194L417.120984,8.340527L416.690572,5.871733L414.360803,4.347095L413.770427,6.876556L409.829551,7.942906L408.219633,10.534172L409.672200,12.941848L413.611509,11.875318L414.042075,14.344610L415.062592,14.283801L415.189607,20.930161L410.520457,23.705044L414.010220,25.992123L414.296684,27.638846L413.277120,27.699682L414.280165,33.464995L406.272287,34.779202L401.764898,32.555786L397.833766,33.627956L396.525971,32.043144L394.488063,32.168331L394.777366,33.815398L388.519857,33.368478L386.069870,42.640484L381.257339,43.265951L377.990303,41.412677L374.829064,42.764317L372.566722,39.315378L369.932698,39.845635L359.304836,36.230562L361.204434,28.945102L363.490812,27.471722L362.700020,22.697554L353.274489,25.864165L350.549874,25.113210L349.841839,23.826700L354.386555,16.966492L354.459916,12.513414L349.095599,8.294405L344.881944,9.471223L345.529784,8.251079L344.315636,7.123923L338.502238,5.864746L332.696952,3.577120L326.400096,6.713043L322.852593,5.213516L322.357831,3.086638L319.279309,1.831124L315.712055,3.004193L312.614994,0.000000L310.397775,0.104094L308.738642,2.986027L306.618990,2.866552L308.622833,5.212817L307.936846,7.569749L305.186041,8.534098L306.498536,10.144210L305.219111,12.435137L309.300679,14.366278L314.636401,12.833516L315.520203,15.005825L311.903972,16.503749L313.402002,18.623898L325.960298,21.789375L326.932413,24.065120L324.660866,25.455123L325.213313,28.644406L319.638596,28.344413L319.608660,29.839514L313.463716,31.414418L307.890473,29.338108L303.037023,30.764725L302.031260,35.952006L283.172094,42.073098L281.757639,44.536516L274.972171,46.051330L268.896750,43.145614L263.795236,45.477580L264.192075,46.706257L261.935544,48.652933L256.364980,48.019654L254.742194,52.233138L257.202679,55.454015L256.664972,56.999489L254.161053,58.223048L251.414054,57.288575L250.689896,60.187987L236.534909,58.590545L234.061154,60.176087L232.196688,58.987447L229.425570,60.516307L229.292794,62.057147L222.970235,59.303153L214.293523,63.316622L207.576282,62.493302L203.436857,64.242185L206.371129,69.302493L204.121595,74.447721L203.987510,76.312888L200.160759,77.752293L195.899969,83.175039L188.526740,80.523435L184.743327,75.017834L181.622301,74.241110L182.915881,78.440851L175.511274,82.046414L175.725606,86.893295L171.066412,88.111798L169.056360,84.809556L164.671303,84.982611L161.365101,90.336625L162.448307,92.755749L157.934820,99.090433L158.183934,101.295069L149.648066,100.713926L148.896109,98.535970L142.275690,101.844677L134.370460,100.106157L133.499999,111.685402L128.578842,116.652258L122.656689,118.163805L104.226001,109.283635L102.590346,112.207857L100.814910,111.186099L92.288521,114.357384L88.689679,118.837889L88.748383,120.771145L83.563775,117.174803L80.167356,118.301286L75.425669,117.406970L73.119824,119.209659L60.433891,120.781668L57.070472,125.639933L57.745954,129.507485L54.791659,128.555284L50.957495,131.099704L49.654645,134.491443L44.853793,134.780598L45.557052,139.554180L41.368008,141.382122L38.943997,145.712364L40.235754,149.288396L38.818005,150.359958L36.129322,149.215368L36.956485,153.970981L35.771779,153.644411L35.410003,155.706428L37.805288,158.463976L35.820873,160.386550L35.430704,161.975718L30.961739,161.327162L28.511229,157.689223L30.425116,156.346976L29.489242,154.563030L30.992799,153.162640L22.791499,148.579192L23.794801,146.440454L26.579050,147.834899L24.522424,143.992966L16.908155,143.681253L15.802797,139.929025L16.435764,137.025157L14.287102,136.523309L13.813095,134.565135L5.217549,135.838284L2.226875,134.692167L2.148663,135.792663L5.506349,137.355749L5.175131,140.209811L7.905137,142.798786L1.925859,145.593709L2.740923,146.809772L1.075346,147.435376L6.589940,151.097294L10.088218,150.501806L9.313695,151.484228L11.810271,152.744081L11.582957,155.020244L13.920863,154.711220L15.122113,157.196146L16.060495,157.906264L20.338082,162.938708L17.629079,167.568017L18.668942,173.434947L20.369979,175.187741L23.023848,175.071775L23.566272,176.573044L25.729847,175.968591L30.126971,179.833095L28.251988,183.157494L36.527773,184.088311L37.960316,187.840711L39.838039,186.625715L44.289460,190.711769L53.750818,193.445274L54.446916,195.075948L53.073940,195.552097L54.025570,196.808974L59.147281,195.247558L64.089122,199.089357L60.149577,203.327748L61.024049,205.377171L71.768803,208.619394L72.297970,212.170208L68.493956,215.743265L67.354713,219.858054L65.308247,220.322639L65.577454,223.889627L63.284206,223.125790L61.974829,224.626026L62.446888,227.263408L60.997970,228.938468L62.545489,233.421231L52.922967,237.693341L52.448581,239.345717L59.230841,248.606528L66.588189,251.873736L70.935925,251.735629L72.393378,255.524631L70.871241,259.541716L72.590976,260.515755L72.759830,261.893234L73.563481,262.903753L74.279944,264.318797L77.482845,264.137290L78.293118,268.460662L80.300736,270.297186L80.215170,275.260874L82.999870,278.866111L87.429797,281.340240L89.579071,280.331758L90.914312,281.990479L91.375607,289.041611L89.976433,290.652062L92.368574,292.364875L93.738825,298.354708L101.586556,300.180071L102.598286,302.155121L109.119060,305.715270L109.435629,309.335744L113.031662,312.086263L112.812006,314.351336L113.939717,314.847566L122.286351,314.880037L127.349090,317.256808L129.108096,317.133977L127.616013,313.898876L136.871668,315.069213L141.340146,316.977263L146.818719,322.139274L149.991025,322.444271L149.817005,327.150848L151.216707,329.930146L154.331020,329.911080L155.222600,332.393259L158.290196,332.982225L159.298604,336.315619L163.551198,338.348979L163.142035,341.172821L172.451200,346.653646L173.447357,348.385842L172.751312,352.124569L174.702779,353.895136L182.824037,357.763639L190.496436,356.830222L207.208493,369.357707L206.575819,371.076641L209.620845,378.241426L208.893689,381.155431L212.505447,383.905585L223.609456,389.714639L224.943954,389.528677L224.411921,384.539061L235.102463,384.235048L239.210724,389.618476L241.718219,390.116263L249.736975,401.039823L256.397549,401.394150L259.391159,399.968368L264.023662,409.535845L268.238660,410.282104L267.558419,411.217242L271.952425,416.461239L270.489889,419.386574L271.947073,420.711690L279.834664,420.925353L287.758291,426.234635L290.455147,430.253707L300.069858,432.748074L303.300116,435.202207L303.587764,436.870196L309.151547,438.886422L308.535645,442.414442L304.592788,442.707450L302.974731,444.906468L304.324459,446.951262L308.409253,447.492022L307.710321,449.233241L309.124835,451.662531L317.477235,454.397713L330.379363,453.483849L336.891275,456.392540L341.783811,456.042131L344.316994,459.239766L348.537860,460.628733L349.099218,463.966759Z "/></g><g class="" id="reservoir"><path d="M575.669630,121.235188L575.446163,121.214143L575.105585,121.392326L574.511769,122.420057L574.113092,123.664607L573.858051,124.789239L574.579490,125.918124L575.224016,126.386108L576.070498,126.728507L578.238774,127.044948L578.760331,126.882166L579.151354,126.538363L581.532339,125.583453L580.271548,124.484749L579.068424,123.000934L578.697620,122.631921L578.917298,122.030708L577.994298,121.173456L576.498718,120.879527L576.325432,121.057708L575.669630,121.235188Z "/><path d="M594.075825,345.701038L588.707294,344.233845L587.755557,342.888196L587.551480,343.022406L587.457921,343.812840L588.394657,344.834279L588.715768,345.061033L593.096656,346.630687L593.437503,346.852506L594.502244,347.300386L597.777656,348.358644L598.872001,349.816793L599.139388,350.093027L599.964686,349.996946L601.551833,351.006521L601.659388,353.862282L602.038224,354.089083L604.199936,356.244814L605.374529,355.667540L605.264919,353.742876L605.108292,351.183852L604.291505,350.744411L602.079296,349.491107L601.845647,349.256558L601.260838,348.947125L599.821798,348.883543L598.815738,347.277073L597.351716,347.175346L594.075825,345.701038Z "/><path d="M676.864325,397.018267L676.131720,396.610931L675.656843,397.002002L672.672644,398.383150L672.145462,397.574117L670.089098,397.081207L669.472373,397.323771L668.450144,400.219079L669.265545,400.600983L670.579163,400.313141L672.338392,399.306057L674.986636,400.373255L675.679580,400.144113L676.669152,399.093893L677.670754,400.802545L678.547239,399.924166L677.858384,399.187952L676.864325,397.018267Z M692.786018,397.932317L691.108154,396.411995L690.153230,395.922050L685.762413,397.030556L685.486333,397.445115L685.726092,398.504154L687.432948,399.673998L690.363491,400.901786L691.694701,402.241553L693.684997,403.080656L695.270930,403.385944L695.575904,404.705867L696.182127,405.452220L696.834456,405.557421L697.572899,405.282966L698.226154,403.190366L698.064360,400.883442L697.971137,399.826174L696.272519,400.124299L692.786018,397.932317Z M681.613281,399.955284L684.537519,399.495591L685.576539,398.832225L685.435156,397.351352L685.891029,396.721251L683.860948,395.647056L681.721343,394.655620L681.081678,394.521969L679.818194,395.234073L676.915232,396.731858L677.560397,398.447505L678.265679,399.523172L679.477063,400.116531L680.289466,400.176646L681.613281,399.955284Z "/><path d="M940.716549,241.906508L941.176745,242.405940L941.899108,240.903439L941.771111,238.035994L943.041088,237.485920L944.110394,236.467497L944.262284,236.018867L943.926256,235.378681L943.640052,235.244870L943.014253,235.530099L941.399778,236.510459L940.390891,236.754850L940.417528,237.790185L940.531007,238.749486L940.716549,241.906508Z "/><path d="M341.152801,377.907413L340.791804,376.261833L337.689541,376.880837L336.803844,377.406494L337.424408,378.312656L338.962598,378.873895L340.077872,379.203604L340.852989,378.574391L341.152801,377.907413Z "/><path d="M350.882100,367.500490L348.887924,367.229444L348.700932,367.382407L350.753399,369.948560L351.646326,370.564833L351.781689,371.247027L350.975731,371.778217L351.135755,372.077278L352.373796,372.289529L355.016441,372.756497L355.493592,372.408429L355.409002,372.005723L353.978381,371.061254L353.696926,369.577269L351.607668,367.640823L350.882100,367.500490Z "/><path d="M345.607578,240.567447L346.172396,240.314574L346.889107,239.562308L347.969217,239.226329L347.977664,237.632418L346.553545,234.812861L346.674791,233.879391L347.932259,232.180766L348.670794,231.673749L348.078847,230.263301L347.873065,227.710369L348.763559,226.867143L347.916344,226.535043L347.038666,226.638773L346.079226,227.408802L345.840038,227.955178L346.155102,229.129637L346.412500,229.983754L346.457149,230.859529L345.884763,231.416723L345.227904,231.698396L344.917815,232.334281L345.105106,233.793415L344.904730,236.182260L345.000981,236.709775L345.490264,237.402106L344.343625,239.387627L343.367043,240.513914L341.144920,241.427511L339.117258,240.933728L337.932873,241.149273L337.556039,241.586001L337.494688,242.269987L337.520622,244.205090L336.694585,244.075469L336.012971,244.508715L334.901993,245.181599L333.317763,244.948308L331.750622,244.984236L331.081440,245.655614L331.065214,246.158627L331.644536,246.789871L331.951151,247.329525L331.441608,248.165711L330.073588,248.235579L327.577832,248.776679L327.589631,249.326244L328.161239,249.859612L328.962663,251.068001L328.599752,251.642012L328.241697,252.375743L329.038170,252.542693L329.703732,252.438649L331.026175,251.224426L331.531223,250.998949L331.628863,250.674829L330.935751,250.019553L330.361557,249.197283L332.124131,248.775975L333.375027,247.749442L333.173292,247.213995L332.491847,246.025909L334.074747,246.410137L334.794744,246.677148L335.453307,246.473543L336.112581,245.216716L336.823532,245.004494L337.824422,245.357613L339.278958,245.432289L339.642600,245.025096L339.627986,244.528440L338.547175,242.487367L342.254804,242.574298L343.627667,242.821553L344.260226,242.692642L344.750721,242.131921L344.775712,240.806938L345.607578,240.567447Z "/><path d="M323.888427,264.004263L324.686373,261.210349L324.539884,260.949056L323.981699,260.955971L322.121084,262.435103L321.488361,263.955985L319.291697,263.192702L318.778572,262.666617L318.166988,262.590117L317.669140,262.975663L317.354441,264.101396L317.829823,264.762275L319.495475,265.310882L320.764589,265.153219L323.160996,264.572031L323.888427,264.004263Z "/><path d="M393.141031,369.924906L393.481625,370.133410L393.785080,368.550619L394.832815,367.939563L394.797841,367.321855L394.430722,366.053954L393.698338,365.624968L390.901978,365.622847L390.006501,366.538777L390.593808,367.422214L391.280369,367.873127L392.543642,368.506533L393.141031,369.924906Z "/><path d="M549.999919,390.025403L546.643231,389.775095L546.782320,390.946038L547.663050,393.206581L549.141318,394.385489L551.607145,394.459267L551.541905,393.714410L551.137691,393.377106L549.861037,392.287057L550.624960,391.760624L552.658334,392.670685L553.581455,393.358014L554.573602,391.719612L555.454023,391.605481L558.483017,391.644658L560.517729,393.681882L559.616209,394.536112L559.815780,395.581997L563.288231,396.282094L564.195049,396.382465L565.145783,394.864230L565.057756,393.716532L563.732147,394.021605L561.076863,391.336431L560.418954,390.923411L555.516295,389.285795L554.937346,389.775095L553.293247,390.913010L549.999919,390.025403Z "/><path d="M412.715573,371.430651L412.353378,369.408607L411.540794,369.184191L407.192986,369.934925L405.968918,371.971029L408.288072,373.555140L408.898981,373.525218L408.946769,373.014320L409.402153,372.073207L411.737458,372.015093L412.715573,371.430651Z "/><path d="M566.617377,261.287494L565.449414,260.236133L563.455718,259.122608L562.941769,259.128205L562.536864,260.591786L563.369589,261.599257L564.280062,261.850268L565.795179,261.814556L566.617377,261.287494Z "/><path d="M787.070110,207.792269L787.202777,207.830969L787.939493,207.958865L788.602621,207.772568L789.646145,207.914700L791.486867,207.146363L792.747421,208.192636L793.151012,209.705492L793.688212,211.209278L794.280063,211.323279L796.346178,211.571690L797.732755,211.822215L798.095987,212.755366L799.176095,213.215619L799.686809,212.582949L801.133729,212.021369L802.270510,212.589986L804.020646,213.917272L805.283562,214.421177L807.076317,212.875707L803.849202,211.485133L802.989324,211.496393L802.035641,210.523171L802.388275,209.483133L802.255488,209.334659L801.423966,209.299476L801.416915,210.195252L800.155855,210.017924L799.628936,211.055870L798.433672,211.231093L797.565986,210.317694L796.610059,210.042553L795.028333,209.382508L794.263293,208.868452L794.265162,205.224145L794.218583,204.324299L793.816706,203.502573L792.917600,203.312622L793.348812,204.362994L793.205956,206.216892L790.746506,206.287251L789.066749,207.445383L787.831607,206.976074L787.070110,207.792269Z "/><path d="M48.153441,185.418600L49.511247,185.643622L50.703967,185.763259L52.035714,185.048058L55.846133,183.076828L57.742370,182.753700L60.189668,182.036700L60.001075,179.000449L59.711529,178.466615L57.169693,178.604348L51.985417,182.063163L51.518034,183.708617L48.949976,184.011209L48.202109,184.317960L48.153441,185.418600Z "/><path d="M395.698075,348.691386L395.067062,348.070411L390.791282,348.897673L388.911095,349.399972L389.794417,350.276007L393.699480,351.324446L395.066580,350.485128L395.777632,349.623925L395.698075,348.691386Z "/><path d="M939.360387,245.604284L934.949425,243.182135L934.475507,243.537534L934.588777,244.770766L935.804519,246.979798L936.779335,246.218072L937.729833,248.305319L938.799003,247.381986L939.208699,246.446090L939.360387,245.604284Z "/><path d="M192.489685,124.820848L191.199541,124.411246L188.386784,124.762377L184.135738,126.070162L183.501292,126.439768L181.818333,127.633666L182.122106,128.907061L182.718644,130.355829L183.907753,130.851408L186.627963,130.504348L190.639137,129.437195L192.105864,129.732685L192.489685,124.820848Z "/><path d="M315.176746,267.124397L314.642094,266.657016L313.842915,266.672525L311.907132,269.951376L311.107140,270.109299L310.922349,271.678697L309.354297,273.351109L309.199182,273.579556L310.080334,274.444707L310.452590,276.211036L310.857846,277.031122L310.666030,279.968924L311.329892,281.014067L312.391962,282.468293L312.876878,283.033920L313.034814,283.630588L314.683384,287.251013L314.887576,288.601095L313.936321,289.968158L313.664485,290.790678L314.685054,293.066461L315.365802,293.139124L315.829999,293.498918L317.270768,296.205241L317.181869,297.435710L317.948289,297.881624L317.923376,298.740306L318.261599,300.428094L317.192005,300.929788L317.189331,301.418081L317.709367,302.162530L318.033746,302.770096L318.142730,301.981180L318.951270,301.993881L318.742420,301.663642L319.689129,301.253670L319.163569,299.567256L320.297771,298.790402L320.356857,297.340460L318.688902,294.583963L318.805554,294.230508L318.545834,293.405794L317.789980,292.313729L316.703028,288.244878L317.020838,287.681284L316.753239,287.036584L316.856878,286.189463L317.058894,284.702641L316.850915,284.347167L316.101611,282.615694L315.223243,281.045803L316.237107,279.624781L314.853338,279.399115L314.388990,278.211572L315.188703,276.934516L314.193158,276.763164L313.361607,272.736989L313.625635,272.483870L314.450214,270.876363L316.020762,268.746533L316.302789,268.028864L315.176746,267.124397Z "/><path d="M935.722144,284.021319L934.196863,284.424045L935.244397,286.192990L935.012238,287.160022L935.415232,288.135544L935.939888,289.580889L937.160748,289.954755L937.369805,290.423152L937.522626,291.416398L938.683749,292.671184L939.787853,292.652312L938.787827,291.508106L937.646804,289.686700L937.147896,288.566532L936.817661,287.650248L936.012691,285.156053L939.179035,284.557726L938.578947,284.086912L935.722144,284.021319Z "/><path d="M698.919960,419.379853L697.411333,419.392511L696.599393,419.614027L696.060693,419.850326L696.108569,420.151713L697.090870,420.492722L700.441425,422.424907L701.301751,422.049926L701.992581,419.923196L701.599600,419.746231L698.919960,419.379853Z "/><path d="M367.021875,84.561885L365.841430,85.078948L365.682745,85.365509L366.273454,86.874026L366.543887,87.405144L367.671857,88.023859L368.884905,88.554297L369.469857,87.674585L371.077609,88.127564L369.646404,86.320497L367.597554,84.600420L367.021875,84.561885Z "/><path d="M619.254395,272.041754L618.447649,270.382932L617.988024,270.982262L619.125087,272.749986L620.863442,273.275604L622.672059,274.144631L623.316485,273.944785L625.446947,274.248079L626.132969,274.635438L626.155523,272.879784L625.990746,271.866549L623.877426,272.307458L623.020661,272.892461L622.031700,272.784521L620.324357,272.287209L619.254395,272.041754Z "/><path d="M292.404163,415.286549L291.685170,414.733346L290.189329,415.697564L290.296471,416.034301L291.226121,417.044525L295.477735,420.407823L296.268739,420.985844L299.761794,421.213658L302.491151,426.486880L305.543487,427.592810L307.799235,427.783148L307.698684,430.108294L305.985763,430.698440L305.473069,431.440730L306.888088,433.925947L305.074659,434.858637L307.218741,436.054596L309.983484,438.833697L312.454593,439.989393L314.492185,440.179770L317.282786,440.682255L320.508427,442.209550L323.264680,443.602783L326.542002,447.064864L330.047600,448.204430L332.415243,447.947495L336.103918,446.920473L335.669421,446.343621L333.618929,445.320872L328.385852,445.456999L326.456568,443.352568L326.466791,441.467130L325.366127,442.072247L325.107407,438.782035L324.313208,438.030456L324.279727,438.288058L323.750224,439.523715L323.060821,441.789858L318.845169,438.181195L316.912323,438.026209L317.740169,436.352528L319.785705,433.979728L318.001103,433.327985L314.026181,434.564250L311.951046,435.086504L312.928771,432.561612L310.716476,431.247550L316.127563,427.103878L316.744555,425.285452L316.366697,423.740188L314.336744,422.719233L312.641389,426.784057L310.843405,425.567764L309.092504,425.051961L303.965666,423.883109L303.453252,422.414192L300.979342,420.211850L299.430400,419.391172L297.646696,419.985455L295.320307,418.844296L294.297602,417.774614L292.404163,415.286549Z "/><path d="M448.291872,245.967706L447.121573,244.872929L446.142462,244.198045L445.063848,244.412203L444.997426,244.961693L445.103053,245.929663L445.112867,246.573584L447.620304,248.236988L446.417448,249.105008L446.359935,250.605073L446.110260,252.293346L446.647777,252.445549L447.726457,252.106617L447.739530,251.874088L447.906071,250.757268L447.141990,250.321824L448.508848,249.100780L449.222492,248.644222L449.718427,249.471386L449.770115,250.028713L450.804831,251.191309L451.346280,251.659881L452.308061,252.532220L453.088800,253.113557L454.342797,254.501762L455.433823,255.487634L456.438684,255.083838L457.463001,256.016169L457.653761,256.718782L457.918561,256.789960L459.090635,255.864655L460.398879,256.332589L460.847427,255.357967L463.371177,256.282554L465.098983,256.190940L466.922835,256.758247L467.917992,258.465864L468.815042,260.753631L468.644546,263.068340L468.656301,263.484215L469.177131,263.472232L468.989086,266.019753L469.233579,266.381385L470.101483,266.751479L470.459358,266.326400L470.694825,264.778394L470.325809,264.065039L470.369475,262.602425L469.905289,259.850064L470.244564,259.745049L470.420767,259.233369L468.144898,256.162751L467.752101,255.009845L465.854656,255.356558L464.220761,255.241789L462.967581,254.622263L460.994908,253.635008L459.506551,253.993686L458.698036,253.924628L457.728164,254.312906L457.274819,253.619505L455.117071,253.143153L452.888495,250.870005L453.030954,250.426105L452.624930,248.811203L452.869606,248.110169L450.445811,247.265426L449.655520,246.358708L448.291872,245.967706Z "/><path d="M151.819364,228.157706L150.986771,228.205838L152.017422,229.690127L152.576722,230.485515L150.999374,231.783602L149.598808,233.519470L148.587099,236.104085L144.310152,236.697801L143.551841,237.538039L143.576800,237.622557L146.863771,237.217577L148.713932,237.236593L149.267775,236.549899L151.251771,233.419197L154.123966,231.700508L155.484974,232.192737L156.177956,232.171893L160.536088,233.598343L162.435737,234.069510L163.476631,233.876228L165.084507,232.312453L165.120897,231.706846L164.214146,231.767406L163.193245,231.803319L161.418972,231.649270L160.119559,231.335743L158.708039,230.344983L157.567861,230.660910L153.533614,230.037269L151.819364,228.157706Z "/><path d="M741.537017,180.482253L741.315245,179.648261L740.871806,179.669047L740.366641,181.093462L740.935661,181.537985L741.537017,180.482253Z M747.449571,181.383524L746.072879,179.734845L745.120157,178.752699L744.172139,178.452905L743.563719,178.687154L744.218403,180.331165L745.974307,181.758732L746.736959,182.314098L747.449571,181.383524Z "/></g></svg>