<?xml version="1.0" encoding="utf-8"?><!DOCTYPE svg  PUBLIC '-//W3C//DTD SVG 1.1//EN'  'http://www.w3.org/Graphics/SVG/1.1/DTD/svg11.dtd'><svg enable_background="new 0 0 1000 458" height="458px" pretty_print="False" style="stroke-linejoin: round; stroke:#000; fill: none;" version="1.1" viewBox="0 0 1000 458" width="1000px" xmlns="http://www.w3.org/2000/svg" xmlns:xlink="http://www.w3.org/1999/xlink"><defs><style type="text/css"><![CDATA[path { fill-rule: evenodd; }]]></style></defs><metadata><views><view h="458.215529306" padding="0" w="1000"><proj flip="auto" id="robinson" lon0="13.7318962129"/><bbox h="40.1" w="87.71" x="155.1" y="-852.02"/></view></views></metadata><g class="" id="river"><path d="M317.508525,392.781095L306.382092,389.665824L283.123054,394.260233L282.328771,376.527695L274.724985,370.215834L263.974959,367.289373L252.841506,362.693826L248.082388,356.432927L253.662589,353.058136L252.382160,344.104637L243.520412,344.256758L232.787049,351.732065L222.652753,350.531200L215.439848,345.410295L169.311904,326.796943L168.288512,323.187280L162.453320,328.703219L157.796782,335.668918L169.794798,347.721180L179.386257,353.895959L182.819419,356.381210L192.640979,359.388702L200.378385,366.105555L204.564099,371.700668L207.314664,375.479917L210.505172,381.522553L216.307282,385.596443L232.507643,384.893907L252.809726,399.489491L267.037101,411.430107L273.813522,420.683003L278.304090,421.809980L290.614684,427.871762L300.899389,434.375809L310.974509,451.348019L331.907765,455.688823L349.825274,456.061488L349.698228,448.975156L333.930793,438.360872L327.878534,440.411334L318.048904,429.569977L322.100644,422.853893L320.042631,419.285254L317.360091,422.849611L305.792997,421.704993L313.877604,409.833360L317.508525,392.781095Z " data-code="Sumava" data-name="Sumava"/><path d="M243.856463,74.310229L250.745429,70.930045L263.462017,63.524095L264.552415,64.778994L278.977691,51.309433L272.162271,43.587636L266.122597,47.215275L261.862472,43.452980L241.471134,35.929826L160.397197,76.075493L98.015378,111.904481L89.759915,115.935745L79.522608,118.104809L66.983442,118.937208L53.566591,126.686550L44.759924,136.408407L66.279712,159.053765L94.240824,143.100136L106.297311,142.793839L125.704959,130.107988L172.768419,108.734322L188.264932,103.707508L243.856463,74.310229Z " data-code="Krusné hory" data-name="Krusné hory"/><path d="M292.976499,49.955570L309.931984,45.061459L333.419761,44.297367L341.949525,48.094737L345.823002,59.715306L339.576474,62.848419L347.566175,64.709284L330.530712,72.338643L330.551322,72.309510L331.850931,76.075493L305.568305,88.260996L295.620956,92.876153L284.840503,96.208289L275.908438,103.659474L254.203062,108.376631L258.510898,123.053601L236.818363,118.807968L233.383262,107.359640L230.089090,101.188339L226.758095,95.958513L233.107326,90.789393L243.564617,90.455710L244.542865,80.047856L245.223017,75.952792L255.655604,70.822976L261.401634,71.533157L275.287769,73.821941L282.353837,72.442257L279.620054,54.435415L288.450734,53.160429L292.976499,49.955570Z " data-code="Ceské Stredohorí" data-name="Ceské Stredohorí"/><path d="M485.243006,44.963815L481.824876,44.668795L470.777398,60.994707L479.707836,56.621874L493.342675,57.434147L494.177428,67.530226L499.642546,67.403731L497.252027,74.867586L501.370303,76.451189L516.124079,76.686582L553.793540,77.993171L552.999296,66.710122L549.883384,66.492224L539.702497,61.237573L525.447835,54.947490L512.560161,53.270701L485.243006,44.963815Z " data-code="Krkonose" data-name="Krkonose"/><path d="M453.838827,64.625968L470.720997,60.980466L481.805257,44.686982L475.440308,44.510043L469.252565,41.597359L462.376212,35.061854L456.791336,28.376457L454.845678,21.067780L451.794400,19.636202L430.347256,22.416477L419.058877,21.994218L414.361334,20.188798L414.045563,27.823230L401.530334,32.631550L417.948868,37.494986L427.062672,30.915450L439.350280,58.505036L439.241699,57.250404L453.838827,64.625968Z " data-code="Jizerské hory" data-name="Jizerské hory"/><path d="M674.505080,173.586238L668.463338,172.814306L661.840771,169.129184L655.770939,161.226530L643.918169,145.637625L622.095381,127.703888L619.417364,123.769333L615.764551,123.203334L617.138025,129.008790L620.958219,134.139023L626.170006,145.986430L641.918535,161.019776L655.766557,181.426659L664.829496,185.744258L667.074400,189.400438L681.412772,198.973607L689.843156,198.947294L684.626105,183.933382L674.505080,173.586238Z " data-code="Orlické hory" data-name="Orlické hory"/><path d="M781.186032,189.335132L778.861605,180.446205L786.306610,172.045488L776.840065,168.993660L755.482335,151.741022L749.890185,151.906072L749.817560,160.326486L747.290787,158.476786L747.213048,151.682456L739.981072,151.028126L739.564936,149.395838L727.192910,157.335246L724.038523,170.612910L738.464399,172.901984L735.114607,181.251034L742.226870,185.609157L758.000942,200.073448L770.973416,198.643353L781.186032,189.335132Z " data-code="Hrubý Jeseník" data-name="Hrubý Jeseník"/><path d="M981.671957,259.828765L959.516054,255.843154L953.181640,255.571778L945.610595,259.393404L955.360818,265.629987L954.403713,267.816577L947.652210,265.368138L937.547985,270.084843L931.438585,271.323952L925.659044,274.627331L913.203440,281.355895L905.610378,281.525673L908.111867,275.682977L900.323006,275.865099L894.775507,277.571416L886.681619,279.113236L883.486492,285.900663L900.728907,287.755833L908.019742,291.596969L916.026091,293.749055L922.453762,294.874595L922.710730,297.386035L940.237452,305.934916L941.398977,304.504924L949.825001,298.818187L957.331056,290.906527L965.985897,285.884889L977.829951,286.402689L988.397353,285.385899L990.819927,284.550882L988.500451,279.065735L985.346049,271.494703L978.563997,267.476225L981.671957,259.828765Z " data-code="Moravskoslezské Beskydy" data-name="Moravskoslezské Beskydy"/><path d="M899.966368,354.850052L900.293187,343.833589L898.518886,344.158925L896.942925,347.301046L886.198923,350.954961L876.531072,354.027161L876.818181,356.314778L875.195214,360.574661L870.758293,362.708142L868.763932,368.011618L864.797456,369.927184L858.269402,378.450691L850.474431,374.063269L854.063671,382.402114L846.623901,383.952970L838.856049,388.237243L831.138622,387.175463L825.952281,389.624390L819.339714,392.443143L818.519763,398.721678L820.987346,402.757596L814.727188,403.604776L812.740296,400.892145L809.020383,395.274374L800.323585,398.151278L794.981730,398.726665L791.340380,407.026186L814.242611,409.293510L834.956488,406.662738L853.594091,398.200815L863.773639,390.446074L871.982120,382.715341L874.584586,377.401889L878.258464,375.019406L894.089253,370.446286L898.787555,365.193827L899.966368,354.850052Z " data-code="Bílé Karpaty" data-name="Bílé Karpaty"/><path d="M118.560711,296.490235L101.933761,266.629147L88.900939,235.790440L84.658551,204.147077L70.779417,204.158515L71.765507,188.774139L55.923556,183.236961L47.930427,191.860876L58.897163,199.692408L67.933838,210.804158L68.195385,214.313189L66.369944,218.590988L62.682208,222.889915L60.576989,227.795786L57.728020,231.610536L51.992545,239.899058L55.137825,244.716203L62.262253,250.446923L71.058618,260.343514L91.284413,291.602418L104.302521,305.641267L119.093465,315.830058L126.507074,316.040965L118.560711,296.490235Z " data-code="Ceský les" data-name="Ceský les"/><path d="M783.873279,288.393162L746.225045,276.825032L737.621272,282.608631L734.784330,301.411695L747.659304,341.941707L760.839934,360.772548L782.613107,360.772548L790.635877,336.149240L789.749955,314.434710L789.262640,297.071677L787.962584,292.370561L783.873279,288.393162Z " data-code="Rychlebské hory" data-name="Rychlebské hory"/><path d="M705.406177,157.010844L727.132397,157.279475L739.593181,149.430701L748.698048,149.141129L751.592239,143.986244L754.949215,136.578036L749.028929,133.865795L732.090750,139.119105L729.437189,134.566739L723.768453,127.784049L714.952180,115.260630L712.761885,114.601770L697.927461,112.552985L696.545731,114.891103L704.257283,127.520784L717.330496,143.488502L717.343035,147.715986L704.280476,154.192487L705.406177,157.010844Z " data-code="Nízký Jeseník" data-name="Nízký Jeseník"/><path d="M796.978714,158.056123L791.044929,162.282301L786.340187,172.014800L778.852455,180.490184L781.168551,189.347642L770.949778,198.701147L758.033427,200.092529L759.654961,201.593907L760.232146,202.199197L763.292958,205.302339L750.923945,210.696220L744.071195,214.010358L748.033692,218.101588L750.642283,221.557198L759.060908,229.278156L762.366086,235.372943L771.437837,241.460480L775.269677,252.761459L776.160937,259.691649L783.618247,266.725254L776.469304,277.328074L781.803827,281.209654L786.679469,285.425133L781.385253,287.360525L789.564767,290.661225L798.556136,292.549043L800.274822,283.464869L809.301847,275.724203L822.596757,271.325636L833.220681,269.102749L844.105331,263.175089L865.046757,254.891337L868.161379,248.338457L860.791715,245.658947L863.678053,242.506449L876.897145,240.420093L876.086116,235.260393L891.984919,230.602272L897.762153,222.832760L902.062575,215.753299L906.640309,211.939529L898.180385,210.603470L884.479939,210.179324L870.960316,209.654368L851.771082,213.638458L855.885437,202.884238L844.296771,195.416789L838.087196,190.917060L830.260922,181.863475L825.528623,175.747441L824.593611,176.606275L813.668908,169.408880L796.978714,158.056123Z " data-code="Novohradské hory" data-name="Novohradské hory"/><path d="M251.320137,199.552138L219.370855,183.689581L162.131891,179.365459L143.095674,247.184999L149.934695,263.078514L175.992080,276.087844L239.536863,270.305315L253.244984,239.963215L254.916780,216.864593L251.320137,199.552138Z " data-code="Chriby" data-name="Chriby"/><path d="M417.935228,414.260314L413.423311,422.394097L388.307322,427.675596L387.747718,435.854620L389.807676,449.705895L405.843603,451.878510L407.068447,438.624349L418.152542,423.643736L422.650868,419.249268L417.935228,414.260314Z " data-code="Doupovské hory" data-name="Doupovské hory"/><path d="M805.108534,332.490221L801.658504,329.689447L799.702361,327.313903L794.621474,326.410974L786.165020,335.450039L782.179667,337.964346L776.372300,347.082739L769.766072,351.387839L763.318012,357.744201L756.268647,366.526912L761.922079,367.657878L770.688439,366.262698L775.874948,366.904339L779.216608,368.145621L784.573905,366.540825L788.766913,365.554766L788.441452,361.174075L790.838088,359.594901L793.067498,361.643640L796.367173,357.655162L797.690833,356.541287L801.141620,355.666382L802.134567,353.026516L805.174570,352.779079L810.960080,351.196580L812.401754,345.434616L812.027410,343.428690L810.381278,339.172371L805.108534,332.490221Z " data-code="Brdská vrchovina" data-name="Brdská vrchovina"/><path d="M174.086920,121.036500L157.519302,115.852176L125.686672,129.824256L126.347458,145.934085L144.036344,165.316572L170.681119,171.401776L190.199861,155.562346L174.086920,121.036500Z " data-code="Jestedsko-kozákovský hrbet" data-name="Jestedsko-kozákovský hrbet"/><path d="M256.027746,233.229459L246.472756,232.186387L238.297318,236.778875L237.669221,245.175556L238.445142,249.259443L245.572455,256.949072L249.750973,262.033490L238.137100,263.878091L243.734817,269.366621L244.270163,276.818642L254.221792,277.844784L264.823429,277.479222L272.833997,277.391469L269.320366,266.544972L263.965701,265.874020L263.282791,262.434253L274.502942,261.179658L284.367623,258.636368L287.018366,255.395931L290.821325,249.185635L300.114349,247.866675L301.899409,247.146693L309.105981,246.046489L310.154554,237.566089L308.916955,237.461771L304.404004,238.229299L311.741967,232.000067L317.275987,219.013010L324.093075,216.107099L340.025597,203.738666L333.983836,200.264616L326.620280,204.313266L320.182532,207.347841L301.613783,218.965465L293.719084,224.815830L271.959645,223.451538L266.004898,227.385047L264.601603,220.611818L254.248456,224.872780L256.027746,233.229459Z " data-code="Luzické hory" data-name="Luzické hory"/><path d="M424.275372,50.019437L417.013229,41.062246L410.708308,39.033757L394.877944,40.446001L400.608915,50.301531L414.176436,60.077558L430.031143,66.263787L448.904314,72.244832L460.159039,89.573157L461.775919,94.837267L488.164951,106.344573L485.177804,99.377606L481.532147,94.719683L476.300737,93.424559L469.855420,79.962827L448.447764,65.010550L442.231600,62.243128L434.139615,65.105470L424.275372,50.019437Z " data-code="Javorníky" data-name="Javorníky"/><path d="M388.763467,33.993681L387.800468,36.032485L383.686669,40.429794L377.381568,41.092241L367.619516,37.711149L360.864847,33.516399L353.256656,29.551653L348.849857,30.985560L346.050256,29.452912L343.925489,22.906787L334.746312,16.538032L339.894772,31.580561L333.213577,40.289372L333.354923,44.314699L341.967542,48.062243L350.263417,42.322513L352.968458,51.655160L360.625759,44.147825L371.440530,44.129643L383.367961,42.965619L394.884431,40.492335L392.401201,35.612069L388.763467,33.993681Z " data-code="Táborská pahorkatina" data-name="Táborská pahorkatina"/><path d="M910.430078,314.659114L903.132784,318.477072L895.243804,320.867411L890.897140,320.962126L882.209775,320.161610L882.239755,328.389500L886.050236,332.817555L891.410882,339.690660L893.032205,343.711225L896.938850,347.273065L898.545305,344.157290L900.193851,343.804755L902.881552,335.247258L906.323155,329.377412L934.947592,314.701241L937.045776,309.480297L937.763411,308.806668L922.453567,310.190295L910.430078,314.659114Z " data-code="Verubská vrchovina" data-name="Verubská vrchovina"/><path d="M411.929576,302.068201L404.888346,291.191600L391.153360,288.192595L344.815362,293.486449L334.801400,282.997412L297.809964,283.858199L296.675308,306.993745L313.404297,305.753119L303.287409,321.496532L312.075259,323.321696L319.163540,322.387559L330.847329,343.226193L349.754006,342.621657L361.551689,367.889412L381.560281,359.223735L381.385438,345.331080L372.183487,324.371721L400.360174,328.595383L404.870073,317.340611L411.929576,302.068201Z " data-code="Podèeskoleská pahorkatina" data-name="Podèeskoleská pahorkatina"/><path d="M120.026164,299.901186L126.498390,315.897571L134.444710,315.683290L152.140029,329.685380L157.785649,335.669879L162.459334,328.690081L160.031786,321.022799L168.308536,315.094024L154.289967,304.453051L150.933095,301.668316L138.470279,303.810401L134.770365,296.099462L120.026164,299.901186Z " data-code="Novohradské podhùøí" data-name="Novohradské podhùøí"/><path d="M71.468522,188.665921L70.766828,204.273357L84.646235,204.003763L88.873015,235.989872L101.872617,266.645116L118.501347,296.625922L119.982122,300.079680L134.755825,296.130747L138.417789,303.749620L150.908654,301.721866L147.867203,285.839196L144.655892,282.983897L137.305012,281.595630L130.651635,268.749457L120.481785,265.182853L125.776618,260.332870L123.902711,252.916601L112.814727,250.635004L110.848327,245.074278L103.148852,222.769801L100.542162,212.086444L90.273105,198.773211L77.542286,180.697949L71.580584,178.990815L71.703212,188.808226L71.468522,188.665921Z " data-code="umavské podhùøí" data-name="umavské podhùøí"/><path d="M358.416053,456.139821L367.217850,448.762034L375.752723,446.977986L385.564235,449.292436L389.749929,449.581748L387.792132,435.503399L388.268653,427.670074L413.413132,422.416295L417.893985,414.319657L416.296906,412.922140L407.081995,411.669223L403.928058,405.453249L394.746497,406.561472L394.345307,395.986105L388.558872,390.687177L372.065645,390.590838L350.691308,385.966777L354.999089,392.469483L352.080525,408.223848L365.593695,417.861795L366.122696,431.321483L362.049640,432.478411L362.461391,440.998867L362.333548,450.847503L358.416053,456.139821Z " data-code="Blatenská pahorkatina" data-name="Blatenská pahorkatina"/><path d="M358.410406,456.215529L362.306654,450.700459L362.466345,440.817458L361.995754,432.367993L366.104524,431.222391L366.204959,424.349243L365.481699,417.834812L352.223944,408.171920L355.059987,392.607538L350.697041,385.882302L345.366487,377.584320L323.786423,355.648103L307.185861,337.599392L301.358587,334.883806L299.889328,337.317945L291.309454,334.240667L289.759332,330.949265L280.616070,329.837246L271.998913,336.692750L264.877966,328.435000L261.771478,327.582076L262.217007,322.880186L249.791891,317.522572L234.455360,317.826151L223.350248,333.615402L216.426175,323.826772L220.205658,318.326168L214.592353,314.897604L207.359282,325.755733L196.704804,321.326404L198.823356,309.969567L188.400896,305.542009L178.571324,313.326278L168.286789,323.198675L169.311468,326.795544L215.444130,345.407668L222.607103,350.428879L232.750514,351.769683L243.527097,344.121081L252.492249,344.210426L253.646535,353.002877L247.899052,356.363055L252.818289,362.625828L264.004032,367.187985L274.776788,370.378384L282.427792,376.672343L283.048163,394.271098L306.493923,389.763513L317.476074,392.768526L313.701322,409.983222L305.876263,421.705218L317.303195,422.745673L319.913728,419.302285L322.122074,422.875306L318.126114,429.608152L327.922529,440.405699L333.722599,438.329043L349.643672,449.053189L349.773738,456.072275L358.410406,456.215529Z " data-code="Vlaimská pahorkatina" data-name="Vlaimská pahorkatina"/><path d="M188.396238,305.530317L198.833264,309.969342L196.714995,321.334023L207.355547,325.761034L214.580339,314.893277L220.205514,318.336193L216.438305,323.831743L223.359621,333.713441L234.839978,317.983674L249.658156,317.270641L262.186892,323.010206L263.845504,323.979831L269.578115,326.385734L280.199573,327.629804L291.386521,326.622238L303.291065,321.537885L313.438855,305.706338L281.813269,307.909826L275.621022,293.777234L272.899793,283.904849L265.104417,277.533362L254.128544,277.824480L216.542269,287.337626L188.396238,305.530317Z " data-code="Beneovská pahorkatina" data-name="Beneovská pahorkatina"/><path d="M344.840460,293.342298L391.317004,288.138616L404.990980,291.316825L412.781041,278.574513L427.791292,260.076760L451.355725,254.566743L450.068572,239.597844L443.921736,238.975586L440.515584,226.906210L417.274983,215.370038L415.436265,230.700720L414.363686,246.829690L403.294199,244.731929L394.878758,237.326662L382.869394,257.212683L365.549532,255.905251L339.625823,271.286339L326.380494,278.823708L334.714485,282.811065L344.840460,293.342298Z " data-code="Èeskobudìjovická pánev" data-name="Èeskobudìjovická pánev"/><path d="M417.278979,215.441081L425.938724,188.835293L420.882478,185.432162L410.300887,184.924267L403.807723,184.619534L403.372972,181.775518L397.514070,180.759866L390.433721,182.943562L386.101488,188.835293L379.855808,193.066222L359.663751,197.689718L360.032375,203.279544L356.482147,211.081673L349.116525,208.590868L339.972598,203.660708L324.044901,216.127460L317.305241,219.038386L311.769326,232.007441L304.365157,238.226870L308.847727,237.463684L310.137811,237.514563L309.231437,246.078977L301.821298,247.109503L299.833616,248.000071L290.787061,249.244340L287.015568,255.371904L284.425452,258.617370L274.446360,261.192212L263.278710,262.418919L263.980469,265.842160L269.310458,266.570351L272.855628,277.448434L264.784072,277.490627L272.908107,283.960859L275.701285,293.925526L281.772294,307.775909L296.650246,307.069546L296.761882,304.965904L297.816314,283.949950L315.419253,283.388442L334.964030,283.065412L326.391032,278.930255L365.483061,256.008733L382.963818,257.089113L394.893847,237.199286L403.263147,244.843486L414.415352,247.002814L415.508054,230.746256L417.278979,215.441081Z " data-code="Jeviovická pahorkatina" data-name="Jeviovická pahorkatina"/><path d="M269.534378,326.389062L263.842492,323.950989L262.045514,323.044564L261.692011,327.608153L264.890963,328.420901L272.105982,336.705584L280.638007,329.796356L289.723683,330.984286L291.334307,334.329431L299.787413,337.268377L301.363520,334.892192L307.232485,337.643576L323.792454,355.643346L345.382129,377.557959L350.741483,385.976861L372.102341,390.640729L375.869926,382.972181L375.600533,377.245017L371.773572,372.895326L361.508813,367.857690L349.708549,342.646550L330.812864,343.240692L319.200325,322.419454L312.098903,323.263354L303.293245,321.513063L291.359647,326.607870L280.190168,327.608153L269.534378,326.389062Z " data-code="Javoøická vrchovina" data-name="Javoøická vrchovina"/><path d="M520.571332,391.762022L535.371869,398.117775L550.934038,403.116003L560.204302,402.388979L569.154151,402.391207L592.976510,416.057754L597.607931,413.740161L619.489613,407.609949L618.016119,391.085693L627.804303,384.902529L637.962888,368.095972L639.837285,353.902001L631.180979,352.260808L625.941089,344.248803L620.422899,341.353260L614.844021,334.453010L610.635022,334.308262L606.490071,337.106819L585.616349,339.953818L589.077291,325.624283L582.277291,325.045416L577.606027,329.724823L571.232417,334.597759L554.923364,331.220416L549.581152,334.356511L554.406714,345.407074L557.012120,348.689010L555.739732,357.136293L547.274075,360.901879L549.555947,368.530550L543.350946,365.585155L543.280359,371.138103L529.125396,373.649215L530.984625,361.094994L534.502783,356.122534L522.559015,362.639946L521.431087,368.385690L520.571332,391.762022Z " data-code="Køianovská vrchovina" data-name="Køianovská vrchovina"/><path d="M440.269664,409.108014L441.738074,380.169060L444.506317,377.029766L455.278069,377.705905L466.586705,382.949039L470.088486,387.289773L475.621581,386.882991L483.099377,384.025766L491.636887,381.956133L494.680715,382.728941L501.955843,367.516541L495.849139,355.929440L503.764936,344.055761L498.266942,342.173644L511.652826,332.426579L504.257915,326.975004L488.460491,329.194142L481.100520,329.676579L472.225176,348.061562L461.218218,344.586629L446.180068,351.681578L441.418794,361.819184L436.817711,384.371199L440.269664,409.108014Z " data-code="Hornosvratecká vrchovina" data-name="Hornosvratecká vrchovina"/><path d="M552.672258,250.918609L553.226656,265.222524L562.092942,274.616846L555.917887,286.704203L551.635045,293.585772L542.215976,295.640935L543.163620,307.687405L525.787584,305.535969L525.724239,302.093924L509.121839,313.664242L489.518494,316.581271L481.152942,329.782288L488.522616,329.256079L504.262583,327.055639L511.515547,332.413437L498.292162,342.221899L503.630304,344.088155L495.860831,355.909629L501.886053,367.494816L494.680077,382.674772L505.452672,385.117414L520.549810,391.727512L521.474159,368.500280L522.546786,362.707195L534.469676,356.292563L531.026970,361.318877L529.137548,373.671570L543.240998,371.085854L543.352870,365.627585L549.554472,368.597360L547.285522,360.922152L555.704962,357.154177L556.988267,348.718836L554.433125,345.434415L549.588299,334.383649L554.944833,331.248681L571.274370,334.654384L577.609691,329.803144L582.276354,325.067185L589.128234,325.560782L585.700253,340.007616L606.426650,337.089823L610.725608,334.351282L614.836242,334.472960L620.437105,341.352580L625.935921,344.227470L631.215213,352.427564L639.853450,354.114484L643.519823,343.013001L654.281481,324.714045L649.143605,313.542031L636.856672,309.030224L615.836818,288.721108L621.321670,287.333929L605.587074,270.830401L597.847131,270.541781L588.774974,272.195845L579.497250,266.672670L576.330960,262.088090L574.069596,257.407093L568.785952,262.797497L552.672258,250.918609Z " data-code="elezné hory" data-name="elezné hory"/><path d="M567.019217,235.803741L567.031714,235.916054L566.945470,240.376537L577.817304,241.014302L586.247907,245.024602L581.297670,250.691375L572.466681,245.057915L565.506743,251.113945L574.244826,257.464404L576.308161,261.982756L579.417277,266.349730L588.736574,272.093300L597.687051,270.575663L605.436419,270.859906L621.235788,287.633753L615.976388,288.881817L636.839351,308.882698L643.418907,308.069895L648.497213,305.249120L653.440513,310.699616L660.874977,311.847186L669.132236,285.079578L668.183225,275.381142L653.838653,268.216526L642.240874,255.849144L636.102600,251.743608L627.168241,254.321444L620.518185,244.440837L605.584953,228.266098L600.467734,227.073600L587.743052,231.462219L593.876371,237.330572L567.019217,235.803741Z " data-code="Hornosázavská pahorkatina" data-name="Hornosázavská pahorkatina"/><path d="M565.563718,251.123048L572.422252,245.013545L581.210057,250.645702L586.150401,245.061271L577.772828,241.100248L566.933045,240.432172L567.019217,235.803741L593.997873,237.426001L587.705368,231.462219L600.467734,227.073600L579.842695,218.775088L552.327424,205.187611L528.119893,202.137244L521.117575,192.988059L490.884301,183.554172L479.851718,182.982633L509.060012,197.609942L516.236994,216.912778L525.471032,222.924064L565.563718,251.123048Z " data-code="Køemenická vrchovina" data-name="Køemenická vrchovina"/><path d="M525.798797,302.081973L525.783557,305.488161L543.201411,307.687405L542.329298,295.640935L551.585023,293.442393L555.989313,286.656419L562.051537,274.616846L553.403408,265.351095L552.695749,251.027578L568.750105,263.058923L574.296330,257.424659L558.299246,246.063534L525.550480,222.971756L516.295146,216.963069L500.543011,220.396460L492.677268,216.486240L479.799387,215.627967L470.477409,200.659836L475.752294,198.944231L472.020666,193.988610L461.394768,195.608623L457.408994,187.602899L447.145707,184.554392L436.543877,190.937575L426.044291,188.650898L417.015942,215.151159L440.592723,226.978202L443.921497,238.976768L450.062555,239.620955L477.670338,246.994235L482.777439,249.667164L493.117070,259.167361L504.175317,261.912895L507.422640,264.849669L518.077477,275.715527L520.075597,269.673212L524.772092,268.097128L532.288617,274.270530L526.326897,284.864559L525.798797,302.081973Z " data-code="Tøeboòská pánev" data-name="Tøeboòská pánev"/><path d="M400.280021,328.624090L423.373293,340.660925L431.039832,362.523393L441.310694,361.616154L446.158600,351.731556L461.136972,344.569724L472.055636,348.072308L481.176663,329.749465L489.601178,316.684532L509.185402,313.653328L525.786766,302.093170L526.329279,284.853252L532.288771,274.269752L524.793253,268.058502L520.050969,269.712646L518.146764,275.768108L507.418006,264.812866L504.217081,261.941984L493.126433,259.196150L482.786829,249.649891L477.732399,246.967453L450.058662,239.638664L451.392814,254.578663L427.775679,260.101002L412.739104,278.577699L404.909249,291.223587L411.948723,302.061931L404.874187,317.336525L400.280021,328.624090Z " data-code="Boskovická brázda" data-name="Boskovická brázda"/><path d="M361.571893,367.873334L371.786346,372.913219L375.549986,377.178190L375.825230,382.977679L372.096861,390.529643L388.505109,390.646206L394.343484,396.041368L394.769554,406.598481L403.875454,405.487623L407.135524,411.641110L416.226158,412.862057L417.988137,414.253824L422.639867,419.274653L437.465050,419.869720L440.370368,409.253415L436.878860,384.584044L441.409671,361.616154L431.047305,362.617246L423.333711,340.629656L400.265189,328.592830L372.166065,324.341696L381.397751,345.351526L381.610650,359.176084L361.571893,367.873334Z " data-code="Drahanská vrchovina" data-name="Drahanská vrchovina"/><path d="M637.950188,368.136916L639.734632,354.066484L643.421785,342.868473L654.277645,324.560810L649.117841,313.536054L636.859061,308.906575L643.353772,307.969723L648.515486,305.269515L653.307305,310.670121L660.835473,311.799935L665.256920,313.260474L666.621439,313.828045L671.595224,300.365543L665.603620,296.674209L669.118614,284.913981L668.191351,275.330911L661.400480,265.395570L680.897040,271.285735L680.727554,263.193899L688.050816,245.310680L697.008189,245.365690L695.023748,260.221870L684.070398,285.657490L678.757781,301.081814L671.595224,300.365543L666.613125,313.811636L661.239575,322.465873L654.630458,331.011689L647.996218,350.756430L655.713797,361.625356L646.101489,363.501474L647.661121,375.863666L633.669158,375.146129L637.950188,368.136916Z " data-code="Bobravská vrchovina" data-name="Bobravská vrchovina"/><path d="M665.989972,320.905077L674.115598,322.834546L679.170909,339.183552L692.165878,338.935374L695.812701,341.913603L703.289343,341.637833L710.766166,337.501487L719.698059,334.054841L728.974658,326.528358L731.417895,320.353818L743.579150,315.172348L744.326087,304.370636L749.014493,301.615582L743.351115,296.409081L742.360519,286.411341L735.750255,283.409799L735.483980,280.766448L725.330794,277.545128L713.394536,266.974668L695.822651,253.903740L695.087994,260.122119L684.103747,285.695354L678.781214,301.009497L671.555826,300.320776L665.566700,296.656993L660.844562,311.810269L666.600432,313.821970L667.813103,310.570230L669.706026,310.790679L665.989972,320.905077Z " data-code="Chebská pánev" data-name="Chebská pánev"/><path d="M655.630755,361.580523L646.091166,363.539411L647.653191,375.929211L638.151334,375.377258L632.473252,387.218012L632.271382,392.214603L640.030201,391.496830L646.673037,379.213460L650.483875,376.591562L648.419239,372.948740L660.143225,364.256771L680.339954,360.670082L680.485834,353.221707L679.146647,339.155977L674.110674,322.779417L665.992426,320.932641L669.698634,310.708010L667.791321,310.570230L666.583566,313.877087L661.205083,322.476210L654.569277,330.966887L647.976231,350.684025L655.630755,361.580523Z " data-code="Dìèínská vrchovina" data-name="Dìèínská vrchovina"/><path d="M43.096051,152.563058L42.378857,159.923641L45.431439,175.858864L55.897744,183.282986L71.647731,188.809166L71.560506,179.081502L69.890541,168.839371L66.307240,159.175996L54.451154,146.756426L43.096051,152.563058Z " data-code="Smrèiny" data-name="Smrèiny"/><path d="M279.096557,51.257470L288.272989,51.200173L309.973960,45.012678L333.334168,44.267975L333.278532,40.315631L339.914265,31.496359L334.639955,16.440932L325.627257,22.679709L324.825078,25.541971L301.255169,32.355264L286.550351,39.399221L272.162865,43.752422L279.096557,51.257470Z " data-code="Mostecká pánev" data-name="Mostecká pánev"/><path d="M15.344629,139.801505L13.691624,138.192341L7.650209,134.112361L2.201538,134.054900L1.093576,135.778762L1.363086,141.755611L7.682468,151.930596L15.262778,159.233506L16.507612,164.179838L20.862879,173.442123L22.718844,175.340973L22.813648,175.398516L31.646479,183.628341L48.081565,191.919958L52.896535,186.564026L55.844327,183.167868L45.575704,175.973952L42.395341,159.936351L43.083107,152.555694L54.353916,146.715961L44.714465,136.309933L40.495666,141.238335L33.807138,153.606844L30.180012,158.018904L22.385996,146.464414L15.344629,139.801505Z " data-code="Sokolovská pánev" data-name="Sokolovská pánev"/><path d="M157.457027,115.745021L173.966547,120.948568L190.143104,155.566882L204.087031,151.099464L224.913592,137.247071L239.175776,126.560237L233.338115,107.361452L230.149543,101.227679L226.738176,95.940622L233.166058,90.720548L243.556991,90.442046L244.572311,80.040644L245.247273,75.951876L255.661319,70.796083L261.408680,71.489797L275.392821,73.820418L282.319548,72.388028L279.730118,54.481859L288.451673,53.200836L292.921773,49.940303L288.241193,51.162961L279.151025,51.279407L264.500487,64.673792L263.543471,63.625316L250.701337,71.023695L243.929884,74.403102L188.338164,103.727085L172.739372,108.802016L157.457027,115.745021Z " data-code="Frýdlantská pahorkatina" data-name="Frýdlantská pahorkatina"/><path d="M66.075947,158.723651L69.741598,168.893732L119.039818,148.907675L126.393671,145.986900L125.783964,129.986294L106.167758,142.789031L94.223516,143.124827L66.075947,158.723651Z " data-code="itavská pánev" data-name="itavská pánev"/><path d="M414.380269,20.235995L419.363304,21.948812L430.249484,22.533232L451.818601,19.628582L454.877424,21.131153L452.966392,14.609907L433.035836,8.217913L413.579991,4.287517L412.426366,6.396446L414.380269,20.235995Z " data-code="luknovská pahorkatina" data-name="luknovská pahorkatina"/><path d="M388.760943,33.988274L392.395795,35.605095L394.865618,40.451111L410.711397,39.013402L417.018818,41.066914L424.291211,50.019255L432.209002,62.112207L443.241874,59.240273L439.263627,57.288186L439.385489,58.417791L427.069391,30.929604L417.899105,37.511837L401.749497,32.539311L389.283133,32.874854L388.760943,33.988274Z " data-code="Tepelská vrchovina" data-name="Tepelská vrchovina"/><path d="M315.572693,0.000000L310.276044,1.394981L306.615674,6.510467L309.522413,11.161669L313.608593,15.639136L325.665067,22.676517L334.706585,16.579487L343.967492,23.008251L346.032198,29.452699L348.840793,30.969223L353.290376,29.541021L360.820842,33.448370L361.338562,22.734684L357.183268,21.905814L351.486663,15.290219L348.912617,8.138305L343.020872,5.173380L322.355937,2.150622L315.572693,0.000000Z " data-code="Slavkovský les" data-name="Slavkovský les"/><path d="M89.159669,197.174517L100.462325,211.983038L103.177982,222.991763L131.885647,214.266433L156.889479,198.110803L164.584024,170.033707L143.966701,165.240271L142.613970,163.779017L125.131377,178.044042L113.669335,190.771261L106.698714,185.764149L89.159669,197.174517Z " data-code="Krkonoské podhùøí" data-name="Krkonoské podhùøí"/><path d="M69.854972,168.864503L71.573577,178.921222L77.519833,180.734146L89.209990,197.233034L106.774491,185.530176L113.659055,190.736535L125.219541,177.985564L142.559300,163.662120L126.372727,146.016106L119.095661,148.943744L69.854972,168.864503Z " data-code="Broumovská vrchovina" data-name="Broumovská vrchovina"/><path d="M432.181847,62.081531L434.168049,65.187118L442.256593,62.273620L448.512987,65.059046L469.798166,79.855044L476.326074,93.504729L481.574536,94.786716L485.247955,99.466450L488.178903,106.359206L508.547665,109.405362L523.643684,116.909886L531.550632,109.277096L529.195833,106.711902L533.306412,105.397328L552.008888,112.676326L566.771323,114.921319L579.396907,113.125311L587.590959,117.743841L594.307338,117.519313L592.476948,109.116765L581.668817,102.191298L580.021768,97.447021L575.380396,92.607371L569.246746,87.480139L564.440223,84.692584L553.789646,77.965096L516.151851,76.715876L501.215960,76.525597L497.206117,74.912094L499.648166,67.410815L494.151961,67.543054L493.336769,57.471034L479.643924,56.626417L470.823364,60.964903L453.878778,64.594652L443.205772,59.195957L432.181847,62.081531Z " data-code="Podorlická pahorkatina" data-name="Podorlická pahorkatina"/><path d="M553.761458,77.933064L564.503015,84.736614L569.121804,87.451867L575.419839,92.627868L580.083366,97.494341L595.269397,102.952486L605.271267,106.455395L609.831400,102.206397L620.281041,99.008581L623.347831,96.105740L624.762407,91.465466L628.306649,85.650230L627.072156,83.379001L618.819566,76.779937L606.852545,70.438546L575.860577,75.146417L567.545014,78.509645L562.341207,74.121510L558.070424,67.748673L552.987031,66.884123L553.761458,77.933064Z " data-code="Kladská kotlina" data-name="Kladská kotlina"/><path d="M580.021768,97.447021L581.513646,102.103971L592.325642,108.968108L594.354147,117.245051L620.512723,163.788874L620.891809,176.938220L631.389513,184.799919L638.382481,184.294390L653.763002,204.113359L655.456817,218.955703L665.391063,223.877892L669.668493,229.760533L676.009971,242.192738L673.743108,251.032706L672.425751,256.176741L670.995421,259.698415L672.886159,268.843803L680.918608,271.326194L680.759774,263.267135L688.017941,245.302369L690.407824,245.415122L689.597693,235.896959L688.123548,233.143503L682.506303,225.158238L683.898512,219.975359L680.823914,215.437039L676.757349,212.267057L672.236508,204.978986L669.079188,199.108010L667.082450,189.425677L664.760732,185.728016L655.739473,181.371821L655.863522,181.195478L658.893279,176.887724L656.382276,170.990357L648.795436,167.005902L641.916831,161.046318L626.219848,146.016306L620.927287,134.058913L617.087133,128.940414L615.810796,123.181178L613.038147,122.780160L603.810581,118.690089L600.291958,113.173417L604.226300,107.481437L605.271267,106.455395L595.280817,102.960713L580.021768,97.447021Z " data-code="Zábøeská vrchovina" data-name="Zábøeská vrchovina"/><path d="M674.344199,173.657680L684.642264,183.943664L689.793644,198.931095L693.074917,193.784946L685.941560,183.172087L688.173218,175.521741L682.929717,167.744912L680.772147,170.186994L674.344199,173.657680Z " data-code="Mohelnická brázda" data-name="Mohelnická brázda"/><path d="M667.053839,189.362796L669.073983,199.093562L672.238966,205.003661L676.732407,212.261398L680.882878,215.449790L683.885460,219.907912L682.510837,225.171812L688.127658,233.115803L689.580018,235.872668L690.405621,245.399629L696.999918,245.368642L695.863373,253.922045L713.405271,266.973316L725.325164,277.532673L735.489835,280.750632L738.811401,278.027163L741.990472,279.089229L744.506978,275.207396L741.454754,269.620903L739.412538,265.345508L737.555275,259.734042L736.971501,255.319790L735.086937,250.663428L730.900971,246.067528L720.721585,241.793778L716.852562,238.792901L714.991145,232.963426L714.341892,224.356882L713.062553,221.217333L711.250813,218.146120L706.224586,213.214926L706.600110,205.890197L706.319274,203.869043L702.905344,198.034411L699.559254,195.969961L693.075203,193.751425L689.812126,198.955261L681.372135,198.948353L667.053839,189.362796Z " data-code="Králický Snìník" data-name="Králický Snìník"/><path d="M705.686913,192.439555L705.313428,194.976143L702.898152,198.023439L706.319675,203.879478L706.598703,205.873429L706.239551,213.218182L711.230941,218.141753L713.069531,221.228522L714.364238,224.388454L714.957926,232.951662L716.843510,238.797438L720.685549,241.766284L726.445923,242.179164L726.007846,238.606494L722.288785,236.785670L722.725919,231.051245L725.557149,225.855556L720.478537,223.476462L718.862474,220.179606L716.358728,213.054239L717.349278,209.964862L714.504384,202.844321L713.572099,202.540833L706.366840,200.038077L705.516511,198.087423L707.888986,196.235450L709.190940,195.795519L706.928363,194.218237L705.686913,192.439555Z " data-code="Hanuovická vrchovina" data-name="Hanuovická vrchovina"/><path d="M705.379293,157.052365L704.222143,154.097269L704.094541,154.166775L696.509395,157.001196L687.825623,162.485474L685.401903,165.042587L691.473193,168.890273L696.045538,173.758568L702.837085,172.444820L705.379293,157.052365Z " data-code="Zlatohorská vrchovina" data-name="Zlatohorská vrchovina"/><path d="M682.941045,167.756388L688.185764,175.561206L685.950944,183.210233L693.072767,193.757811L699.554288,195.973052L702.888737,198.026506L705.310936,194.992410L705.695782,192.446933L706.906963,194.216816L709.160663,195.780378L707.917239,196.223549L705.523425,198.079951L706.380439,200.055656L714.502331,202.827891L717.353736,209.942597L716.374797,213.087355L718.857153,220.175367L720.484192,223.471221L725.552240,225.844061L722.719879,231.050539L722.276329,236.779891L726.003805,238.613181L726.462994,242.190186L730.890814,246.051685L732.321892,243.209902L735.551077,241.943759L732.202314,234.866009L739.858462,228.466291L738.494850,217.112543L735.620818,214.078331L736.860930,213.194603L739.501085,216.199869L750.916056,210.677639L763.332443,205.321104L760.219962,202.178516L759.668259,201.621462L742.293457,185.668183L735.120063,181.228749L738.448719,172.907172L724.043030,170.646993L727.213716,157.310175L705.379576,157.052095L702.834252,172.439024L696.034314,173.755266L691.467311,168.884478L685.390039,165.024482L682.941045,167.756388Z " data-code="Hoøovická pahorkatina" data-name="Hoøovická pahorkatina"/><path d="M739.542778,149.425343L739.992595,151.062362L747.223283,151.680129L747.291203,158.476441L749.811693,160.330260L749.881480,151.927239L755.473924,151.741906L776.784116,168.982995L786.320309,172.042980L791.022235,162.307798L796.994718,158.071845L813.885113,169.477516L824.636682,176.525365L825.582905,175.721575L816.344719,168.179417L806.298175,162.307798L823.119117,155.726830L826.271764,148.900281L822.754378,136.332538L820.031944,134.696355L813.470491,138.956799L799.210136,142.692923L786.108377,144.483964L779.021287,144.453083L764.786115,136.363411L748.409487,127.103206L749.039699,133.862864L754.923201,136.594954L751.646318,143.928112L748.711186,149.147368L739.542778,149.425343Z " data-code="Køivoklátská vrchovina" data-name="Køivoklátská vrchovina"/><path d="M318.004609,185.684816L294.328792,200.710302L277.657907,208.971029L266.006007,218.531413L251.718733,224.434186L246.393691,232.191048L255.989698,233.212522L254.238937,224.861910L264.598854,220.606047L266.024564,227.403332L271.938778,223.477956L293.669792,224.818273L301.643412,218.914938L320.061534,207.462562L326.581272,204.368943L333.867120,200.319027L331.567377,198.947923L319.518042,205.517052L318.004609,185.684816Z " data-code="Praská ploina" data-name="Praská ploina"/><path d="M289.489947,160.167810L275.331003,168.463919L267.533397,163.925443L248.188913,164.116523L250.629747,170.677682L244.868408,172.971257L258.379141,175.265015L264.702711,184.505627L249.692250,197.576884L241.548527,204.207964L229.574349,221.130708L228.550020,232.459973L238.364016,236.694198L246.375727,232.255329L251.667474,224.393879L265.998521,218.528497L277.677090,208.945710L294.306458,200.701672L318.005077,185.787491L307.533905,178.674626L289.489947,160.167810Z " data-code="Dbán" data-name="Dbán"/><path d="M289.502520,160.167810L307.497607,178.674135L318.029780,185.684816L319.523060,205.580838L331.529601,198.947923L340.029141,203.699233L349.070452,208.578896L356.482158,211.162572L360.020315,203.284659L359.625128,197.736304L379.821192,193.081608L386.127719,188.903932L390.473590,182.944072L389.902413,177.813851L351.038927,159.276240L345.828442,152.049176L341.106081,148.356752L334.944721,147.847489L328.406587,147.338235L310.822536,146.828991L298.106819,143.200882L285.117906,148.515898L276.702851,148.261264L281.546953,151.699012L287.135738,156.283315L288.985620,157.747899L289.502520,160.167810Z " data-code="ulovská pahorkatina" data-name="ulovská pahorkatina"/><path d="M227.379813,135.341543L229.831931,147.019956L235.106050,150.903201L245.053717,156.697211L248.191360,164.148369L267.567305,163.957290L275.338531,168.479845L289.530166,160.199652L288.988120,157.779738L287.213665,156.315153L281.569596,151.667180L276.730477,148.293094L272.268041,146.510717L270.118894,137.664121L268.034312,136.709614L260.109382,137.536851L245.609727,136.200557L227.379813,135.341543Z " data-code="Vidnavská níina" data-name="Vidnavská níina"/><path d="M732.055282,139.107872L749.021607,133.854236L748.427402,127.134473L745.449599,125.560127L743.810816,122.316289L728.785594,119.088713L728.663400,120.002891L727.600766,119.462330L723.125990,117.705576L723.766866,127.783518L729.438337,134.550159L732.055282,139.107872Z " data-code="Jièínská pahorkatina" data-name="Jièínská pahorkatina"/><path d="M702.757170,109.690241L702.683613,113.123411L712.820048,114.649394L714.986592,115.253451L723.746365,127.782524L723.129531,117.701601L727.619157,119.482204L728.675514,120.022765L728.787528,119.100637L718.564760,114.871940L702.757170,109.690241Z " data-code="Ralská pahorkatina" data-name="Ralská pahorkatina"/><path d="M409.775528,77.173656L417.225875,87.844059L414.284596,94.705658L413.569993,103.157807L409.777862,115.331940L411.866447,121.659417L414.851767,123.567469L424.722265,122.549826L437.325311,123.853688L439.026712,118.765776L447.730505,122.931438L455.286276,119.974074L456.318309,122.200019L464.576986,123.631073L468.906459,126.811447L463.489647,130.119406L466.737255,133.714060L473.299723,133.491369L478.805474,123.376658L484.918236,126.684225L493.038410,122.168218L494.158023,117.303167L516.766229,124.012700L530.790234,130.246643L536.053620,130.119406L532.799347,120.610041L540.555180,121.850216L554.039398,118.352423L560.077670,116.540095L559.530579,113.805921L551.982513,112.629669L533.308189,105.446028L529.190208,106.685557L531.552363,109.260130L523.616902,116.858039L508.517487,109.450848L488.195545,106.367724L461.817908,94.864510L460.185100,89.622837L448.915896,72.252607L430.030668,66.253218L414.152932,60.032921L419.326382,69.554317L413.688627,72.792295L409.775528,77.173656Z " data-code="vihovská vrchovina" data-name="vihovská vrchovina"/><path d="M347.559857,64.713889L330.560935,72.347845L331.856622,76.078255L305.541581,88.288716L295.571315,92.878917L315.119851,98.280046L326.279439,101.012763L314.461256,103.173697L321.066174,111.628303L328.737984,105.334791L331.925585,107.813891L343.282010,116.587787L364.365491,119.894580L369.986606,110.738229L381.450733,103.427935L383.283457,94.721543L409.751811,77.189532L413.659508,72.744675L419.325025,69.538446L414.212527,60.143986L400.628270,50.340127L394.878538,40.444386L383.367036,42.981440L371.422704,44.123185L360.622186,44.139043L352.961474,51.640775L350.259239,42.347156L341.962071,48.087920L345.820858,59.747326L339.548475,62.809676L347.559857,64.713889Z " data-code="Plaská pahorkatina" data-name="Plaská pahorkatina"/><path d="M254.118422,277.821442L244.280123,276.798597L243.725521,269.351910L238.103734,263.871788L249.787056,262.034626L245.556307,256.939021L238.453494,249.273120L237.667357,245.169402L238.311156,236.756016L228.530980,232.430453L229.570925,221.228271L220.133513,230.132240L212.854091,238.911038L199.946822,233.164640L199.820164,241.561115L190.481556,240.188156L185.175799,255.405699L187.839439,260.804582L196.714309,264.774430L194.769489,274.832901L192.142788,274.177694L192.454762,270.734061L184.192594,268.177525L178.464646,270.590251L178.781975,266.763522L181.851693,265.221766L166.947587,258.464427L158.442238,266.635705L156.492410,273.993918L163.274249,279.667431L160.740648,286.700646L151.749279,287.284145L147.870223,285.845398L150.916962,301.706700L168.312464,315.094857L160.033126,321.022621L162.458901,328.695612L168.275971,323.194754L178.570683,313.323899L188.404504,305.527204L216.525849,287.335293L254.118422,277.821442Z " data-code="Rakovnická pahorkatina" data-name="Rakovnická pahorkatina"/><path d="M241.492704,204.225433L249.725660,197.560942L264.723507,184.489692L258.399930,175.249086L244.793444,173.019042L242.364323,180.251388L227.831861,181.589732L216.405598,191.631155L191.196174,195.265396L182.968314,200.303084L180.313870,211.146623L146.029812,205.118398L131.898149,214.272850L103.123166,223.079064L112.988872,250.854066L123.927857,252.834349L125.841869,260.309382L120.427106,265.165849L130.630424,268.808652L137.448714,281.721307L144.713311,283.000044L147.792167,285.813426L151.736646,287.284145L160.741217,286.708639L163.271662,279.675423L156.501312,273.985928L158.451705,266.635705L166.953323,258.456440L181.855427,265.229754L178.785131,266.763522L178.455752,270.598240L184.188860,268.169536L192.454182,270.726072L192.149102,274.177694L194.771485,274.816920L196.718046,264.782418L187.846909,260.820556L185.180948,255.389728L190.481556,240.188156L199.816203,241.593045L199.953126,233.164640L212.860396,238.911038L220.124835,230.100322L229.616551,221.164453L241.492704,204.225433Z " data-code="Støedolabská tabule" data-name="Støedolabská tabule"/><path d="M227.380330,135.389265L224.919172,137.312933L204.126487,151.141942L190.229751,155.566970L170.694604,171.394405L164.533385,170.056537L156.928814,198.071089L146.032113,205.150290L180.339065,211.146623L182.995846,200.334971L191.246534,195.265396L216.440970,191.599278L227.907361,181.589732L242.361892,180.219524L244.874185,172.923472L250.642850,170.725463L248.202015,164.164293L245.061922,156.681292L235.141833,150.919117L229.837310,147.131354L227.380330,135.389265Z " data-code="Jizerská tabule" data-name="Jizerská tabule"/><path d="M446.421932,133.081782L439.717033,133.773709L437.075254,137.877895L429.173622,139.071081L425.769599,144.528549L419.173414,144.687675L417.898745,140.948461L410.419213,149.557335L402.789847,154.698425L397.511889,150.147467L393.038473,145.467402L390.038668,149.159456L383.391157,147.567995L382.690759,143.414697L348.127333,126.457613L343.244849,116.536121L328.061147,118.761802L330.294640,125.423966L332.032611,129.526967L329.432408,132.867049L324.868246,134.680398L326.371392,147.297456L341.101717,148.331885L345.835357,152.008390L351.024560,159.283205L389.904305,177.788959L390.469193,182.919176L397.482977,180.752264L403.362785,181.787900L403.785109,184.624141L410.297619,184.926902L420.870953,185.404953L426.053041,188.624038L436.530630,190.950929L447.109535,184.560402L457.434081,187.604091L461.384038,195.639007L472.013174,193.965265L475.747169,198.954898L470.476881,200.660817L479.790346,215.627716L492.639591,216.489119L500.549336,220.445508L516.242797,216.967687L509.077687,197.639656L479.814590,182.974944L473.495795,183.548567L467.586669,184.504631L469.599884,179.756496L472.165086,176.187947L472.342873,171.186354L470.122826,168.160336L474.722783,165.325725L488.182845,163.765216L487.236604,159.052357L480.927826,149.724446L476.694005,134.417932L473.263556,133.527158L466.748587,133.718036L463.403239,130.155191L468.895415,126.847228L464.563203,123.635048L456.307253,122.235794L455.322709,119.978049L447.716720,122.935413L438.972561,118.737954L443.078641,129.805293L446.421932,133.081782Z " data-code="Dolnooharská tabule" data-name="Dolnooharská tabule"/><path d="M348.137946,126.433759L382.653720,143.422652L383.396785,147.560038L390.012875,149.151498L393.053016,145.491271L397.534821,150.138248L402.789186,154.690466L410.394740,149.565292L417.901691,140.908685L419.174080,144.695631L425.757702,144.536506L429.191795,139.063126L437.066953,137.854031L439.736548,133.781662L446.434492,133.081782L443.091200,129.805293L439.030898,118.833344L437.296265,123.825861L424.693234,122.522000L414.928541,123.603246L411.867884,121.695191L409.776628,115.335914L413.569646,103.320678L414.245740,94.709629L417.255122,87.911555L409.751931,77.209377L383.265699,94.677859L381.428374,103.479577L370.016443,110.662733L364.340449,119.914453L343.266917,116.575864L348.137946,126.433759Z " data-code="Opavská pahorkatina" data-name="Opavská pahorkatina"/><path d="M298.104398,143.259556L310.858730,146.790046L326.391410,147.330252L324.879226,134.713677L329.450420,132.867653L332.039753,129.550743L330.290444,125.472929L328.074641,118.770345L343.274438,116.571889L331.906763,107.813891L328.719164,105.334791L321.060220,111.632276L314.464393,103.173697L326.208041,101.060429L295.608937,92.878917L284.854204,96.246563L275.921342,103.650395L254.196354,108.354236L258.533829,123.058643L236.850405,118.829370L239.181655,126.572907L227.397489,135.336572L245.577154,136.195585L260.096886,137.547788L268.014295,136.704643L270.053722,137.563697L272.212804,146.537571L276.622479,148.288120L285.050110,148.542754L298.104398,143.259556Z " data-code="Svitavská pahorkatina" data-name="Svitavská pahorkatina"/><path d="M827.346713,178.109536L830.252134,181.851800L838.129968,190.930224L844.305971,195.486335L855.961238,202.864093L851.781844,213.640630L870.976135,209.670607L884.490231,210.173820L898.208996,210.621128L906.623343,211.949112L910.931308,205.239905L909.426890,204.443288L899.857650,198.100978L883.826220,192.901770L881.844190,190.189875L875.769809,185.608521L872.673525,184.980039L870.898580,187.801333L866.799063,191.714346L851.324273,196.659943L844.745232,194.623954L838.571300,190.315593L830.999407,180.986009L827.346713,178.109536Z " data-code="Orlická tabule" data-name="Orlická tabule"/><path d="M506.906234,185.399025L513.131359,190.502189L521.136325,193.039076L528.068923,202.085970L552.313379,205.154916L579.832009,218.786345L600.487330,227.073006L605.664006,228.301122L620.542192,244.484664L627.140406,254.284776L636.110729,251.756250L642.293362,255.833401L653.849953,268.265136L668.232245,275.426303L661.383023,265.368146L672.877273,268.843384L671.010901,259.702575L672.347602,256.237031L673.723194,250.972859L675.970609,242.284599L669.595751,229.720326L665.335933,223.851321L655.489237,218.999075L653.703766,204.150873L638.387431,184.309673L631.410560,184.728650L620.923762,176.852915L613.150399,171.743225L605.812128,168.616432L605.313502,171.882822L611.514838,179.868897L614.147674,186.795691L618.468487,191.153729L615.904361,193.306903L611.215041,195.514277L602.279437,192.217249L596.257121,191.125791L591.139114,191.881979L591.862102,193.306903L590.238681,196.632000L586.673283,196.743774L581.533428,196.771718L577.697733,196.324622L557.331266,191.097852L543.441658,191.293421L530.992729,189.156212L526.025546,184.491229L511.594589,184.128118L506.906234,185.399025Z " data-code="Východolabská tabule" data-name="Východolabská tabule"/><path d="M563.290049,125.322961L558.484627,132.125108L556.628213,133.770130L557.537346,137.785491L551.130253,141.383059L551.388211,144.283750L553.340171,147.533429L557.995282,148.230832L559.187437,152.527211L547.672123,160.089279L548.507965,163.312831L561.634231,167.039206L571.140219,171.422154L575.303127,173.599919L578.984643,175.442773L582.657336,183.485703L588.108718,189.323831L591.119352,191.784193L596.239839,191.055945L602.258623,192.231219L611.211271,195.472363L615.905621,193.320873L618.467225,191.139760L614.173518,186.837592L611.521144,179.938716L605.320745,171.840943L605.826936,168.658307L613.138109,171.729265L620.938591,176.894801L620.574060,163.912926L594.343537,117.505251L587.551259,117.700320L579.372179,113.158344L566.729294,114.941612L559.558213,113.854920L560.060260,116.502061L554.047440,118.397004L557.150505,119.874032L563.290049,125.322961Z " data-code="Dyjsko-svratecký úval" data-name="Dyjsko-svratecký úval"/><path d="M467.578350,184.480729L473.495104,183.560152L479.825549,182.975536L490.855513,183.548045L513.142656,190.536537L506.935280,185.404953L511.607514,184.130169L526.034849,184.480729L530.983259,189.134025L543.432684,191.301573L557.325682,191.110312L577.738603,196.308532L581.590315,196.723007L586.702126,196.723007L590.269351,196.627358L591.884451,193.279856L591.124124,191.813454L588.107747,189.325273L582.669422,183.524666L578.953073,175.431280L575.265920,173.583505L571.123176,171.417300L561.601246,167.021681L548.522519,163.327334L547.682275,160.079248L559.207213,152.533643L557.995107,148.236398L553.358322,147.536167L551.408146,144.258038L551.128312,141.393959L557.520668,137.702898L556.662977,133.725989L558.524672,132.071756L561.055838,128.922613L563.295030,125.328554L557.132057,119.890605L554.060577,118.396142L540.560950,121.862141L532.780005,120.621966L536.084505,130.131335L530.745763,130.258571L516.774787,124.056428L494.163772,117.315090L493.069267,122.180143L484.896106,126.664347L478.786104,123.388584L473.260701,133.566924L476.662129,134.266817L480.904179,149.668742L487.238093,158.996635L488.202392,163.773178L474.735195,165.397383L470.117216,168.168299L472.309390,171.162463L472.207085,176.164052L469.619435,179.764462L467.578350,184.480729Z " data-code="Vykovská brána" data-name="Vykovská brána"/><path d="M592.983631,416.067208L604.986425,422.877050L629.187637,425.804512L651.083839,425.845172L657.522173,419.705800L666.342819,414.542728L676.192059,415.111862L684.895101,417.835657L690.134354,413.363825L687.037203,400.844614L689.763363,398.202944L685.829799,389.709865L689.675395,383.208941L697.837928,386.256144L699.128830,377.277590L702.486334,373.449461L705.647539,369.844114L711.404514,361.315338L709.112680,355.467948L716.890107,353.397180L719.394048,348.768752L714.887773,344.019031L717.911063,339.472778L710.782913,337.483945L703.332246,341.705253L695.927156,341.989394L692.248414,338.904530L679.127535,339.148064L680.441930,353.194169L680.398848,360.665591L660.204726,364.239313L648.423402,372.971720L650.445782,376.627623L646.629977,379.308794L640.076639,391.579035L632.315452,392.188562L632.465989,387.231288L638.191658,375.408958L633.703502,375.165228L627.857999,384.874722L618.017301,391.010150L619.497471,407.530653L597.579464,413.709363L592.983631,416.067208Z " data-code="Hornomoravský úval" data-name="Hornomoravský úval"/><path d="M710.752653,337.504239L717.896853,339.493073L719.323068,339.736610L726.111906,337.889822L732.207866,336.814257L731.499747,332.654312L736.072256,326.952820L741.430311,325.735522L750.107515,321.292695L760.009046,316.688092L763.450512,315.673934L759.536474,313.057526L757.483924,311.840652L750.407367,308.210537L744.303592,304.337438L743.565223,315.197288L731.405329,320.379846L728.984685,326.536906L719.716373,334.074734L710.752653,337.504239Z " data-code="Moravská brána" data-name="Moravská brána"/><path d="M744.498504,275.190604L741.977054,279.070765L738.798971,278.037365L735.489662,280.772902L735.741359,283.407321L742.374008,286.416875L743.354945,296.409971L749.024548,301.620421L744.334446,304.367854L750.423396,308.210537L757.491940,311.840652L759.547558,313.047386L763.458529,315.673934L766.637189,315.501529L768.180653,315.288560L770.710615,316.201293L774.552546,315.876763L778.458792,315.684075L783.679239,315.957895L786.151175,317.529863L792.792611,321.840415L794.636474,326.415176L799.729598,327.318017L801.660871,329.651293L805.046042,332.431107L810.377102,339.137917L811.995862,343.430426L817.261919,338.589968L808.679283,330.036803L806.776289,323.280749L811.026795,323.625626L817.586244,320.826125L826.150606,319.568442L824.831683,317.499437L822.985476,313.422596L812.254169,309.041986L805.385934,307.095207L803.346824,304.682149L798.561604,292.538084L789.558872,290.673237L781.382050,287.359313L786.681760,285.428863L781.737921,281.188317L776.461562,277.358579L783.621546,266.722610L776.157573,259.714795L775.252763,252.688191L771.421394,241.452787L762.342731,235.401461L759.049298,229.229895L750.621653,221.562669L747.992480,218.002814L744.085630,214.018700L739.505750,216.182595L736.843620,213.189585L735.631745,214.059145L738.491410,217.115444L739.860540,228.440831L732.186550,234.814604L735.554511,241.938562L732.322261,243.198575L730.897820,246.057822L735.085636,250.663509L736.957749,255.259716L737.580742,259.714795L739.406622,265.406003L741.443326,269.578807L744.498504,275.190604Z " data-code="Ostravská pánev" data-name="Ostravská pánev"/><path d="M798.475513,292.474739L800.698988,298.029289L807.441574,294.785655L810.783595,286.799421L822.352490,281.327634L848.467570,272.371931L854.433491,270.508135L862.895771,268.320329L869.854250,263.702085L876.886639,265.079391L875.158048,258.557936L888.273620,254.953451L895.816592,255.358430L896.849196,248.676910L901.044401,249.851140L903.633497,243.089777L908.567462,241.783144L911.987316,236.451253L910.487492,232.970630L909.506701,231.797018L905.349626,230.825786L906.197440,225.889158L897.799929,222.773822L891.996558,230.593099L876.091570,235.257275L876.909463,240.458490L863.633743,242.523020L860.741506,245.640305L868.108567,248.352992L864.949255,254.953451L844.026727,263.215990L833.251768,269.130612L822.537535,271.399503L809.236887,275.775640L800.281964,283.475718L798.475513,292.474739Z " data-code="dánický les" data-name="dánický les"/><path d="M897.784962,222.783937L906.182474,225.899273L905.340622,230.815669L909.516751,231.822073L910.488506,232.980747L911.974371,236.481609L908.587985,241.784227L913.269562,242.229525L914.802675,249.881508L919.286949,251.217753L927.167219,250.367409L920.497080,244.779986L927.444320,244.213199L930.086401,238.060159L938.075233,237.695871L939.035405,234.862665L949.942373,231.139409L959.557082,229.035156L955.772788,225.312595L956.598736,221.044341L953.705468,213.925170L946.512913,209.658520L921.449981,204.563607L915.477337,207.474878L910.955022,205.230747L906.693428,211.983870L902.038091,215.725029L897.784962,222.783937Z " data-code="Mikulovská vrchovina" data-name="Mikulovská vrchovina"/><path d="M699.123683,377.264895L697.827368,386.263315L701.396517,388.539129L708.438030,398.291844L714.906382,395.447112L726.752014,393.415256L729.826223,386.832594L725.242146,384.476047L720.396893,383.500956L725.193952,378.219550L734.376099,369.932963L743.342672,364.653050L758.290578,356.693706L749.578907,349.222946L745.071776,351.902530L737.899606,349.304143L719.451265,348.735766L716.922553,353.445395L709.123582,355.455260L711.401183,361.322952L705.597824,369.872038L702.405305,373.565156L699.123683,377.264895Z " data-code="Litenèická pahorkatina" data-name="Litenèická pahorkatina"/><path d="M684.929328,417.721316L691.337684,421.055085L699.756524,418.697033L698.649860,404.713372L694.315602,400.080040L689.718946,398.291844L686.967696,400.649024L690.143515,413.330795L684.929328,417.721316Z " data-code="Kyjovská pahorkatina" data-name="Kyjovská pahorkatina"/><path d="M719.316068,339.703631L717.917602,339.500683L714.890640,344.006345L719.396915,348.756065L737.929864,349.283843L745.087213,351.983733L749.519007,349.182347L758.310944,356.653100L756.240336,366.552726L763.352841,357.711265L769.711548,351.426587L776.354506,347.076177L782.143007,337.962446L786.163010,335.408188L794.614549,326.417758L792.785816,321.819768L786.153721,317.550060L783.652271,315.954428L778.453339,315.695683L774.549147,315.868180L770.699247,316.221800L768.174468,315.281695L766.626412,315.497313L763.421002,315.669809L760.018498,316.696173L750.144455,321.266677L741.472901,325.753475L736.065739,326.961269L731.491851,332.672889L732.210534,336.814737L726.132865,337.884780L719.316068,339.703631Z " data-code="Vizovická vrchovina" data-name="Vizovická vrchovina"/><path d="M810.894200,351.210783L805.127465,352.764597L802.064176,353.006306L801.144257,355.734259L797.773749,356.493972L796.353476,357.668098L793.144115,361.639634L790.800313,359.636555L788.420837,361.225197L788.759526,365.473355L784.490278,366.578631L779.128125,368.132969L775.820002,366.924035L770.629452,366.336850L761.951981,367.649392L756.195149,366.544091L758.251226,356.770234L743.361856,364.678954L734.349629,369.998243L725.242269,378.254684L720.386562,383.540926L725.227337,384.473851L729.834237,386.754407L726.687068,393.423896L714.894189,395.443873L726.544157,405.417305L732.762816,408.251875L740.146449,409.116102L743.949869,406.834571L746.790941,403.447020L745.772742,395.048203L754.288890,380.258552L757.951403,375.456317L755.938623,386.374307L762.002540,383.610031L763.717516,379.187509L767.107760,377.701908L771.539174,381.916988L779.572166,382.020642L780.694468,379.360257L788.828855,378.496526L789.702438,370.792734L790.998980,365.611513L801.880032,363.193807L810.894200,351.210783Z " data-code="Podbeskydská pahorkatina" data-name="Podbeskydská pahorkatina"/><path d="M796.708098,385.691816L792.923747,390.041192L789.488305,394.155809L794.981087,398.741052L800.375831,398.211965L809.077551,395.213906L812.774967,400.975034L814.689797,403.561866L820.993977,402.797562L818.523294,398.741052L819.375113,392.392361L825.955027,389.629748L831.119269,387.161158L838.845676,388.219110L846.586064,383.987433L854.039052,382.400646L850.460463,374.056168L858.269400,378.463285L864.781460,369.943224L868.779545,368.004388L870.737587,362.717064L875.181611,360.602303L876.797098,356.373076L876.525174,354.023677L886.171310,350.969643L896.894221,347.326223L893.030803,343.634944L891.344944,339.636339L885.998839,332.749922L882.208861,328.419249L882.269612,320.216376L880.650721,313.953809L877.830343,314.107405L875.389451,320.746830L870.678164,323.152833L856.960708,320.373912L841.934886,322.871682L824.900374,317.529843L826.107819,319.534481L817.590091,320.882334L810.967521,323.706873L806.727173,323.208455L808.656778,329.999126L817.331144,338.599364L811.990123,343.470585L812.398021,345.285397L818.183667,354.590429L817.492098,358.815633L812.590057,361.234565L809.806059,363.507908L808.036343,369.468950L804.252860,376.387585L797.785252,379.983817L796.708098,385.691816Z " data-code="Ronovská brázda" data-name="Ronovská brázda"/><path d="M810.759506,286.769703L807.418645,294.774241L800.704395,298.029329L803.381753,304.775005L805.417397,307.180274L812.295876,309.057662L822.994822,313.428807L825.386620,311.023150L831.034394,309.820376L832.690935,306.769607L838.180049,304.892331L849.878747,299.378368L855.101426,296.093837L864.350922,291.695366L872.828011,290.463888L874.531844,296.064512L874.656847,284.981384L882.461241,287.913101L886.719117,279.118665L894.748001,277.506586L900.300749,275.806656L908.084994,275.718730L905.590260,281.522263L913.193707,281.346385L925.623852,274.634338L931.441131,271.322751L937.526198,270.121280L947.626456,265.345113L954.443687,267.747765L955.344782,265.667410L945.588740,259.368520L953.260661,255.589751L959.463209,255.824081L981.629260,259.749350L981.118505,252.719344L980.212721,251.782122L960.703179,236.409672L959.559851,229.062790L949.954620,231.111548L939.042918,234.887468L938.070021,237.727023L930.059073,238.092963L927.472019,244.212108L920.472684,244.768451L927.210964,250.361696L919.300709,251.196372L914.784398,249.878472L913.288204,242.206422L908.573536,241.781877L903.623642,243.055529L901.054327,249.893115L896.835551,248.648480L895.810468,255.340777L888.282298,254.916061L875.116389,258.577580L876.912479,265.081418L869.867474,263.704375L862.910415,268.319152L854.420176,270.531534L848.476252,272.392389L822.354821,281.317072L810.759506,286.769703Z " data-code="Hostýnsko-vsetínská hornatina" data-name="Hostýnsko-vsetínská hornatina"/><path d="M900.835941,287.751851L883.425997,285.992799L882.364205,287.927761L874.664069,284.996042L874.559388,296.049850L887.362461,291.885955L893.387999,294.964846L911.076249,296.900280L922.763349,297.428143L922.414986,294.847550L916.006964,293.791905L908.052764,291.622063L900.835941,287.751851Z " data-code="Jablunkovská brázda" data-name="Jablunkovská brázda"/><path d="M880.661348,313.927560L882.281044,320.221183L890.906336,320.896083L895.415366,320.866739L903.116465,318.489970L910.489501,314.558344L922.474598,310.157736L937.734680,308.778981L940.164618,305.933621L922.682242,297.486795L911.018297,296.958931L893.466193,294.994170L887.333495,291.885955L874.495653,296.049850L872.788971,290.419907L864.300309,291.651384L855.033314,296.108499L849.790268,299.422359L838.111902,304.906997L832.576408,306.784274L831.047387,309.835044L825.344429,311.067154L823.016619,313.414138L824.873430,317.580380L841.901201,322.832815L856.975826,320.367899L870.684713,323.126267L875.384696,320.749364L877.824449,314.088922L880.661348,313.927560Z " data-code="Dolnomoravský úval" data-name="Dolnomoravský úval"/><path d="M981.668670,259.851882L978.580151,267.469400L985.359616,271.513232L988.539236,279.074698L994.802892,273.623245L998.906424,275.704076L998.502406,272.890587L997.511373,271.806282L989.336027,268.846594L984.315530,258.123530L981.668670,259.851882Z " data-code="Jablunkovské mezihoøí" data-name="Jablunkovské mezihoøí"/><path d="M810.927679,351.263291L801.883128,363.172337L791.003547,365.610331L789.745403,370.721718L788.862139,378.522049L780.657317,379.418213L779.585494,382.048034L771.552463,381.915805L767.111235,377.714046L763.700520,379.183152L762.001465,383.620116L755.940171,386.382401L757.961921,375.459056L754.308328,380.262972L745.757935,395.022859L746.819413,403.429582L743.959637,406.810280L740.165334,409.125445L732.740225,408.265515L726.558887,405.435927L714.900303,395.441694L708.425935,398.292798L701.370825,388.527684L697.826414,386.257507L689.680912,383.223418L685.775269,389.673832L689.719501,398.256056L694.300541,400.078490L698.663918,404.693644L699.728323,418.717868L691.286661,421.070281L702.040207,426.716459L709.915863,429.010373L719.970973,430.392645L727.965153,432.421996L735.833555,447.806037L739.824017,451.924758L743.257887,437.392719L753.085373,418.070972L762.706127,406.839679L770.192062,403.120920L786.430964,406.472201L791.338377,407.016069L794.992719,398.741052L789.469099,394.199896L792.903199,390.070581L796.694731,385.735895L797.793691,380.020561L804.253589,376.421271L808.046773,369.414443L809.800954,363.495438L812.537115,361.263155L817.503970,358.796023L818.191514,354.611015L812.429323,345.361343L810.927679,351.263291Z " data-code="Slezské Beskydy" data-name="Slezské Beskydy"/></g></svg>